ISO-10303-21;
HEADER;
FILE_DESCRIPTION(('STEP AP242'),
    '1');
FILE_NAME('Button',
    '',
    ('UNSPECIFIED'),
    ('UNSPECIFIED'),
    'C3D Converter',
    'C3D Toolkit',
    '');
FILE_SCHEMA(('AP242_MANAGED_MODEL_BASED_3D_ENGINEERING_MIM_LF { 1 0 10303 442 1 1 4 }'));
ENDSEC;

DATA;
#1=PRODUCT_DEFINITION('','UNSPECIFIED',#28,#31);
#2=SHAPE_DEFINITION_REPRESENTATION(#26,#3);
#3=SHAPE_REPRESENTATION('NONE',(#4),#8);
#4=AXIS2_PLACEMENT_3D('',#5,#6,#7);
#5=CARTESIAN_POINT('',(0.,0.,0.));
#6=DIRECTION('',(0.,0.,1.));
#7=DIRECTION('',(1.,0.,0.));
#8=(GEOMETRIC_REPRESENTATION_CONTEXT(3)GLOBAL_UNCERTAINTY_ASSIGNED_CONTEXT((#10))
GLOBAL_UNIT_ASSIGNED_CONTEXT((#9,#11,#12))REPRESENTATION_CONTEXT('NONE','NONE'));
#9=(LENGTH_UNIT()NAMED_UNIT(*)SI_UNIT(.MILLI.,.METRE.));
#10=UNCERTAINTY_MEASURE_WITH_UNIT(LENGTH_MEASURE(1.E-5),#9,'NONE','NONE');
#11=(NAMED_UNIT(*)PLANE_ANGLE_UNIT()SI_UNIT($,.RADIAN.));
#12=(NAMED_UNIT(*)SI_UNIT($,.STERADIAN.)SOLID_ANGLE_UNIT());
#13=MANIFOLD_SOLID_BREP('',#14);
#14=CLOSED_SHELL('',(#53,#54,#55,#56,#57,#58,#59,#60));
#15=COLOUR_RGB('',0.564705882352941,0.564705882352941,0.564705882352941);
#16=FILL_AREA_STYLE_COLOUR('',#15);
#17=FILL_AREA_STYLE($,(#16));
#18=SURFACE_STYLE_FILL_AREA(#17);
#19=SURFACE_SIDE_STYLE('',(#18));
#20=SURFACE_STYLE_USAGE(.BOTH.,#19);
#21=PRESENTATION_STYLE_ASSIGNMENT((#20));
#22=MECHANICAL_DESIGN_GEOMETRIC_PRESENTATION_REPRESENTATION('NONE',(#23),#8);
#23=STYLED_ITEM('',(#21),#13);
#24=ADVANCED_BREP_SHAPE_REPRESENTATION('NONE',(#13),#8);
#25=SHAPE_REPRESENTATION_RELATIONSHIP('','',#3,#24);
#26=PRODUCT_DEFINITION_SHAPE('NONE','NONE',#1);
#27=MECHANICAL_CONTEXT('NONE',#32,'mechanical');
#28=PRODUCT_DEFINITION_FORMATION_WITH_SPECIFIED_SOURCE('ANY','UNSPECIFIED',#29,.NOT_KNOWN.);
#29=PRODUCT('','\X2\0414043504420430043B044C\X0\','NONE',(#27));
#30=PRODUCT_RELATED_PRODUCT_CATEGORY('detail','',(#29));
#31=DESIGN_CONTEXT('detailed design',#32,'design');
#32=APPLICATION_CONTEXT('configuration controlled 3d designs of mechanical parts and assemblies');
#33=APPLICATION_PROTOCOL_DEFINITION('international standard','config_control_design',
1994,#32);
#34=CC_DESIGN_DATE_AND_TIME_ASSIGNMENT(#35,#39,(#1));
#35=DATE_AND_TIME(#36,#37);
#36=CALENDAR_DATE(0,1,1);
#37=LOCAL_TIME(0,0,0.,#38);
#38=COORDINATED_UNIVERSAL_TIME_OFFSET(0,0,.AHEAD.);
#39=DATE_TIME_ROLE('creation_date');
#40=CC_DESIGN_APPROVAL(#41,(#1));
#41=APPROVAL(#42,'UNSPECIFIED');
#42=APPROVAL_STATUS('not_yet_approved');
#43=APPROVAL_DATE_TIME(#44,#41);
#44=DATE_AND_TIME(#45,#46);
#45=CALENDAR_DATE(0,1,1);
#46=LOCAL_TIME(0,0,0.,#47);
#47=COORDINATED_UNIVERSAL_TIME_OFFSET(0,0,.AHEAD.);
#48=PERSON('UNSPECIFIED','ledibonibell','UNSPECIFIED',('UNSPECIFIED'),('UNSPECIFIED'),
('UNSPECIFIED'));
#49=ORGANIZATION('UNSPECIFIED','UNSPECIFIED','UNSPECIFIED');
#50=PERSON_AND_ORGANIZATION(#48,#49);
#51=PERSON_AND_ORGANIZATION_ROLE('creator');
#52=CC_DESIGN_PERSON_AND_ORGANIZATION_ASSIGNMENT(#50,#51,(#28,#1));
#53=ADVANCED_FACE('',(#61,#63),#65,.T.);
#54=ADVANCED_FACE('',(#70,#72),#74,.F.);
#55=ADVANCED_FACE('',(#79),#81,.T.);
#56=ADVANCED_FACE('',(#86,#88),#90,.T.);
#57=ADVANCED_FACE('',(#95),#97,.T.);
#58=ADVANCED_FACE('',(#102,#104),#106,.T.);
#59=ADVANCED_FACE('',(#111,#113),#115,.T.);
#60=ADVANCED_FACE('',(#120,#122),#124,.T.);
#61=FACE_OUTER_BOUND('',#62,.T.);
#62=EDGE_LOOP('',(#129));
#63=FACE_OUTER_BOUND('',#64,.T.);
#64=EDGE_LOOP('',(#130));
#65=CYLINDRICAL_SURFACE('',#66,2.8);
#66=AXIS2_PLACEMENT_3D('',#67,#68,#69);
#67=CARTESIAN_POINT('',(0.,0.,0.));
#68=DIRECTION('',(0.,1.,6.12323399573677E-17));
#69=DIRECTION('',(6.12323399573677E-17,6.12323399573677E-17,-1.));
#70=FACE_BOUND('',#71,.T.);
#71=EDGE_LOOP('',(#131));
#72=FACE_BOUND('',#73,.T.);
#73=EDGE_LOOP('',(#132));
#74=PLANE('',#75);
#75=AXIS2_PLACEMENT_3D('',#76,#77,#78);
#76=CARTESIAN_POINT('',(0.,0.,0.));
#77=DIRECTION('',(0.,-1.,-6.12323399573677E-17));
#78=DIRECTION('',(6.12323399573677E-17,6.12323399573677E-17,-1.));
#79=FACE_BOUND('',#80,.T.);
#80=EDGE_LOOP('',(#133));
#81=PLANE('',#82);
#82=AXIS2_PLACEMENT_3D('',#83,#84,#85);
#83=CARTESIAN_POINT('',(0.,11.,6.73555739531044E-16));
#84=DIRECTION('',(0.,1.,6.12323399573677E-17));
#85=DIRECTION('',(6.12323399573677E-17,6.12323399573677E-17,-1.));
#86=FACE_OUTER_BOUND('',#87,.T.);
#87=EDGE_LOOP('',(#134));
#88=FACE_OUTER_BOUND('',#89,.T.);
#89=EDGE_LOOP('',(#135));
#90=CYLINDRICAL_SURFACE('',#91,5.);
#91=AXIS2_PLACEMENT_3D('',#92,#93,#94);
#92=CARTESIAN_POINT('',(0.,0.,0.));
#93=DIRECTION('',(0.,-1.,-6.12323399573677E-17));
#94=DIRECTION('',(6.12323399573677E-17,6.12323399573677E-17,-1.));
#95=FACE_BOUND('',#96,.T.);
#96=EDGE_LOOP('',(#136));
#97=PLANE('',#98);
#98=AXIS2_PLACEMENT_3D('',#99,#100,#101);
#99=CARTESIAN_POINT('',(0.,-1.4,-8.57252759403147E-17));
#100=DIRECTION('',(0.,-1.,-6.12323399573677E-17));
#101=DIRECTION('',(6.12323399573677E-17,6.12323399573677E-17,-1.));
#102=FACE_OUTER_BOUND('',#103,.T.);
#103=EDGE_LOOP('',(#137));
#104=FACE_OUTER_BOUND('',#105,.T.);
#105=EDGE_LOOP('',(#138));
#106=TOROIDAL_SURFACE('',#107,2.,0.8);
#107=AXIS2_PLACEMENT_3D('',#108,#109,#110);
#108=CARTESIAN_POINT('',(0.,10.2,6.2456986756515E-16));
#109=DIRECTION('',(0.,1.,6.12323399573677E-17));
#110=DIRECTION('',(6.12323399573677E-17,6.12323399573677E-17,-1.));
#111=FACE_OUTER_BOUND('',#112,.T.);
#112=EDGE_LOOP('',(#139));
#113=FACE_OUTER_BOUND('',#114,.T.);
#114=EDGE_LOOP('',(#140));
#115=CONICAL_SURFACE('',#116,4.8,0.785398163397449);
#116=AXIS2_PLACEMENT_3D('',#117,#118,#119);
#117=CARTESIAN_POINT('',(0.,-0.2,-1.22464679914735E-17));
#118=DIRECTION('',(0.,-1.,-6.12323399573677E-17));
#119=DIRECTION('',(6.12323399573677E-17,6.12323399573677E-17,-1.));
#120=FACE_OUTER_BOUND('',#121,.T.);
#121=EDGE_LOOP('',(#141));
#122=FACE_OUTER_BOUND('',#123,.T.);
#123=EDGE_LOOP('',(#142));
#124=CONICAL_SURFACE('',#125,4.8,0.785398163397449);
#125=AXIS2_PLACEMENT_3D('',#126,#127,#128);
#126=CARTESIAN_POINT('',(0.,-1.2,-7.34788079488412E-17));
#127=DIRECTION('',(0.,1.,6.12323399573677E-17));
#128=DIRECTION('',(-6.12323399573677E-17,-6.12323399573677E-17,1.));
#129=ORIENTED_EDGE('',*,*,#143,.F.);
#130=ORIENTED_EDGE('',*,*,#144,.F.);
#131=ORIENTED_EDGE('',*,*,#145,.F.);
#132=ORIENTED_EDGE('',*,*,#144,.T.);
#133=ORIENTED_EDGE('',*,*,#146,.T.);
#134=ORIENTED_EDGE('',*,*,#147,.T.);
#135=ORIENTED_EDGE('',*,*,#148,.F.);
#136=ORIENTED_EDGE('',*,*,#149,.T.);
#137=ORIENTED_EDGE('',*,*,#146,.F.);
#138=ORIENTED_EDGE('',*,*,#143,.T.);
#139=ORIENTED_EDGE('',*,*,#145,.T.);
#140=ORIENTED_EDGE('',*,*,#147,.F.);
#141=ORIENTED_EDGE('',*,*,#148,.T.);
#142=ORIENTED_EDGE('',*,*,#149,.F.);
#143=EDGE_CURVE('',#150,#150,#151,.T.);
#144=EDGE_CURVE('',#152,#152,#153,.F.);
#145=EDGE_CURVE('',#154,#154,#155,.T.);
#146=EDGE_CURVE('',#156,#156,#157,.T.);
#147=EDGE_CURVE('',#158,#158,#159,.T.);
#148=EDGE_CURVE('',#160,#160,#161,.T.);
#149=EDGE_CURVE('',#162,#162,#163,.T.);
#150=VERTEX_POINT('',#164);
#151=CIRCLE('',#165,2.8);
#152=VERTEX_POINT('',#169);
#153=CIRCLE('',#170,2.8);
#154=VERTEX_POINT('',#174);
#155=CIRCLE('',#175,4.6);
#156=VERTEX_POINT('',#179);
#157=CIRCLE('',#180,2.);
#158=VERTEX_POINT('',#184);
#159=CIRCLE('',#185,5.);
#160=VERTEX_POINT('',#189);
#161=CIRCLE('',#190,5.);
#162=VERTEX_POINT('',#194);
#163=CIRCLE('',#195,4.6);
#164=CARTESIAN_POINT('',(5.14351655641888E-16,10.2,-2.8));
#165=AXIS2_PLACEMENT_3D('',#166,#167,#168);
#166=CARTESIAN_POINT('',(0.,10.2,6.2456986756515E-16));
#167=DIRECTION('',(0.,1.,6.12323399573677E-17));
#168=DIRECTION('',(6.12323399573677E-17,6.12323399573677E-17,-1.));
#169=CARTESIAN_POINT('',(5.14351655641888E-16,1.71450551880629E-16,-2.8));
#170=AXIS2_PLACEMENT_3D('',#171,#172,#173);
#171=CARTESIAN_POINT('',(0.,0.,0.));
#172=DIRECTION('',(0.,1.,6.12323399573677E-17));
#173=DIRECTION('',(6.12323399573677E-17,6.12323399573677E-17,-1.));
#174=CARTESIAN_POINT('',(-2.81668763803891E-16,2.41919324551318E-16,-4.6));
#175=AXIS2_PLACEMENT_3D('',#176,#177,#178);
#176=CARTESIAN_POINT('',(0.,0.,0.));
#177=DIRECTION('',(0.,-1.,-6.12323399573677E-17));
#178=DIRECTION('',(6.12323399573677E-17,6.12323399573677E-17,-1.));
#179=CARTESIAN_POINT('',(3.67394039744206E-16,11.,-2.));
#180=AXIS2_PLACEMENT_3D('',#181,#182,#183);
#181=CARTESIAN_POINT('',(-5.47382212626882E-48,11.,6.73555739531044E-16));
#182=DIRECTION('',(0.,1.,6.12323399573677E-17));
#183=DIRECTION('',(6.12323399573677E-17,6.12323399573677E-17,-1.));
#184=CARTESIAN_POINT('',(-8.61273212099417E-16,-0.4,-5.));
#185=AXIS2_PLACEMENT_3D('',#186,#187,#188);
#186=CARTESIAN_POINT('',(0.,-0.4,-2.44929359829471E-17));
#187=DIRECTION('',(0.,-1.,-6.12323399573677E-17));
#188=DIRECTION('',(6.12323399573677E-17,6.12323399573677E-17,-1.));
#189=CARTESIAN_POINT('',(-3.06161699786838E-16,-1.,-5.));
#190=AXIS2_PLACEMENT_3D('',#191,#192,#193);
#191=CARTESIAN_POINT('',(0.,-1.,-6.12323399573677E-17));
#192=DIRECTION('',(0.,-1.,-6.12323399573677E-17));
#193=DIRECTION('',(6.12323399573677E-17,6.12323399573677E-17,-1.));
#194=CARTESIAN_POINT('',(-2.81668763803891E-16,-1.4,-4.6));
#195=AXIS2_PLACEMENT_3D('',#196,#197,#198);
#196=CARTESIAN_POINT('',(0.,-1.4,-8.57252759403147E-17));
#197=DIRECTION('',(0.,-1.,-6.12323399573677E-17));
#198=DIRECTION('',(6.12323399573677E-17,6.12323399573677E-17,-1.));
ENDSEC;
END-ISO-10303-21;
