ISO-10303-21;
HEADER;
FILE_DESCRIPTION(('STEP AP242'),
    '1');
FILE_NAME('ControlHolderDown',
    '',
    ('UNSPECIFIED'),
    ('UNSPECIFIED'),
    'C3D Converter',
    'C3D Toolkit',
    '');
FILE_SCHEMA(('AP242_MANAGED_MODEL_BASED_3D_ENGINEERING_MIM_LF { 1 0 10303 442 1 1 4 }'));
ENDSEC;

DATA;
#1=PRODUCT_DEFINITION('','UNSPECIFIED',#28,#31);
#2=SHAPE_DEFINITION_REPRESENTATION(#26,#3);
#3=SHAPE_REPRESENTATION('NONE',(#4),#8);
#4=AXIS2_PLACEMENT_3D('',#5,#6,#7);
#5=CARTESIAN_POINT('',(0.,0.,0.));
#6=DIRECTION('',(0.,0.,1.));
#7=DIRECTION('',(1.,0.,0.));
#8=(GEOMETRIC_REPRESENTATION_CONTEXT(3)GLOBAL_UNCERTAINTY_ASSIGNED_CONTEXT((#10))
GLOBAL_UNIT_ASSIGNED_CONTEXT((#9,#11,#12))REPRESENTATION_CONTEXT('NONE','NONE'));
#9=(LENGTH_UNIT()NAMED_UNIT(*)SI_UNIT(.MILLI.,.METRE.));
#10=UNCERTAINTY_MEASURE_WITH_UNIT(LENGTH_MEASURE(1.E-5),#9,'NONE','NONE');
#11=(NAMED_UNIT(*)PLANE_ANGLE_UNIT()SI_UNIT($,.RADIAN.));
#12=(NAMED_UNIT(*)SI_UNIT($,.STERADIAN.)SOLID_ANGLE_UNIT());
#13=MANIFOLD_SOLID_BREP('',#14);
#14=CLOSED_SHELL('',(#53,#54,#55,#56,#57,#58,#59,#60,#61,#62,#63,#64,#65,#66,#67,
#68,#69,#70,#71,#72,#73,#74,#75,#76,#77,#78,#79,#80,#81,#82,#83,#84,#85,#86,#87,
#88,#89,#90,#91,#92,#93,#94,#95,#96));
#15=COLOUR_RGB('',0.564705882352941,0.564705882352941,0.564705882352941);
#16=FILL_AREA_STYLE_COLOUR('',#15);
#17=FILL_AREA_STYLE($,(#16));
#18=SURFACE_STYLE_FILL_AREA(#17);
#19=SURFACE_SIDE_STYLE('',(#18));
#20=SURFACE_STYLE_USAGE(.BOTH.,#19);
#21=PRESENTATION_STYLE_ASSIGNMENT((#20));
#22=MECHANICAL_DESIGN_GEOMETRIC_PRESENTATION_REPRESENTATION('NONE',(#23),#8);
#23=STYLED_ITEM('',(#21),#13);
#24=ADVANCED_BREP_SHAPE_REPRESENTATION('NONE',(#13),#8);
#25=SHAPE_REPRESENTATION_RELATIONSHIP('','',#3,#24);
#26=PRODUCT_DEFINITION_SHAPE('NONE','NONE',#1);
#27=MECHANICAL_CONTEXT('NONE',#32,'mechanical');
#28=PRODUCT_DEFINITION_FORMATION_WITH_SPECIFIED_SOURCE('ANY','UNSPECIFIED',#29,.NOT_KNOWN.);
#29=PRODUCT('','\X2\0414043504420430043B044C\X0\','NONE',(#27));
#30=PRODUCT_RELATED_PRODUCT_CATEGORY('detail','',(#29));
#31=DESIGN_CONTEXT('detailed design',#32,'design');
#32=APPLICATION_CONTEXT('configuration controlled 3d designs of mechanical parts and assemblies');
#33=APPLICATION_PROTOCOL_DEFINITION('international standard','config_control_design',
1994,#32);
#34=CC_DESIGN_DATE_AND_TIME_ASSIGNMENT(#35,#39,(#1));
#35=DATE_AND_TIME(#36,#37);
#36=CALENDAR_DATE(0,1,1);
#37=LOCAL_TIME(0,0,0.,#38);
#38=COORDINATED_UNIVERSAL_TIME_OFFSET(0,0,.AHEAD.);
#39=DATE_TIME_ROLE('creation_date');
#40=CC_DESIGN_APPROVAL(#41,(#1));
#41=APPROVAL(#42,'UNSPECIFIED');
#42=APPROVAL_STATUS('not_yet_approved');
#43=APPROVAL_DATE_TIME(#44,#41);
#44=DATE_AND_TIME(#45,#46);
#45=CALENDAR_DATE(0,1,1);
#46=LOCAL_TIME(0,0,0.,#47);
#47=COORDINATED_UNIVERSAL_TIME_OFFSET(0,0,.AHEAD.);
#48=PERSON('UNSPECIFIED','sakurelle','UNSPECIFIED',('UNSPECIFIED'),('UNSPECIFIED'),
('UNSPECIFIED'));
#49=ORGANIZATION('UNSPECIFIED','UNSPECIFIED','UNSPECIFIED');
#50=PERSON_AND_ORGANIZATION(#48,#49);
#51=PERSON_AND_ORGANIZATION_ROLE('creator');
#52=CC_DESIGN_PERSON_AND_ORGANIZATION_ASSIGNMENT(#50,#51,(#28,#1));
#53=ADVANCED_FACE('',(#97),#99,.T.);
#54=ADVANCED_FACE('',(#104),#106,.T.);
#55=ADVANCED_FACE('',(#111),#113,.T.);
#56=ADVANCED_FACE('',(#118),#120,.T.);
#57=ADVANCED_FACE('',(#125),#127,.T.);
#58=ADVANCED_FACE('',(#132),#134,.F.);
#59=ADVANCED_FACE('',(#139,#141,#143,#145,#147),#149,.F.);
#60=ADVANCED_FACE('',(#154),#156,.F.);
#61=ADVANCED_FACE('',(#161),#163,.F.);
#62=ADVANCED_FACE('',(#168),#170,.T.);
#63=ADVANCED_FACE('',(#175),#177,.T.);
#64=ADVANCED_FACE('',(#182),#184,.T.);
#65=ADVANCED_FACE('',(#189),#191,.T.);
#66=ADVANCED_FACE('',(#196),#198,.F.);
#67=ADVANCED_FACE('',(#203),#205,.T.);
#68=ADVANCED_FACE('',(#210),#212,.F.);
#69=ADVANCED_FACE('',(#217),#219,.T.);
#70=ADVANCED_FACE('',(#224),#226,.T.);
#71=ADVANCED_FACE('',(#231),#233,.T.);
#72=ADVANCED_FACE('',(#238),#240,.T.);
#73=ADVANCED_FACE('',(#245),#247,.T.);
#74=ADVANCED_FACE('',(#252),#254,.T.);
#75=ADVANCED_FACE('',(#259,#261),#263,.F.);
#76=ADVANCED_FACE('',(#268,#270),#272,.F.);
#77=ADVANCED_FACE('',(#277,#279),#281,.F.);
#78=ADVANCED_FACE('',(#286,#288),#290,.F.);
#79=ADVANCED_FACE('',(#295),#297,.T.);
#80=ADVANCED_FACE('',(#302,#304,#306,#308,#310),#312,.T.);
#81=ADVANCED_FACE('',(#317),#319,.T.);
#82=ADVANCED_FACE('',(#324),#326,.T.);
#83=ADVANCED_FACE('',(#331),#333,.T.);
#84=ADVANCED_FACE('',(#338),#340,.T.);
#85=ADVANCED_FACE('',(#345),#347,.T.);
#86=ADVANCED_FACE('',(#352),#354,.T.);
#87=ADVANCED_FACE('',(#359,#361),#363,.T.);
#88=ADVANCED_FACE('',(#368,#370),#372,.T.);
#89=ADVANCED_FACE('',(#377,#379),#381,.T.);
#90=ADVANCED_FACE('',(#386,#388),#390,.T.);
#91=ADVANCED_FACE('',(#395,#397),#399,.F.);
#92=ADVANCED_FACE('',(#404,#406),#408,.F.);
#93=ADVANCED_FACE('',(#413,#415),#417,.F.);
#94=ADVANCED_FACE('',(#422,#424),#426,.F.);
#95=ADVANCED_FACE('',(#431),#433,.T.);
#96=ADVANCED_FACE('',(#438),#440,.T.);
#97=FACE_BOUND('',#98,.T.);
#98=EDGE_LOOP('',(#445,#446,#447,#448,#449,#450,#451,#452,#453,#454));
#99=PLANE('',#100);
#100=AXIS2_PLACEMENT_3D('',#101,#102,#103);
#101=CARTESIAN_POINT('',(25.,-2.14313189850787E-15,35.));
#102=DIRECTION('',(0.,0.,-1.));
#103=DIRECTION('',(-1.,0.,0.));
#104=FACE_BOUND('',#105,.T.);
#105=EDGE_LOOP('',(#455,#456,#457,#458,#459,#460,#461,#462,#463,#464));
#106=PLANE('',#107);
#107=AXIS2_PLACEMENT_3D('',#108,#109,#110);
#108=CARTESIAN_POINT('',(-27.,-2.2655965784226E-15,37.));
#109=DIRECTION('',(1.31581988103722E-16,1.51929083932157E-64,1.));
#110=DIRECTION('',(1.,7.3042676409353E-33,-1.31581988103722E-16));
#111=FACE_BOUND('',#112,.T.);
#112=EDGE_LOOP('',(#465,#466,#467,#468,#469,#470,#471,#472,#473,#474,#475,#476,#477,
#478,#479,#480,#481,#482,#483,#484));
#113=PLANE('',#114);
#114=AXIS2_PLACEMENT_3D('',#115,#116,#117);
#115=CARTESIAN_POINT('',(0.,3.6,2.20436423846524E-16));
#116=DIRECTION('',(0.,1.,6.12323399573677E-17));
#117=DIRECTION('',(6.12323399573677E-17,6.12323399573677E-17,-1.));
#118=FACE_BOUND('',#119,.T.);
#119=EDGE_LOOP('',(#485,#486,#487,#488));
#120=PLANE('',#121);
#121=AXIS2_PLACEMENT_3D('',#122,#123,#124);
#122=CARTESIAN_POINT('',(3.,3.6,34.));
#123=DIRECTION('',(1.,-1.11022302462516E-16,-1.48029736616688E-16));
#124=DIRECTION('',(1.11022302462516E-16,1.,0.));
#125=FACE_BOUND('',#126,.T.);
#126=EDGE_LOOP('',(#489,#490,#491,#492));
#127=PLANE('',#128);
#128=AXIS2_PLACEMENT_3D('',#129,#130,#131);
#129=CARTESIAN_POINT('',(-3.,7.6,34.));
#130=DIRECTION('',(-1.,1.11022302462516E-16,1.48029736616688E-16));
#131=DIRECTION('',(-1.11022302462516E-16,-1.,0.));
#132=FACE_BOUND('',#133,.T.);
#133=EDGE_LOOP('',(#493,#494,#495,#496));
#134=CYLINDRICAL_SURFACE('',#135,0.5);
#135=AXIS2_PLACEMENT_3D('',#136,#137,#138);
#136=CARTESIAN_POINT('',(25.,-1.,35.));
#137=DIRECTION('',(0.,1.,6.12323399573677E-17));
#138=DIRECTION('',(6.12323399573677E-17,-6.12323399573677E-17,1.));
#139=FACE_BOUND('',#140,.T.);
#140=EDGE_LOOP('',(#497,#498,#499,#500,#501,#502,#503,#504));
#141=FACE_BOUND('',#142,.T.);
#142=EDGE_LOOP('',(#505));
#143=FACE_BOUND('',#144,.T.);
#144=EDGE_LOOP('',(#506));
#145=FACE_BOUND('',#146,.T.);
#146=EDGE_LOOP('',(#507));
#147=FACE_BOUND('',#148,.T.);
#148=EDGE_LOOP('',(#508));
#149=PLANE('',#150);
#150=AXIS2_PLACEMENT_3D('',#151,#152,#153);
#151=CARTESIAN_POINT('',(0.,0.,0.));
#152=DIRECTION('',(0.,-1.,-6.12323399573677E-17));
#153=DIRECTION('',(6.12323399573677E-17,6.12323399573677E-17,-1.));
#154=FACE_BOUND('',#155,.T.);
#155=EDGE_LOOP('',(#509,#510,#511,#512));
#156=CYLINDRICAL_SURFACE('',#157,0.5);
#157=AXIS2_PLACEMENT_3D('',#158,#159,#160);
#158=CARTESIAN_POINT('',(-25.,-1.,35.));
#159=DIRECTION('',(0.,1.,6.12323399573677E-17));
#160=DIRECTION('',(6.12323399573677E-17,-6.12323399573677E-17,1.));
#161=FACE_BOUND('',#162,.T.);
#162=EDGE_LOOP('',(#513,#514,#515,#516));
#163=CYLINDRICAL_SURFACE('',#164,3.);
#164=AXIS2_PLACEMENT_3D('',#165,#166,#167);
#165=CARTESIAN_POINT('',(-5.8921597851087E-17,7.6,34.));
#166=DIRECTION('',(-1.31581988103722E-16,-1.51929083932157E-64,-1.));
#167=DIRECTION('',(1.,-1.99911309145705E-80,-1.31581988103722E-16));
#168=FACE_BOUND('',#169,.T.);
#169=EDGE_LOOP('',(#517,#518,#519,#520));
#170=PLANE('',#171);
#171=AXIS2_PLACEMENT_3D('',#172,#173,#174);
#172=CARTESIAN_POINT('',(25.25,-2.6,37.));
#173=DIRECTION('',(9.94910072829327E-17,-0.707106781186544,0.707106781186551));
#174=DIRECTION('',(-1.,1.1045720702866E-32,1.40701531833683E-16));
#175=FACE_BOUND('',#176,.T.);
#176=EDGE_LOOP('',(#521,#522,#523,#524));
#177=CYLINDRICAL_SURFACE('',#178,4.15);
#178=AXIS2_PLACEMENT_3D('',#179,#180,#181);
#179=CARTESIAN_POINT('',(22.85,-19.8,32.85));
#180=DIRECTION('',(0.,-1.,0.));
#181=DIRECTION('',(1.,0.,1.71215117050627E-15));
#182=FACE_BOUND('',#183,.T.);
#183=EDGE_LOOP('',(#525,#526,#527,#528));
#184=CYLINDRICAL_SURFACE('',#185,4.15);
#185=AXIS2_PLACEMENT_3D('',#186,#187,#188);
#186=CARTESIAN_POINT('',(-22.85,-19.8,32.85));
#187=DIRECTION('',(0.,-1.,0.));
#188=DIRECTION('',(8.5607558525313E-16,0.,1.));
#189=FACE_BOUND('',#190,.T.);
#190=EDGE_LOOP('',(#529,#530,#531,#532));
#191=PLANE('',#192);
#192=AXIS2_PLACEMENT_3D('',#193,#194,#195);
#193=CARTESIAN_POINT('',(-25.,-2.14313189850787E-15,35.));
#194=DIRECTION('',(1.,0.,0.));
#195=DIRECTION('',(0.,6.12323399573677E-17,-1.));
#196=FACE_BOUND('',#197,.T.);
#197=EDGE_LOOP('',(#533,#534,#535,#536));
#198=CYLINDRICAL_SURFACE('',#199,0.5);
#199=AXIS2_PLACEMENT_3D('',#200,#201,#202);
#200=CARTESIAN_POINT('',(-25.,-1.,-35.));
#201=DIRECTION('',(0.,1.,6.12323399573677E-17));
#202=DIRECTION('',(6.12323399573677E-17,-6.12323399573677E-17,1.));
#203=FACE_BOUND('',#204,.T.);
#204=EDGE_LOOP('',(#537,#538,#539,#540));
#205=PLANE('',#206);
#206=AXIS2_PLACEMENT_3D('',#207,#208,#209);
#207=CARTESIAN_POINT('',(-25.,2.14313189850787E-15,-35.));
#208=DIRECTION('',(0.,0.,1.));
#209=DIRECTION('',(1.,0.,0.));
#210=FACE_BOUND('',#211,.T.);
#211=EDGE_LOOP('',(#541,#542,#543,#544));
#212=CYLINDRICAL_SURFACE('',#213,0.5);
#213=AXIS2_PLACEMENT_3D('',#214,#215,#216);
#214=CARTESIAN_POINT('',(25.,-1.,-35.));
#215=DIRECTION('',(0.,1.,6.12323399573677E-17));
#216=DIRECTION('',(6.12323399573677E-17,-6.12323399573677E-17,1.));
#217=FACE_BOUND('',#218,.T.);
#218=EDGE_LOOP('',(#545,#546,#547,#548));
#219=PLANE('',#220);
#220=AXIS2_PLACEMENT_3D('',#221,#222,#223);
#221=CARTESIAN_POINT('',(25.,2.14313189850787E-15,-35.));
#222=DIRECTION('',(-1.,0.,-1.01506105108586E-16));
#223=DIRECTION('',(-1.01506105108586E-16,-6.12323399573677E-17,1.));
#224=FACE_BOUND('',#225,.T.);
#225=EDGE_LOOP('',(#549,#550,#551,#552));
#226=PLANE('',#227);
#227=AXIS2_PLACEMENT_3D('',#228,#229,#230);
#228=CARTESIAN_POINT('',(27.,-2.2655965784226E-15,37.));
#229=DIRECTION('',(1.,0.,1.44028932924345E-16));
#230=DIRECTION('',(1.44028932924345E-16,6.12323399573677E-17,-1.));
#231=FACE_BOUND('',#232,.T.);
#232=EDGE_LOOP('',(#553,#554,#555,#556));
#233=CYLINDRICAL_SURFACE('',#234,4.15);
#234=AXIS2_PLACEMENT_3D('',#235,#236,#237);
#235=CARTESIAN_POINT('',(22.85,-19.8,-32.85));
#236=DIRECTION('',(0.,-1.,0.));
#237=DIRECTION('',(-8.5607558525313E-16,0.,-1.));
#238=FACE_BOUND('',#239,.T.);
#239=EDGE_LOOP('',(#557,#558,#559,#560));
#240=PLANE('',#241);
#241=AXIS2_PLACEMENT_3D('',#242,#243,#244);
#242=CARTESIAN_POINT('',(27.,2.2655965784226E-15,-37.));
#243=DIRECTION('',(-1.31581988103722E-16,0.,-1.));
#244=DIRECTION('',(-1.,-7.3042676409353E-33,1.31581988103722E-16));
#245=FACE_BOUND('',#246,.T.);
#246=EDGE_LOOP('',(#561,#562,#563,#564));
#247=CYLINDRICAL_SURFACE('',#248,4.15);
#248=AXIS2_PLACEMENT_3D('',#249,#250,#251);
#249=CARTESIAN_POINT('',(-22.85,-19.8,-32.85));
#250=DIRECTION('',(0.,-1.,0.));
#251=DIRECTION('',(-1.,0.,-1.71215117050626E-15));
#252=FACE_BOUND('',#253,.T.);
#253=EDGE_LOOP('',(#565,#566,#567,#568));
#254=PLANE('',#255);
#255=AXIS2_PLACEMENT_3D('',#256,#257,#258);
#256=CARTESIAN_POINT('',(-27.,2.2655965784226E-15,-37.));
#257=DIRECTION('',(-1.,-3.42113882891801E-49,-4.80096443081149E-17));
#258=DIRECTION('',(-4.80096443081149E-17,-6.12323399573677E-17,1.));
#259=FACE_OUTER_BOUND('',#260,.T.);
#260=EDGE_LOOP('',(#569));
#261=FACE_OUTER_BOUND('',#262,.T.);
#262=EDGE_LOOP('',(#570));
#263=CYLINDRICAL_SURFACE('',#264,1.4);
#264=AXIS2_PLACEMENT_3D('',#265,#266,#267);
#265=CARTESIAN_POINT('',(-22.85,-10.,32.85));
#266=DIRECTION('',(0.,1.,6.12323399573677E-17));
#267=DIRECTION('',(6.12323399573676E-17,6.12323399573676E-17,-1.));
#268=FACE_OUTER_BOUND('',#269,.T.);
#269=EDGE_LOOP('',(#571));
#270=FACE_OUTER_BOUND('',#271,.T.);
#271=EDGE_LOOP('',(#572));
#272=CYLINDRICAL_SURFACE('',#273,1.4);
#273=AXIS2_PLACEMENT_3D('',#274,#275,#276);
#274=CARTESIAN_POINT('',(-22.85,-10.,-32.85));
#275=DIRECTION('',(0.,1.,6.12323399573677E-17));
#276=DIRECTION('',(6.12323399573676E-17,6.12323399573676E-17,-1.));
#277=FACE_OUTER_BOUND('',#278,.T.);
#278=EDGE_LOOP('',(#573));
#279=FACE_OUTER_BOUND('',#280,.T.);
#280=EDGE_LOOP('',(#574));
#281=CYLINDRICAL_SURFACE('',#282,1.4);
#282=AXIS2_PLACEMENT_3D('',#283,#284,#285);
#283=CARTESIAN_POINT('',(22.85,-10.,32.85));
#284=DIRECTION('',(0.,1.,6.12323399573677E-17));
#285=DIRECTION('',(6.12323399573676E-17,6.12323399573676E-17,-1.));
#286=FACE_OUTER_BOUND('',#287,.T.);
#287=EDGE_LOOP('',(#575));
#288=FACE_OUTER_BOUND('',#289,.T.);
#289=EDGE_LOOP('',(#576));
#290=CYLINDRICAL_SURFACE('',#291,1.4);
#291=AXIS2_PLACEMENT_3D('',#292,#293,#294);
#292=CARTESIAN_POINT('',(22.85,-10.,-32.85));
#293=DIRECTION('',(0.,1.,6.12323399573677E-17));
#294=DIRECTION('',(6.12323399573676E-17,6.12323399573676E-17,-1.));
#295=FACE_BOUND('',#296,.T.);
#296=EDGE_LOOP('',(#577,#578,#579,#580));
#297=CONICAL_SURFACE('',#298,3.85,0.785398163397451);
#298=AXIS2_PLACEMENT_3D('',#299,#300,#301);
#299=CARTESIAN_POINT('',(-22.85,-2.9,32.85));
#300=DIRECTION('',(0.,1.,6.12323399573677E-17));
#301=DIRECTION('',(-0.33162749216557,5.77672270983822E-17,-0.943410412514074));
#302=FACE_BOUND('',#303,.T.);
#303=EDGE_LOOP('',(#581,#582,#583,#584,#585,#586,#587,#588));
#304=FACE_BOUND('',#305,.T.);
#305=EDGE_LOOP('',(#589));
#306=FACE_BOUND('',#307,.T.);
#307=EDGE_LOOP('',(#590));
#308=FACE_BOUND('',#309,.T.);
#309=EDGE_LOOP('',(#591));
#310=FACE_BOUND('',#311,.T.);
#311=EDGE_LOOP('',(#592));
#312=PLANE('',#313);
#313=AXIS2_PLACEMENT_3D('',#314,#315,#316);
#314=CARTESIAN_POINT('',(0.,-3.2,-1.95943487863577E-16));
#315=DIRECTION('',(0.,-1.,-6.12323399573677E-17));
#316=DIRECTION('',(6.12323399573677E-17,6.12323399573677E-17,-1.));
#317=FACE_BOUND('',#318,.T.);
#318=EDGE_LOOP('',(#593,#594,#595,#596));
#319=CONICAL_SURFACE('',#320,3.85,0.78539816339745);
#320=AXIS2_PLACEMENT_3D('',#321,#322,#323);
#321=CARTESIAN_POINT('',(22.85,-2.9,32.85));
#322=DIRECTION('',(-3.08148791101958E-33,1.,6.12323399573677E-17));
#323=DIRECTION('',(-0.943410412514075,-2.03063273394912E-17,0.331627492165565));
#324=FACE_BOUND('',#325,.T.);
#325=EDGE_LOOP('',(#597,#598,#599,#600));
#326=PLANE('',#327);
#327=AXIS2_PLACEMENT_3D('',#328,#329,#330);
#328=CARTESIAN_POINT('',(27.,-2.6,-35.25));
#329=DIRECTION('',(0.707106781186547,-0.707106781186549,6.23582820470149E-17));
#330=DIRECTION('',(-1.51179305480872E-16,-6.29913772836968E-17,1.));
#331=FACE_BOUND('',#332,.T.);
#332=EDGE_LOOP('',(#601,#602,#603,#604));
#333=CONICAL_SURFACE('',#334,3.85,0.78539816339745);
#334=AXIS2_PLACEMENT_3D('',#335,#336,#337);
#335=CARTESIAN_POINT('',(22.85,-2.9,-32.85));
#336=DIRECTION('',(0.,1.,6.12323399573677E-17));
#337=DIRECTION('',(0.331627492165569,-5.77672270983823E-17,0.943410412514074));
#338=FACE_BOUND('',#339,.T.);
#339=EDGE_LOOP('',(#605,#606,#607,#608));
#340=PLANE('',#341);
#341=AXIS2_PLACEMENT_3D('',#342,#343,#344);
#342=CARTESIAN_POINT('',(-25.25,-2.6,-37.));
#343=DIRECTION('',(-9.94910072829327E-17,-0.707106781186544,-0.707106781186551));
#344=DIRECTION('',(1.,-1.1045720702866E-32,-1.40701531833683E-16));
#345=FACE_BOUND('',#346,.T.);
#346=EDGE_LOOP('',(#609,#610,#611,#612));
#347=CONICAL_SURFACE('',#348,3.85,0.785398163397452);
#348=AXIS2_PLACEMENT_3D('',#349,#350,#351);
#349=CARTESIAN_POINT('',(-22.85,-2.9,-32.85));
#350=DIRECTION('',(-3.08148791101958E-33,1.,6.12323399573677E-17));
#351=DIRECTION('',(0.943410412514075,2.03063273394912E-17,-0.331627492165565));
#352=FACE_BOUND('',#353,.T.);
#353=EDGE_LOOP('',(#613,#614,#615,#616));
#354=PLANE('',#355);
#355=AXIS2_PLACEMENT_3D('',#356,#357,#358);
#356=CARTESIAN_POINT('',(-27.,-2.6,35.25));
#357=DIRECTION('',(-0.707106781186546,-0.707106781186549,-8.01749340604481E-17));
#358=DIRECTION('',(5.03931018269574E-17,6.29913772836968E-17,-1.));
#359=FACE_BOUND('',#360,.T.);
#360=EDGE_LOOP('',(#617));
#361=FACE_BOUND('',#362,.T.);
#362=EDGE_LOOP('',(#618));
#363=PLANE('',#364);
#364=AXIS2_PLACEMENT_3D('',#365,#366,#367);
#365=CARTESIAN_POINT('',(0.,-0.8,-4.89858719658941E-17));
#366=DIRECTION('',(0.,-1.,-6.12323399573677E-17));
#367=DIRECTION('',(6.12323399573677E-17,-6.12323399573677E-17,1.));
#368=FACE_BOUND('',#369,.T.);
#369=EDGE_LOOP('',(#619));
#370=FACE_BOUND('',#371,.T.);
#371=EDGE_LOOP('',(#620));
#372=PLANE('',#373);
#373=AXIS2_PLACEMENT_3D('',#374,#375,#376);
#374=CARTESIAN_POINT('',(0.,-0.8,-4.89858719658941E-17));
#375=DIRECTION('',(0.,-1.,-6.12323399573677E-17));
#376=DIRECTION('',(6.12323399573677E-17,-6.12323399573677E-17,1.));
#377=FACE_BOUND('',#378,.T.);
#378=EDGE_LOOP('',(#621));
#379=FACE_BOUND('',#380,.T.);
#380=EDGE_LOOP('',(#622));
#381=PLANE('',#382);
#382=AXIS2_PLACEMENT_3D('',#383,#384,#385);
#383=CARTESIAN_POINT('',(0.,-0.8,-4.89858719658941E-17));
#384=DIRECTION('',(0.,-1.,-6.12323399573677E-17));
#385=DIRECTION('',(6.12323399573677E-17,-6.12323399573677E-17,1.));
#386=FACE_BOUND('',#387,.T.);
#387=EDGE_LOOP('',(#623));
#388=FACE_BOUND('',#389,.T.);
#389=EDGE_LOOP('',(#624));
#390=PLANE('',#391);
#391=AXIS2_PLACEMENT_3D('',#392,#393,#394);
#392=CARTESIAN_POINT('',(0.,-0.8,-4.89858719658941E-17));
#393=DIRECTION('',(0.,-1.,-6.12323399573677E-17));
#394=DIRECTION('',(6.12323399573677E-17,-6.12323399573677E-17,1.));
#395=FACE_OUTER_BOUND('',#396,.T.);
#396=EDGE_LOOP('',(#625));
#397=FACE_OUTER_BOUND('',#398,.T.);
#398=EDGE_LOOP('',(#626));
#399=CYLINDRICAL_SURFACE('',#400,2.25);
#400=AXIS2_PLACEMENT_3D('',#401,#402,#403);
#401=CARTESIAN_POINT('',(22.85,-0.799999999999998,-32.85));
#402=DIRECTION('',(0.,-1.,-6.12323399573677E-17));
#403=DIRECTION('',(6.12323399573677E-17,-6.12323399573677E-17,1.));
#404=FACE_OUTER_BOUND('',#405,.T.);
#405=EDGE_LOOP('',(#627));
#406=FACE_OUTER_BOUND('',#407,.T.);
#407=EDGE_LOOP('',(#628));
#408=CYLINDRICAL_SURFACE('',#409,2.25);
#409=AXIS2_PLACEMENT_3D('',#410,#411,#412);
#410=CARTESIAN_POINT('',(22.85,-0.800000000000002,32.85));
#411=DIRECTION('',(0.,-1.,-6.12323399573677E-17));
#412=DIRECTION('',(6.12323399573677E-17,-6.12323399573677E-17,1.));
#413=FACE_OUTER_BOUND('',#414,.T.);
#414=EDGE_LOOP('',(#629));
#415=FACE_OUTER_BOUND('',#416,.T.);
#416=EDGE_LOOP('',(#630));
#417=CYLINDRICAL_SURFACE('',#418,2.25);
#418=AXIS2_PLACEMENT_3D('',#419,#420,#421);
#419=CARTESIAN_POINT('',(-22.85,-0.800000000000002,32.85));
#420=DIRECTION('',(0.,-1.,-6.12323399573677E-17));
#421=DIRECTION('',(6.12323399573677E-17,-6.12323399573677E-17,1.));
#422=FACE_OUTER_BOUND('',#423,.T.);
#423=EDGE_LOOP('',(#631));
#424=FACE_OUTER_BOUND('',#425,.T.);
#425=EDGE_LOOP('',(#632));
#426=CYLINDRICAL_SURFACE('',#427,2.25);
#427=AXIS2_PLACEMENT_3D('',#428,#429,#430);
#428=CARTESIAN_POINT('',(-22.85,-0.799999999999998,-32.85));
#429=DIRECTION('',(0.,-1.,-6.12323399573677E-17));
#430=DIRECTION('',(6.12323399573677E-17,-6.12323399573677E-17,1.));
#431=FACE_BOUND('',#432,.T.);
#432=EDGE_LOOP('',(#633,#634,#635,#636));
#433=CYLINDRICAL_SURFACE('',#434,0.25);
#434=AXIS2_PLACEMENT_3D('',#435,#436,#437);
#435=CARTESIAN_POINT('',(2.75,5.86794919243112,34.5));
#436=DIRECTION('',(-2.96059473233375E-16,0.,-1.));
#437=DIRECTION('',(-0.846153846153845,0.532938710021195,2.50511861966702E-16));
#438=FACE_BOUND('',#439,.T.);
#439=EDGE_LOOP('',(#637,#638,#639,#640));
#440=CYLINDRICAL_SURFACE('',#441,0.25);
#441=AXIS2_PLACEMENT_3D('',#442,#443,#444);
#442=CARTESIAN_POINT('',(-2.75,5.86794919243112,34.5));
#443=DIRECTION('',(-1.48029736616688E-16,0.,-1.));
#444=DIRECTION('',(-1.,0.,1.48029736616688E-16));
#445=ORIENTED_EDGE('',*,*,#641,.F.);
#446=ORIENTED_EDGE('',*,*,#642,.T.);
#447=ORIENTED_EDGE('',*,*,#643,.F.);
#448=ORIENTED_EDGE('',*,*,#644,.T.);
#449=ORIENTED_EDGE('',*,*,#645,.F.);
#450=ORIENTED_EDGE('',*,*,#646,.T.);
#451=ORIENTED_EDGE('',*,*,#647,.F.);
#452=ORIENTED_EDGE('',*,*,#648,.T.);
#453=ORIENTED_EDGE('',*,*,#649,.F.);
#454=ORIENTED_EDGE('',*,*,#650,.T.);
#455=ORIENTED_EDGE('',*,*,#651,.F.);
#456=ORIENTED_EDGE('',*,*,#652,.T.);
#457=ORIENTED_EDGE('',*,*,#653,.F.);
#458=ORIENTED_EDGE('',*,*,#654,.F.);
#459=ORIENTED_EDGE('',*,*,#655,.F.);
#460=ORIENTED_EDGE('',*,*,#656,.T.);
#461=ORIENTED_EDGE('',*,*,#657,.F.);
#462=ORIENTED_EDGE('',*,*,#658,.T.);
#463=ORIENTED_EDGE('',*,*,#659,.F.);
#464=ORIENTED_EDGE('',*,*,#660,.T.);
#465=ORIENTED_EDGE('',*,*,#661,.F.);
#466=ORIENTED_EDGE('',*,*,#649,.T.);
#467=ORIENTED_EDGE('',*,*,#662,.T.);
#468=ORIENTED_EDGE('',*,*,#663,.T.);
#469=ORIENTED_EDGE('',*,*,#664,.T.);
#470=ORIENTED_EDGE('',*,*,#665,.T.);
#471=ORIENTED_EDGE('',*,*,#666,.T.);
#472=ORIENTED_EDGE('',*,*,#667,.T.);
#473=ORIENTED_EDGE('',*,*,#668,.T.);
#474=ORIENTED_EDGE('',*,*,#645,.T.);
#475=ORIENTED_EDGE('',*,*,#669,.F.);
#476=ORIENTED_EDGE('',*,*,#657,.T.);
#477=ORIENTED_EDGE('',*,*,#670,.F.);
#478=ORIENTED_EDGE('',*,*,#671,.T.);
#479=ORIENTED_EDGE('',*,*,#672,.F.);
#480=ORIENTED_EDGE('',*,*,#673,.T.);
#481=ORIENTED_EDGE('',*,*,#674,.F.);
#482=ORIENTED_EDGE('',*,*,#675,.T.);
#483=ORIENTED_EDGE('',*,*,#676,.F.);
#484=ORIENTED_EDGE('',*,*,#653,.T.);
#485=ORIENTED_EDGE('',*,*,#677,.T.);
#486=ORIENTED_EDGE('',*,*,#658,.F.);
#487=ORIENTED_EDGE('',*,*,#669,.T.);
#488=ORIENTED_EDGE('',*,*,#644,.F.);
#489=ORIENTED_EDGE('',*,*,#678,.F.);
#490=ORIENTED_EDGE('',*,*,#650,.F.);
#491=ORIENTED_EDGE('',*,*,#661,.T.);
#492=ORIENTED_EDGE('',*,*,#652,.F.);
#493=ORIENTED_EDGE('',*,*,#679,.F.);
#494=ORIENTED_EDGE('',*,*,#680,.T.);
#495=ORIENTED_EDGE('',*,*,#646,.F.);
#496=ORIENTED_EDGE('',*,*,#668,.F.);
#497=ORIENTED_EDGE('',*,*,#681,.T.);
#498=ORIENTED_EDGE('',*,*,#682,.F.);
#499=ORIENTED_EDGE('',*,*,#683,.T.);
#500=ORIENTED_EDGE('',*,*,#684,.F.);
#501=ORIENTED_EDGE('',*,*,#685,.T.);
#502=ORIENTED_EDGE('',*,*,#686,.F.);
#503=ORIENTED_EDGE('',*,*,#647,.T.);
#504=ORIENTED_EDGE('',*,*,#680,.F.);
#505=ORIENTED_EDGE('',*,*,#687,.T.);
#506=ORIENTED_EDGE('',*,*,#688,.T.);
#507=ORIENTED_EDGE('',*,*,#689,.T.);
#508=ORIENTED_EDGE('',*,*,#690,.T.);
#509=ORIENTED_EDGE('',*,*,#691,.F.);
#510=ORIENTED_EDGE('',*,*,#662,.F.);
#511=ORIENTED_EDGE('',*,*,#648,.F.);
#512=ORIENTED_EDGE('',*,*,#686,.T.);
#513=ORIENTED_EDGE('',*,*,#692,.T.);
#514=ORIENTED_EDGE('',*,*,#660,.F.);
#515=ORIENTED_EDGE('',*,*,#693,.F.);
#516=ORIENTED_EDGE('',*,*,#642,.F.);
#517=ORIENTED_EDGE('',*,*,#655,.T.);
#518=ORIENTED_EDGE('',*,*,#694,.T.);
#519=ORIENTED_EDGE('',*,*,#695,.F.);
#520=ORIENTED_EDGE('',*,*,#696,.F.);
#521=ORIENTED_EDGE('',*,*,#697,.T.);
#522=ORIENTED_EDGE('',*,*,#698,.T.);
#523=ORIENTED_EDGE('',*,*,#670,.T.);
#524=ORIENTED_EDGE('',*,*,#656,.F.);
#525=ORIENTED_EDGE('',*,*,#699,.T.);
#526=ORIENTED_EDGE('',*,*,#654,.T.);
#527=ORIENTED_EDGE('',*,*,#676,.T.);
#528=ORIENTED_EDGE('',*,*,#700,.F.);
#529=ORIENTED_EDGE('',*,*,#691,.T.);
#530=ORIENTED_EDGE('',*,*,#685,.F.);
#531=ORIENTED_EDGE('',*,*,#701,.T.);
#532=ORIENTED_EDGE('',*,*,#663,.F.);
#533=ORIENTED_EDGE('',*,*,#702,.F.);
#534=ORIENTED_EDGE('',*,*,#664,.F.);
#535=ORIENTED_EDGE('',*,*,#701,.F.);
#536=ORIENTED_EDGE('',*,*,#684,.T.);
#537=ORIENTED_EDGE('',*,*,#703,.T.);
#538=ORIENTED_EDGE('',*,*,#665,.F.);
#539=ORIENTED_EDGE('',*,*,#702,.T.);
#540=ORIENTED_EDGE('',*,*,#683,.F.);
#541=ORIENTED_EDGE('',*,*,#704,.F.);
#542=ORIENTED_EDGE('',*,*,#666,.F.);
#543=ORIENTED_EDGE('',*,*,#703,.F.);
#544=ORIENTED_EDGE('',*,*,#682,.T.);
#545=ORIENTED_EDGE('',*,*,#704,.T.);
#546=ORIENTED_EDGE('',*,*,#681,.F.);
#547=ORIENTED_EDGE('',*,*,#679,.T.);
#548=ORIENTED_EDGE('',*,*,#667,.F.);
#549=ORIENTED_EDGE('',*,*,#705,.F.);
#550=ORIENTED_EDGE('',*,*,#706,.T.);
#551=ORIENTED_EDGE('',*,*,#671,.F.);
#552=ORIENTED_EDGE('',*,*,#698,.F.);
#553=ORIENTED_EDGE('',*,*,#707,.T.);
#554=ORIENTED_EDGE('',*,*,#708,.T.);
#555=ORIENTED_EDGE('',*,*,#672,.T.);
#556=ORIENTED_EDGE('',*,*,#706,.F.);
#557=ORIENTED_EDGE('',*,*,#709,.F.);
#558=ORIENTED_EDGE('',*,*,#710,.T.);
#559=ORIENTED_EDGE('',*,*,#673,.F.);
#560=ORIENTED_EDGE('',*,*,#708,.F.);
#561=ORIENTED_EDGE('',*,*,#711,.T.);
#562=ORIENTED_EDGE('',*,*,#712,.T.);
#563=ORIENTED_EDGE('',*,*,#674,.T.);
#564=ORIENTED_EDGE('',*,*,#710,.F.);
#565=ORIENTED_EDGE('',*,*,#713,.F.);
#566=ORIENTED_EDGE('',*,*,#700,.T.);
#567=ORIENTED_EDGE('',*,*,#675,.F.);
#568=ORIENTED_EDGE('',*,*,#712,.F.);
#569=ORIENTED_EDGE('',*,*,#687,.F.);
#570=ORIENTED_EDGE('',*,*,#714,.T.);
#571=ORIENTED_EDGE('',*,*,#688,.F.);
#572=ORIENTED_EDGE('',*,*,#715,.T.);
#573=ORIENTED_EDGE('',*,*,#689,.F.);
#574=ORIENTED_EDGE('',*,*,#716,.T.);
#575=ORIENTED_EDGE('',*,*,#690,.F.);
#576=ORIENTED_EDGE('',*,*,#717,.T.);
#577=ORIENTED_EDGE('',*,*,#718,.T.);
#578=ORIENTED_EDGE('',*,*,#694,.F.);
#579=ORIENTED_EDGE('',*,*,#699,.F.);
#580=ORIENTED_EDGE('',*,*,#719,.T.);
#581=ORIENTED_EDGE('',*,*,#720,.T.);
#582=ORIENTED_EDGE('',*,*,#721,.F.);
#583=ORIENTED_EDGE('',*,*,#722,.T.);
#584=ORIENTED_EDGE('',*,*,#723,.F.);
#585=ORIENTED_EDGE('',*,*,#724,.T.);
#586=ORIENTED_EDGE('',*,*,#725,.F.);
#587=ORIENTED_EDGE('',*,*,#695,.T.);
#588=ORIENTED_EDGE('',*,*,#718,.F.);
#589=ORIENTED_EDGE('',*,*,#726,.T.);
#590=ORIENTED_EDGE('',*,*,#727,.T.);
#591=ORIENTED_EDGE('',*,*,#728,.T.);
#592=ORIENTED_EDGE('',*,*,#729,.T.);
#593=ORIENTED_EDGE('',*,*,#725,.T.);
#594=ORIENTED_EDGE('',*,*,#730,.F.);
#595=ORIENTED_EDGE('',*,*,#697,.F.);
#596=ORIENTED_EDGE('',*,*,#696,.T.);
#597=ORIENTED_EDGE('',*,*,#705,.T.);
#598=ORIENTED_EDGE('',*,*,#730,.T.);
#599=ORIENTED_EDGE('',*,*,#724,.F.);
#600=ORIENTED_EDGE('',*,*,#731,.F.);
#601=ORIENTED_EDGE('',*,*,#723,.T.);
#602=ORIENTED_EDGE('',*,*,#732,.F.);
#603=ORIENTED_EDGE('',*,*,#707,.F.);
#604=ORIENTED_EDGE('',*,*,#731,.T.);
#605=ORIENTED_EDGE('',*,*,#709,.T.);
#606=ORIENTED_EDGE('',*,*,#732,.T.);
#607=ORIENTED_EDGE('',*,*,#722,.F.);
#608=ORIENTED_EDGE('',*,*,#733,.F.);
#609=ORIENTED_EDGE('',*,*,#721,.T.);
#610=ORIENTED_EDGE('',*,*,#734,.F.);
#611=ORIENTED_EDGE('',*,*,#711,.F.);
#612=ORIENTED_EDGE('',*,*,#733,.T.);
#613=ORIENTED_EDGE('',*,*,#713,.T.);
#614=ORIENTED_EDGE('',*,*,#734,.T.);
#615=ORIENTED_EDGE('',*,*,#720,.F.);
#616=ORIENTED_EDGE('',*,*,#719,.F.);
#617=ORIENTED_EDGE('',*,*,#735,.T.);
#618=ORIENTED_EDGE('',*,*,#714,.F.);
#619=ORIENTED_EDGE('',*,*,#736,.T.);
#620=ORIENTED_EDGE('',*,*,#715,.F.);
#621=ORIENTED_EDGE('',*,*,#737,.T.);
#622=ORIENTED_EDGE('',*,*,#716,.F.);
#623=ORIENTED_EDGE('',*,*,#738,.T.);
#624=ORIENTED_EDGE('',*,*,#717,.F.);
#625=ORIENTED_EDGE('',*,*,#738,.F.);
#626=ORIENTED_EDGE('',*,*,#726,.F.);
#627=ORIENTED_EDGE('',*,*,#737,.F.);
#628=ORIENTED_EDGE('',*,*,#727,.F.);
#629=ORIENTED_EDGE('',*,*,#735,.F.);
#630=ORIENTED_EDGE('',*,*,#728,.F.);
#631=ORIENTED_EDGE('',*,*,#736,.F.);
#632=ORIENTED_EDGE('',*,*,#729,.F.);
#633=ORIENTED_EDGE('',*,*,#677,.F.);
#634=ORIENTED_EDGE('',*,*,#643,.T.);
#635=ORIENTED_EDGE('',*,*,#693,.T.);
#636=ORIENTED_EDGE('',*,*,#659,.T.);
#637=ORIENTED_EDGE('',*,*,#692,.F.);
#638=ORIENTED_EDGE('',*,*,#641,.T.);
#639=ORIENTED_EDGE('',*,*,#678,.T.);
#640=ORIENTED_EDGE('',*,*,#651,.T.);
#641=EDGE_CURVE('',#739,#740,#741,.F.);
#642=EDGE_CURVE('',#739,#742,#743,.F.);
#643=EDGE_CURVE('',#744,#742,#745,.F.);
#644=EDGE_CURVE('',#744,#746,#747,.T.);
#645=EDGE_CURVE('',#748,#746,#749,.T.);
#646=EDGE_CURVE('',#748,#750,#751,.F.);
#647=EDGE_CURVE('',#752,#750,#753,.F.);
#648=EDGE_CURVE('',#752,#754,#755,.T.);
#649=EDGE_CURVE('',#756,#754,#757,.T.);
#650=EDGE_CURVE('',#756,#740,#758,.T.);
#651=EDGE_CURVE('',#759,#760,#761,.F.);
#652=EDGE_CURVE('',#759,#762,#763,.T.);
#653=EDGE_CURVE('',#764,#762,#765,.T.);
#654=EDGE_CURVE('',#766,#764,#767,.T.);
#655=EDGE_CURVE('',#768,#766,#769,.T.);
#656=EDGE_CURVE('',#768,#770,#771,.T.);
#657=EDGE_CURVE('',#772,#770,#773,.T.);
#658=EDGE_CURVE('',#772,#774,#775,.T.);
#659=EDGE_CURVE('',#776,#774,#777,.F.);
#660=EDGE_CURVE('',#776,#760,#778,.T.);
#661=EDGE_CURVE('',#756,#762,#779,.T.);
#662=EDGE_CURVE('',#754,#780,#781,.F.);
#663=EDGE_CURVE('',#780,#782,#783,.T.);
#664=EDGE_CURVE('',#782,#784,#785,.F.);
#665=EDGE_CURVE('',#784,#786,#787,.T.);
#666=EDGE_CURVE('',#786,#788,#789,.F.);
#667=EDGE_CURVE('',#788,#790,#791,.T.);
#668=EDGE_CURVE('',#790,#748,#792,.F.);
#669=EDGE_CURVE('',#772,#746,#793,.T.);
#670=EDGE_CURVE('',#794,#770,#795,.F.);
#671=EDGE_CURVE('',#794,#796,#797,.T.);
#672=EDGE_CURVE('',#798,#796,#799,.F.);
#673=EDGE_CURVE('',#798,#800,#801,.T.);
#674=EDGE_CURVE('',#802,#800,#803,.F.);
#675=EDGE_CURVE('',#802,#804,#805,.T.);
#676=EDGE_CURVE('',#764,#804,#806,.F.);
#677=EDGE_CURVE('',#744,#774,#807,.T.);
#678=EDGE_CURVE('',#740,#759,#808,.T.);
#679=EDGE_CURVE('',#809,#790,#810,.T.);
#680=EDGE_CURVE('',#809,#750,#811,.F.);
#681=EDGE_CURVE('',#809,#812,#813,.F.);
#682=EDGE_CURVE('',#814,#812,#815,.F.);
#683=EDGE_CURVE('',#814,#816,#817,.F.);
#684=EDGE_CURVE('',#818,#816,#819,.F.);
#685=EDGE_CURVE('',#818,#820,#821,.F.);
#686=EDGE_CURVE('',#752,#820,#822,.F.);
#687=EDGE_CURVE('',#823,#823,#824,.F.);
#688=EDGE_CURVE('',#825,#825,#826,.F.);
#689=EDGE_CURVE('',#827,#827,#828,.F.);
#690=EDGE_CURVE('',#829,#829,#830,.F.);
#691=EDGE_CURVE('',#780,#820,#831,.F.);
#692=EDGE_CURVE('',#739,#760,#832,.T.);
#693=EDGE_CURVE('',#742,#776,#833,.T.);
#694=EDGE_CURVE('',#766,#834,#835,.T.);
#695=EDGE_CURVE('',#836,#834,#837,.T.);
#696=EDGE_CURVE('',#768,#836,#838,.F.);
#697=EDGE_CURVE('',#768,#839,#840,.F.);
#698=EDGE_CURVE('',#839,#794,#841,.T.);
#699=EDGE_CURVE('',#842,#766,#843,.F.);
#700=EDGE_CURVE('',#842,#804,#844,.T.);
#701=EDGE_CURVE('',#818,#782,#845,.T.);
#702=EDGE_CURVE('',#784,#816,#846,.F.);
#703=EDGE_CURVE('',#814,#786,#847,.T.);
#704=EDGE_CURVE('',#788,#812,#848,.F.);
#705=EDGE_CURVE('',#849,#839,#850,.T.);
#706=EDGE_CURVE('',#849,#796,#851,.T.);
#707=EDGE_CURVE('',#849,#852,#853,.F.);
#708=EDGE_CURVE('',#852,#798,#854,.T.);
#709=EDGE_CURVE('',#855,#852,#856,.T.);
#710=EDGE_CURVE('',#855,#800,#857,.T.);
#711=EDGE_CURVE('',#855,#858,#859,.F.);
#712=EDGE_CURVE('',#858,#802,#860,.T.);
#713=EDGE_CURVE('',#842,#858,#861,.T.);
#714=EDGE_CURVE('',#862,#862,#863,.F.);
#715=EDGE_CURVE('',#864,#864,#865,.F.);
#716=EDGE_CURVE('',#866,#866,#867,.F.);
#717=EDGE_CURVE('',#868,#868,#869,.F.);
#718=EDGE_CURVE('',#870,#834,#871,.F.);
#719=EDGE_CURVE('',#842,#870,#872,.F.);
#720=EDGE_CURVE('',#870,#873,#874,.T.);
#721=EDGE_CURVE('',#875,#873,#876,.F.);
#722=EDGE_CURVE('',#875,#877,#878,.T.);
#723=EDGE_CURVE('',#879,#877,#880,.F.);
#724=EDGE_CURVE('',#879,#881,#882,.T.);
#725=EDGE_CURVE('',#836,#881,#883,.F.);
#726=EDGE_CURVE('',#884,#884,#885,.F.);
#727=EDGE_CURVE('',#886,#886,#887,.F.);
#728=EDGE_CURVE('',#888,#888,#889,.F.);
#729=EDGE_CURVE('',#890,#890,#891,.F.);
#730=EDGE_CURVE('',#839,#881,#892,.T.);
#731=EDGE_CURVE('',#849,#879,#893,.F.);
#732=EDGE_CURVE('',#852,#877,#894,.T.);
#733=EDGE_CURVE('',#855,#875,#895,.F.);
#734=EDGE_CURVE('',#858,#873,#896,.T.);
#735=EDGE_CURVE('',#897,#897,#898,.T.);
#736=EDGE_CURVE('',#899,#899,#900,.T.);
#737=EDGE_CURVE('',#901,#901,#902,.T.);
#738=EDGE_CURVE('',#903,#903,#904,.T.);
#739=VERTEX_POINT('',#905);
#740=VERTEX_POINT('',#906);
#741=CIRCLE('',#907,0.25);
#742=VERTEX_POINT('',#911);
#743=CIRCLE('',#912,3.);
#744=VERTEX_POINT('',#916);
#745=CIRCLE('',#917,0.249999999999999);
#746=VERTEX_POINT('',#921);
#747=LINE('',#922,#923);
#748=VERTEX_POINT('',#925);
#749=LINE('',#926,#927);
#750=VERTEX_POINT('',#929);
#751=LINE('',#930,#931);
#752=VERTEX_POINT('',#933);
#753=LINE('',#934,#935);
#754=VERTEX_POINT('',#937);
#755=LINE('',#938,#939);
#756=VERTEX_POINT('',#941);
#757=LINE('',#942,#943);
#758=LINE('',#945,#946);
#759=VERTEX_POINT('',#948);
#760=VERTEX_POINT('',#949);
#761=CIRCLE('',#950,0.25);
#762=VERTEX_POINT('',#954);
#763=LINE('',#955,#956);
#764=VERTEX_POINT('',#958);
#765=LINE('',#959,#960);
#766=VERTEX_POINT('',#962);
#767=LINE('',#963,#964);
#768=VERTEX_POINT('',#966);
#769=LINE('',#967,#968);
#770=VERTEX_POINT('',#970);
#771=LINE('',#971,#972);
#772=VERTEX_POINT('',#974);
#773=LINE('',#975,#976);
#774=VERTEX_POINT('',#978);
#775=LINE('',#979,#980);
#776=VERTEX_POINT('',#982);
#777=CIRCLE('',#983,0.25);
#778=CIRCLE('',#987,3.);
#779=LINE('',#991,#992);
#780=VERTEX_POINT('',#994);
#781=CIRCLE('',#995,0.5);
#782=VERTEX_POINT('',#999);
#783=LINE('',#1000,#1001);
#784=VERTEX_POINT('',#1003);
#785=CIRCLE('',#1004,0.5);
#786=VERTEX_POINT('',#1008);
#787=LINE('',#1009,#1010);
#788=VERTEX_POINT('',#1012);
#789=CIRCLE('',#1013,0.5);
#790=VERTEX_POINT('',#1017);
#791=LINE('',#1018,#1019);
#792=CIRCLE('',#1021,0.5);
#793=LINE('',#1025,#1026);
#794=VERTEX_POINT('',#1028);
#795=CIRCLE('',#1029,4.15000000000001);
#796=VERTEX_POINT('',#1033);
#797=LINE('',#1034,#1035);
#798=VERTEX_POINT('',#1037);
#799=CIRCLE('',#1038,4.15);
#800=VERTEX_POINT('',#1042);
#801=LINE('',#1043,#1044);
#802=VERTEX_POINT('',#1046);
#803=CIRCLE('',#1047,4.15000000000001);
#804=VERTEX_POINT('',#1051);
#805=LINE('',#1052,#1053);
#806=CIRCLE('',#1055,4.15);
#807=LINE('',#1059,#1060);
#808=LINE('',#1062,#1063);
#809=VERTEX_POINT('',#1065);
#810=LINE('',#1066,#1067);
#811=CIRCLE('',#1069,0.5);
#812=VERTEX_POINT('',#1073);
#813=LINE('',#1074,#1075);
#814=VERTEX_POINT('',#1077);
#815=CIRCLE('',#1078,0.5);
#816=VERTEX_POINT('',#1082);
#817=LINE('',#1083,#1084);
#818=VERTEX_POINT('',#1086);
#819=CIRCLE('',#1087,0.5);
#820=VERTEX_POINT('',#1091);
#821=LINE('',#1092,#1093);
#822=CIRCLE('',#1095,0.5);
#823=VERTEX_POINT('',#1099);
#824=CIRCLE('',#1100,1.4);
#825=VERTEX_POINT('',#1104);
#826=CIRCLE('',#1105,1.4);
#827=VERTEX_POINT('',#1109);
#828=CIRCLE('',#1110,1.4);
#829=VERTEX_POINT('',#1114);
#830=CIRCLE('',#1115,1.4);
#831=LINE('',#1119,#1120);
#832=LINE('',#1122,#1123);
#833=LINE('',#1125,#1126);
#834=VERTEX_POINT('',#1128);
#835=LINE('',#1129,#1130);
#836=VERTEX_POINT('',#1132);
#837=LINE('',#1133,#1134);
#838=LINE('',#1136,#1137);
#839=VERTEX_POINT('',#1139);
#840=CIRCLE('',#1140,4.15);
#841=LINE('',#1144,#1145);
#842=VERTEX_POINT('',#1147);
#843=CIRCLE('',#1148,4.15);
#844=LINE('',#1152,#1153);
#845=LINE('',#1155,#1156);
#846=LINE('',#1158,#1159);
#847=LINE('',#1161,#1162);
#848=LINE('',#1164,#1165);
#849=VERTEX_POINT('',#1167);
#850=LINE('',#1168,#1169);
#851=LINE('',#1171,#1172);
#852=VERTEX_POINT('',#1174);
#853=CIRCLE('',#1175,4.15);
#854=LINE('',#1179,#1180);
#855=VERTEX_POINT('',#1182);
#856=LINE('',#1183,#1184);
#857=LINE('',#1186,#1187);
#858=VERTEX_POINT('',#1189);
#859=CIRCLE('',#1190,4.15);
#860=LINE('',#1194,#1195);
#861=LINE('',#1197,#1198);
#862=VERTEX_POINT('',#1200);
#863=CIRCLE('',#1201,1.4);
#864=VERTEX_POINT('',#1205);
#865=CIRCLE('',#1206,1.4);
#866=VERTEX_POINT('',#1210);
#867=CIRCLE('',#1211,1.4);
#868=VERTEX_POINT('',#1215);
#869=CIRCLE('',#1216,1.4);
#870=VERTEX_POINT('',#1220);
#871=CIRCLE('',#1221,3.55);
#872=LINE('',#1225,#1226);
#873=VERTEX_POINT('',#1228);
#874=LINE('',#1229,#1230);
#875=VERTEX_POINT('',#1232);
#876=CIRCLE('',#1233,3.55);
#877=VERTEX_POINT('',#1237);
#878=LINE('',#1238,#1239);
#879=VERTEX_POINT('',#1241);
#880=CIRCLE('',#1242,3.55);
#881=VERTEX_POINT('',#1246);
#882=LINE('',#1247,#1248);
#883=CIRCLE('',#1250,3.55);
#884=VERTEX_POINT('',#1254);
#885=CIRCLE('',#1255,2.25);
#886=VERTEX_POINT('',#1259);
#887=CIRCLE('',#1260,2.25);
#888=VERTEX_POINT('',#1264);
#889=CIRCLE('',#1265,2.25);
#890=VERTEX_POINT('',#1269);
#891=CIRCLE('',#1270,2.25);
#892=LINE('',#1274,#1275);
#893=LINE('',#1277,#1278);
#894=LINE('',#1280,#1281);
#895=LINE('',#1283,#1284);
#896=LINE('',#1286,#1287);
#897=VERTEX_POINT('',#1289);
#898=CIRCLE('',#1290,2.25);
#899=VERTEX_POINT('',#1294);
#900=CIRCLE('',#1295,2.25);
#901=VERTEX_POINT('',#1299);
#902=CIRCLE('',#1300,2.25);
#903=VERTEX_POINT('',#1304);
#904=CIRCLE('',#1305,2.25);
#905=CARTESIAN_POINT('',(-2.53846153846154,6.00118386993642,35.));
#906=CARTESIAN_POINT('',(-3.,5.86794919243112,35.));
#907=AXIS2_PLACEMENT_3D('',#908,#909,#910);
#908=CARTESIAN_POINT('',(-2.75,5.86794919243112,35.));
#909=DIRECTION('',(0.,0.,-1.));
#910=DIRECTION('',(-1.,0.,0.));
#911=CARTESIAN_POINT('',(2.53846153846154,6.00118386993642,35.));
#912=AXIS2_PLACEMENT_3D('',#913,#914,#915);
#913=CARTESIAN_POINT('',(0.,7.6,35.));
#914=DIRECTION('',(0.,0.,-1.));
#915=DIRECTION('',(0.846153846153846,-0.532938710021193,0.));
#916=CARTESIAN_POINT('',(3.,5.86794919243112,35.));
#917=AXIS2_PLACEMENT_3D('',#918,#919,#920);
#918=CARTESIAN_POINT('',(2.75,5.86794919243112,35.));
#919=DIRECTION('',(0.,0.,-1.));
#920=DIRECTION('',(-0.846153846153843,0.532938710021198,0.));
#921=CARTESIAN_POINT('',(3.,3.6,35.));
#922=CARTESIAN_POINT('',(3.,5.86794919243112,35.));
#923=VECTOR('',#924,1.);
#924=DIRECTION('',(-7.83243665831901E-16,-1.,0.));
#925=CARTESIAN_POINT('',(24.5,3.6,35.));
#926=CARTESIAN_POINT('',(24.5,3.6,35.));
#927=VECTOR('',#928,1.);
#928=DIRECTION('',(-1.,0.,0.));
#929=CARTESIAN_POINT('',(24.5,-2.18178897387909E-15,35.));
#930=CARTESIAN_POINT('',(24.5,-2.22044604925031E-15,35.));
#931=VECTOR('',#932,1.);
#932=DIRECTION('',(0.,1.,0.));
#933=CARTESIAN_POINT('',(-24.5,-2.18178897387909E-15,35.));
#934=CARTESIAN_POINT('',(24.5,-2.14313189850787E-15,35.));
#935=VECTOR('',#936,1.);
#936=DIRECTION('',(-1.,0.,0.));
#937=CARTESIAN_POINT('',(-24.5,3.6,35.));
#938=CARTESIAN_POINT('',(-24.5,-2.22044604925031E-15,35.));
#939=VECTOR('',#940,1.);
#940=DIRECTION('',(0.,1.,0.));
#941=CARTESIAN_POINT('',(-3.,3.6,35.));
#942=CARTESIAN_POINT('',(-3.,3.6,35.));
#943=VECTOR('',#944,1.);
#944=DIRECTION('',(-1.,0.,0.));
#945=CARTESIAN_POINT('',(-3.,3.6,35.));
#946=VECTOR('',#947,1.);
#947=DIRECTION('',(0.,1.,0.));
#948=CARTESIAN_POINT('',(-3.,5.86794919243112,37.));
#949=CARTESIAN_POINT('',(-2.53846153846154,6.00118386993642,37.));
#950=AXIS2_PLACEMENT_3D('',#951,#952,#953);
#951=CARTESIAN_POINT('',(-2.75,5.86794919243112,37.));
#952=DIRECTION('',(1.31581988103722E-16,1.51929083932157E-64,1.));
#953=DIRECTION('',(0.84615384615384,0.532938710021203,-1.11338605318533E-16));
#954=CARTESIAN_POINT('',(-3.,3.6,37.));
#955=CARTESIAN_POINT('',(-3.,5.86794919243112,37.));
#956=VECTOR('',#957,1.);
#957=DIRECTION('',(0.,-1.,0.));
#958=CARTESIAN_POINT('',(-22.85,3.6,37.));
#959=CARTESIAN_POINT('',(-22.85,3.6,37.));
#960=VECTOR('',#961,1.);
#961=DIRECTION('',(1.,0.,-3.57956038166297E-16));
#962=CARTESIAN_POINT('',(-22.85,-2.6,37.));
#963=CARTESIAN_POINT('',(-22.85,-2.6,37.));
#964=VECTOR('',#965,1.);
#965=DIRECTION('',(0.,1.,0.));
#966=CARTESIAN_POINT('',(22.85,-2.6,37.));
#967=CARTESIAN_POINT('',(22.85,-2.6,37.));
#968=VECTOR('',#969,1.);
#969=DIRECTION('',(-1.,0.,1.55479810888425E-16));
#970=CARTESIAN_POINT('',(22.85,3.6,37.));
#971=CARTESIAN_POINT('',(22.85,-2.6,37.));
#972=VECTOR('',#973,1.);
#973=DIRECTION('',(5.73018335290403E-16,1.,0.));
#974=CARTESIAN_POINT('',(3.,3.6,37.));
#975=CARTESIAN_POINT('',(3.,3.6,37.));
#976=VECTOR('',#977,1.);
#977=DIRECTION('',(1.,0.,0.));
#978=CARTESIAN_POINT('',(3.,5.86794919243112,37.));
#979=CARTESIAN_POINT('',(3.,3.6,37.));
#980=VECTOR('',#981,1.);
#981=DIRECTION('',(0.,1.,0.));
#982=CARTESIAN_POINT('',(2.53846153846154,6.00118386993642,37.));
#983=AXIS2_PLACEMENT_3D('',#984,#985,#986);
#984=CARTESIAN_POINT('',(2.75,5.86794919243112,37.));
#985=DIRECTION('',(1.31581988103722E-16,1.51929083932157E-64,1.));
#986=DIRECTION('',(1.,-1.99911309145705E-80,-1.31581988103722E-16));
#987=AXIS2_PLACEMENT_3D('',#988,#989,#990);
#988=CARTESIAN_POINT('',(0.,7.6,37.));
#989=DIRECTION('',(-1.31581988103722E-16,0.,-1.));
#990=DIRECTION('',(0.846153846153846,-0.532938710021193,-1.11338605318534E-16));
#991=CARTESIAN_POINT('',(-3.,3.6,35.));
#992=VECTOR('',#993,1.);
#993=DIRECTION('',(2.22044604925031E-16,0.,1.));
#994=CARTESIAN_POINT('',(-25.,3.6,34.5));
#995=AXIS2_PLACEMENT_3D('',#996,#997,#998);
#996=CARTESIAN_POINT('',(-25.,3.6,35.));
#997=DIRECTION('',(0.,1.,6.12323399573677E-17));
#998=DIRECTION('',(0.,6.12323399573677E-17,-1.));
#999=CARTESIAN_POINT('',(-25.,3.6,-34.5));
#1000=CARTESIAN_POINT('',(-25.,3.6,34.5));
#1001=VECTOR('',#1002,1.);
#1002=DIRECTION('',(0.,6.43607550507337E-17,-1.));
#1003=CARTESIAN_POINT('',(-24.5,3.6,-35.));
#1004=AXIS2_PLACEMENT_3D('',#1005,#1006,#1007);
#1005=CARTESIAN_POINT('',(-25.,3.6,-35.));
#1006=DIRECTION('',(0.,1.,6.12323399573677E-17));
#1007=DIRECTION('',(1.,8.7016388700601E-31,-1.4210854715202E-14));
#1008=CARTESIAN_POINT('',(24.5,3.6,-35.));
#1009=CARTESIAN_POINT('',(-24.5,3.6,-35.));
#1010=VECTOR('',#1011,1.);
#1011=DIRECTION('',(1.,0.,0.));
#1012=CARTESIAN_POINT('',(25.,3.6,-34.5));
#1013=AXIS2_PLACEMENT_3D('',#1014,#1015,#1016);
#1014=CARTESIAN_POINT('',(25.,3.6,-35.));
#1015=DIRECTION('',(0.,1.,6.12323399573677E-17));
#1016=DIRECTION('',(0.,-6.12323399573677E-17,1.));
#1017=CARTESIAN_POINT('',(25.,3.6,34.5));
#1018=CARTESIAN_POINT('',(25.,3.6,-34.5));
#1019=VECTOR('',#1020,1.);
#1020=DIRECTION('',(-1.02977208081174E-16,-6.43607550507337E-17,1.));
#1021=AXIS2_PLACEMENT_3D('',#1022,#1023,#1024);
#1022=CARTESIAN_POINT('',(25.,3.6,35.));
#1023=DIRECTION('',(0.,1.,6.12323399573677E-17));
#1024=DIRECTION('',(-1.,0.,0.));
#1025=CARTESIAN_POINT('',(3.,3.6,37.));
#1026=VECTOR('',#1027,1.);
#1027=DIRECTION('',(-2.22044604925031E-16,0.,-1.));
#1028=CARTESIAN_POINT('',(27.,3.6,32.85));
#1029=AXIS2_PLACEMENT_3D('',#1030,#1031,#1032);
#1030=CARTESIAN_POINT('',(22.85,3.6,32.85));
#1031=DIRECTION('',(0.,1.,6.12323399573677E-17));
#1032=DIRECTION('',(1.71215117050626E-15,-6.12323399573677E-17,1.));
#1033=CARTESIAN_POINT('',(27.,3.6,-32.85));
#1034=CARTESIAN_POINT('',(27.,3.6,32.85));
#1035=VECTOR('',#1036,1.);
#1036=DIRECTION('',(1.62224368895E-16,6.75934870395833E-17,-1.));
#1037=CARTESIAN_POINT('',(22.85,3.6,-37.));
#1038=AXIS2_PLACEMENT_3D('',#1039,#1040,#1041);
#1039=CARTESIAN_POINT('',(22.85,3.6,-32.85));
#1040=DIRECTION('',(0.,1.,6.12323399573677E-17));
#1041=DIRECTION('',(1.,2.09678045061689E-31,-3.42430234101253E-15));
#1042=CARTESIAN_POINT('',(-22.85,3.6,-37.));
#1043=CARTESIAN_POINT('',(22.85,3.6,-37.));
#1044=VECTOR('',#1045,1.);
#1045=DIRECTION('',(-1.,0.,1.55479810888425E-16));
#1046=CARTESIAN_POINT('',(-27.,3.6,-32.85));
#1047=AXIS2_PLACEMENT_3D('',#1048,#1049,#1050);
#1048=CARTESIAN_POINT('',(-22.85,3.6,-32.85));
#1049=DIRECTION('',(0.,1.,6.12323399573677E-17));
#1050=DIRECTION('',(0.,6.12323399573677E-17,-1.));
#1051=CARTESIAN_POINT('',(-27.,3.6,32.85));
#1052=CARTESIAN_POINT('',(-27.,3.6,-32.85));
#1053=VECTOR('',#1054,1.);
#1054=DIRECTION('',(-5.40747896316667E-17,-6.75934870395833E-17,1.));
#1055=AXIS2_PLACEMENT_3D('',#1056,#1057,#1058);
#1056=CARTESIAN_POINT('',(-22.85,3.6,32.85));
#1057=DIRECTION('',(0.,1.,6.12323399573677E-17));
#1058=DIRECTION('',(-1.,-1.04839022530845E-31,1.71215117050627E-15));
#1059=CARTESIAN_POINT('',(3.,5.86794919243112,35.));
#1060=VECTOR('',#1061,1.);
#1061=DIRECTION('',(4.44089209850063E-16,0.,1.));
#1062=CARTESIAN_POINT('',(-3.,5.86794919243112,35.));
#1063=VECTOR('',#1064,1.);
#1064=DIRECTION('',(2.22044604925031E-16,0.,1.));
#1065=CARTESIAN_POINT('',(25.,-2.16648088888975E-15,34.5));
#1066=CARTESIAN_POINT('',(25.,-2.22044604925031E-15,34.5));
#1067=VECTOR('',#1068,1.);
#1068=DIRECTION('',(0.,1.,0.));
#1069=AXIS2_PLACEMENT_3D('',#1070,#1071,#1072);
#1070=CARTESIAN_POINT('',(25.,-2.14313189850787E-15,35.));
#1071=DIRECTION('',(0.,1.,6.12323399573677E-17));
#1072=DIRECTION('',(-1.,0.,0.));
#1073=CARTESIAN_POINT('',(25.,2.16648088888975E-15,-34.5));
#1074=CARTESIAN_POINT('',(25.,2.11251572852918E-15,-34.5));
#1075=VECTOR('',#1076,1.);
#1076=DIRECTION('',(-1.02977208081174E-16,-6.12323399573677E-17,1.));
#1077=CARTESIAN_POINT('',(24.5,2.18178897387909E-15,-35.));
#1078=AXIS2_PLACEMENT_3D('',#1079,#1080,#1081);
#1079=CARTESIAN_POINT('',(25.,2.14313189850787E-15,-35.));
#1080=DIRECTION('',(0.,1.,6.12323399573677E-17));
#1081=DIRECTION('',(0.,-6.12323399573677E-17,1.));
#1082=CARTESIAN_POINT('',(-24.5,2.18178897387909E-15,-35.));
#1083=CARTESIAN_POINT('',(-24.5,2.14313189850787E-15,-35.));
#1084=VECTOR('',#1085,1.);
#1085=DIRECTION('',(1.,0.,0.));
#1086=CARTESIAN_POINT('',(-25.,2.16648088888975E-15,-34.5));
#1087=AXIS2_PLACEMENT_3D('',#1088,#1089,#1090);
#1088=CARTESIAN_POINT('',(-25.,2.14313189850787E-15,-35.));
#1089=DIRECTION('',(0.,1.,6.12323399573677E-17));
#1090=DIRECTION('',(1.,0.,0.));
#1091=CARTESIAN_POINT('',(-25.,-2.16648088888975E-15,34.5));
#1092=CARTESIAN_POINT('',(-25.,-2.11251572852918E-15,34.5));
#1093=VECTOR('',#1094,1.);
#1094=DIRECTION('',(0.,6.12323399573677E-17,-1.));
#1095=AXIS2_PLACEMENT_3D('',#1096,#1097,#1098);
#1096=CARTESIAN_POINT('',(-25.,-2.14313189850787E-15,35.));
#1097=DIRECTION('',(0.,1.,6.12323399573677E-17));
#1098=DIRECTION('',(0.,6.12323399573677E-17,-1.));
#1099=CARTESIAN_POINT('',(-22.85,-1.92575709165921E-15,31.45));
#1100=AXIS2_PLACEMENT_3D('',#1101,#1102,#1103);
#1101=CARTESIAN_POINT('',(-22.85,-2.01148236759953E-15,32.85));
#1102=DIRECTION('',(0.,1.,6.12323399573677E-17));
#1103=DIRECTION('',(6.12323399573676E-17,6.12323399573676E-17,-1.));
#1104=CARTESIAN_POINT('',(-22.85,2.09720764353984E-15,-34.25));
#1105=AXIS2_PLACEMENT_3D('',#1106,#1107,#1108);
#1106=CARTESIAN_POINT('',(-22.85,2.01148236759953E-15,-32.85));
#1107=DIRECTION('',(0.,1.,6.12323399573677E-17));
#1108=DIRECTION('',(6.12323399573676E-17,6.12323399573676E-17,-1.));
#1109=CARTESIAN_POINT('',(22.85,-1.92575709165921E-15,31.45));
#1110=AXIS2_PLACEMENT_3D('',#1111,#1112,#1113);
#1111=CARTESIAN_POINT('',(22.85,-2.01148236759953E-15,32.85));
#1112=DIRECTION('',(0.,1.,6.12323399573677E-17));
#1113=DIRECTION('',(6.12323399573676E-17,6.12323399573676E-17,-1.));
#1114=CARTESIAN_POINT('',(22.85,2.09720764353984E-15,-34.25));
#1115=AXIS2_PLACEMENT_3D('',#1116,#1117,#1118);
#1116=CARTESIAN_POINT('',(22.85,2.01148236759953E-15,-32.85));
#1117=DIRECTION('',(0.,1.,6.12323399573677E-17));
#1118=DIRECTION('',(6.12323399573676E-17,6.12323399573676E-17,-1.));
#1119=CARTESIAN_POINT('',(-25.,-2.22044604925031E-15,34.5));
#1120=VECTOR('',#1121,1.);
#1121=DIRECTION('',(0.,1.,0.));
#1122=CARTESIAN_POINT('',(-2.53846153846154,6.00118386993642,35.));
#1123=VECTOR('',#1124,1.);
#1124=DIRECTION('',(2.22044604925031E-16,0.,1.));
#1125=CARTESIAN_POINT('',(2.53846153846154,6.00118386993642,35.));
#1126=VECTOR('',#1127,1.);
#1127=DIRECTION('',(2.22044604925031E-16,0.,1.));
#1128=CARTESIAN_POINT('',(-22.85,-3.2,36.4));
#1129=CARTESIAN_POINT('',(-22.85,-2.6,37.));
#1130=VECTOR('',#1131,1.);
#1131=DIRECTION('',(0.,-0.707106781186547,-0.707106781186548));
#1132=CARTESIAN_POINT('',(22.85,-3.2,36.4));
#1133=CARTESIAN_POINT('',(22.85,-3.2,36.4));
#1134=VECTOR('',#1135,1.);
#1135=DIRECTION('',(-1.,0.,0.));
#1136=CARTESIAN_POINT('',(22.85,-3.2,36.4));
#1137=VECTOR('',#1138,1.);
#1138=DIRECTION('',(0.,0.707106781186551,0.707106781186544));
#1139=CARTESIAN_POINT('',(27.,-2.6,32.85));
#1140=AXIS2_PLACEMENT_3D('',#1141,#1142,#1143);
#1141=CARTESIAN_POINT('',(22.85,-2.6,32.85));
#1142=DIRECTION('',(0.,-1.,0.));
#1143=DIRECTION('',(1.,0.,1.71215117050626E-15));
#1144=CARTESIAN_POINT('',(27.,-2.6,32.85));
#1145=VECTOR('',#1146,1.);
#1146=DIRECTION('',(0.,1.,0.));
#1147=CARTESIAN_POINT('',(-27.,-2.6,32.85));
#1148=AXIS2_PLACEMENT_3D('',#1149,#1150,#1151);
#1149=CARTESIAN_POINT('',(-22.85,-2.6,32.85));
#1150=DIRECTION('',(0.,-1.,0.));
#1151=DIRECTION('',(8.56075585253133E-16,0.,1.));
#1152=CARTESIAN_POINT('',(-27.,-2.6,32.85));
#1153=VECTOR('',#1154,1.);
#1154=DIRECTION('',(0.,1.,0.));
#1155=CARTESIAN_POINT('',(-25.,2.22044604925031E-15,-34.5));
#1156=VECTOR('',#1157,1.);
#1157=DIRECTION('',(0.,1.,0.));
#1158=CARTESIAN_POINT('',(-24.5,2.22044604925031E-15,-35.));
#1159=VECTOR('',#1160,1.);
#1160=DIRECTION('',(0.,1.,0.));
#1161=CARTESIAN_POINT('',(24.5,2.22044604925031E-15,-35.));
#1162=VECTOR('',#1163,1.);
#1163=DIRECTION('',(0.,1.,0.));
#1164=CARTESIAN_POINT('',(25.,2.22044604925031E-15,-34.5));
#1165=VECTOR('',#1166,1.);
#1166=DIRECTION('',(0.,1.,0.));
#1167=CARTESIAN_POINT('',(27.,-2.6,-32.85));
#1168=CARTESIAN_POINT('',(27.,-2.6,-32.85));
#1169=VECTOR('',#1170,1.);
#1170=DIRECTION('',(-1.62224368895E-16,-6.75934870395833E-17,1.));
#1171=CARTESIAN_POINT('',(27.,-2.6,-32.85));
#1172=VECTOR('',#1173,1.);
#1173=DIRECTION('',(0.,1.,0.));
#1174=CARTESIAN_POINT('',(22.85,-2.6,-37.));
#1175=AXIS2_PLACEMENT_3D('',#1176,#1177,#1178);
#1176=CARTESIAN_POINT('',(22.85,-2.6,-32.85));
#1177=DIRECTION('',(0.,-1.,0.));
#1178=DIRECTION('',(-8.56075585253133E-16,0.,-1.));
#1179=CARTESIAN_POINT('',(22.85,-2.6,-37.));
#1180=VECTOR('',#1181,1.);
#1181=DIRECTION('',(0.,1.,0.));
#1182=CARTESIAN_POINT('',(-22.85,-2.6,-37.));
#1183=CARTESIAN_POINT('',(-22.85,-2.6,-37.));
#1184=VECTOR('',#1185,1.);
#1185=DIRECTION('',(1.,0.,-1.55479810888425E-16));
#1186=CARTESIAN_POINT('',(-22.85,-2.6,-37.));
#1187=VECTOR('',#1188,1.);
#1188=DIRECTION('',(0.,1.,0.));
#1189=CARTESIAN_POINT('',(-27.,-2.6,-32.85));
#1190=AXIS2_PLACEMENT_3D('',#1191,#1192,#1193);
#1191=CARTESIAN_POINT('',(-22.85,-2.6,-32.85));
#1192=DIRECTION('',(0.,-1.,0.));
#1193=DIRECTION('',(-1.,0.,-1.71215117050626E-15));
#1194=CARTESIAN_POINT('',(-27.,-2.6,-32.85));
#1195=VECTOR('',#1196,1.);
#1196=DIRECTION('',(0.,1.,0.));
#1197=CARTESIAN_POINT('',(-27.,-2.6,32.85));
#1198=VECTOR('',#1199,1.);
#1199=DIRECTION('',(5.40747896316667E-17,6.75934870395833E-17,-1.));
#1200=CARTESIAN_POINT('',(-22.85,-0.800000000000002,31.45));
#1201=AXIS2_PLACEMENT_3D('',#1202,#1203,#1204);
#1202=CARTESIAN_POINT('',(-22.85,-0.800000000000002,32.85));
#1203=DIRECTION('',(0.,1.,6.12323399573677E-17));
#1204=DIRECTION('',(6.12323399573676E-17,6.12323399573676E-17,-1.));
#1205=CARTESIAN_POINT('',(-22.85,-0.799999999999999,-34.25));
#1206=AXIS2_PLACEMENT_3D('',#1207,#1208,#1209);
#1207=CARTESIAN_POINT('',(-22.85,-0.799999999999998,-32.85));
#1208=DIRECTION('',(0.,1.,6.12323399573677E-17));
#1209=DIRECTION('',(6.12323399573676E-17,6.12323399573676E-17,-1.));
#1210=CARTESIAN_POINT('',(22.85,-0.800000000000002,31.45));
#1211=AXIS2_PLACEMENT_3D('',#1212,#1213,#1214);
#1212=CARTESIAN_POINT('',(22.85,-0.800000000000002,32.85));
#1213=DIRECTION('',(0.,1.,6.12323399573677E-17));
#1214=DIRECTION('',(6.12323399573676E-17,6.12323399573676E-17,-1.));
#1215=CARTESIAN_POINT('',(22.85,-0.799999999999999,-34.25));
#1216=AXIS2_PLACEMENT_3D('',#1217,#1218,#1219);
#1217=CARTESIAN_POINT('',(22.85,-0.799999999999998,-32.85));
#1218=DIRECTION('',(0.,1.,6.12323399573677E-17));
#1219=DIRECTION('',(6.12323399573676E-17,6.12323399573676E-17,-1.));
#1220=CARTESIAN_POINT('',(-26.4,-3.2,32.85));
#1221=AXIS2_PLACEMENT_3D('',#1222,#1223,#1224);
#1222=CARTESIAN_POINT('',(-22.85,-3.2,32.85));
#1223=DIRECTION('',(0.,-1.,-6.12323399573677E-17));
#1224=DIRECTION('',(1.00076441656352E-15,-6.12323399573677E-17,1.));
#1225=CARTESIAN_POINT('',(-26.4,-3.2,32.85));
#1226=VECTOR('',#1227,1.);
#1227=DIRECTION('',(-0.707106781186549,0.707106781186546,0.));
#1228=CARTESIAN_POINT('',(-26.4,-3.2,-32.85));
#1229=CARTESIAN_POINT('',(-26.4,-3.2,32.85));
#1230=VECTOR('',#1231,1.);
#1231=DIRECTION('',(5.40747896316667E-17,6.75934870395833E-17,-1.));
#1232=CARTESIAN_POINT('',(-22.85,-3.2,-36.4));
#1233=AXIS2_PLACEMENT_3D('',#1234,#1235,#1236);
#1234=CARTESIAN_POINT('',(-22.85,-3.2,-32.85));
#1235=DIRECTION('',(0.,-1.,-6.12323399573677E-17));
#1236=DIRECTION('',(-1.,2.45116587889017E-31,-4.00305766625408E-15));
#1237=CARTESIAN_POINT('',(22.85,-3.2,-36.4));
#1238=CARTESIAN_POINT('',(-22.85,-3.2,-36.4));
#1239=VECTOR('',#1240,1.);
#1240=DIRECTION('',(1.,0.,0.));
#1241=CARTESIAN_POINT('',(26.4,-3.2,-32.85));
#1242=AXIS2_PLACEMENT_3D('',#1243,#1244,#1245);
#1243=CARTESIAN_POINT('',(22.85,-3.2,-32.85));
#1244=DIRECTION('',(0.,-1.,-6.12323399573677E-17));
#1245=DIRECTION('',(0.,6.12323399573677E-17,-1.));
#1246=CARTESIAN_POINT('',(26.4,-3.2,32.85));
#1247=CARTESIAN_POINT('',(26.4,-3.2,-32.85));
#1248=VECTOR('',#1249,1.);
#1249=DIRECTION('',(-1.62224368895E-16,-6.75934870395833E-17,1.));
#1250=AXIS2_PLACEMENT_3D('',#1251,#1252,#1253);
#1251=CARTESIAN_POINT('',(22.85,-3.2,32.85));
#1252=DIRECTION('',(0.,-1.,-6.12323399573677E-17));
#1253=DIRECTION('',(1.,-1.22558293944508E-31,2.00152883312704E-15));
#1254=CARTESIAN_POINT('',(22.85,-3.2,-30.6));
#1255=AXIS2_PLACEMENT_3D('',#1256,#1257,#1258);
#1256=CARTESIAN_POINT('',(22.85,-3.2,-32.85));
#1257=DIRECTION('',(0.,-1.,-6.12323399573677E-17));
#1258=DIRECTION('',(6.12323399573677E-17,-6.12323399573677E-17,1.));
#1259=CARTESIAN_POINT('',(22.85,-3.2,35.1));
#1260=AXIS2_PLACEMENT_3D('',#1261,#1262,#1263);
#1261=CARTESIAN_POINT('',(22.85,-3.2,32.85));
#1262=DIRECTION('',(0.,-1.,-6.12323399573677E-17));
#1263=DIRECTION('',(6.12323399573677E-17,-6.12323399573677E-17,1.));
#1264=CARTESIAN_POINT('',(-22.85,-3.2,35.1));
#1265=AXIS2_PLACEMENT_3D('',#1266,#1267,#1268);
#1266=CARTESIAN_POINT('',(-22.85,-3.2,32.85));
#1267=DIRECTION('',(0.,-1.,-6.12323399573677E-17));
#1268=DIRECTION('',(6.12323399573677E-17,-6.12323399573677E-17,1.));
#1269=CARTESIAN_POINT('',(-22.85,-3.2,-30.6));
#1270=AXIS2_PLACEMENT_3D('',#1271,#1272,#1273);
#1271=CARTESIAN_POINT('',(-22.85,-3.2,-32.85));
#1272=DIRECTION('',(0.,-1.,-6.12323399573677E-17));
#1273=DIRECTION('',(6.12323399573677E-17,-6.12323399573677E-17,1.));
#1274=CARTESIAN_POINT('',(27.,-2.6,32.85));
#1275=VECTOR('',#1276,1.);
#1276=DIRECTION('',(-0.707106781186549,-0.707106781186546,0.));
#1277=CARTESIAN_POINT('',(26.4,-3.2,-32.85));
#1278=VECTOR('',#1279,1.);
#1279=DIRECTION('',(0.707106781186548,0.707106781186547,0.));
#1280=CARTESIAN_POINT('',(22.85,-2.6,-37.));
#1281=VECTOR('',#1282,1.);
#1282=DIRECTION('',(0.,-0.707106781186552,0.707106781186543));
#1283=CARTESIAN_POINT('',(-22.85,-3.2,-36.4));
#1284=VECTOR('',#1285,1.);
#1285=DIRECTION('',(0.,0.707106781186547,-0.707106781186548));
#1286=CARTESIAN_POINT('',(-27.,-2.6,-32.85));
#1287=VECTOR('',#1288,1.);
#1288=DIRECTION('',(0.707106781186549,-0.707106781186546,0.));
#1289=CARTESIAN_POINT('',(-22.85,-0.800000000000002,35.1));
#1290=AXIS2_PLACEMENT_3D('',#1291,#1292,#1293);
#1291=CARTESIAN_POINT('',(-22.85,-0.800000000000002,32.85));
#1292=DIRECTION('',(0.,-1.,-6.12323399573677E-17));
#1293=DIRECTION('',(6.12323399573677E-17,-6.12323399573677E-17,1.));
#1294=CARTESIAN_POINT('',(-22.85,-0.799999999999998,-30.6));
#1295=AXIS2_PLACEMENT_3D('',#1296,#1297,#1298);
#1296=CARTESIAN_POINT('',(-22.85,-0.799999999999998,-32.85));
#1297=DIRECTION('',(0.,-1.,-6.12323399573677E-17));
#1298=DIRECTION('',(6.12323399573677E-17,-6.12323399573677E-17,1.));
#1299=CARTESIAN_POINT('',(22.85,-0.800000000000002,35.1));
#1300=AXIS2_PLACEMENT_3D('',#1301,#1302,#1303);
#1301=CARTESIAN_POINT('',(22.85,-0.800000000000002,32.85));
#1302=DIRECTION('',(0.,-1.,-6.12323399573677E-17));
#1303=DIRECTION('',(6.12323399573677E-17,-6.12323399573677E-17,1.));
#1304=CARTESIAN_POINT('',(22.85,-0.799999999999998,-30.6));
#1305=AXIS2_PLACEMENT_3D('',#1306,#1307,#1308);
#1306=CARTESIAN_POINT('',(22.85,-0.799999999999998,-32.85));
#1307=DIRECTION('',(0.,-1.,-6.12323399573677E-17));
#1308=DIRECTION('',(6.12323399573677E-17,-6.12323399573677E-17,1.));
ENDSEC;
END-ISO-10303-21;
