ISO-10303-21;
HEADER;
FILE_DESCRIPTION(('STEP AP242'),
    '1');
FILE_NAME('MotorWireRoof',
    '',
    ('UNSPECIFIED'),
    ('UNSPECIFIED'),
    'C3D Converter',
    'C3D Toolkit',
    '');
FILE_SCHEMA(('AP242_MANAGED_MODEL_BASED_3D_ENGINEERING_MIM_LF { 1 0 10303 442 1 1 4 }'));
ENDSEC;

DATA;
#1=PRODUCT_DEFINITION('','UNSPECIFIED',#28,#31);
#2=SHAPE_DEFINITION_REPRESENTATION(#26,#3);
#3=SHAPE_REPRESENTATION('NONE',(#4),#8);
#4=AXIS2_PLACEMENT_3D('',#5,#6,#7);
#5=CARTESIAN_POINT('',(0.,0.,0.));
#6=DIRECTION('',(0.,0.,1.));
#7=DIRECTION('',(1.,0.,0.));
#8=(GEOMETRIC_REPRESENTATION_CONTEXT(3)GLOBAL_UNCERTAINTY_ASSIGNED_CONTEXT((#10))
GLOBAL_UNIT_ASSIGNED_CONTEXT((#9,#11,#12))REPRESENTATION_CONTEXT('NONE','NONE'));
#9=(LENGTH_UNIT()NAMED_UNIT(*)SI_UNIT(.MILLI.,.METRE.));
#10=UNCERTAINTY_MEASURE_WITH_UNIT(LENGTH_MEASURE(1.E-5),#9,'NONE','NONE');
#11=(NAMED_UNIT(*)PLANE_ANGLE_UNIT()SI_UNIT($,.RADIAN.));
#12=(NAMED_UNIT(*)SI_UNIT($,.STERADIAN.)SOLID_ANGLE_UNIT());
#13=MANIFOLD_SOLID_BREP('',#14);
#14=CLOSED_SHELL('',(#53,#54,#55,#56,#57,#58,#59,#60,#61,#62,#63,#64,#65,#66,#67,
#68,#69,#70,#71,#72,#73,#74,#75,#76,#77,#78,#79,#80,#81,#82,#83,#84,#85,#86,#87,
#88,#89,#90,#91,#92,#93,#94,#95,#96,#97,#98,#99,#100,#101,#102,#103,#104,#105,#106,
#107,#108,#109,#110,#111,#112,#113,#114,#115));
#15=COLOUR_RGB('',0.564705882352941,0.564705882352941,0.564705882352941);
#16=FILL_AREA_STYLE_COLOUR('',#15);
#17=FILL_AREA_STYLE($,(#16));
#18=SURFACE_STYLE_FILL_AREA(#17);
#19=SURFACE_SIDE_STYLE('',(#18));
#20=SURFACE_STYLE_USAGE(.BOTH.,#19);
#21=PRESENTATION_STYLE_ASSIGNMENT((#20));
#22=MECHANICAL_DESIGN_GEOMETRIC_PRESENTATION_REPRESENTATION('NONE',(#23),#8);
#23=STYLED_ITEM('',(#21),#13);
#24=ADVANCED_BREP_SHAPE_REPRESENTATION('NONE',(#13),#8);
#25=SHAPE_REPRESENTATION_RELATIONSHIP('','',#3,#24);
#26=PRODUCT_DEFINITION_SHAPE('NONE','NONE',#1);
#27=MECHANICAL_CONTEXT('NONE',#32,'mechanical');
#28=PRODUCT_DEFINITION_FORMATION_WITH_SPECIFIED_SOURCE('ANY','UNSPECIFIED',#29,.NOT_KNOWN.);
#29=PRODUCT('','\X2\0414043504420430043B044C\X0\','NONE',(#27));
#30=PRODUCT_RELATED_PRODUCT_CATEGORY('detail','',(#29));
#31=DESIGN_CONTEXT('detailed design',#32,'design');
#32=APPLICATION_CONTEXT('configuration controlled 3d designs of mechanical parts and assemblies');
#33=APPLICATION_PROTOCOL_DEFINITION('international standard','config_control_design',
1994,#32);
#34=CC_DESIGN_DATE_AND_TIME_ASSIGNMENT(#35,#39,(#1));
#35=DATE_AND_TIME(#36,#37);
#36=CALENDAR_DATE(0,1,1);
#37=LOCAL_TIME(0,0,0.,#38);
#38=COORDINATED_UNIVERSAL_TIME_OFFSET(0,0,.AHEAD.);
#39=DATE_TIME_ROLE('creation_date');
#40=CC_DESIGN_APPROVAL(#41,(#1));
#41=APPROVAL(#42,'UNSPECIFIED');
#42=APPROVAL_STATUS('not_yet_approved');
#43=APPROVAL_DATE_TIME(#44,#41);
#44=DATE_AND_TIME(#45,#46);
#45=CALENDAR_DATE(0,1,1);
#46=LOCAL_TIME(0,0,0.,#47);
#47=COORDINATED_UNIVERSAL_TIME_OFFSET(0,0,.AHEAD.);
#48=PERSON('UNSPECIFIED','ledibonibell','UNSPECIFIED',('UNSPECIFIED'),('UNSPECIFIED'),
('UNSPECIFIED'));
#49=ORGANIZATION('UNSPECIFIED','UNSPECIFIED','UNSPECIFIED');
#50=PERSON_AND_ORGANIZATION(#48,#49);
#51=PERSON_AND_ORGANIZATION_ROLE('creator');
#52=CC_DESIGN_PERSON_AND_ORGANIZATION_ASSIGNMENT(#50,#51,(#28,#1));
#53=ADVANCED_FACE('',(#116,#118,#120,#122,#124,#126,#128,#130),#132,.T.);
#54=ADVANCED_FACE('',(#137),#139,.T.);
#55=ADVANCED_FACE('',(#144),#146,.T.);
#56=ADVANCED_FACE('',(#151),#153,.T.);
#57=ADVANCED_FACE('',(#158),#160,.T.);
#58=ADVANCED_FACE('',(#165),#167,.T.);
#59=ADVANCED_FACE('',(#172),#174,.T.);
#60=ADVANCED_FACE('',(#179),#181,.F.);
#61=ADVANCED_FACE('',(#186),#188,.F.);
#62=ADVANCED_FACE('',(#193),#195,.F.);
#63=ADVANCED_FACE('',(#200),#202,.T.);
#64=ADVANCED_FACE('',(#207),#209,.F.);
#65=ADVANCED_FACE('',(#214),#216,.T.);
#66=ADVANCED_FACE('',(#221),#223,.F.);
#67=ADVANCED_FACE('',(#228),#230,.T.);
#68=ADVANCED_FACE('',(#235),#237,.F.);
#69=ADVANCED_FACE('',(#242),#244,.T.);
#70=ADVANCED_FACE('',(#249),#251,.F.);
#71=ADVANCED_FACE('',(#256),#258,.F.);
#72=ADVANCED_FACE('',(#263),#265,.F.);
#73=ADVANCED_FACE('',(#270),#272,.F.);
#74=ADVANCED_FACE('',(#277),#279,.F.);
#75=ADVANCED_FACE('',(#284),#286,.F.);
#76=ADVANCED_FACE('',(#291),#293,.F.);
#77=ADVANCED_FACE('',(#298),#300,.F.);
#78=ADVANCED_FACE('',(#305),#307,.T.);
#79=ADVANCED_FACE('',(#312),#314,.T.);
#80=ADVANCED_FACE('',(#319),#321,.T.);
#81=ADVANCED_FACE('',(#326),#328,.T.);
#82=ADVANCED_FACE('',(#333),#335,.T.);
#83=ADVANCED_FACE('',(#340),#342,.T.);
#84=ADVANCED_FACE('',(#347),#349,.T.);
#85=ADVANCED_FACE('',(#354),#356,.T.);
#86=ADVANCED_FACE('',(#361),#363,.T.);
#87=ADVANCED_FACE('',(#368),#370,.T.);
#88=ADVANCED_FACE('',(#375),#377,.T.);
#89=ADVANCED_FACE('',(#382),#384,.T.);
#90=ADVANCED_FACE('',(#389),#391,.T.);
#91=ADVANCED_FACE('',(#396),#398,.T.);
#92=ADVANCED_FACE('',(#403,#405),#407,.F.);
#93=ADVANCED_FACE('',(#412,#414),#416,.F.);
#94=ADVANCED_FACE('',(#421),#423,.F.);
#95=ADVANCED_FACE('',(#428),#430,.F.);
#96=ADVANCED_FACE('',(#435),#437,.F.);
#97=ADVANCED_FACE('',(#442),#444,.F.);
#98=ADVANCED_FACE('',(#449),#451,.F.);
#99=ADVANCED_FACE('',(#456),#458,.F.);
#100=ADVANCED_FACE('',(#463),#465,.F.);
#101=ADVANCED_FACE('',(#470),#472,.F.);
#102=ADVANCED_FACE('',(#477),#479,.F.);
#103=ADVANCED_FACE('',(#484),#486,.F.);
#104=ADVANCED_FACE('',(#491),#493,.F.);
#105=ADVANCED_FACE('',(#498),#500,.F.);
#106=ADVANCED_FACE('',(#505),#507,.F.);
#107=ADVANCED_FACE('',(#512),#514,.F.);
#108=ADVANCED_FACE('',(#519),#521,.F.);
#109=ADVANCED_FACE('',(#526),#528,.F.);
#110=ADVANCED_FACE('',(#533),#535,.T.);
#111=ADVANCED_FACE('',(#540,#542),#544,.T.);
#112=ADVANCED_FACE('',(#549,#551),#553,.T.);
#113=ADVANCED_FACE('',(#558,#560,#562,#564,#566),#568,.F.);
#114=ADVANCED_FACE('',(#573,#575),#577,.F.);
#115=ADVANCED_FACE('',(#582,#584),#586,.F.);
#116=FACE_BOUND('',#117,.T.);
#117=EDGE_LOOP('',(#591,#592,#593,#594,#595,#596,#597,#598));
#118=FACE_BOUND('',#119,.T.);
#119=EDGE_LOOP('',(#599,#600,#601,#602));
#120=FACE_BOUND('',#121,.T.);
#121=EDGE_LOOP('',(#603,#604,#605,#606));
#122=FACE_BOUND('',#123,.T.);
#123=EDGE_LOOP('',(#607,#608,#609,#610,#611,#612,#613,#614));
#124=FACE_BOUND('',#125,.T.);
#125=EDGE_LOOP('',(#615,#616,#617,#618));
#126=FACE_BOUND('',#127,.T.);
#127=EDGE_LOOP('',(#619,#620,#621,#622,#623,#624,#625,#626));
#128=FACE_BOUND('',#129,.T.);
#129=EDGE_LOOP('',(#627));
#130=FACE_BOUND('',#131,.T.);
#131=EDGE_LOOP('',(#628));
#132=PLANE('',#133);
#133=AXIS2_PLACEMENT_3D('',#134,#135,#136);
#134=CARTESIAN_POINT('',(0.,0.,2.));
#135=DIRECTION('',(0.,0.,1.));
#136=DIRECTION('',(1.,0.,0.));
#137=FACE_BOUND('',#138,.T.);
#138=EDGE_LOOP('',(#629,#630,#631,#632));
#139=PLANE('',#140);
#140=AXIS2_PLACEMENT_3D('',#141,#142,#143);
#141=CARTESIAN_POINT('',(0.,0.,7.));
#142=DIRECTION('',(0.,0.,1.));
#143=DIRECTION('',(1.,0.,0.));
#144=FACE_BOUND('',#145,.T.);
#145=EDGE_LOOP('',(#633,#634,#635,#636,#637,#638,#639,#640));
#146=PLANE('',#147);
#147=AXIS2_PLACEMENT_3D('',#148,#149,#150);
#148=CARTESIAN_POINT('',(0.,0.,7.));
#149=DIRECTION('',(0.,0.,1.));
#150=DIRECTION('',(1.,0.,0.));
#151=FACE_BOUND('',#152,.T.);
#152=EDGE_LOOP('',(#641,#642,#643,#644));
#153=PLANE('',#154);
#154=AXIS2_PLACEMENT_3D('',#155,#156,#157);
#155=CARTESIAN_POINT('',(-16.2958369439657,-19.3,2.));
#156=DIRECTION('',(-4.19231519577065E-16,-1.,0.));
#157=DIRECTION('',(1.,-4.19231519577065E-16,0.));
#158=FACE_BOUND('',#159,.T.);
#159=EDGE_LOOP('',(#645,#646,#647,#648));
#160=PLANE('',#161);
#161=AXIS2_PLACEMENT_3D('',#162,#163,#164);
#162=CARTESIAN_POINT('',(-16.2958369439657,-19.3,2.));
#163=DIRECTION('',(-4.19231519577065E-16,-1.,0.));
#164=DIRECTION('',(1.,-4.19231519577065E-16,0.));
#165=FACE_BOUND('',#166,.T.);
#166=EDGE_LOOP('',(#649,#650,#651,#652));
#167=PLANE('',#168);
#168=AXIS2_PLACEMENT_3D('',#169,#170,#171);
#169=CARTESIAN_POINT('',(9.1272062641256,-18.1,2.));
#170=DIRECTION('',(4.27591535891677E-16,1.,0.));
#171=DIRECTION('',(-1.,4.27591535891677E-16,0.));
#172=FACE_BOUND('',#173,.T.);
#173=EDGE_LOOP('',(#653,#654,#655,#656));
#174=PLANE('',#175);
#175=AXIS2_PLACEMENT_3D('',#176,#177,#178);
#176=CARTESIAN_POINT('',(9.1272062641256,-18.1,2.));
#177=DIRECTION('',(4.27591535891677E-16,1.,0.));
#178=DIRECTION('',(-1.,4.27591535891677E-16,0.));
#179=FACE_BOUND('',#180,.T.);
#180=EDGE_LOOP('',(#657,#658,#659,#660));
#181=PLANE('',#182);
#182=AXIS2_PLACEMENT_3D('',#183,#184,#185);
#183=CARTESIAN_POINT('',(-15.,-14.6520717888808,2.));
#184=DIRECTION('',(-1.,0.,0.));
#185=DIRECTION('',(0.,-1.,0.));
#186=FACE_BOUND('',#187,.T.);
#187=EDGE_LOOP('',(#661,#662,#663,#664));
#188=PLANE('',#189);
#189=AXIS2_PLACEMENT_3D('',#190,#191,#192);
#190=CARTESIAN_POINT('',(7.34788079488412E-16,-24.6520717888808,2.));
#191=DIRECTION('',(1.,6.12323399573677E-17,0.));
#192=DIRECTION('',(-6.12323399573677E-17,1.,0.));
#193=FACE_BOUND('',#194,.T.);
#194=EDGE_LOOP('',(#665,#666,#667,#668));
#195=PLANE('',#196);
#196=AXIS2_PLACEMENT_3D('',#197,#198,#199);
#197=CARTESIAN_POINT('',(-21.,-17.,-14.));
#198=DIRECTION('',(0.707106781186547,0.707106781186547,0.));
#199=DIRECTION('',(0.,0.,1.));
#200=FACE_BOUND('',#201,.T.);
#201=EDGE_LOOP('',(#669,#670,#671,#672));
#202=PLANE('',#203);
#203=AXIS2_PLACEMENT_3D('',#204,#205,#206);
#204=CARTESIAN_POINT('',(-21.,-21.,0.));
#205=DIRECTION('',(0.,-1.,0.));
#206=DIRECTION('',(1.,0.,0.));
#207=FACE_BOUND('',#208,.T.);
#208=EDGE_LOOP('',(#673,#674,#675,#676));
#209=PLANE('',#210);
#210=AXIS2_PLACEMENT_3D('',#211,#212,#213);
#211=CARTESIAN_POINT('',(17.,-21.,-14.));
#212=DIRECTION('',(-0.707106781186547,0.707106781186547,0.));
#213=DIRECTION('',(0.,0.,1.));
#214=FACE_BOUND('',#215,.T.);
#215=EDGE_LOOP('',(#677,#678,#679,#680));
#216=PLANE('',#217);
#217=AXIS2_PLACEMENT_3D('',#218,#219,#220);
#218=CARTESIAN_POINT('',(21.,-21.,0.));
#219=DIRECTION('',(1.,0.,0.));
#220=DIRECTION('',(0.,1.,0.));
#221=FACE_BOUND('',#222,.T.);
#222=EDGE_LOOP('',(#681,#682,#683,#684));
#223=PLANE('',#224);
#224=AXIS2_PLACEMENT_3D('',#225,#226,#227);
#225=CARTESIAN_POINT('',(21.,17.,-14.));
#226=DIRECTION('',(-0.707106781186547,-0.707106781186547,0.));
#227=DIRECTION('',(0.,0.,1.));
#228=FACE_BOUND('',#229,.T.);
#229=EDGE_LOOP('',(#685,#686,#687,#688));
#230=PLANE('',#231);
#231=AXIS2_PLACEMENT_3D('',#232,#233,#234);
#232=CARTESIAN_POINT('',(21.,21.,0.));
#233=DIRECTION('',(0.,1.,0.));
#234=DIRECTION('',(-1.,0.,0.));
#235=FACE_BOUND('',#236,.T.);
#236=EDGE_LOOP('',(#689,#690,#691,#692));
#237=PLANE('',#238);
#238=AXIS2_PLACEMENT_3D('',#239,#240,#241);
#239=CARTESIAN_POINT('',(-17.,21.,-14.));
#240=DIRECTION('',(0.707106781186547,-0.707106781186547,0.));
#241=DIRECTION('',(0.,0.,1.));
#242=FACE_BOUND('',#243,.T.);
#243=EDGE_LOOP('',(#693,#694,#695,#696));
#244=PLANE('',#245);
#245=AXIS2_PLACEMENT_3D('',#246,#247,#248);
#246=CARTESIAN_POINT('',(-21.,21.,0.));
#247=DIRECTION('',(-1.,0.,0.));
#248=DIRECTION('',(0.,-1.,0.));
#249=FACE_BOUND('',#250,.T.);
#250=EDGE_LOOP('',(#697,#698,#699,#700));
#251=PLANE('',#252);
#252=AXIS2_PLACEMENT_3D('',#253,#254,#255);
#253=CARTESIAN_POINT('',(6.8,-7.5,10.));
#254=DIRECTION('',(0.,-1.,0.));
#255=DIRECTION('',(-1.,0.,0.));
#256=FACE_BOUND('',#257,.T.);
#257=EDGE_LOOP('',(#701,#702,#703,#704));
#258=PLANE('',#259);
#259=AXIS2_PLACEMENT_3D('',#260,#261,#262);
#260=CARTESIAN_POINT('',(1.,-7.5,10.));
#261=DIRECTION('',(-1.,-5.9211894646675E-17,0.));
#262=DIRECTION('',(-5.9211894646675E-17,1.,0.));
#263=FACE_BOUND('',#264,.T.);
#264=EDGE_LOOP('',(#705,#706,#707,#708));
#265=PLANE('',#266);
#266=AXIS2_PLACEMENT_3D('',#267,#268,#269);
#267=CARTESIAN_POINT('',(1.,7.5,10.));
#268=DIRECTION('',(0.,1.,0.));
#269=DIRECTION('',(1.,0.,0.));
#270=FACE_BOUND('',#271,.T.);
#271=EDGE_LOOP('',(#709,#710,#711,#712));
#272=PLANE('',#273);
#273=AXIS2_PLACEMENT_3D('',#274,#275,#276);
#274=CARTESIAN_POINT('',(6.8,7.5,10.));
#275=DIRECTION('',(1.,1.1842378929335E-16,0.));
#276=DIRECTION('',(1.1842378929335E-16,-1.,0.));
#277=FACE_BOUND('',#278,.T.);
#278=EDGE_LOOP('',(#713,#714,#715,#716));
#279=PLANE('',#280);
#280=AXIS2_PLACEMENT_3D('',#281,#282,#283);
#281=CARTESIAN_POINT('',(-0.999999999999999,-6.24,10.));
#282=DIRECTION('',(0.,-1.,0.));
#283=DIRECTION('',(-1.,0.,0.));
#284=FACE_BOUND('',#285,.T.);
#285=EDGE_LOOP('',(#717,#718,#719,#720));
#286=PLANE('',#287);
#287=AXIS2_PLACEMENT_3D('',#288,#289,#290);
#288=CARTESIAN_POINT('',(-6.8,-6.24,10.));
#289=DIRECTION('',(-1.,0.,0.));
#290=DIRECTION('',(0.,1.,0.));
#291=FACE_BOUND('',#292,.T.);
#292=EDGE_LOOP('',(#721,#722,#723,#724));
#293=PLANE('',#294);
#294=AXIS2_PLACEMENT_3D('',#295,#296,#297);
#295=CARTESIAN_POINT('',(-6.8,6.24,10.));
#296=DIRECTION('',(0.,1.,0.));
#297=DIRECTION('',(1.,0.,0.));
#298=FACE_BOUND('',#299,.T.);
#299=EDGE_LOOP('',(#725,#726,#727,#728));
#300=PLANE('',#301);
#301=AXIS2_PLACEMENT_3D('',#302,#303,#304);
#302=CARTESIAN_POINT('',(-1.,6.24,10.));
#303=DIRECTION('',(1.,5.33761069531325E-17,0.));
#304=DIRECTION('',(5.33761069531325E-17,-1.,0.));
#305=FACE_BOUND('',#306,.T.);
#306=EDGE_LOOP('',(#729,#730,#731,#732));
#307=PLANE('',#308);
#308=AXIS2_PLACEMENT_3D('',#309,#310,#311);
#309=CARTESIAN_POINT('',(-19.3,-16.2958369439657,2.));
#310=DIRECTION('',(-0.707106781186548,-0.707106781186548,0.));
#311=DIRECTION('',(0.707106781186548,-0.707106781186548,0.));
#312=FACE_BOUND('',#313,.T.);
#313=EDGE_LOOP('',(#733,#734,#735,#736));
#314=PLANE('',#315);
#315=AXIS2_PLACEMENT_3D('',#316,#317,#318);
#316=CARTESIAN_POINT('',(-19.3,9.1272062641256,2.));
#317=DIRECTION('',(-1.,2.79487679718043E-16,0.));
#318=DIRECTION('',(-2.79487679718043E-16,-1.,0.));
#319=FACE_BOUND('',#320,.T.);
#320=EDGE_LOOP('',(#737,#738,#739,#740));
#321=PLANE('',#322);
#322=AXIS2_PLACEMENT_3D('',#323,#324,#325);
#323=CARTESIAN_POINT('',(-18.1,9.1272062641256,2.));
#324=DIRECTION('',(0.,1.,0.));
#325=DIRECTION('',(-1.,0.,0.));
#326=FACE_BOUND('',#327,.T.);
#327=EDGE_LOOP('',(#741,#742,#743,#744));
#328=PLANE('',#329);
#329=AXIS2_PLACEMENT_3D('',#330,#331,#332);
#330=CARTESIAN_POINT('',(-18.1,-15.798780669118,2.));
#331=DIRECTION('',(1.,-1.42530511963892E-16,0.));
#332=DIRECTION('',(1.42530511963892E-16,1.,0.));
#333=FACE_BOUND('',#334,.T.);
#334=EDGE_LOOP('',(#745,#746,#747,#748));
#335=PLANE('',#336);
#336=AXIS2_PLACEMENT_3D('',#337,#338,#339);
#337=CARTESIAN_POINT('',(-15.798780669118,-18.1,2.));
#338=DIRECTION('',(0.707106781186548,0.707106781186548,0.));
#339=DIRECTION('',(-0.707106781186548,0.707106781186548,0.));
#340=FACE_BOUND('',#341,.T.);
#341=EDGE_LOOP('',(#749,#750,#751,#752));
#342=PLANE('',#343);
#343=AXIS2_PLACEMENT_3D('',#344,#345,#346);
#344=CARTESIAN_POINT('',(9.1272062641256,-19.3,2.));
#345=DIRECTION('',(1.,0.,0.));
#346=DIRECTION('',(0.,1.,0.));
#347=FACE_BOUND('',#348,.T.);
#348=EDGE_LOOP('',(#753,#754,#755,#756));
#349=PLANE('',#350);
#350=AXIS2_PLACEMENT_3D('',#351,#352,#353);
#351=CARTESIAN_POINT('',(-9.1272062641256,18.1,2.));
#352=DIRECTION('',(-2.85061023927784E-16,-1.,0.));
#353=DIRECTION('',(1.,-2.85061023927784E-16,0.));
#354=FACE_BOUND('',#355,.T.);
#355=EDGE_LOOP('',(#757,#758,#759,#760));
#356=PLANE('',#357);
#357=AXIS2_PLACEMENT_3D('',#358,#359,#360);
#358=CARTESIAN_POINT('',(-9.1272062641256,19.3,2.));
#359=DIRECTION('',(-1.,0.,0.));
#360=DIRECTION('',(0.,-1.,0.));
#361=FACE_BOUND('',#362,.T.);
#362=EDGE_LOOP('',(#761,#762,#763,#764));
#363=PLANE('',#364);
#364=AXIS2_PLACEMENT_3D('',#365,#366,#367);
#365=CARTESIAN_POINT('',(16.2958369439657,19.3,2.));
#366=DIRECTION('',(2.79487679718043E-16,1.,0.));
#367=DIRECTION('',(-1.,2.79487679718043E-16,0.));
#368=FACE_BOUND('',#369,.T.);
#369=EDGE_LOOP('',(#765,#766,#767,#768));
#370=PLANE('',#371);
#371=AXIS2_PLACEMENT_3D('',#372,#373,#374);
#372=CARTESIAN_POINT('',(19.3,16.2958369439657,2.));
#373=DIRECTION('',(0.707106781186548,0.707106781186548,0.));
#374=DIRECTION('',(-0.707106781186548,0.707106781186548,0.));
#375=FACE_BOUND('',#376,.T.);
#376=EDGE_LOOP('',(#769,#770,#771,#772));
#377=PLANE('',#378);
#378=AXIS2_PLACEMENT_3D('',#379,#380,#381);
#379=CARTESIAN_POINT('',(19.3,-9.1272062641256,2.));
#380=DIRECTION('',(1.,-1.39743839859022E-16,0.));
#381=DIRECTION('',(1.39743839859022E-16,1.,0.));
#382=FACE_BOUND('',#383,.T.);
#383=EDGE_LOOP('',(#773,#774,#775,#776));
#384=PLANE('',#385);
#385=AXIS2_PLACEMENT_3D('',#386,#387,#388);
#386=CARTESIAN_POINT('',(18.1,-9.1272062641256,2.));
#387=DIRECTION('',(0.,-1.,0.));
#388=DIRECTION('',(1.,0.,0.));
#389=FACE_BOUND('',#390,.T.);
#390=EDGE_LOOP('',(#777,#778,#779,#780));
#391=PLANE('',#392);
#392=AXIS2_PLACEMENT_3D('',#393,#394,#395);
#393=CARTESIAN_POINT('',(18.1,15.798780669118,2.));
#394=DIRECTION('',(-1.,1.42530511963892E-16,0.));
#395=DIRECTION('',(-1.42530511963892E-16,-1.,0.));
#396=FACE_BOUND('',#397,.T.);
#397=EDGE_LOOP('',(#781,#782,#783,#784));
#398=PLANE('',#399);
#399=AXIS2_PLACEMENT_3D('',#400,#401,#402);
#400=CARTESIAN_POINT('',(15.798780669118,18.1,2.));
#401=DIRECTION('',(-0.707106781186547,-0.707106781186548,0.));
#402=DIRECTION('',(0.707106781186548,-0.707106781186547,0.));
#403=FACE_OUTER_BOUND('',#404,.T.);
#404=EDGE_LOOP('',(#785));
#405=FACE_OUTER_BOUND('',#406,.T.);
#406=EDGE_LOOP('',(#786));
#407=CYLINDRICAL_SURFACE('',#408,1.65);
#408=AXIS2_PLACEMENT_3D('',#409,#410,#411);
#409=CARTESIAN_POINT('',(-15.5,15.5,10.));
#410=DIRECTION('',(0.,0.,-1.));
#411=DIRECTION('',(-6.12323399573677E-17,1.,0.));
#412=FACE_OUTER_BOUND('',#413,.T.);
#413=EDGE_LOOP('',(#787));
#414=FACE_OUTER_BOUND('',#415,.T.);
#415=EDGE_LOOP('',(#788));
#416=CYLINDRICAL_SURFACE('',#417,1.65);
#417=AXIS2_PLACEMENT_3D('',#418,#419,#420);
#418=CARTESIAN_POINT('',(15.5,-15.5,10.));
#419=DIRECTION('',(0.,0.,-1.));
#420=DIRECTION('',(-6.12323399573677E-17,1.,0.));
#421=FACE_BOUND('',#422,.T.);
#422=EDGE_LOOP('',(#789,#790,#791,#792));
#423=PLANE('',#424);
#424=AXIS2_PLACEMENT_3D('',#425,#426,#427);
#425=CARTESIAN_POINT('',(-14.8786796564404,-22.2727922061358,0.));
#426=DIRECTION('',(0.499999999999998,0.499999999999999,0.70710678118655));
#427=DIRECTION('',(-0.707106781186548,0.707106781186547,3.00299195383736E-17));
#428=FACE_BOUND('',#429,.T.);
#429=EDGE_LOOP('',(#793,#794,#795,#796));
#430=PLANE('',#431);
#431=AXIS2_PLACEMENT_3D('',#432,#433,#434);
#432=CARTESIAN_POINT('',(-19.4,-21.,0.6));
#433=DIRECTION('',(0.,0.707106781186547,0.707106781186549));
#434=DIRECTION('',(1.,0.,0.));
#435=FACE_BOUND('',#436,.T.);
#436=EDGE_LOOP('',(#797,#798,#799,#800));
#437=PLANE('',#438);
#438=AXIS2_PLACEMENT_3D('',#439,#440,#441);
#439=CARTESIAN_POINT('',(22.2727922061358,-14.8786796564404,0.));
#440=DIRECTION('',(-0.499999999999999,0.499999999999998,0.70710678118655));
#441=DIRECTION('',(-0.707106781186547,-0.707106781186548,3.00299195383736E-17));
#442=FACE_BOUND('',#443,.T.);
#443=EDGE_LOOP('',(#801,#802,#803,#804));
#444=PLANE('',#445);
#445=AXIS2_PLACEMENT_3D('',#446,#447,#448);
#446=CARTESIAN_POINT('',(21.,-19.4,0.6));
#447=DIRECTION('',(-0.707106781186547,0.,0.707106781186549));
#448=DIRECTION('',(0.,1.,0.));
#449=FACE_BOUND('',#450,.T.);
#450=EDGE_LOOP('',(#805,#806,#807,#808));
#451=PLANE('',#452);
#452=AXIS2_PLACEMENT_3D('',#453,#454,#455);
#453=CARTESIAN_POINT('',(14.8786796564404,22.2727922061358,0.));
#454=DIRECTION('',(-0.499999999999998,-0.499999999999999,0.70710678118655));
#455=DIRECTION('',(0.707106781186548,-0.707106781186547,3.00299195383736E-17));
#456=FACE_BOUND('',#457,.T.);
#457=EDGE_LOOP('',(#809,#810,#811,#812));
#458=PLANE('',#459);
#459=AXIS2_PLACEMENT_3D('',#460,#461,#462);
#460=CARTESIAN_POINT('',(19.4,21.,0.6));
#461=DIRECTION('',(0.,-0.707106781186545,0.70710678118655));
#462=DIRECTION('',(-1.,0.,0.));
#463=FACE_BOUND('',#464,.T.);
#464=EDGE_LOOP('',(#813,#814,#815,#816));
#465=PLANE('',#466);
#466=AXIS2_PLACEMENT_3D('',#467,#468,#469);
#467=CARTESIAN_POINT('',(-22.2727922061358,14.8786796564404,0.));
#468=DIRECTION('',(0.499999999999999,-0.499999999999998,0.70710678118655));
#469=DIRECTION('',(0.707106781186547,0.707106781186548,3.00299195383736E-17));
#470=FACE_BOUND('',#471,.T.);
#471=EDGE_LOOP('',(#817,#818,#819,#820));
#472=PLANE('',#473);
#473=AXIS2_PLACEMENT_3D('',#474,#475,#476);
#474=CARTESIAN_POINT('',(-21.,19.4,0.6));
#475=DIRECTION('',(0.707106781186545,0.,0.70710678118655));
#476=DIRECTION('',(0.,-1.,0.));
#477=FACE_BOUND('',#478,.T.);
#478=EDGE_LOOP('',(#821,#822,#823,#824));
#479=PLANE('',#480);
#480=AXIS2_PLACEMENT_3D('',#481,#482,#483);
#481=CARTESIAN_POINT('',(0.200000000000001,-7.7,0.));
#482=DIRECTION('',(-8.48698626315558E-17,-0.707106781186551,0.707106781186544));
#483=DIRECTION('',(1.,-1.20024110770287E-16,0.));
#484=FACE_BOUND('',#485,.T.);
#485=EDGE_LOOP('',(#825,#826,#827,#828));
#486=PLANE('',#487);
#487=AXIS2_PLACEMENT_3D('',#488,#489,#490);
#488=CARTESIAN_POINT('',(0.799999999999999,8.3,0.));
#489=DIRECTION('',(-0.707106781186546,-5.20211356792816E-17,0.707106781186549));
#490=DIRECTION('',(7.35689956076911E-17,-1.,0.));
#491=FACE_BOUND('',#492,.T.);
#492=EDGE_LOOP('',(#829,#830,#831,#832));
#493=PLANE('',#494);
#494=AXIS2_PLACEMENT_3D('',#495,#496,#497);
#495=CARTESIAN_POINT('',(7.6,7.7,0.));
#496=DIRECTION('',(8.48698626315556E-17,0.707106781186549,0.707106781186546));
#497=DIRECTION('',(-1.,1.20024110770287E-16,0.));
#498=FACE_BOUND('',#499,.T.);
#499=EDGE_LOOP('',(#833,#834,#835,#836));
#500=PLANE('',#501);
#501=AXIS2_PLACEMENT_3D('',#502,#503,#504);
#502=CARTESIAN_POINT('',(7.,-8.3,0.));
#503=DIRECTION('',(0.707106781186546,7.56671064425914E-17,0.707106781186549));
#504=DIRECTION('',(-1.07009448156642E-16,1.,0.));
#505=FACE_BOUND('',#506,.T.);
#506=EDGE_LOOP('',(#837,#838,#839,#840));
#507=PLANE('',#508);
#508=AXIS2_PLACEMENT_3D('',#509,#510,#511);
#509=CARTESIAN_POINT('',(-7.6,-6.44,0.));
#510=DIRECTION('',(0.,-0.707106781186546,0.707106781186549));
#511=DIRECTION('',(1.,0.,0.));
#512=FACE_BOUND('',#513,.T.);
#513=EDGE_LOOP('',(#841,#842,#843,#844));
#514=PLANE('',#515);
#515=AXIS2_PLACEMENT_3D('',#516,#517,#518);
#516=CARTESIAN_POINT('',(-7.,7.04,0.));
#517=DIRECTION('',(-0.707106781186546,0.,0.707106781186549));
#518=DIRECTION('',(0.,-1.,0.));
#519=FACE_BOUND('',#520,.T.);
#520=EDGE_LOOP('',(#845,#846,#847,#848));
#521=PLANE('',#522);
#522=AXIS2_PLACEMENT_3D('',#523,#524,#525);
#523=CARTESIAN_POINT('',(-0.2,6.44,0.));
#524=DIRECTION('',(0.,0.707106781186546,0.707106781186549));
#525=DIRECTION('',(-1.,0.,0.));
#526=FACE_BOUND('',#527,.T.);
#527=EDGE_LOOP('',(#849,#850,#851,#852));
#528=PLANE('',#529);
#529=AXIS2_PLACEMENT_3D('',#530,#531,#532);
#530=CARTESIAN_POINT('',(-0.799999999999999,-7.04,0.));
#531=DIRECTION('',(0.707106781186546,3.90292869701222E-17,0.707106781186549));
#532=DIRECTION('',(-5.51957469628984E-17,1.,0.));
#533=FACE_BOUND('',#534,.T.);
#534=EDGE_LOOP('',(#853,#854,#855,#856,#857,#858,#859,#860));
#535=PLANE('',#536);
#536=AXIS2_PLACEMENT_3D('',#537,#538,#539);
#537=CARTESIAN_POINT('',(0.,0.,7.));
#538=DIRECTION('',(0.,0.,1.));
#539=DIRECTION('',(1.,0.,0.));
#540=FACE_BOUND('',#541,.T.);
#541=EDGE_LOOP('',(#861));
#542=FACE_BOUND('',#543,.T.);
#543=EDGE_LOOP('',(#862));
#544=PLANE('',#545);
#545=AXIS2_PLACEMENT_3D('',#546,#547,#548);
#546=CARTESIAN_POINT('',(0.,0.,1.));
#547=DIRECTION('',(0.,0.,-1.));
#548=DIRECTION('',(-6.12323399573677E-17,1.,0.));
#549=FACE_BOUND('',#550,.T.);
#550=EDGE_LOOP('',(#863));
#551=FACE_BOUND('',#552,.T.);
#552=EDGE_LOOP('',(#864));
#553=PLANE('',#554);
#554=AXIS2_PLACEMENT_3D('',#555,#556,#557);
#555=CARTESIAN_POINT('',(0.,0.,1.));
#556=DIRECTION('',(0.,0.,-1.));
#557=DIRECTION('',(-6.12323399573677E-17,1.,0.));
#558=FACE_BOUND('',#559,.T.);
#559=EDGE_LOOP('',(#865,#866,#867,#868,#869,#870,#871,#872));
#560=FACE_BOUND('',#561,.T.);
#561=EDGE_LOOP('',(#873,#874,#875,#876));
#562=FACE_BOUND('',#563,.T.);
#563=EDGE_LOOP('',(#877));
#564=FACE_BOUND('',#565,.T.);
#565=EDGE_LOOP('',(#878));
#566=FACE_BOUND('',#567,.T.);
#567=EDGE_LOOP('',(#879,#880,#881,#882));
#568=PLANE('',#569);
#569=AXIS2_PLACEMENT_3D('',#570,#571,#572);
#570=CARTESIAN_POINT('',(0.,0.,0.));
#571=DIRECTION('',(0.,0.,1.));
#572=DIRECTION('',(1.,0.,0.));
#573=FACE_OUTER_BOUND('',#574,.T.);
#574=EDGE_LOOP('',(#883));
#575=FACE_OUTER_BOUND('',#576,.T.);
#576=EDGE_LOOP('',(#884));
#577=CYLINDRICAL_SURFACE('',#578,3.);
#578=AXIS2_PLACEMENT_3D('',#579,#580,#581);
#579=CARTESIAN_POINT('',(-15.5,15.5,1.));
#580=DIRECTION('',(0.,0.,-1.));
#581=DIRECTION('',(-6.12323399573676E-17,1.,0.));
#582=FACE_OUTER_BOUND('',#583,.T.);
#583=EDGE_LOOP('',(#885));
#584=FACE_OUTER_BOUND('',#585,.T.);
#585=EDGE_LOOP('',(#886));
#586=CYLINDRICAL_SURFACE('',#587,3.);
#587=AXIS2_PLACEMENT_3D('',#588,#589,#590);
#588=CARTESIAN_POINT('',(15.5,-15.5,1.));
#589=DIRECTION('',(0.,0.,-1.));
#590=DIRECTION('',(-6.12323399573676E-17,1.,0.));
#591=ORIENTED_EDGE('',*,*,#887,.F.);
#592=ORIENTED_EDGE('',*,*,#888,.T.);
#593=ORIENTED_EDGE('',*,*,#889,.F.);
#594=ORIENTED_EDGE('',*,*,#890,.T.);
#595=ORIENTED_EDGE('',*,*,#891,.F.);
#596=ORIENTED_EDGE('',*,*,#892,.T.);
#597=ORIENTED_EDGE('',*,*,#893,.F.);
#598=ORIENTED_EDGE('',*,*,#894,.T.);
#599=ORIENTED_EDGE('',*,*,#895,.T.);
#600=ORIENTED_EDGE('',*,*,#896,.T.);
#601=ORIENTED_EDGE('',*,*,#897,.T.);
#602=ORIENTED_EDGE('',*,*,#898,.T.);
#603=ORIENTED_EDGE('',*,*,#899,.T.);
#604=ORIENTED_EDGE('',*,*,#900,.T.);
#605=ORIENTED_EDGE('',*,*,#901,.T.);
#606=ORIENTED_EDGE('',*,*,#902,.T.);
#607=ORIENTED_EDGE('',*,*,#903,.F.);
#608=ORIENTED_EDGE('',*,*,#904,.T.);
#609=ORIENTED_EDGE('',*,*,#905,.F.);
#610=ORIENTED_EDGE('',*,*,#906,.F.);
#611=ORIENTED_EDGE('',*,*,#907,.F.);
#612=ORIENTED_EDGE('',*,*,#908,.F.);
#613=ORIENTED_EDGE('',*,*,#909,.F.);
#614=ORIENTED_EDGE('',*,*,#910,.F.);
#615=ORIENTED_EDGE('',*,*,#911,.F.);
#616=ORIENTED_EDGE('',*,*,#912,.F.);
#617=ORIENTED_EDGE('',*,*,#913,.F.);
#618=ORIENTED_EDGE('',*,*,#914,.T.);
#619=ORIENTED_EDGE('',*,*,#915,.F.);
#620=ORIENTED_EDGE('',*,*,#916,.F.);
#621=ORIENTED_EDGE('',*,*,#917,.F.);
#622=ORIENTED_EDGE('',*,*,#918,.F.);
#623=ORIENTED_EDGE('',*,*,#919,.F.);
#624=ORIENTED_EDGE('',*,*,#920,.F.);
#625=ORIENTED_EDGE('',*,*,#921,.F.);
#626=ORIENTED_EDGE('',*,*,#922,.F.);
#627=ORIENTED_EDGE('',*,*,#923,.T.);
#628=ORIENTED_EDGE('',*,*,#924,.T.);
#629=ORIENTED_EDGE('',*,*,#925,.T.);
#630=ORIENTED_EDGE('',*,*,#926,.T.);
#631=ORIENTED_EDGE('',*,*,#927,.T.);
#632=ORIENTED_EDGE('',*,*,#928,.T.);
#633=ORIENTED_EDGE('',*,*,#929,.T.);
#634=ORIENTED_EDGE('',*,*,#930,.T.);
#635=ORIENTED_EDGE('',*,*,#931,.T.);
#636=ORIENTED_EDGE('',*,*,#932,.T.);
#637=ORIENTED_EDGE('',*,*,#933,.T.);
#638=ORIENTED_EDGE('',*,*,#934,.T.);
#639=ORIENTED_EDGE('',*,*,#935,.T.);
#640=ORIENTED_EDGE('',*,*,#936,.T.);
#641=ORIENTED_EDGE('',*,*,#937,.T.);
#642=ORIENTED_EDGE('',*,*,#913,.T.);
#643=ORIENTED_EDGE('',*,*,#938,.T.);
#644=ORIENTED_EDGE('',*,*,#926,.F.);
#645=ORIENTED_EDGE('',*,*,#939,.T.);
#646=ORIENTED_EDGE('',*,*,#936,.F.);
#647=ORIENTED_EDGE('',*,*,#940,.F.);
#648=ORIENTED_EDGE('',*,*,#905,.T.);
#649=ORIENTED_EDGE('',*,*,#941,.T.);
#650=ORIENTED_EDGE('',*,*,#928,.F.);
#651=ORIENTED_EDGE('',*,*,#942,.F.);
#652=ORIENTED_EDGE('',*,*,#911,.T.);
#653=ORIENTED_EDGE('',*,*,#943,.T.);
#654=ORIENTED_EDGE('',*,*,#903,.T.);
#655=ORIENTED_EDGE('',*,*,#944,.T.);
#656=ORIENTED_EDGE('',*,*,#930,.F.);
#657=ORIENTED_EDGE('',*,*,#943,.F.);
#658=ORIENTED_EDGE('',*,*,#929,.F.);
#659=ORIENTED_EDGE('',*,*,#939,.F.);
#660=ORIENTED_EDGE('',*,*,#904,.F.);
#661=ORIENTED_EDGE('',*,*,#941,.F.);
#662=ORIENTED_EDGE('',*,*,#914,.F.);
#663=ORIENTED_EDGE('',*,*,#937,.F.);
#664=ORIENTED_EDGE('',*,*,#925,.F.);
#665=ORIENTED_EDGE('',*,*,#945,.T.);
#666=ORIENTED_EDGE('',*,*,#946,.T.);
#667=ORIENTED_EDGE('',*,*,#887,.T.);
#668=ORIENTED_EDGE('',*,*,#947,.F.);
#669=ORIENTED_EDGE('',*,*,#948,.T.);
#670=ORIENTED_EDGE('',*,*,#949,.T.);
#671=ORIENTED_EDGE('',*,*,#888,.F.);
#672=ORIENTED_EDGE('',*,*,#946,.F.);
#673=ORIENTED_EDGE('',*,*,#950,.T.);
#674=ORIENTED_EDGE('',*,*,#951,.T.);
#675=ORIENTED_EDGE('',*,*,#889,.T.);
#676=ORIENTED_EDGE('',*,*,#949,.F.);
#677=ORIENTED_EDGE('',*,*,#952,.T.);
#678=ORIENTED_EDGE('',*,*,#953,.T.);
#679=ORIENTED_EDGE('',*,*,#890,.F.);
#680=ORIENTED_EDGE('',*,*,#951,.F.);
#681=ORIENTED_EDGE('',*,*,#954,.T.);
#682=ORIENTED_EDGE('',*,*,#955,.T.);
#683=ORIENTED_EDGE('',*,*,#891,.T.);
#684=ORIENTED_EDGE('',*,*,#953,.F.);
#685=ORIENTED_EDGE('',*,*,#956,.T.);
#686=ORIENTED_EDGE('',*,*,#957,.T.);
#687=ORIENTED_EDGE('',*,*,#892,.F.);
#688=ORIENTED_EDGE('',*,*,#955,.F.);
#689=ORIENTED_EDGE('',*,*,#958,.T.);
#690=ORIENTED_EDGE('',*,*,#959,.T.);
#691=ORIENTED_EDGE('',*,*,#893,.T.);
#692=ORIENTED_EDGE('',*,*,#957,.F.);
#693=ORIENTED_EDGE('',*,*,#960,.T.);
#694=ORIENTED_EDGE('',*,*,#947,.T.);
#695=ORIENTED_EDGE('',*,*,#894,.F.);
#696=ORIENTED_EDGE('',*,*,#959,.F.);
#697=ORIENTED_EDGE('',*,*,#961,.F.);
#698=ORIENTED_EDGE('',*,*,#962,.F.);
#699=ORIENTED_EDGE('',*,*,#895,.F.);
#700=ORIENTED_EDGE('',*,*,#963,.T.);
#701=ORIENTED_EDGE('',*,*,#964,.F.);
#702=ORIENTED_EDGE('',*,*,#965,.F.);
#703=ORIENTED_EDGE('',*,*,#896,.F.);
#704=ORIENTED_EDGE('',*,*,#962,.T.);
#705=ORIENTED_EDGE('',*,*,#966,.F.);
#706=ORIENTED_EDGE('',*,*,#967,.F.);
#707=ORIENTED_EDGE('',*,*,#897,.F.);
#708=ORIENTED_EDGE('',*,*,#965,.T.);
#709=ORIENTED_EDGE('',*,*,#968,.F.);
#710=ORIENTED_EDGE('',*,*,#963,.F.);
#711=ORIENTED_EDGE('',*,*,#898,.F.);
#712=ORIENTED_EDGE('',*,*,#967,.T.);
#713=ORIENTED_EDGE('',*,*,#969,.F.);
#714=ORIENTED_EDGE('',*,*,#970,.F.);
#715=ORIENTED_EDGE('',*,*,#899,.F.);
#716=ORIENTED_EDGE('',*,*,#971,.T.);
#717=ORIENTED_EDGE('',*,*,#972,.F.);
#718=ORIENTED_EDGE('',*,*,#973,.F.);
#719=ORIENTED_EDGE('',*,*,#900,.F.);
#720=ORIENTED_EDGE('',*,*,#970,.T.);
#721=ORIENTED_EDGE('',*,*,#974,.F.);
#722=ORIENTED_EDGE('',*,*,#975,.F.);
#723=ORIENTED_EDGE('',*,*,#901,.F.);
#724=ORIENTED_EDGE('',*,*,#973,.T.);
#725=ORIENTED_EDGE('',*,*,#976,.F.);
#726=ORIENTED_EDGE('',*,*,#971,.F.);
#727=ORIENTED_EDGE('',*,*,#902,.F.);
#728=ORIENTED_EDGE('',*,*,#975,.T.);
#729=ORIENTED_EDGE('',*,*,#906,.T.);
#730=ORIENTED_EDGE('',*,*,#940,.T.);
#731=ORIENTED_EDGE('',*,*,#935,.F.);
#732=ORIENTED_EDGE('',*,*,#977,.F.);
#733=ORIENTED_EDGE('',*,*,#907,.T.);
#734=ORIENTED_EDGE('',*,*,#977,.T.);
#735=ORIENTED_EDGE('',*,*,#934,.F.);
#736=ORIENTED_EDGE('',*,*,#978,.F.);
#737=ORIENTED_EDGE('',*,*,#908,.T.);
#738=ORIENTED_EDGE('',*,*,#978,.T.);
#739=ORIENTED_EDGE('',*,*,#933,.F.);
#740=ORIENTED_EDGE('',*,*,#979,.F.);
#741=ORIENTED_EDGE('',*,*,#909,.T.);
#742=ORIENTED_EDGE('',*,*,#979,.T.);
#743=ORIENTED_EDGE('',*,*,#932,.F.);
#744=ORIENTED_EDGE('',*,*,#980,.F.);
#745=ORIENTED_EDGE('',*,*,#910,.T.);
#746=ORIENTED_EDGE('',*,*,#980,.T.);
#747=ORIENTED_EDGE('',*,*,#931,.F.);
#748=ORIENTED_EDGE('',*,*,#944,.F.);
#749=ORIENTED_EDGE('',*,*,#912,.T.);
#750=ORIENTED_EDGE('',*,*,#942,.T.);
#751=ORIENTED_EDGE('',*,*,#927,.F.);
#752=ORIENTED_EDGE('',*,*,#938,.F.);
#753=ORIENTED_EDGE('',*,*,#915,.T.);
#754=ORIENTED_EDGE('',*,*,#981,.T.);
#755=ORIENTED_EDGE('',*,*,#982,.F.);
#756=ORIENTED_EDGE('',*,*,#983,.F.);
#757=ORIENTED_EDGE('',*,*,#916,.T.);
#758=ORIENTED_EDGE('',*,*,#983,.T.);
#759=ORIENTED_EDGE('',*,*,#984,.F.);
#760=ORIENTED_EDGE('',*,*,#985,.F.);
#761=ORIENTED_EDGE('',*,*,#917,.T.);
#762=ORIENTED_EDGE('',*,*,#985,.T.);
#763=ORIENTED_EDGE('',*,*,#986,.F.);
#764=ORIENTED_EDGE('',*,*,#987,.F.);
#765=ORIENTED_EDGE('',*,*,#918,.T.);
#766=ORIENTED_EDGE('',*,*,#987,.T.);
#767=ORIENTED_EDGE('',*,*,#988,.F.);
#768=ORIENTED_EDGE('',*,*,#989,.F.);
#769=ORIENTED_EDGE('',*,*,#919,.T.);
#770=ORIENTED_EDGE('',*,*,#989,.T.);
#771=ORIENTED_EDGE('',*,*,#990,.F.);
#772=ORIENTED_EDGE('',*,*,#991,.F.);
#773=ORIENTED_EDGE('',*,*,#920,.T.);
#774=ORIENTED_EDGE('',*,*,#991,.T.);
#775=ORIENTED_EDGE('',*,*,#992,.F.);
#776=ORIENTED_EDGE('',*,*,#993,.F.);
#777=ORIENTED_EDGE('',*,*,#921,.T.);
#778=ORIENTED_EDGE('',*,*,#993,.T.);
#779=ORIENTED_EDGE('',*,*,#994,.F.);
#780=ORIENTED_EDGE('',*,*,#995,.F.);
#781=ORIENTED_EDGE('',*,*,#922,.T.);
#782=ORIENTED_EDGE('',*,*,#995,.T.);
#783=ORIENTED_EDGE('',*,*,#996,.F.);
#784=ORIENTED_EDGE('',*,*,#981,.F.);
#785=ORIENTED_EDGE('',*,*,#923,.F.);
#786=ORIENTED_EDGE('',*,*,#997,.T.);
#787=ORIENTED_EDGE('',*,*,#924,.F.);
#788=ORIENTED_EDGE('',*,*,#998,.T.);
#789=ORIENTED_EDGE('',*,*,#999,.T.);
#790=ORIENTED_EDGE('',*,*,#1000,.T.);
#791=ORIENTED_EDGE('',*,*,#945,.F.);
#792=ORIENTED_EDGE('',*,*,#1001,.F.);
#793=ORIENTED_EDGE('',*,*,#948,.F.);
#794=ORIENTED_EDGE('',*,*,#1000,.F.);
#795=ORIENTED_EDGE('',*,*,#1002,.T.);
#796=ORIENTED_EDGE('',*,*,#1003,.T.);
#797=ORIENTED_EDGE('',*,*,#1004,.T.);
#798=ORIENTED_EDGE('',*,*,#1005,.T.);
#799=ORIENTED_EDGE('',*,*,#950,.F.);
#800=ORIENTED_EDGE('',*,*,#1003,.F.);
#801=ORIENTED_EDGE('',*,*,#952,.F.);
#802=ORIENTED_EDGE('',*,*,#1005,.F.);
#803=ORIENTED_EDGE('',*,*,#1006,.T.);
#804=ORIENTED_EDGE('',*,*,#1007,.T.);
#805=ORIENTED_EDGE('',*,*,#1008,.T.);
#806=ORIENTED_EDGE('',*,*,#1009,.T.);
#807=ORIENTED_EDGE('',*,*,#954,.F.);
#808=ORIENTED_EDGE('',*,*,#1007,.F.);
#809=ORIENTED_EDGE('',*,*,#956,.F.);
#810=ORIENTED_EDGE('',*,*,#1009,.F.);
#811=ORIENTED_EDGE('',*,*,#1010,.T.);
#812=ORIENTED_EDGE('',*,*,#1011,.T.);
#813=ORIENTED_EDGE('',*,*,#1012,.T.);
#814=ORIENTED_EDGE('',*,*,#1013,.T.);
#815=ORIENTED_EDGE('',*,*,#958,.F.);
#816=ORIENTED_EDGE('',*,*,#1011,.F.);
#817=ORIENTED_EDGE('',*,*,#960,.F.);
#818=ORIENTED_EDGE('',*,*,#1013,.F.);
#819=ORIENTED_EDGE('',*,*,#1014,.T.);
#820=ORIENTED_EDGE('',*,*,#1001,.T.);
#821=ORIENTED_EDGE('',*,*,#1015,.F.);
#822=ORIENTED_EDGE('',*,*,#1016,.F.);
#823=ORIENTED_EDGE('',*,*,#961,.T.);
#824=ORIENTED_EDGE('',*,*,#1017,.T.);
#825=ORIENTED_EDGE('',*,*,#1018,.F.);
#826=ORIENTED_EDGE('',*,*,#1019,.F.);
#827=ORIENTED_EDGE('',*,*,#964,.T.);
#828=ORIENTED_EDGE('',*,*,#1016,.T.);
#829=ORIENTED_EDGE('',*,*,#1020,.F.);
#830=ORIENTED_EDGE('',*,*,#1021,.F.);
#831=ORIENTED_EDGE('',*,*,#966,.T.);
#832=ORIENTED_EDGE('',*,*,#1019,.T.);
#833=ORIENTED_EDGE('',*,*,#1022,.F.);
#834=ORIENTED_EDGE('',*,*,#1017,.F.);
#835=ORIENTED_EDGE('',*,*,#968,.T.);
#836=ORIENTED_EDGE('',*,*,#1021,.T.);
#837=ORIENTED_EDGE('',*,*,#1023,.F.);
#838=ORIENTED_EDGE('',*,*,#1024,.F.);
#839=ORIENTED_EDGE('',*,*,#969,.T.);
#840=ORIENTED_EDGE('',*,*,#1025,.T.);
#841=ORIENTED_EDGE('',*,*,#1026,.F.);
#842=ORIENTED_EDGE('',*,*,#1027,.F.);
#843=ORIENTED_EDGE('',*,*,#972,.T.);
#844=ORIENTED_EDGE('',*,*,#1024,.T.);
#845=ORIENTED_EDGE('',*,*,#1028,.F.);
#846=ORIENTED_EDGE('',*,*,#1029,.F.);
#847=ORIENTED_EDGE('',*,*,#974,.T.);
#848=ORIENTED_EDGE('',*,*,#1027,.T.);
#849=ORIENTED_EDGE('',*,*,#1030,.F.);
#850=ORIENTED_EDGE('',*,*,#1025,.F.);
#851=ORIENTED_EDGE('',*,*,#976,.T.);
#852=ORIENTED_EDGE('',*,*,#1029,.T.);
#853=ORIENTED_EDGE('',*,*,#982,.T.);
#854=ORIENTED_EDGE('',*,*,#996,.T.);
#855=ORIENTED_EDGE('',*,*,#994,.T.);
#856=ORIENTED_EDGE('',*,*,#992,.T.);
#857=ORIENTED_EDGE('',*,*,#990,.T.);
#858=ORIENTED_EDGE('',*,*,#988,.T.);
#859=ORIENTED_EDGE('',*,*,#986,.T.);
#860=ORIENTED_EDGE('',*,*,#984,.T.);
#861=ORIENTED_EDGE('',*,*,#1031,.T.);
#862=ORIENTED_EDGE('',*,*,#997,.F.);
#863=ORIENTED_EDGE('',*,*,#1032,.T.);
#864=ORIENTED_EDGE('',*,*,#998,.F.);
#865=ORIENTED_EDGE('',*,*,#1006,.F.);
#866=ORIENTED_EDGE('',*,*,#1004,.F.);
#867=ORIENTED_EDGE('',*,*,#1002,.F.);
#868=ORIENTED_EDGE('',*,*,#999,.F.);
#869=ORIENTED_EDGE('',*,*,#1014,.F.);
#870=ORIENTED_EDGE('',*,*,#1012,.F.);
#871=ORIENTED_EDGE('',*,*,#1010,.F.);
#872=ORIENTED_EDGE('',*,*,#1008,.F.);
#873=ORIENTED_EDGE('',*,*,#1018,.T.);
#874=ORIENTED_EDGE('',*,*,#1015,.T.);
#875=ORIENTED_EDGE('',*,*,#1022,.T.);
#876=ORIENTED_EDGE('',*,*,#1020,.T.);
#877=ORIENTED_EDGE('',*,*,#1033,.T.);
#878=ORIENTED_EDGE('',*,*,#1034,.T.);
#879=ORIENTED_EDGE('',*,*,#1026,.T.);
#880=ORIENTED_EDGE('',*,*,#1023,.T.);
#881=ORIENTED_EDGE('',*,*,#1030,.T.);
#882=ORIENTED_EDGE('',*,*,#1028,.T.);
#883=ORIENTED_EDGE('',*,*,#1031,.F.);
#884=ORIENTED_EDGE('',*,*,#1034,.F.);
#885=ORIENTED_EDGE('',*,*,#1032,.F.);
#886=ORIENTED_EDGE('',*,*,#1033,.F.);
#887=EDGE_CURVE('',#1035,#1036,#1037,.F.);
#888=EDGE_CURVE('',#1035,#1038,#1039,.T.);
#889=EDGE_CURVE('',#1040,#1038,#1041,.F.);
#890=EDGE_CURVE('',#1040,#1042,#1043,.T.);
#891=EDGE_CURVE('',#1044,#1042,#1045,.F.);
#892=EDGE_CURVE('',#1044,#1046,#1047,.T.);
#893=EDGE_CURVE('',#1048,#1046,#1049,.F.);
#894=EDGE_CURVE('',#1048,#1036,#1050,.T.);
#895=EDGE_CURVE('',#1051,#1052,#1053,.F.);
#896=EDGE_CURVE('',#1052,#1054,#1055,.F.);
#897=EDGE_CURVE('',#1054,#1056,#1057,.F.);
#898=EDGE_CURVE('',#1056,#1051,#1058,.F.);
#899=EDGE_CURVE('',#1059,#1060,#1061,.F.);
#900=EDGE_CURVE('',#1060,#1062,#1063,.F.);
#901=EDGE_CURVE('',#1062,#1064,#1065,.F.);
#902=EDGE_CURVE('',#1064,#1059,#1066,.F.);
#903=EDGE_CURVE('',#1067,#1068,#1069,.T.);
#904=EDGE_CURVE('',#1067,#1070,#1071,.T.);
#905=EDGE_CURVE('',#1072,#1070,#1073,.T.);
#906=EDGE_CURVE('',#1074,#1072,#1075,.T.);
#907=EDGE_CURVE('',#1076,#1074,#1077,.T.);
#908=EDGE_CURVE('',#1078,#1076,#1079,.T.);
#909=EDGE_CURVE('',#1080,#1078,#1081,.T.);
#910=EDGE_CURVE('',#1068,#1080,#1082,.T.);
#911=EDGE_CURVE('',#1083,#1084,#1085,.T.);
#912=EDGE_CURVE('',#1086,#1083,#1087,.T.);
#913=EDGE_CURVE('',#1088,#1086,#1089,.T.);
#914=EDGE_CURVE('',#1088,#1084,#1090,.T.);
#915=EDGE_CURVE('',#1091,#1092,#1093,.T.);
#916=EDGE_CURVE('',#1094,#1091,#1095,.T.);
#917=EDGE_CURVE('',#1096,#1094,#1097,.T.);
#918=EDGE_CURVE('',#1098,#1096,#1099,.T.);
#919=EDGE_CURVE('',#1100,#1098,#1101,.T.);
#920=EDGE_CURVE('',#1102,#1100,#1103,.T.);
#921=EDGE_CURVE('',#1104,#1102,#1105,.T.);
#922=EDGE_CURVE('',#1092,#1104,#1106,.T.);
#923=EDGE_CURVE('',#1107,#1107,#1108,.T.);
#924=EDGE_CURVE('',#1109,#1109,#1110,.T.);
#925=EDGE_CURVE('',#1111,#1112,#1113,.F.);
#926=EDGE_CURVE('',#1112,#1114,#1115,.T.);
#927=EDGE_CURVE('',#1114,#1116,#1117,.T.);
#928=EDGE_CURVE('',#1116,#1111,#1118,.T.);
#929=EDGE_CURVE('',#1119,#1120,#1121,.F.);
#930=EDGE_CURVE('',#1120,#1122,#1123,.T.);
#931=EDGE_CURVE('',#1122,#1124,#1125,.T.);
#932=EDGE_CURVE('',#1124,#1126,#1127,.T.);
#933=EDGE_CURVE('',#1126,#1128,#1129,.T.);
#934=EDGE_CURVE('',#1128,#1130,#1131,.T.);
#935=EDGE_CURVE('',#1130,#1132,#1133,.T.);
#936=EDGE_CURVE('',#1132,#1119,#1134,.T.);
#937=EDGE_CURVE('',#1112,#1088,#1135,.F.);
#938=EDGE_CURVE('',#1086,#1114,#1136,.T.);
#939=EDGE_CURVE('',#1070,#1119,#1137,.F.);
#940=EDGE_CURVE('',#1072,#1132,#1138,.T.);
#941=EDGE_CURVE('',#1084,#1111,#1139,.F.);
#942=EDGE_CURVE('',#1083,#1116,#1140,.T.);
#943=EDGE_CURVE('',#1120,#1067,#1141,.F.);
#944=EDGE_CURVE('',#1068,#1122,#1142,.T.);
#945=EDGE_CURVE('',#1143,#1144,#1145,.F.);
#946=EDGE_CURVE('',#1144,#1035,#1146,.T.);
#947=EDGE_CURVE('',#1143,#1036,#1147,.T.);
#948=EDGE_CURVE('',#1144,#1148,#1149,.T.);
#949=EDGE_CURVE('',#1148,#1038,#1150,.T.);
#950=EDGE_CURVE('',#1148,#1151,#1152,.F.);
#951=EDGE_CURVE('',#1151,#1040,#1153,.T.);
#952=EDGE_CURVE('',#1151,#1154,#1155,.T.);
#953=EDGE_CURVE('',#1154,#1042,#1156,.T.);
#954=EDGE_CURVE('',#1154,#1157,#1158,.F.);
#955=EDGE_CURVE('',#1157,#1044,#1159,.T.);
#956=EDGE_CURVE('',#1157,#1160,#1161,.T.);
#957=EDGE_CURVE('',#1160,#1046,#1162,.T.);
#958=EDGE_CURVE('',#1160,#1163,#1164,.F.);
#959=EDGE_CURVE('',#1163,#1048,#1165,.T.);
#960=EDGE_CURVE('',#1163,#1143,#1166,.T.);
#961=EDGE_CURVE('',#1167,#1168,#1169,.T.);
#962=EDGE_CURVE('',#1052,#1167,#1170,.T.);
#963=EDGE_CURVE('',#1051,#1168,#1171,.T.);
#964=EDGE_CURVE('',#1172,#1167,#1173,.T.);
#965=EDGE_CURVE('',#1054,#1172,#1174,.T.);
#966=EDGE_CURVE('',#1175,#1172,#1176,.T.);
#967=EDGE_CURVE('',#1056,#1175,#1177,.T.);
#968=EDGE_CURVE('',#1168,#1175,#1178,.T.);
#969=EDGE_CURVE('',#1179,#1180,#1181,.T.);
#970=EDGE_CURVE('',#1060,#1179,#1182,.T.);
#971=EDGE_CURVE('',#1059,#1180,#1183,.T.);
#972=EDGE_CURVE('',#1184,#1179,#1185,.T.);
#973=EDGE_CURVE('',#1062,#1184,#1186,.T.);
#974=EDGE_CURVE('',#1187,#1184,#1188,.T.);
#975=EDGE_CURVE('',#1064,#1187,#1189,.T.);
#976=EDGE_CURVE('',#1180,#1187,#1190,.T.);
#977=EDGE_CURVE('',#1074,#1130,#1191,.T.);
#978=EDGE_CURVE('',#1076,#1128,#1192,.T.);
#979=EDGE_CURVE('',#1078,#1126,#1193,.T.);
#980=EDGE_CURVE('',#1080,#1124,#1194,.T.);
#981=EDGE_CURVE('',#1092,#1195,#1196,.T.);
#982=EDGE_CURVE('',#1197,#1195,#1198,.T.);
#983=EDGE_CURVE('',#1091,#1197,#1199,.T.);
#984=EDGE_CURVE('',#1200,#1197,#1201,.T.);
#985=EDGE_CURVE('',#1094,#1200,#1202,.T.);
#986=EDGE_CURVE('',#1203,#1200,#1204,.T.);
#987=EDGE_CURVE('',#1096,#1203,#1205,.T.);
#988=EDGE_CURVE('',#1206,#1203,#1207,.T.);
#989=EDGE_CURVE('',#1098,#1206,#1208,.T.);
#990=EDGE_CURVE('',#1209,#1206,#1210,.T.);
#991=EDGE_CURVE('',#1100,#1209,#1211,.T.);
#992=EDGE_CURVE('',#1212,#1209,#1213,.T.);
#993=EDGE_CURVE('',#1102,#1212,#1214,.T.);
#994=EDGE_CURVE('',#1215,#1212,#1216,.T.);
#995=EDGE_CURVE('',#1104,#1215,#1217,.T.);
#996=EDGE_CURVE('',#1195,#1215,#1218,.T.);
#997=EDGE_CURVE('',#1219,#1219,#1220,.T.);
#998=EDGE_CURVE('',#1221,#1221,#1222,.T.);
#999=EDGE_CURVE('',#1223,#1224,#1225,.F.);
#1000=EDGE_CURVE('',#1224,#1144,#1226,.T.);
#1001=EDGE_CURVE('',#1223,#1143,#1227,.F.);
#1002=EDGE_CURVE('',#1224,#1228,#1229,.T.);
#1003=EDGE_CURVE('',#1228,#1148,#1230,.F.);
#1004=EDGE_CURVE('',#1228,#1231,#1232,.F.);
#1005=EDGE_CURVE('',#1231,#1151,#1233,.T.);
#1006=EDGE_CURVE('',#1231,#1234,#1235,.T.);
#1007=EDGE_CURVE('',#1234,#1154,#1236,.F.);
#1008=EDGE_CURVE('',#1234,#1237,#1238,.F.);
#1009=EDGE_CURVE('',#1237,#1157,#1239,.T.);
#1010=EDGE_CURVE('',#1237,#1240,#1241,.T.);
#1011=EDGE_CURVE('',#1240,#1160,#1242,.F.);
#1012=EDGE_CURVE('',#1240,#1243,#1244,.F.);
#1013=EDGE_CURVE('',#1243,#1163,#1245,.T.);
#1014=EDGE_CURVE('',#1243,#1223,#1246,.T.);
#1015=EDGE_CURVE('',#1247,#1248,#1249,.T.);
#1016=EDGE_CURVE('',#1167,#1247,#1250,.F.);
#1017=EDGE_CURVE('',#1168,#1248,#1251,.F.);
#1018=EDGE_CURVE('',#1252,#1247,#1253,.T.);
#1019=EDGE_CURVE('',#1172,#1252,#1254,.F.);
#1020=EDGE_CURVE('',#1255,#1252,#1256,.T.);
#1021=EDGE_CURVE('',#1175,#1255,#1257,.F.);
#1022=EDGE_CURVE('',#1248,#1255,#1258,.T.);
#1023=EDGE_CURVE('',#1259,#1260,#1261,.T.);
#1024=EDGE_CURVE('',#1179,#1259,#1262,.F.);
#1025=EDGE_CURVE('',#1180,#1260,#1263,.F.);
#1026=EDGE_CURVE('',#1264,#1259,#1265,.T.);
#1027=EDGE_CURVE('',#1184,#1264,#1266,.F.);
#1028=EDGE_CURVE('',#1267,#1264,#1268,.T.);
#1029=EDGE_CURVE('',#1187,#1267,#1269,.F.);
#1030=EDGE_CURVE('',#1260,#1267,#1270,.T.);
#1031=EDGE_CURVE('',#1271,#1271,#1272,.T.);
#1032=EDGE_CURVE('',#1273,#1273,#1274,.T.);
#1033=EDGE_CURVE('',#1275,#1275,#1276,.F.);
#1034=EDGE_CURVE('',#1277,#1277,#1278,.F.);
#1035=VERTEX_POINT('',#1279);
#1036=VERTEX_POINT('',#1280);
#1037=LINE('',#1281,#1282);
#1038=VERTEX_POINT('',#1284);
#1039=LINE('',#1285,#1286);
#1040=VERTEX_POINT('',#1288);
#1041=LINE('',#1289,#1290);
#1042=VERTEX_POINT('',#1292);
#1043=LINE('',#1293,#1294);
#1044=VERTEX_POINT('',#1296);
#1045=LINE('',#1297,#1298);
#1046=VERTEX_POINT('',#1300);
#1047=LINE('',#1301,#1302);
#1048=VERTEX_POINT('',#1304);
#1049=LINE('',#1305,#1306);
#1050=LINE('',#1308,#1309);
#1051=VERTEX_POINT('',#1311);
#1052=VERTEX_POINT('',#1312);
#1053=LINE('',#1313,#1314);
#1054=VERTEX_POINT('',#1316);
#1055=LINE('',#1317,#1318);
#1056=VERTEX_POINT('',#1320);
#1057=LINE('',#1321,#1322);
#1058=LINE('',#1324,#1325);
#1059=VERTEX_POINT('',#1327);
#1060=VERTEX_POINT('',#1328);
#1061=LINE('',#1329,#1330);
#1062=VERTEX_POINT('',#1332);
#1063=LINE('',#1333,#1334);
#1064=VERTEX_POINT('',#1336);
#1065=LINE('',#1337,#1338);
#1066=LINE('',#1340,#1341);
#1067=VERTEX_POINT('',#1343);
#1068=VERTEX_POINT('',#1344);
#1069=LINE('',#1345,#1346);
#1070=VERTEX_POINT('',#1348);
#1071=LINE('',#1349,#1350);
#1072=VERTEX_POINT('',#1352);
#1073=LINE('',#1353,#1354);
#1074=VERTEX_POINT('',#1356);
#1075=LINE('',#1357,#1358);
#1076=VERTEX_POINT('',#1360);
#1077=LINE('',#1361,#1362);
#1078=VERTEX_POINT('',#1364);
#1079=LINE('',#1365,#1366);
#1080=VERTEX_POINT('',#1368);
#1081=LINE('',#1369,#1370);
#1082=LINE('',#1372,#1373);
#1083=VERTEX_POINT('',#1375);
#1084=VERTEX_POINT('',#1376);
#1085=LINE('',#1377,#1378);
#1086=VERTEX_POINT('',#1380);
#1087=LINE('',#1381,#1382);
#1088=VERTEX_POINT('',#1384);
#1089=LINE('',#1385,#1386);
#1090=LINE('',#1388,#1389);
#1091=VERTEX_POINT('',#1391);
#1092=VERTEX_POINT('',#1392);
#1093=LINE('',#1393,#1394);
#1094=VERTEX_POINT('',#1396);
#1095=LINE('',#1397,#1398);
#1096=VERTEX_POINT('',#1400);
#1097=LINE('',#1401,#1402);
#1098=VERTEX_POINT('',#1404);
#1099=LINE('',#1405,#1406);
#1100=VERTEX_POINT('',#1408);
#1101=LINE('',#1409,#1410);
#1102=VERTEX_POINT('',#1412);
#1103=LINE('',#1413,#1414);
#1104=VERTEX_POINT('',#1416);
#1105=LINE('',#1417,#1418);
#1106=LINE('',#1420,#1421);
#1107=VERTEX_POINT('',#1423);
#1108=CIRCLE('',#1424,1.65);
#1109=VERTEX_POINT('',#1428);
#1110=CIRCLE('',#1429,1.65);
#1111=VERTEX_POINT('',#1433);
#1112=VERTEX_POINT('',#1434);
#1113=LINE('',#1435,#1436);
#1114=VERTEX_POINT('',#1438);
#1115=LINE('',#1439,#1440);
#1116=VERTEX_POINT('',#1442);
#1117=LINE('',#1443,#1444);
#1118=LINE('',#1446,#1447);
#1119=VERTEX_POINT('',#1449);
#1120=VERTEX_POINT('',#1450);
#1121=LINE('',#1451,#1452);
#1122=VERTEX_POINT('',#1454);
#1123=LINE('',#1455,#1456);
#1124=VERTEX_POINT('',#1458);
#1125=LINE('',#1459,#1460);
#1126=VERTEX_POINT('',#1462);
#1127=LINE('',#1463,#1464);
#1128=VERTEX_POINT('',#1466);
#1129=LINE('',#1467,#1468);
#1130=VERTEX_POINT('',#1470);
#1131=LINE('',#1471,#1472);
#1132=VERTEX_POINT('',#1474);
#1133=LINE('',#1475,#1476);
#1134=LINE('',#1478,#1479);
#1135=LINE('',#1481,#1482);
#1136=LINE('',#1484,#1485);
#1137=LINE('',#1487,#1488);
#1138=LINE('',#1490,#1491);
#1139=LINE('',#1493,#1494);
#1140=LINE('',#1496,#1497);
#1141=LINE('',#1499,#1500);
#1142=LINE('',#1502,#1503);
#1143=VERTEX_POINT('',#1505);
#1144=VERTEX_POINT('',#1506);
#1145=LINE('',#1507,#1508);
#1146=LINE('',#1510,#1511);
#1147=LINE('',#1513,#1514);
#1148=VERTEX_POINT('',#1516);
#1149=LINE('',#1517,#1518);
#1150=LINE('',#1520,#1521);
#1151=VERTEX_POINT('',#1523);
#1152=LINE('',#1524,#1525);
#1153=LINE('',#1527,#1528);
#1154=VERTEX_POINT('',#1530);
#1155=LINE('',#1531,#1532);
#1156=LINE('',#1534,#1535);
#1157=VERTEX_POINT('',#1537);
#1158=LINE('',#1538,#1539);
#1159=LINE('',#1541,#1542);
#1160=VERTEX_POINT('',#1544);
#1161=LINE('',#1545,#1546);
#1162=LINE('',#1548,#1549);
#1163=VERTEX_POINT('',#1551);
#1164=LINE('',#1552,#1553);
#1165=LINE('',#1555,#1556);
#1166=LINE('',#1558,#1559);
#1167=VERTEX_POINT('',#1561);
#1168=VERTEX_POINT('',#1562);
#1169=LINE('',#1563,#1564);
#1170=LINE('',#1566,#1567);
#1171=LINE('',#1569,#1570);
#1172=VERTEX_POINT('',#1572);
#1173=LINE('',#1573,#1574);
#1174=LINE('',#1576,#1577);
#1175=VERTEX_POINT('',#1579);
#1176=LINE('',#1580,#1581);
#1177=LINE('',#1583,#1584);
#1178=LINE('',#1586,#1587);
#1179=VERTEX_POINT('',#1589);
#1180=VERTEX_POINT('',#1590);
#1181=LINE('',#1591,#1592);
#1182=LINE('',#1594,#1595);
#1183=LINE('',#1597,#1598);
#1184=VERTEX_POINT('',#1600);
#1185=LINE('',#1601,#1602);
#1186=LINE('',#1604,#1605);
#1187=VERTEX_POINT('',#1607);
#1188=LINE('',#1608,#1609);
#1189=LINE('',#1611,#1612);
#1190=LINE('',#1614,#1615);
#1191=LINE('',#1617,#1618);
#1192=LINE('',#1620,#1621);
#1193=LINE('',#1623,#1624);
#1194=LINE('',#1626,#1627);
#1195=VERTEX_POINT('',#1629);
#1196=LINE('',#1630,#1631);
#1197=VERTEX_POINT('',#1633);
#1198=LINE('',#1634,#1635);
#1199=LINE('',#1637,#1638);
#1200=VERTEX_POINT('',#1640);
#1201=LINE('',#1641,#1642);
#1202=LINE('',#1644,#1645);
#1203=VERTEX_POINT('',#1647);
#1204=LINE('',#1648,#1649);
#1205=LINE('',#1651,#1652);
#1206=VERTEX_POINT('',#1654);
#1207=LINE('',#1655,#1656);
#1208=LINE('',#1658,#1659);
#1209=VERTEX_POINT('',#1661);
#1210=LINE('',#1662,#1663);
#1211=LINE('',#1665,#1666);
#1212=VERTEX_POINT('',#1668);
#1213=LINE('',#1669,#1670);
#1214=LINE('',#1672,#1673);
#1215=VERTEX_POINT('',#1675);
#1216=LINE('',#1676,#1677);
#1217=LINE('',#1679,#1680);
#1218=LINE('',#1682,#1683);
#1219=VERTEX_POINT('',#1685);
#1220=CIRCLE('',#1686,1.65);
#1221=VERTEX_POINT('',#1690);
#1222=CIRCLE('',#1691,1.65);
#1223=VERTEX_POINT('',#1695);
#1224=VERTEX_POINT('',#1696);
#1225=LINE('',#1697,#1698);
#1226=LINE('',#1700,#1701);
#1227=LINE('',#1703,#1704);
#1228=VERTEX_POINT('',#1706);
#1229=LINE('',#1707,#1708);
#1230=LINE('',#1710,#1711);
#1231=VERTEX_POINT('',#1713);
#1232=LINE('',#1714,#1715);
#1233=LINE('',#1717,#1718);
#1234=VERTEX_POINT('',#1720);
#1235=LINE('',#1721,#1722);
#1236=LINE('',#1724,#1725);
#1237=VERTEX_POINT('',#1727);
#1238=LINE('',#1728,#1729);
#1239=LINE('',#1731,#1732);
#1240=VERTEX_POINT('',#1734);
#1241=LINE('',#1735,#1736);
#1242=LINE('',#1738,#1739);
#1243=VERTEX_POINT('',#1741);
#1244=LINE('',#1742,#1743);
#1245=LINE('',#1745,#1746);
#1246=LINE('',#1748,#1749);
#1247=VERTEX_POINT('',#1751);
#1248=VERTEX_POINT('',#1752);
#1249=LINE('',#1753,#1754);
#1250=LINE('',#1756,#1757);
#1251=LINE('',#1759,#1760);
#1252=VERTEX_POINT('',#1762);
#1253=LINE('',#1763,#1764);
#1254=LINE('',#1766,#1767);
#1255=VERTEX_POINT('',#1769);
#1256=LINE('',#1770,#1771);
#1257=LINE('',#1773,#1774);
#1258=LINE('',#1776,#1777);
#1259=VERTEX_POINT('',#1779);
#1260=VERTEX_POINT('',#1780);
#1261=LINE('',#1781,#1782);
#1262=LINE('',#1784,#1785);
#1263=LINE('',#1787,#1788);
#1264=VERTEX_POINT('',#1790);
#1265=LINE('',#1791,#1792);
#1266=LINE('',#1794,#1795);
#1267=VERTEX_POINT('',#1797);
#1268=LINE('',#1798,#1799);
#1269=LINE('',#1801,#1802);
#1270=LINE('',#1804,#1805);
#1271=VERTEX_POINT('',#1807);
#1272=CIRCLE('',#1808,3.);
#1273=VERTEX_POINT('',#1812);
#1274=CIRCLE('',#1813,3.);
#1275=VERTEX_POINT('',#1817);
#1276=CIRCLE('',#1818,3.);
#1277=VERTEX_POINT('',#1822);
#1278=CIRCLE('',#1823,3.);
#1279=CARTESIAN_POINT('',(-17.,-21.,2.));
#1280=CARTESIAN_POINT('',(-21.,-17.,2.));
#1281=CARTESIAN_POINT('',(-21.,-17.,2.));
#1282=VECTOR('',#1283,1.);
#1283=DIRECTION('',(0.707106781186547,-0.707106781186547,0.));
#1284=CARTESIAN_POINT('',(17.,-21.,2.));
#1285=CARTESIAN_POINT('',(-17.,-21.,2.));
#1286=VECTOR('',#1287,1.);
#1287=DIRECTION('',(1.,0.,0.));
#1288=CARTESIAN_POINT('',(21.,-17.,2.));
#1289=CARTESIAN_POINT('',(17.,-21.,2.));
#1290=VECTOR('',#1291,1.);
#1291=DIRECTION('',(0.707106781186547,0.707106781186547,0.));
#1292=CARTESIAN_POINT('',(21.,17.,2.));
#1293=CARTESIAN_POINT('',(21.,-17.,2.));
#1294=VECTOR('',#1295,1.);
#1295=DIRECTION('',(0.,1.,0.));
#1296=CARTESIAN_POINT('',(17.,21.,2.));
#1297=CARTESIAN_POINT('',(21.,17.,2.));
#1298=VECTOR('',#1299,1.);
#1299=DIRECTION('',(-0.707106781186547,0.707106781186547,0.));
#1300=CARTESIAN_POINT('',(-17.,21.,2.));
#1301=CARTESIAN_POINT('',(17.,21.,2.));
#1302=VECTOR('',#1303,1.);
#1303=DIRECTION('',(-1.,0.,0.));
#1304=CARTESIAN_POINT('',(-21.,17.,2.));
#1305=CARTESIAN_POINT('',(-17.,21.,2.));
#1306=VECTOR('',#1307,1.);
#1307=DIRECTION('',(-0.707106781186547,-0.707106781186547,0.));
#1308=CARTESIAN_POINT('',(-21.,17.,2.));
#1309=VECTOR('',#1310,1.);
#1310=DIRECTION('',(0.,-1.,0.));
#1311=CARTESIAN_POINT('',(6.8,-7.5,2.));
#1312=CARTESIAN_POINT('',(1.,-7.5,2.));
#1313=CARTESIAN_POINT('',(1.,-7.5,2.));
#1314=VECTOR('',#1315,1.);
#1315=DIRECTION('',(1.,0.,0.));
#1316=CARTESIAN_POINT('',(1.,7.5,2.));
#1317=CARTESIAN_POINT('',(1.,7.5,2.));
#1318=VECTOR('',#1319,1.);
#1319=DIRECTION('',(5.9211894646675E-17,-1.,0.));
#1320=CARTESIAN_POINT('',(6.8,7.5,2.));
#1321=CARTESIAN_POINT('',(6.8,7.5,2.));
#1322=VECTOR('',#1323,1.);
#1323=DIRECTION('',(-1.,0.,0.));
#1324=CARTESIAN_POINT('',(6.8,-7.5,2.));
#1325=VECTOR('',#1326,1.);
#1326=DIRECTION('',(-1.1842378929335E-16,1.,0.));
#1327=CARTESIAN_POINT('',(-0.999999999999999,-6.24,2.));
#1328=CARTESIAN_POINT('',(-6.8,-6.24,2.));
#1329=CARTESIAN_POINT('',(-6.8,-6.24,2.));
#1330=VECTOR('',#1331,1.);
#1331=DIRECTION('',(1.,0.,0.));
#1332=CARTESIAN_POINT('',(-6.8,6.24,2.));
#1333=CARTESIAN_POINT('',(-6.8,6.24,2.));
#1334=VECTOR('',#1335,1.);
#1335=DIRECTION('',(0.,-1.,0.));
#1336=CARTESIAN_POINT('',(-1.,6.24,2.));
#1337=CARTESIAN_POINT('',(-1.,6.24,2.));
#1338=VECTOR('',#1339,1.);
#1339=DIRECTION('',(-1.,0.,0.));
#1340=CARTESIAN_POINT('',(-0.999999999999999,-6.24,2.));
#1341=VECTOR('',#1342,1.);
#1342=DIRECTION('',(-5.33761069531325E-17,1.,0.));
#1343=CARTESIAN_POINT('',(-15.,-18.1,2.));
#1344=CARTESIAN_POINT('',(-15.798780669118,-18.1,2.));
#1345=CARTESIAN_POINT('',(-15.,-18.1,2.));
#1346=VECTOR('',#1347,1.);
#1347=DIRECTION('',(-1.,0.,0.));
#1348=CARTESIAN_POINT('',(-15.,-19.3,2.));
#1349=CARTESIAN_POINT('',(-15.,-18.1,2.));
#1350=VECTOR('',#1351,1.);
#1351=DIRECTION('',(1.48029736616688E-15,-1.,0.));
#1352=CARTESIAN_POINT('',(-16.2958369439657,-19.3,2.));
#1353=CARTESIAN_POINT('',(-16.2958369439657,-19.3,2.));
#1354=VECTOR('',#1355,1.);
#1355=DIRECTION('',(1.,0.,0.));
#1356=CARTESIAN_POINT('',(-19.3,-16.2958369439657,2.));
#1357=CARTESIAN_POINT('',(-19.3,-16.2958369439657,2.));
#1358=VECTOR('',#1359,1.);
#1359=DIRECTION('',(0.707106781186548,-0.707106781186548,0.));
#1360=CARTESIAN_POINT('',(-19.3,9.1272062641256,2.));
#1361=CARTESIAN_POINT('',(-19.3,9.1272062641256,2.));
#1362=VECTOR('',#1363,1.);
#1363=DIRECTION('',(-2.79487679718043E-16,-1.,0.));
#1364=CARTESIAN_POINT('',(-18.1,9.1272062641256,2.));
#1365=CARTESIAN_POINT('',(-18.1,9.1272062641256,2.));
#1366=VECTOR('',#1367,1.);
#1367=DIRECTION('',(-1.,0.,0.));
#1368=CARTESIAN_POINT('',(-18.1,-15.798780669118,2.));
#1369=CARTESIAN_POINT('',(-18.1,-15.798780669118,2.));
#1370=VECTOR('',#1371,1.);
#1371=DIRECTION('',(1.42530511963892E-16,1.,0.));
#1372=CARTESIAN_POINT('',(-15.798780669118,-18.1,2.));
#1373=VECTOR('',#1374,1.);
#1374=DIRECTION('',(-0.707106781186548,0.707106781186548,0.));
#1375=CARTESIAN_POINT('',(9.1272062641256,-18.1,2.));
#1376=CARTESIAN_POINT('',(3.14824432759979E-16,-18.1,2.));
#1377=CARTESIAN_POINT('',(9.1272062641256,-18.1,2.));
#1378=VECTOR('',#1379,1.);
#1379=DIRECTION('',(-1.,3.89244372921034E-16,0.));
#1380=CARTESIAN_POINT('',(9.1272062641256,-19.3,2.));
#1381=CARTESIAN_POINT('',(9.1272062641256,-19.3,2.));
#1382=VECTOR('',#1383,1.);
#1383=DIRECTION('',(0.,1.,0.));
#1384=CARTESIAN_POINT('',(3.51563836734399E-16,-19.3,2.));
#1385=CARTESIAN_POINT('',(4.44089209850063E-16,-19.3,2.));
#1386=VECTOR('',#1387,1.);
#1387=DIRECTION('',(1.,-3.89244372921034E-16,0.));
#1388=CARTESIAN_POINT('',(4.07068200235424E-16,-19.3,2.));
#1389=VECTOR('',#1390,1.);
#1390=DIRECTION('',(-6.12323399573677E-17,1.,0.));
#1391=CARTESIAN_POINT('',(-9.1272062641256,18.1,2.));
#1392=CARTESIAN_POINT('',(15.798780669118,18.1,2.));
#1393=CARTESIAN_POINT('',(-9.1272062641256,18.1,2.));
#1394=VECTOR('',#1395,1.);
#1395=DIRECTION('',(1.,-2.85061023927784E-16,0.));
#1396=CARTESIAN_POINT('',(-9.1272062641256,19.3,2.));
#1397=CARTESIAN_POINT('',(-9.1272062641256,19.3,2.));
#1398=VECTOR('',#1399,1.);
#1399=DIRECTION('',(0.,-1.,0.));
#1400=CARTESIAN_POINT('',(16.2958369439657,19.3,2.));
#1401=CARTESIAN_POINT('',(16.2958369439657,19.3,2.));
#1402=VECTOR('',#1403,1.);
#1403=DIRECTION('',(-1.,2.79487679718043E-16,0.));
#1404=CARTESIAN_POINT('',(19.3,16.2958369439657,2.));
#1405=CARTESIAN_POINT('',(19.3,16.2958369439657,2.));
#1406=VECTOR('',#1407,1.);
#1407=DIRECTION('',(-0.707106781186548,0.707106781186548,0.));
#1408=CARTESIAN_POINT('',(19.3,-9.1272062641256,2.));
#1409=CARTESIAN_POINT('',(19.3,-9.1272062641256,2.));
#1410=VECTOR('',#1411,1.);
#1411=DIRECTION('',(1.39743839859022E-16,1.,0.));
#1412=CARTESIAN_POINT('',(18.1,-9.1272062641256,2.));
#1413=CARTESIAN_POINT('',(18.1,-9.1272062641256,2.));
#1414=VECTOR('',#1415,1.);
#1415=DIRECTION('',(1.,0.,0.));
#1416=CARTESIAN_POINT('',(18.1,15.798780669118,2.));
#1417=CARTESIAN_POINT('',(18.1,15.798780669118,2.));
#1418=VECTOR('',#1419,1.);
#1419=DIRECTION('',(-1.42530511963892E-16,-1.,0.));
#1420=CARTESIAN_POINT('',(15.798780669118,18.1,2.));
#1421=VECTOR('',#1422,1.);
#1422=DIRECTION('',(0.707106781186548,-0.707106781186547,0.));
#1423=CARTESIAN_POINT('',(-15.5,17.15,2.));
#1424=AXIS2_PLACEMENT_3D('',#1425,#1426,#1427);
#1425=CARTESIAN_POINT('',(-15.5,15.5,2.));
#1426=DIRECTION('',(0.,0.,-1.));
#1427=DIRECTION('',(-6.12323399573677E-17,1.,0.));
#1428=CARTESIAN_POINT('',(15.5,-13.85,2.));
#1429=AXIS2_PLACEMENT_3D('',#1430,#1431,#1432);
#1430=CARTESIAN_POINT('',(15.5,-15.5,2.));
#1431=DIRECTION('',(0.,0.,-1.));
#1432=DIRECTION('',(-6.12323399573677E-17,1.,0.));
#1433=CARTESIAN_POINT('',(8.88178419700125E-16,-18.1,7.));
#1434=CARTESIAN_POINT('',(8.88178419700125E-16,-19.3,7.));
#1435=CARTESIAN_POINT('',(4.07068200235424E-16,-19.3,7.));
#1436=VECTOR('',#1437,1.);
#1437=DIRECTION('',(-6.12323399573677E-17,1.,0.));
#1438=CARTESIAN_POINT('',(9.1272062641256,-19.3,7.));
#1439=CARTESIAN_POINT('',(8.88178419700125E-16,-19.3,7.));
#1440=VECTOR('',#1441,1.);
#1441=DIRECTION('',(1.,-3.89244372921034E-16,0.));
#1442=CARTESIAN_POINT('',(9.1272062641256,-18.1,7.));
#1443=CARTESIAN_POINT('',(9.1272062641256,-19.3,7.));
#1444=VECTOR('',#1445,1.);
#1445=DIRECTION('',(0.,1.,0.));
#1446=CARTESIAN_POINT('',(9.1272062641256,-18.1,7.));
#1447=VECTOR('',#1448,1.);
#1448=DIRECTION('',(-1.,3.89244372921034E-16,0.));
#1449=CARTESIAN_POINT('',(-15.,-19.3,7.));
#1450=CARTESIAN_POINT('',(-15.,-18.1,7.));
#1451=CARTESIAN_POINT('',(-15.,-18.1,7.));
#1452=VECTOR('',#1453,1.);
#1453=DIRECTION('',(1.48029736616686E-15,-1.,0.));
#1454=CARTESIAN_POINT('',(-15.798780669118,-18.1,7.));
#1455=CARTESIAN_POINT('',(-15.,-18.1,7.));
#1456=VECTOR('',#1457,1.);
#1457=DIRECTION('',(-1.,0.,0.));
#1458=CARTESIAN_POINT('',(-18.1,-15.798780669118,7.));
#1459=CARTESIAN_POINT('',(-15.798780669118,-18.1,7.));
#1460=VECTOR('',#1461,1.);
#1461=DIRECTION('',(-0.707106781186548,0.707106781186548,0.));
#1462=CARTESIAN_POINT('',(-18.1,9.1272062641256,7.));
#1463=CARTESIAN_POINT('',(-18.1,-15.798780669118,7.));
#1464=VECTOR('',#1465,1.);
#1465=DIRECTION('',(1.42530511963892E-16,1.,0.));
#1466=CARTESIAN_POINT('',(-19.3,9.1272062641256,7.));
#1467=CARTESIAN_POINT('',(-18.1,9.1272062641256,7.));
#1468=VECTOR('',#1469,1.);
#1469=DIRECTION('',(-1.,0.,0.));
#1470=CARTESIAN_POINT('',(-19.3,-16.2958369439657,7.));
#1471=CARTESIAN_POINT('',(-19.3,9.1272062641256,7.));
#1472=VECTOR('',#1473,1.);
#1473=DIRECTION('',(-2.79487679718043E-16,-1.,0.));
#1474=CARTESIAN_POINT('',(-16.2958369439657,-19.3,7.));
#1475=CARTESIAN_POINT('',(-19.3,-16.2958369439657,7.));
#1476=VECTOR('',#1477,1.);
#1477=DIRECTION('',(0.707106781186548,-0.707106781186548,0.));
#1478=CARTESIAN_POINT('',(-16.2958369439657,-19.3,7.));
#1479=VECTOR('',#1480,1.);
#1480=DIRECTION('',(1.,0.,0.));
#1481=CARTESIAN_POINT('',(2.03534100117712E-16,-19.3,2.));
#1482=VECTOR('',#1483,1.);
#1483=DIRECTION('',(0.,0.,1.));
#1484=CARTESIAN_POINT('',(9.1272062641256,-19.3,2.));
#1485=VECTOR('',#1486,1.);
#1486=DIRECTION('',(0.,0.,1.));
#1487=CARTESIAN_POINT('',(-15.,-19.3,7.));
#1488=VECTOR('',#1489,1.);
#1489=DIRECTION('',(0.,0.,-1.));
#1490=CARTESIAN_POINT('',(-16.2958369439657,-19.3,2.));
#1491=VECTOR('',#1492,1.);
#1492=DIRECTION('',(0.,0.,1.));
#1493=CARTESIAN_POINT('',(1.66794696143291E-16,-18.1,7.));
#1494=VECTOR('',#1495,1.);
#1495=DIRECTION('',(0.,0.,-1.));
#1496=CARTESIAN_POINT('',(9.1272062641256,-18.1,2.));
#1497=VECTOR('',#1498,1.);
#1498=DIRECTION('',(0.,0.,1.));
#1499=CARTESIAN_POINT('',(-15.,-18.1,2.));
#1500=VECTOR('',#1501,1.);
#1501=DIRECTION('',(0.,0.,1.));
#1502=CARTESIAN_POINT('',(-15.798780669118,-18.1,2.));
#1503=VECTOR('',#1504,1.);
#1504=DIRECTION('',(0.,0.,1.));
#1505=CARTESIAN_POINT('',(-21.,-17.,0.599999999999999));
#1506=CARTESIAN_POINT('',(-17.,-21.,0.599999999999999));
#1507=CARTESIAN_POINT('',(-17.,-21.,0.599999999999998));
#1508=VECTOR('',#1509,1.);
#1509=DIRECTION('',(-0.707106781186547,0.707106781186547,1.57009245868378E-16));
#1510=CARTESIAN_POINT('',(-17.,-21.,0.599999999999999));
#1511=VECTOR('',#1512,1.);
#1512=DIRECTION('',(0.,0.,1.));
#1513=CARTESIAN_POINT('',(-21.,-17.,0.6));
#1514=VECTOR('',#1515,1.);
#1515=DIRECTION('',(0.,0.,1.));
#1516=CARTESIAN_POINT('',(17.,-21.,0.599999999999999));
#1517=CARTESIAN_POINT('',(-17.,-21.,0.6));
#1518=VECTOR('',#1519,1.);
#1519=DIRECTION('',(1.,0.,0.));
#1520=CARTESIAN_POINT('',(17.,-21.,0.6));
#1521=VECTOR('',#1522,1.);
#1522=DIRECTION('',(0.,0.,1.));
#1523=CARTESIAN_POINT('',(21.,-17.,0.599999999999999));
#1524=CARTESIAN_POINT('',(21.,-17.,0.599999999999998));
#1525=VECTOR('',#1526,1.);
#1526=DIRECTION('',(-0.707106781186547,-0.707106781186547,1.57009245868378E-16));
#1527=CARTESIAN_POINT('',(21.,-17.,0.599999999999999));
#1528=VECTOR('',#1529,1.);
#1529=DIRECTION('',(0.,0.,1.));
#1530=CARTESIAN_POINT('',(21.,17.,0.599999999999999));
#1531=CARTESIAN_POINT('',(21.,-17.,0.6));
#1532=VECTOR('',#1533,1.);
#1533=DIRECTION('',(0.,1.,0.));
#1534=CARTESIAN_POINT('',(21.,17.,0.6));
#1535=VECTOR('',#1536,1.);
#1536=DIRECTION('',(0.,0.,1.));
#1537=CARTESIAN_POINT('',(17.,21.,0.599999999999999));
#1538=CARTESIAN_POINT('',(17.,21.,0.599999999999998));
#1539=VECTOR('',#1540,1.);
#1540=DIRECTION('',(0.707106781186547,-0.707106781186547,1.57009245868378E-16));
#1541=CARTESIAN_POINT('',(17.,21.,0.599999999999999));
#1542=VECTOR('',#1543,1.);
#1543=DIRECTION('',(0.,0.,1.));
#1544=CARTESIAN_POINT('',(-17.,21.,0.599999999999999));
#1545=CARTESIAN_POINT('',(17.,21.,0.6));
#1546=VECTOR('',#1547,1.);
#1547=DIRECTION('',(-1.,0.,0.));
#1548=CARTESIAN_POINT('',(-17.,21.,0.6));
#1549=VECTOR('',#1550,1.);
#1550=DIRECTION('',(0.,0.,1.));
#1551=CARTESIAN_POINT('',(-21.,17.,0.599999999999999));
#1552=CARTESIAN_POINT('',(-21.,17.,0.599999999999998));
#1553=VECTOR('',#1554,1.);
#1554=DIRECTION('',(0.707106781186547,0.707106781186547,1.57009245868378E-16));
#1555=CARTESIAN_POINT('',(-21.,17.,0.599999999999999));
#1556=VECTOR('',#1557,1.);
#1557=DIRECTION('',(0.,0.,1.));
#1558=CARTESIAN_POINT('',(-21.,17.,0.6));
#1559=VECTOR('',#1560,1.);
#1560=DIRECTION('',(0.,-1.,0.));
#1561=CARTESIAN_POINT('',(1.,-7.5,0.2));
#1562=CARTESIAN_POINT('',(6.8,-7.5,0.2));
#1563=CARTESIAN_POINT('',(1.,-7.5,0.200000000000001));
#1564=VECTOR('',#1565,1.);
#1565=DIRECTION('',(1.,0.,-1.53134210293125E-16));
#1566=CARTESIAN_POINT('',(1.,-7.5,2.));
#1567=VECTOR('',#1568,1.);
#1568=DIRECTION('',(0.,0.,-1.));
#1569=CARTESIAN_POINT('',(6.8,-7.5,2.));
#1570=VECTOR('',#1571,1.);
#1571=DIRECTION('',(0.,0.,-1.));
#1572=CARTESIAN_POINT('',(0.999999999999999,7.5,0.2));
#1573=CARTESIAN_POINT('',(1.,7.5,0.199999999999999));
#1574=VECTOR('',#1575,1.);
#1575=DIRECTION('',(5.9211894646675E-17,-1.,0.));
#1576=CARTESIAN_POINT('',(1.,7.5,2.));
#1577=VECTOR('',#1578,1.);
#1578=DIRECTION('',(0.,-4.93432455388958E-16,-1.));
#1579=CARTESIAN_POINT('',(6.8,7.5,0.2));
#1580=CARTESIAN_POINT('',(6.8,7.5,0.200000000000001));
#1581=VECTOR('',#1582,1.);
#1582=DIRECTION('',(-1.,1.53134210293125E-16,-1.53134210293125E-16));
#1583=CARTESIAN_POINT('',(6.8,7.5,2.));
#1584=VECTOR('',#1585,1.);
#1585=DIRECTION('',(0.,0.,-1.));
#1586=CARTESIAN_POINT('',(6.8,-7.5,0.199999999999999));
#1587=VECTOR('',#1588,1.);
#1588=DIRECTION('',(-1.1842378929335E-16,1.,0.));
#1589=CARTESIAN_POINT('',(-6.8,-6.24,0.199999999999999));
#1590=CARTESIAN_POINT('',(-0.999999999999999,-6.24,0.199999999999999));
#1591=CARTESIAN_POINT('',(-6.8,-6.24,0.199999999999999));
#1592=VECTOR('',#1593,1.);
#1593=DIRECTION('',(1.,0.,0.));
#1594=CARTESIAN_POINT('',(-6.8,-6.24,2.));
#1595=VECTOR('',#1596,1.);
#1596=DIRECTION('',(0.,0.,-1.));
#1597=CARTESIAN_POINT('',(-0.999999999999999,-6.24,2.));
#1598=VECTOR('',#1599,1.);
#1599=DIRECTION('',(0.,0.,-1.));
#1600=CARTESIAN_POINT('',(-6.8,6.24,0.199999999999999));
#1601=CARTESIAN_POINT('',(-6.8,6.24,0.199999999999999));
#1602=VECTOR('',#1603,1.);
#1603=DIRECTION('',(0.,-1.,0.));
#1604=CARTESIAN_POINT('',(-6.8,6.24,2.));
#1605=VECTOR('',#1606,1.);
#1606=DIRECTION('',(0.,0.,-1.));
#1607=CARTESIAN_POINT('',(-1.,6.24,0.199999999999999));
#1608=CARTESIAN_POINT('',(-1.,6.24,0.199999999999999));
#1609=VECTOR('',#1610,1.);
#1610=DIRECTION('',(-1.,0.,4.78544407166016E-18));
#1611=CARTESIAN_POINT('',(-1.,6.24,2.));
#1612=VECTOR('',#1613,1.);
#1613=DIRECTION('',(0.,0.,-1.));
#1614=CARTESIAN_POINT('',(-0.999999999999999,-6.24,0.199999999999999));
#1615=VECTOR('',#1616,1.);
#1616=DIRECTION('',(-5.33761069531325E-17,1.,0.));
#1617=CARTESIAN_POINT('',(-19.3,-16.2958369439657,2.));
#1618=VECTOR('',#1619,1.);
#1619=DIRECTION('',(0.,0.,1.));
#1620=CARTESIAN_POINT('',(-19.3,9.1272062641256,2.));
#1621=VECTOR('',#1622,1.);
#1622=DIRECTION('',(0.,0.,1.));
#1623=CARTESIAN_POINT('',(-18.1,9.1272062641256,2.));
#1624=VECTOR('',#1625,1.);
#1625=DIRECTION('',(0.,0.,1.));
#1626=CARTESIAN_POINT('',(-18.1,-15.798780669118,2.));
#1627=VECTOR('',#1628,1.);
#1628=DIRECTION('',(0.,0.,1.));
#1629=CARTESIAN_POINT('',(15.798780669118,18.1,7.));
#1630=CARTESIAN_POINT('',(15.798780669118,18.1,2.));
#1631=VECTOR('',#1632,1.);
#1632=DIRECTION('',(0.,0.,1.));
#1633=CARTESIAN_POINT('',(-9.1272062641256,18.1,7.));
#1634=CARTESIAN_POINT('',(-9.1272062641256,18.1,7.));
#1635=VECTOR('',#1636,1.);
#1636=DIRECTION('',(1.,-2.85061023927785E-16,0.));
#1637=CARTESIAN_POINT('',(-9.1272062641256,18.1,2.));
#1638=VECTOR('',#1639,1.);
#1639=DIRECTION('',(0.,0.,1.));
#1640=CARTESIAN_POINT('',(-9.1272062641256,19.3,7.));
#1641=CARTESIAN_POINT('',(-9.1272062641256,19.3,7.));
#1642=VECTOR('',#1643,1.);
#1643=DIRECTION('',(0.,-1.,0.));
#1644=CARTESIAN_POINT('',(-9.1272062641256,19.3,2.));
#1645=VECTOR('',#1646,1.);
#1646=DIRECTION('',(0.,0.,1.));
#1647=CARTESIAN_POINT('',(16.2958369439657,19.3,7.));
#1648=CARTESIAN_POINT('',(16.2958369439657,19.3,7.));
#1649=VECTOR('',#1650,1.);
#1650=DIRECTION('',(-1.,2.79487679718043E-16,0.));
#1651=CARTESIAN_POINT('',(16.2958369439657,19.3,2.));
#1652=VECTOR('',#1653,1.);
#1653=DIRECTION('',(0.,0.,1.));
#1654=CARTESIAN_POINT('',(19.3,16.2958369439657,7.));
#1655=CARTESIAN_POINT('',(19.3,16.2958369439657,7.));
#1656=VECTOR('',#1657,1.);
#1657=DIRECTION('',(-0.707106781186548,0.707106781186548,0.));
#1658=CARTESIAN_POINT('',(19.3,16.2958369439657,2.));
#1659=VECTOR('',#1660,1.);
#1660=DIRECTION('',(0.,0.,1.));
#1661=CARTESIAN_POINT('',(19.3,-9.1272062641256,7.));
#1662=CARTESIAN_POINT('',(19.3,-9.1272062641256,7.));
#1663=VECTOR('',#1664,1.);
#1664=DIRECTION('',(1.39743839859022E-16,1.,0.));
#1665=CARTESIAN_POINT('',(19.3,-9.1272062641256,2.));
#1666=VECTOR('',#1667,1.);
#1667=DIRECTION('',(0.,0.,1.));
#1668=CARTESIAN_POINT('',(18.1,-9.1272062641256,7.));
#1669=CARTESIAN_POINT('',(18.1,-9.1272062641256,7.));
#1670=VECTOR('',#1671,1.);
#1671=DIRECTION('',(1.,0.,0.));
#1672=CARTESIAN_POINT('',(18.1,-9.1272062641256,2.));
#1673=VECTOR('',#1674,1.);
#1674=DIRECTION('',(0.,0.,1.));
#1675=CARTESIAN_POINT('',(18.1,15.798780669118,7.));
#1676=CARTESIAN_POINT('',(18.1,15.798780669118,7.));
#1677=VECTOR('',#1678,1.);
#1678=DIRECTION('',(-1.42530511963892E-16,-1.,0.));
#1679=CARTESIAN_POINT('',(18.1,15.798780669118,2.));
#1680=VECTOR('',#1681,1.);
#1681=DIRECTION('',(0.,0.,1.));
#1682=CARTESIAN_POINT('',(15.798780669118,18.1,7.));
#1683=VECTOR('',#1684,1.);
#1684=DIRECTION('',(0.707106781186548,-0.707106781186547,0.));
#1685=CARTESIAN_POINT('',(-15.5,17.15,1.));
#1686=AXIS2_PLACEMENT_3D('',#1687,#1688,#1689);
#1687=CARTESIAN_POINT('',(-15.5,15.5,1.));
#1688=DIRECTION('',(0.,0.,-1.));
#1689=DIRECTION('',(-6.12323399573677E-17,1.,0.));
#1690=CARTESIAN_POINT('',(15.5,-13.85,1.));
#1691=AXIS2_PLACEMENT_3D('',#1692,#1693,#1694);
#1692=CARTESIAN_POINT('',(15.5,-15.5,1.));
#1693=DIRECTION('',(0.,0.,-1.));
#1694=DIRECTION('',(-6.12323399573677E-17,1.,0.));
#1695=CARTESIAN_POINT('',(-20.4,-16.7514718625761,6.33272647270845E-16));
#1696=CARTESIAN_POINT('',(-16.7514718625761,-20.4,-4.75031726876915E-17));
#1697=CARTESIAN_POINT('',(-16.7514718625761,-20.4,3.97675434309784E-17));
#1698=VECTOR('',#1699,1.);
#1699=DIRECTION('',(-0.707106781186548,0.707106781186547,1.50149597691868E-17));
#1700=CARTESIAN_POINT('',(-16.7514718625761,-20.4,-7.12547590315372E-17));
#1701=VECTOR('',#1702,1.);
#1702=DIRECTION('',(-0.281084637714821,-0.678598344545849,0.678598344545846));
#1703=CARTESIAN_POINT('',(-21.,-17.,0.599999999999999));
#1704=VECTOR('',#1705,1.);
#1705=DIRECTION('',(0.67859834454585,0.281084637714817,-0.678598344545846));
#1706=CARTESIAN_POINT('',(16.7514718625761,-20.4,4.14626664992256E-18));
#1707=CARTESIAN_POINT('',(-16.7514718625761,-20.4,-1.11022302462516E-16));
#1708=VECTOR('',#1709,1.);
#1709=DIRECTION('',(1.,0.,0.));
#1710=CARTESIAN_POINT('',(17.,-21.,0.599999999999999));
#1711=VECTOR('',#1712,1.);
#1712=DIRECTION('',(-0.281084637714817,0.678598344545849,-0.678598344545846));
#1713=CARTESIAN_POINT('',(20.4,-16.7514718625761,-4.75031726876915E-17));
#1714=CARTESIAN_POINT('',(20.4,-16.7514718625761,3.97675434309784E-17));
#1715=VECTOR('',#1716,1.);
#1716=DIRECTION('',(-0.707106781186547,-0.707106781186548,1.50149597691868E-17));
#1717=CARTESIAN_POINT('',(20.4,-16.7514718625761,-7.12547590315372E-17));
#1718=VECTOR('',#1719,1.);
#1719=DIRECTION('',(0.678598344545849,-0.281084637714821,0.678598344545846));
#1720=CARTESIAN_POINT('',(20.4,16.7514718625761,4.14626664992256E-18));
#1721=CARTESIAN_POINT('',(20.4,-16.7514718625761,-1.11022302462516E-16));
#1722=VECTOR('',#1723,1.);
#1723=DIRECTION('',(0.,1.,0.));
#1724=CARTESIAN_POINT('',(21.,17.,0.599999999999999));
#1725=VECTOR('',#1726,1.);
#1726=DIRECTION('',(-0.678598344545849,-0.281084637714817,-0.678598344545846));
#1727=CARTESIAN_POINT('',(16.7514718625761,20.4,5.81623207933231E-16));
#1728=CARTESIAN_POINT('',(16.7514718625761,20.4,3.97675434309785E-17));
#1729=VECTOR('',#1730,1.);
#1730=DIRECTION('',(0.707106781186548,-0.707106781186547,1.50149597691868E-17));
#1731=CARTESIAN_POINT('',(16.7514718625761,20.4,8.72434811899846E-16));
#1732=VECTOR('',#1733,1.);
#1733=DIRECTION('',(0.281084637714817,0.67859834454585,0.678598344545846));
#1734=CARTESIAN_POINT('',(-16.7514718625761,20.4,6.33272647270845E-16));
#1735=CARTESIAN_POINT('',(16.7514718625761,20.4,8.32667268468867E-16));
#1736=VECTOR('',#1737,1.);
#1737=DIRECTION('',(-1.,0.,0.));
#1738=CARTESIAN_POINT('',(-17.,21.,0.599999999999999));
#1739=VECTOR('',#1740,1.);
#1740=DIRECTION('',(0.281084637714817,-0.67859834454585,-0.678598344545846));
#1741=CARTESIAN_POINT('',(-20.4,16.7514718625761,5.81623207933231E-16));
#1742=CARTESIAN_POINT('',(-20.4,16.7514718625761,3.97675434309785E-17));
#1743=VECTOR('',#1744,1.);
#1744=DIRECTION('',(0.707106781186547,0.707106781186548,1.50149597691868E-17));
#1745=CARTESIAN_POINT('',(-20.4,16.7514718625761,8.72434811899846E-16));
#1746=VECTOR('',#1747,1.);
#1747=DIRECTION('',(-0.67859834454585,0.281084637714817,0.678598344545846));
#1748=CARTESIAN_POINT('',(-20.4,16.7514718625761,8.32667268468867E-16));
#1749=VECTOR('',#1750,1.);
#1750=DIRECTION('',(0.,-1.,0.));
#1751=CARTESIAN_POINT('',(0.800000000000001,-7.7,0.));
#1752=CARTESIAN_POINT('',(7.,-7.7,0.));
#1753=CARTESIAN_POINT('',(0.800000000000001,-7.7,0.));
#1754=VECTOR('',#1755,1.);
#1755=DIRECTION('',(1.,0.,0.));
#1756=CARTESIAN_POINT('',(0.800000000000001,-7.7,0.));
#1757=VECTOR('',#1758,1.);
#1758=DIRECTION('',(0.577350269189625,0.577350269189627,0.577350269189626));
#1759=CARTESIAN_POINT('',(7.,-7.7,0.));
#1760=VECTOR('',#1761,1.);
#1761=DIRECTION('',(-0.577350269189628,0.577350269189625,0.577350269189625));
#1762=CARTESIAN_POINT('',(0.799999999999999,7.7,0.));
#1763=CARTESIAN_POINT('',(0.799999999999999,7.7,0.));
#1764=VECTOR('',#1765,1.);
#1765=DIRECTION('',(7.93016446160826E-17,-1.,0.));
#1766=CARTESIAN_POINT('',(0.799999999999999,7.7,0.));
#1767=VECTOR('',#1768,1.);
#1768=DIRECTION('',(0.577350269189626,-0.577350269189627,0.577350269189624));
#1769=CARTESIAN_POINT('',(7.,7.7,0.));
#1770=CARTESIAN_POINT('',(7.,7.7,0.));
#1771=VECTOR('',#1772,1.);
#1772=DIRECTION('',(-1.,1.43254583822601E-16,0.));
#1773=CARTESIAN_POINT('',(7.,7.7,0.));
#1774=VECTOR('',#1775,1.);
#1775=DIRECTION('',(-0.577350269189625,-0.577350269189625,0.577350269189627));
#1776=CARTESIAN_POINT('',(7.,-7.7,0.));
#1777=VECTOR('',#1778,1.);
#1778=DIRECTION('',(-1.15347846714302E-16,1.,0.));
#1779=CARTESIAN_POINT('',(-7.,-6.44,0.));
#1780=CARTESIAN_POINT('',(-0.799999999999999,-6.44,0.));
#1781=CARTESIAN_POINT('',(-7.,-6.44,0.));
#1782=VECTOR('',#1783,1.);
#1783=DIRECTION('',(1.,0.,0.));
#1784=CARTESIAN_POINT('',(-7.,-6.44,0.));
#1785=VECTOR('',#1786,1.);
#1786=DIRECTION('',(0.577350269189626,0.577350269189628,0.577350269189623));
#1787=CARTESIAN_POINT('',(-0.8,-6.44,0.));
#1788=VECTOR('',#1789,1.);
#1789=DIRECTION('',(-0.577350269189626,0.577350269189627,0.577350269189624));
#1790=CARTESIAN_POINT('',(-7.,6.44,0.));
#1791=CARTESIAN_POINT('',(-7.,6.44,0.));
#1792=VECTOR('',#1793,1.);
#1793=DIRECTION('',(6.89579518400718E-17,-1.,0.));
#1794=CARTESIAN_POINT('',(-7.,6.44,0.));
#1795=VECTOR('',#1796,1.);
#1796=DIRECTION('',(0.577350269189628,-0.577350269189626,0.577350269189623));
#1797=CARTESIAN_POINT('',(-0.8,6.44,0.));
#1798=CARTESIAN_POINT('',(-0.8,6.44,0.));
#1799=VECTOR('',#1800,1.);
#1800=DIRECTION('',(-1.,0.,0.));
#1801=CARTESIAN_POINT('',(-0.8,6.44,0.));
#1802=VECTOR('',#1803,1.);
#1803=DIRECTION('',(-0.577350269189628,-0.577350269189624,0.577350269189624));
#1804=CARTESIAN_POINT('',(-0.799999999999999,-6.44,0.));
#1805=VECTOR('',#1806,1.);
#1806=DIRECTION('',(-6.03382078600629E-17,1.,0.));
#1807=CARTESIAN_POINT('',(-15.5,18.5,1.));
#1808=AXIS2_PLACEMENT_3D('',#1809,#1810,#1811);
#1809=CARTESIAN_POINT('',(-15.5,15.5,1.));
#1810=DIRECTION('',(0.,0.,-1.));
#1811=DIRECTION('',(-6.12323399573677E-17,1.,0.));
#1812=CARTESIAN_POINT('',(15.5,-12.5,1.));
#1813=AXIS2_PLACEMENT_3D('',#1814,#1815,#1816);
#1814=CARTESIAN_POINT('',(15.5,-15.5,1.));
#1815=DIRECTION('',(0.,0.,-1.));
#1816=DIRECTION('',(-6.12323399573677E-17,1.,0.));
#1817=CARTESIAN_POINT('',(15.5,-12.5,0.));
#1818=AXIS2_PLACEMENT_3D('',#1819,#1820,#1821);
#1819=CARTESIAN_POINT('',(15.5,-15.5,0.));
#1820=DIRECTION('',(0.,0.,-1.));
#1821=DIRECTION('',(-6.12323399573676E-17,1.,0.));
#1822=CARTESIAN_POINT('',(-15.5,18.5,0.));
#1823=AXIS2_PLACEMENT_3D('',#1824,#1825,#1826);
#1824=CARTESIAN_POINT('',(-15.5,15.5,0.));
#1825=DIRECTION('',(0.,0.,-1.));
#1826=DIRECTION('',(-6.12323399573676E-17,1.,0.));
ENDSEC;
END-ISO-10303-21;
