ISO-10303-21;
HEADER;
FILE_DESCRIPTION(('STEP AP242'),
    '1');
FILE_NAME('MotorWireBox',
    '',
    ('UNSPECIFIED'),
    ('UNSPECIFIED'),
    'C3D Converter',
    'C3D Toolkit',
    '');
FILE_SCHEMA(('AP242_MANAGED_MODEL_BASED_3D_ENGINEERING_MIM_LF { 1 0 10303 442 1 1 4 }'));
ENDSEC;

DATA;
#1=PRODUCT_DEFINITION('','UNSPECIFIED',#28,#31);
#2=SHAPE_DEFINITION_REPRESENTATION(#26,#3);
#3=SHAPE_REPRESENTATION('NONE',(#4),#8);
#4=AXIS2_PLACEMENT_3D('',#5,#6,#7);
#5=CARTESIAN_POINT('',(0.,0.,0.));
#6=DIRECTION('',(0.,0.,1.));
#7=DIRECTION('',(1.,0.,0.));
#8=(GEOMETRIC_REPRESENTATION_CONTEXT(3)GLOBAL_UNCERTAINTY_ASSIGNED_CONTEXT((#10))
GLOBAL_UNIT_ASSIGNED_CONTEXT((#9,#11,#12))REPRESENTATION_CONTEXT('NONE','NONE'));
#9=(LENGTH_UNIT()NAMED_UNIT(*)SI_UNIT(.MILLI.,.METRE.));
#10=UNCERTAINTY_MEASURE_WITH_UNIT(LENGTH_MEASURE(1.E-5),#9,'NONE','NONE');
#11=(NAMED_UNIT(*)PLANE_ANGLE_UNIT()SI_UNIT($,.RADIAN.));
#12=(NAMED_UNIT(*)SI_UNIT($,.STERADIAN.)SOLID_ANGLE_UNIT());
#13=MANIFOLD_SOLID_BREP('',#14);
#14=CLOSED_SHELL('',(#53,#54,#55,#56,#57,#58,#59,#60,#61,#62,#63,#64,#65,#66,#67,
#68,#69,#70,#71,#72,#73,#74,#75,#76,#77,#78,#79,#80,#81,#82,#83,#84,#85,#86,#87,
#88,#89,#90,#91,#92,#93,#94,#95,#96,#97,#98,#99,#100,#101,#102,#103,#104,#105,#106,
#107,#108,#109,#110,#111,#112,#113,#114,#115,#116,#117,#118,#119,#120,#121,#122,
#123,#124,#125,#126,#127));
#15=COLOUR_RGB('',0.564705882352941,0.564705882352941,0.564705882352941);
#16=FILL_AREA_STYLE_COLOUR('',#15);
#17=FILL_AREA_STYLE($,(#16));
#18=SURFACE_STYLE_FILL_AREA(#17);
#19=SURFACE_SIDE_STYLE('',(#18));
#20=SURFACE_STYLE_USAGE(.BOTH.,#19);
#21=PRESENTATION_STYLE_ASSIGNMENT((#20));
#22=MECHANICAL_DESIGN_GEOMETRIC_PRESENTATION_REPRESENTATION('NONE',(#23),#8);
#23=STYLED_ITEM('',(#21),#13);
#24=ADVANCED_BREP_SHAPE_REPRESENTATION('NONE',(#13),#8);
#25=SHAPE_REPRESENTATION_RELATIONSHIP('','',#3,#24);
#26=PRODUCT_DEFINITION_SHAPE('NONE','NONE',#1);
#27=MECHANICAL_CONTEXT('NONE',#32,'mechanical');
#28=PRODUCT_DEFINITION_FORMATION_WITH_SPECIFIED_SOURCE('ANY','UNSPECIFIED',#29,.NOT_KNOWN.);
#29=PRODUCT('','\X2\0414043504420430043B044C\X0\','NONE',(#27));
#30=PRODUCT_RELATED_PRODUCT_CATEGORY('detail','',(#29));
#31=DESIGN_CONTEXT('detailed design',#32,'design');
#32=APPLICATION_CONTEXT('configuration controlled 3d designs of mechanical parts and assemblies');
#33=APPLICATION_PROTOCOL_DEFINITION('international standard','config_control_design',
1994,#32);
#34=CC_DESIGN_DATE_AND_TIME_ASSIGNMENT(#35,#39,(#1));
#35=DATE_AND_TIME(#36,#37);
#36=CALENDAR_DATE(0,1,1);
#37=LOCAL_TIME(0,0,0.,#38);
#38=COORDINATED_UNIVERSAL_TIME_OFFSET(0,0,.AHEAD.);
#39=DATE_TIME_ROLE('creation_date');
#40=CC_DESIGN_APPROVAL(#41,(#1));
#41=APPROVAL(#42,'UNSPECIFIED');
#42=APPROVAL_STATUS('not_yet_approved');
#43=APPROVAL_DATE_TIME(#44,#41);
#44=DATE_AND_TIME(#45,#46);
#45=CALENDAR_DATE(0,1,1);
#46=LOCAL_TIME(0,0,0.,#47);
#47=COORDINATED_UNIVERSAL_TIME_OFFSET(0,0,.AHEAD.);
#48=PERSON('UNSPECIFIED','ledibonibell','UNSPECIFIED',('UNSPECIFIED'),('UNSPECIFIED'),
('UNSPECIFIED'));
#49=ORGANIZATION('UNSPECIFIED','UNSPECIFIED','UNSPECIFIED');
#50=PERSON_AND_ORGANIZATION(#48,#49);
#51=PERSON_AND_ORGANIZATION_ROLE('creator');
#52=CC_DESIGN_PERSON_AND_ORGANIZATION_ASSIGNMENT(#50,#51,(#28,#1));
#53=ADVANCED_FACE('',(#128,#130,#132,#134),#136,.T.);
#54=ADVANCED_FACE('',(#141),#143,.T.);
#55=ADVANCED_FACE('',(#148),#150,.T.);
#56=ADVANCED_FACE('',(#155),#157,.T.);
#57=ADVANCED_FACE('',(#162),#164,.T.);
#58=ADVANCED_FACE('',(#169),#171,.T.);
#59=ADVANCED_FACE('',(#176),#178,.T.);
#60=ADVANCED_FACE('',(#183),#185,.F.);
#61=ADVANCED_FACE('',(#190,#192),#194,.T.);
#62=ADVANCED_FACE('',(#199),#201,.T.);
#63=ADVANCED_FACE('',(#206),#208,.T.);
#64=ADVANCED_FACE('',(#213),#215,.F.);
#65=ADVANCED_FACE('',(#220,#222),#224,.T.);
#66=ADVANCED_FACE('',(#229),#231,.F.);
#67=ADVANCED_FACE('',(#236),#238,.F.);
#68=ADVANCED_FACE('',(#243),#245,.T.);
#69=ADVANCED_FACE('',(#250),#252,.F.);
#70=ADVANCED_FACE('',(#257),#259,.T.);
#71=ADVANCED_FACE('',(#264),#266,.T.);
#72=ADVANCED_FACE('',(#271),#273,.T.);
#73=ADVANCED_FACE('',(#278),#280,.F.);
#74=ADVANCED_FACE('',(#285),#287,.T.);
#75=ADVANCED_FACE('',(#292),#294,.F.);
#76=ADVANCED_FACE('',(#299),#301,.F.);
#77=ADVANCED_FACE('',(#306,#308,#310),#312,.T.);
#78=ADVANCED_FACE('',(#317,#319),#321,.F.);
#79=ADVANCED_FACE('',(#326,#328),#330,.F.);
#80=ADVANCED_FACE('',(#335),#337,.T.);
#81=ADVANCED_FACE('',(#342),#344,.F.);
#82=ADVANCED_FACE('',(#349),#351,.T.);
#83=ADVANCED_FACE('',(#356,#358),#360,.F.);
#84=ADVANCED_FACE('',(#365),#367,.T.);
#85=ADVANCED_FACE('',(#372),#374,.T.);
#86=ADVANCED_FACE('',(#379),#381,.F.);
#87=ADVANCED_FACE('',(#386),#388,.F.);
#88=ADVANCED_FACE('',(#393),#395,.F.);
#89=ADVANCED_FACE('',(#400,#402,#404,#406),#408,.T.);
#90=ADVANCED_FACE('',(#413),#415,.F.);
#91=ADVANCED_FACE('',(#420),#422,.F.);
#92=ADVANCED_FACE('',(#427),#429,.T.);
#93=ADVANCED_FACE('',(#434),#436,.F.);
#94=ADVANCED_FACE('',(#441),#443,.T.);
#95=ADVANCED_FACE('',(#448),#450,.T.);
#96=ADVANCED_FACE('',(#455),#457,.T.);
#97=ADVANCED_FACE('',(#462),#464,.F.);
#98=ADVANCED_FACE('',(#469),#471,.T.);
#99=ADVANCED_FACE('',(#476),#478,.F.);
#100=ADVANCED_FACE('',(#483),#485,.F.);
#101=ADVANCED_FACE('',(#490),#492,.F.);
#102=ADVANCED_FACE('',(#497,#499),#501,.T.);
#103=ADVANCED_FACE('',(#506,#508),#510,.T.);
#104=ADVANCED_FACE('',(#515),#517,.F.);
#105=ADVANCED_FACE('',(#522,#524,#526,#528,#530),#532,.F.);
#106=ADVANCED_FACE('',(#537),#539,.F.);
#107=ADVANCED_FACE('',(#544),#546,.T.);
#108=ADVANCED_FACE('',(#551),#553,.F.);
#109=ADVANCED_FACE('',(#558),#560,.T.);
#110=ADVANCED_FACE('',(#565,#567),#569,.F.);
#111=ADVANCED_FACE('',(#574,#576),#578,.F.);
#112=ADVANCED_FACE('',(#583),#585,.F.);
#113=ADVANCED_FACE('',(#590,#592),#594,.F.);
#114=ADVANCED_FACE('',(#599,#601),#603,.F.);
#115=ADVANCED_FACE('',(#608),#610,.F.);
#116=ADVANCED_FACE('',(#615),#617,.F.);
#117=ADVANCED_FACE('',(#622),#624,.F.);
#118=ADVANCED_FACE('',(#629,#631),#633,.F.);
#119=ADVANCED_FACE('',(#638,#640),#642,.F.);
#120=ADVANCED_FACE('',(#647,#649),#651,.F.);
#121=ADVANCED_FACE('',(#656,#658),#660,.F.);
#122=ADVANCED_FACE('',(#665,#667),#669,.F.);
#123=ADVANCED_FACE('',(#674,#676),#678,.F.);
#124=ADVANCED_FACE('',(#683,#685),#687,.F.);
#125=ADVANCED_FACE('',(#692,#694),#696,.F.);
#126=ADVANCED_FACE('',(#701,#703),#705,.T.);
#127=ADVANCED_FACE('',(#710,#712),#714,.T.);
#128=FACE_BOUND('',#129,.T.);
#129=EDGE_LOOP('',(#719,#720,#721,#722,#723,#724,#725,#726,#727,#728,#729,#730,#731,
#732,#733,#734,#735,#736,#737,#738));
#130=FACE_BOUND('',#131,.T.);
#131=EDGE_LOOP('',(#739,#740,#741,#742,#743,#744));
#132=FACE_BOUND('',#133,.T.);
#133=EDGE_LOOP('',(#745));
#134=FACE_BOUND('',#135,.T.);
#135=EDGE_LOOP('',(#746));
#136=PLANE('',#137);
#137=AXIS2_PLACEMENT_3D('',#138,#139,#140);
#138=CARTESIAN_POINT('',(0.,0.,0.));
#139=DIRECTION('',(1.22464679914735E-16,0.,-1.));
#140=DIRECTION('',(-1.,0.,-1.22464679914735E-16));
#141=FACE_BOUND('',#142,.T.);
#142=EDGE_LOOP('',(#747,#748,#749,#750));
#143=PLANE('',#144);
#144=AXIS2_PLACEMENT_3D('',#145,#146,#147);
#145=CARTESIAN_POINT('',(0.,0.,0.));
#146=DIRECTION('',(1.,0.,1.22464679914735E-16));
#147=DIRECTION('',(0.,-1.,0.));
#148=FACE_BOUND('',#149,.T.);
#149=EDGE_LOOP('',(#751,#752,#753,#754));
#150=PLANE('',#151);
#151=AXIS2_PLACEMENT_3D('',#152,#153,#154);
#152=CARTESIAN_POINT('',(10.,0.,1.22464679914735E-15));
#153=DIRECTION('',(0.,-1.,0.));
#154=DIRECTION('',(-1.,0.,-1.22464679914735E-16));
#155=FACE_BOUND('',#156,.T.);
#156=EDGE_LOOP('',(#755,#756,#757,#758));
#157=PLANE('',#158);
#158=AXIS2_PLACEMENT_3D('',#159,#160,#161);
#159=CARTESIAN_POINT('',(10.,10.,1.22464679914735E-15));
#160=DIRECTION('',(1.,0.,0.));
#161=DIRECTION('',(0.,-1.,0.));
#162=FACE_BOUND('',#163,.T.);
#163=EDGE_LOOP('',(#759,#760,#761,#762));
#164=PLANE('',#165);
#165=AXIS2_PLACEMENT_3D('',#166,#167,#168);
#166=CARTESIAN_POINT('',(-10.,10.,-1.22464679914735E-15));
#167=DIRECTION('',(0.,1.,0.));
#168=DIRECTION('',(1.,0.,1.22464679914735E-16));
#169=FACE_BOUND('',#170,.T.);
#170=EDGE_LOOP('',(#763,#764,#765,#766));
#171=PLANE('',#172);
#172=AXIS2_PLACEMENT_3D('',#173,#174,#175);
#173=CARTESIAN_POINT('',(-10.,-10.,-1.22464679914735E-15));
#174=DIRECTION('',(-1.,0.,0.));
#175=DIRECTION('',(0.,1.,0.));
#176=FACE_BOUND('',#177,.T.);
#177=EDGE_LOOP('',(#767,#768,#769,#770));
#178=PLANE('',#179);
#179=AXIS2_PLACEMENT_3D('',#180,#181,#182);
#180=CARTESIAN_POINT('',(0.,-10.,0.));
#181=DIRECTION('',(0.,-1.,0.));
#182=DIRECTION('',(-1.,0.,-1.22464679914735E-16));
#183=FACE_BOUND('',#184,.T.);
#184=EDGE_LOOP('',(#771,#772,#773,#774));
#185=CYLINDRICAL_SURFACE('',#186,0.75);
#186=AXIS2_PLACEMENT_3D('',#187,#188,#189);
#187=CARTESIAN_POINT('',(16.4,-1.5,-0.75));
#188=DIRECTION('',(-1.,0.,0.));
#189=DIRECTION('',(0.,-2.96059473233375E-16,-1.));
#190=FACE_BOUND('',#191,.T.);
#191=EDGE_LOOP('',(#775,#776,#777,#778,#779,#780,#781,#782));
#192=FACE_BOUND('',#193,.T.);
#193=EDGE_LOOP('',(#783));
#194=PLANE('',#195);
#195=AXIS2_PLACEMENT_3D('',#196,#197,#198);
#196=CARTESIAN_POINT('',(19.4,-16.337258300203,2.37581479034587E-15));
#197=DIRECTION('',(-1.,1.08730412824419E-16,-2.368475785867E-16));
#198=DIRECTION('',(1.08730412824419E-16,1.,1.20715007794669E-32));
#199=FACE_BOUND('',#200,.T.);
#200=EDGE_LOOP('',(#784,#785,#786,#787));
#201=PLANE('',#202);
#202=AXIS2_PLACEMENT_3D('',#203,#204,#205);
#203=CARTESIAN_POINT('',(16.3372583002031,-19.4,2.00073710841872E-15));
#204=DIRECTION('',(-0.707106781186549,0.707106781186546,-1.6747652892627E-16));
#205=DIRECTION('',(0.707106781186546,0.707106781186549,8.65956056235492E-17));
#206=FACE_BOUND('',#207,.T.);
#207=EDGE_LOOP('',(#788,#789,#790,#791,#792,#793,#794,#795));
#208=PLANE('',#209);
#209=AXIS2_PLACEMENT_3D('',#210,#211,#212);
#210=CARTESIAN_POINT('',(-16.337258300203,-19.4,-2.00073710841872E-15));
#211=DIRECTION('',(0.,1.,0.));
#212=DIRECTION('',(1.,0.,1.22464679914735E-16));
#213=FACE_BOUND('',#214,.T.);
#214=EDGE_LOOP('',(#796,#797,#798,#799));
#215=CYLINDRICAL_SURFACE('',#216,0.75);
#216=AXIS2_PLACEMENT_3D('',#217,#218,#219);
#217=CARTESIAN_POINT('',(2.25,-13.4,-0.75));
#218=DIRECTION('',(0.,1.,-3.14214063573157E-17));
#219=DIRECTION('',(-1.1842378929335E-15,3.1421406357317E-17,1.));
#220=FACE_BOUND('',#221,.T.);
#221=EDGE_LOOP('',(#800,#801,#802,#803));
#222=FACE_BOUND('',#223,.T.);
#223=EDGE_LOOP('',(#804,#805,#806,#807));
#224=PLANE('',#225);
#225=AXIS2_PLACEMENT_3D('',#226,#227,#228);
#226=CARTESIAN_POINT('',(21.,-21.,2.));
#227=DIRECTION('',(0.,-1.,0.));
#228=DIRECTION('',(-1.,0.,-1.26882631385732E-16));
#229=FACE_BOUND('',#230,.T.);
#230=EDGE_LOOP('',(#808,#809,#810,#811));
#231=CYLINDRICAL_SURFACE('',#232,0.75);
#232=AXIS2_PLACEMENT_3D('',#233,#234,#235);
#233=CARTESIAN_POINT('',(-2.25,-16.4,-0.75));
#234=DIRECTION('',(0.,1.,5.8432790769745E-17));
#235=DIRECTION('',(0.,5.8432790769745E-17,-1.));
#236=FACE_BOUND('',#237,.T.);
#237=EDGE_LOOP('',(#812,#813,#814,#815));
#238=CYLINDRICAL_SURFACE('',#239,2.);
#239=AXIS2_PLACEMENT_3D('',#240,#241,#242);
#240=CARTESIAN_POINT('',(-9.1272062641256,-17.4,4.));
#241=DIRECTION('',(-7.72329060608805E-17,0.,1.));
#242=DIRECTION('',(-0.958314847499909,0.285714285714288,-7.40134405937075E-17));
#243=FACE_BOUND('',#244,.T.);
#244=EDGE_LOOP('',(#816,#817,#818,#819));
#245=CYLINDRICAL_SURFACE('',#246,4.65);
#246=AXIS2_PLACEMENT_3D('',#247,#248,#249);
#247=CARTESIAN_POINT('',(-15.5,-15.5,-1.8982025386784E-15));
#248=DIRECTION('',(1.22464679914735E-16,0.,-1.));
#249=DIRECTION('',(-6.12323399573677E-17,1.,-7.49879891330929E-33));
#250=FACE_BOUND('',#251,.T.);
#251=EDGE_LOOP('',(#820,#821,#822,#823));
#252=CYLINDRICAL_SURFACE('',#253,2.);
#253=AXIS2_PLACEMENT_3D('',#254,#255,#256);
#254=CARTESIAN_POINT('',(-17.4,-9.1272062641256,4.));
#255=DIRECTION('',(1.54465812121761E-16,-7.72329060608805E-17,-1.));
#256=DIRECTION('',(0.285714285714286,-0.95831484749991,1.18146529771354E-16));
#257=FACE_BOUND('',#258,.T.);
#258=EDGE_LOOP('',(#824,#825,#826,#827));
#259=PLANE('',#260);
#260=AXIS2_PLACEMENT_3D('',#261,#262,#263);
#261=CARTESIAN_POINT('',(-19.4,16.337258300203,-2.37581479034586E-15));
#262=DIRECTION('',(1.,0.,2.368475785867E-16));
#263=DIRECTION('',(0.,-1.,0.));
#264=FACE_BOUND('',#265,.T.);
#265=EDGE_LOOP('',(#828,#829,#830,#831));
#266=PLANE('',#267);
#267=AXIS2_PLACEMENT_3D('',#268,#269,#270);
#268=CARTESIAN_POINT('',(-16.3372583002031,19.4,-2.00073710841872E-15));
#269=DIRECTION('',(0.707106781186548,-0.707106781186547,1.6747652892627E-16));
#270=DIRECTION('',(-0.707106781186547,-0.707106781186548,-8.65956056235493E-17));
#271=FACE_BOUND('',#272,.T.);
#272=EDGE_LOOP('',(#832,#833,#834,#835));
#273=PLANE('',#274);
#274=AXIS2_PLACEMENT_3D('',#275,#276,#277);
#275=CARTESIAN_POINT('',(16.3372583002031,19.4,2.00073710841872E-15));
#276=DIRECTION('',(2.17460825648839E-16,-1.,5.1505069992392E-32));
#277=DIRECTION('',(-1.,-2.17460825648839E-16,-1.22464679914735E-16));
#278=FACE_BOUND('',#279,.T.);
#279=EDGE_LOOP('',(#836,#837,#838,#839));
#280=CYLINDRICAL_SURFACE('',#281,2.);
#281=AXIS2_PLACEMENT_3D('',#282,#283,#284);
#282=CARTESIAN_POINT('',(9.1272062641256,17.4,4.));
#283=DIRECTION('',(-1.54465812121761E-16,0.,1.));
#284=DIRECTION('',(0.958314847499909,-0.285714285714288,1.48026881187415E-16));
#285=FACE_BOUND('',#286,.T.);
#286=EDGE_LOOP('',(#840,#841,#842,#843));
#287=CYLINDRICAL_SURFACE('',#288,4.65);
#288=AXIS2_PLACEMENT_3D('',#289,#290,#291);
#289=CARTESIAN_POINT('',(15.5,15.5,1.8982025386784E-15));
#290=DIRECTION('',(1.22464679914735E-16,0.,-1.));
#291=DIRECTION('',(-6.12323399573677E-17,1.,-7.49879891330929E-33));
#292=FACE_BOUND('',#293,.T.);
#293=EDGE_LOOP('',(#844,#845,#846,#847));
#294=CYLINDRICAL_SURFACE('',#295,2.);
#295=AXIS2_PLACEMENT_3D('',#296,#297,#298);
#296=CARTESIAN_POINT('',(17.4,9.1272062641256,4.));
#297=DIRECTION('',(0.,0.,-1.));
#298=DIRECTION('',(-0.285714285714288,0.958314847499909,0.));
#299=FACE_BOUND('',#300,.T.);
#300=EDGE_LOOP('',(#848,#849,#850,#851));
#301=CYLINDRICAL_SURFACE('',#302,0.75);
#302=AXIS2_PLACEMENT_3D('',#303,#304,#305);
#303=CARTESIAN_POINT('',(13.4,1.5,-0.749999999999999));
#304=DIRECTION('',(-1.,-4.1895208476421E-17,-1.57107031786579E-16));
#305=DIRECTION('',(-1.5710703178658E-16,-2.96059473233374E-16,1.));
#306=FACE_BOUND('',#307,.T.);
#307=EDGE_LOOP('',(#852,#853,#854,#855));
#308=FACE_BOUND('',#309,.T.);
#309=EDGE_LOOP('',(#856));
#310=FACE_BOUND('',#311,.T.);
#311=EDGE_LOOP('',(#857,#858,#859,#860));
#312=PLANE('',#313);
#313=AXIS2_PLACEMENT_3D('',#314,#315,#316);
#314=CARTESIAN_POINT('',(21.,21.,2.));
#315=DIRECTION('',(1.,0.,0.));
#316=DIRECTION('',(0.,-1.,0.));
#317=FACE_OUTER_BOUND('',#318,.T.);
#318=EDGE_LOOP('',(#861));
#319=FACE_OUTER_BOUND('',#320,.T.);
#320=EDGE_LOOP('',(#862));
#321=CYLINDRICAL_SURFACE('',#322,3.);
#322=AXIS2_PLACEMENT_3D('',#323,#324,#325);
#323=CARTESIAN_POINT('',(15.5,-15.5,1.));
#324=DIRECTION('',(1.22464679914735E-16,0.,-1.));
#325=DIRECTION('',(-1.,0.,-1.22464679914735E-16));
#326=FACE_OUTER_BOUND('',#327,.T.);
#327=EDGE_LOOP('',(#863));
#328=FACE_OUTER_BOUND('',#329,.T.);
#329=EDGE_LOOP('',(#864));
#330=CYLINDRICAL_SURFACE('',#331,3.);
#331=AXIS2_PLACEMENT_3D('',#332,#333,#334);
#332=CARTESIAN_POINT('',(-15.5,15.5,0.999999999999998));
#333=DIRECTION('',(1.22464679914735E-16,0.,-1.));
#334=DIRECTION('',(-1.,0.,-1.22464679914735E-16));
#335=FACE_BOUND('',#336,.T.);
#336=EDGE_LOOP('',(#865,#866,#867,#868,#869,#870));
#337=PLANE('',#338);
#338=AXIS2_PLACEMENT_3D('',#339,#340,#341);
#339=CARTESIAN_POINT('',(8.57252759403147E-16,0.,-7.));
#340=DIRECTION('',(1.22464679914735E-16,0.,-1.));
#341=DIRECTION('',(-1.,0.,-1.22464679914735E-16));
#342=FACE_BOUND('',#343,.T.);
#343=EDGE_LOOP('',(#871,#872,#873,#874));
#344=PLANE('',#345);
#345=AXIS2_PLACEMENT_3D('',#346,#347,#348);
#346=CARTESIAN_POINT('',(11.,-2.25,-1.5));
#347=DIRECTION('',(0.,-9.86864910777917E-17,-1.));
#348=DIRECTION('',(0.,1.,-9.86864910777917E-17));
#349=FACE_BOUND('',#350,.T.);
#350=EDGE_LOOP('',(#875,#876,#877,#878));
#351=PLANE('',#352);
#352=AXIS2_PLACEMENT_3D('',#353,#354,#355);
#353=CARTESIAN_POINT('',(19.4,-18.737258300203,-14.4));
#354=DIRECTION('',(-0.70710678118655,4.15032608383731E-17,-0.707106781186545));
#355=DIRECTION('',(1.1738894872067E-16,1.,-5.86944743603349E-17));
#356=FACE_OUTER_BOUND('',#357,.T.);
#357=EDGE_LOOP('',(#879));
#358=FACE_OUTER_BOUND('',#359,.T.);
#359=EDGE_LOOP('',(#880));
#360=CYLINDRICAL_SURFACE('',#361,5.35);
#361=AXIS2_PLACEMENT_3D('',#362,#363,#364);
#362=CARTESIAN_POINT('',(11.,-8.5,-7.5));
#363=DIRECTION('',(1.,0.,0.));
#364=DIRECTION('',(0.,-1.22464679914735E-16,-1.));
#365=FACE_BOUND('',#366,.T.);
#366=EDGE_LOOP('',(#881,#882,#883,#884));
#367=PLANE('',#368);
#368=AXIS2_PLACEMENT_3D('',#369,#370,#371);
#369=CARTESIAN_POINT('',(14.6402020253553,-21.0970562748477,-14.4));
#370=DIRECTION('',(-0.500000000000002,0.5,-0.707106781186546));
#371=DIRECTION('',(0.707106781186546,0.707106781186549,6.87779517223847E-17));
#372=FACE_BOUND('',#373,.T.);
#373=EDGE_LOOP('',(#885,#886,#887,#888));
#374=PLANE('',#375);
#375=AXIS2_PLACEMENT_3D('',#376,#377,#378);
#376=CARTESIAN_POINT('',(-11.5272062641256,-19.4,-14.4));
#377=DIRECTION('',(1.2111409329739E-16,0.707106781186545,-0.70710678118655));
#378=DIRECTION('',(1.,0.,1.71281193335689E-16));
#379=FACE_BOUND('',#380,.T.);
#380=EDGE_LOOP('',(#889,#890,#891,#892));
#381=PLANE('',#382);
#382=AXIS2_PLACEMENT_3D('',#383,#384,#385);
#383=CARTESIAN_POINT('',(-3.,-11.,-1.5));
#384=DIRECTION('',(-1.48029736616688E-16,0.,-1.));
#385=DIRECTION('',(1.,0.,-1.48029736616688E-16));
#386=FACE_BOUND('',#387,.T.);
#387=EDGE_LOOP('',(#893,#894,#895,#896));
#388=PLANE('',#389);
#389=AXIS2_PLACEMENT_3D('',#390,#391,#392);
#390=CARTESIAN_POINT('',(19.4,-21.,1.4));
#391=DIRECTION('',(8.49792310112354E-17,0.707106781186547,-0.707106781186549));
#392=DIRECTION('',(-1.,0.,-1.20178781016125E-16));
#393=FACE_BOUND('',#394,.T.);
#394=EDGE_LOOP('',(#897,#898,#899,#900));
#395=PLANE('',#396);
#396=AXIS2_PLACEMENT_3D('',#397,#398,#399);
#397=CARTESIAN_POINT('',(-17.,-21.,16.));
#398=DIRECTION('',(0.707106781186547,0.707106781186547,1.67476528926269E-16));
#399=DIRECTION('',(2.368475785867E-16,0.,-1.));
#400=FACE_BOUND('',#401,.T.);
#401=EDGE_LOOP('',(#901,#902,#903,#904,#905,#906,#907,#908));
#402=FACE_BOUND('',#403,.T.);
#403=EDGE_LOOP('',(#909,#910,#911,#912,#913,#914,#915,#916,#917,#918,#919,#920));
#404=FACE_BOUND('',#405,.T.);
#405=EDGE_LOOP('',(#921));
#406=FACE_BOUND('',#407,.T.);
#407=EDGE_LOOP('',(#922));
#408=PLANE('',#409);
#409=AXIS2_PLACEMENT_3D('',#410,#411,#412);
#410=CARTESIAN_POINT('',(1.83697019872103E-15,0.,-15.));
#411=DIRECTION('',(1.22464679914735E-16,0.,-1.));
#412=DIRECTION('',(-1.,0.,-1.22464679914735E-16));
#413=FACE_BOUND('',#414,.T.);
#414=EDGE_LOOP('',(#923,#924,#925,#926));
#415=PLANE('',#416);
#416=AXIS2_PLACEMENT_3D('',#417,#418,#419);
#417=CARTESIAN_POINT('',(21.,-17.,16.));
#418=DIRECTION('',(-0.707106781186548,0.707106781186547,0.));
#419=DIRECTION('',(0.,0.,-1.));
#420=FACE_BOUND('',#421,.T.);
#421=EDGE_LOOP('',(#927,#928,#929,#930));
#422=CONICAL_SURFACE('',#423,2.3,0.78539816339745);
#423=AXIS2_PLACEMENT_3D('',#424,#425,#426);
#424=CARTESIAN_POINT('',(-9.1272062641256,-17.4,-14.7));
#425=DIRECTION('',(1.22464679914735E-16,-1.23259516440783E-32,-1.));
#426=DIRECTION('',(0.730808835072141,-0.682582190348167,8.94982700659703E-17));
#427=FACE_BOUND('',#428,.T.);
#428=EDGE_LOOP('',(#931,#932,#933,#934));
#429=CONICAL_SURFACE('',#430,4.35,0.785398163397447);
#430=AXIS2_PLACEMENT_3D('',#431,#432,#433);
#431=CARTESIAN_POINT('',(-15.5,-15.5,-14.7));
#432=DIRECTION('',(-1.22464679914735E-16,0.,1.));
#433=DIRECTION('',(0.553072807305672,-0.83313292445985,6.77318843162332E-17));
#434=FACE_BOUND('',#435,.T.);
#435=EDGE_LOOP('',(#935,#936,#937,#938));
#436=CONICAL_SURFACE('',#437,2.3,0.785398163397451);
#437=AXIS2_PLACEMENT_3D('',#438,#439,#440);
#438=CARTESIAN_POINT('',(-17.4,-9.1272062641256,-14.7));
#439=DIRECTION('',(1.22464679914735E-16,0.,-1.));
#440=DIRECTION('',(0.895368440290366,-0.445326123343329,1.09651009445915E-16));
#441=FACE_BOUND('',#442,.T.);
#442=EDGE_LOOP('',(#939,#940,#941,#942));
#443=PLANE('',#444);
#444=AXIS2_PLACEMENT_3D('',#445,#446,#447);
#445=CARTESIAN_POINT('',(-19.4,19.5857864376269,-14.4));
#446=DIRECTION('',(0.707106781186549,0.,-0.707106781186546));
#447=DIRECTION('',(0.,-1.,0.));
#448=FACE_BOUND('',#449,.T.);
#449=EDGE_LOOP('',(#943,#944,#945,#946));
#450=PLANE('',#451);
#451=AXIS2_PLACEMENT_3D('',#452,#453,#454);
#452=CARTESIAN_POINT('',(-14.6402020253553,21.0970562748477,-14.4));
#453=DIRECTION('',(0.500000000000001,-0.5,-0.707106781186547));
#454=DIRECTION('',(-0.707106781186547,-0.707106781186548,0.));
#455=FACE_BOUND('',#456,.T.);
#456=EDGE_LOOP('',(#947,#948,#949,#950));
#457=PLANE('',#458);
#458=AXIS2_PLACEMENT_3D('',#459,#460,#461);
#459=CARTESIAN_POINT('',(11.5272062641256,19.4,-14.4));
#460=DIRECTION('',(2.90522825868609E-16,-0.70710678118655,-0.707106781186545));
#461=DIRECTION('',(-1.,-2.34777897441339E-16,-1.76083423081005E-16));
#462=FACE_BOUND('',#463,.T.);
#463=EDGE_LOOP('',(#951,#952,#953,#954));
#464=CONICAL_SURFACE('',#465,2.3,0.785398163397449);
#465=AXIS2_PLACEMENT_3D('',#466,#467,#468);
#466=CARTESIAN_POINT('',(9.1272062641256,17.4,-14.7));
#467=DIRECTION('',(1.22464679914735E-16,0.,-1.));
#468=DIRECTION('',(-0.73080883507214,0.682582190348167,-8.94982700659703E-17));
#469=FACE_BOUND('',#470,.T.);
#470=EDGE_LOOP('',(#955,#956,#957,#958));
#471=CONICAL_SURFACE('',#472,4.35,0.785398163397446);
#472=AXIS2_PLACEMENT_3D('',#473,#474,#475);
#473=CARTESIAN_POINT('',(15.5,15.5,-14.7));
#474=DIRECTION('',(-1.22464679914735E-16,-1.23259516440783E-32,1.));
#475=DIRECTION('',(-0.553072807305675,0.833132924459849,-6.77318843162336E-17));
#476=FACE_BOUND('',#477,.T.);
#477=EDGE_LOOP('',(#959,#960,#961,#962));
#478=CONICAL_SURFACE('',#479,2.3,0.785398163397448);
#479=AXIS2_PLACEMENT_3D('',#480,#481,#482);
#480=CARTESIAN_POINT('',(17.4,9.1272062641256,-14.7));
#481=DIRECTION('',(1.22464679914735E-16,-6.16297582203915E-33,-1.));
#482=DIRECTION('',(-0.895368440290365,0.445326123343331,-1.09651009445915E-16));
#483=FACE_BOUND('',#484,.T.);
#484=EDGE_LOOP('',(#963,#964,#965,#966));
#485=PLANE('',#486);
#486=AXIS2_PLACEMENT_3D('',#487,#488,#489);
#487=CARTESIAN_POINT('',(21.,19.4,1.4));
#488=DIRECTION('',(-0.707106781186547,0.,-0.707106781186548));
#489=DIRECTION('',(0.,-1.,0.));
#490=FACE_BOUND('',#491,.T.);
#491=EDGE_LOOP('',(#967,#968,#969,#970));
#492=PLANE('',#493);
#493=AXIS2_PLACEMENT_3D('',#494,#495,#496);
#494=CARTESIAN_POINT('',(17.,21.,16.));
#495=DIRECTION('',(-0.707106781186547,-0.707106781186548,-8.37382644631346E-17));
#496=DIRECTION('',(1.1842378929335E-16,0.,-1.));
#497=FACE_BOUND('',#498,.T.);
#498=EDGE_LOOP('',(#971));
#499=FACE_BOUND('',#500,.T.);
#500=EDGE_LOOP('',(#972));
#501=PLANE('',#502);
#502=AXIS2_PLACEMENT_3D('',#503,#504,#505);
#503=CARTESIAN_POINT('',(-1.22464679914735E-16,0.,1.));
#504=DIRECTION('',(1.22464679914735E-16,0.,-1.));
#505=DIRECTION('',(-1.,0.,-1.22464679914735E-16));
#506=FACE_BOUND('',#507,.T.);
#507=EDGE_LOOP('',(#973));
#508=FACE_BOUND('',#509,.T.);
#509=EDGE_LOOP('',(#974));
#510=PLANE('',#511);
#511=AXIS2_PLACEMENT_3D('',#512,#513,#514);
#512=CARTESIAN_POINT('',(-1.22464679914735E-16,0.,1.));
#513=DIRECTION('',(1.22464679914735E-16,0.,-1.));
#514=DIRECTION('',(-1.,0.,-1.22464679914735E-16));
#515=FACE_BOUND('',#516,.T.);
#516=EDGE_LOOP('',(#975,#976,#977,#978));
#517=PLANE('',#518);
#518=AXIS2_PLACEMENT_3D('',#519,#520,#521);
#519=CARTESIAN_POINT('',(14.8786796564404,-22.2727922061358,2.));
#520=DIRECTION('',(-0.500000000000002,0.5,-0.707106781186546));
#521=DIRECTION('',(0.707106781186546,0.707106781186549,1.02528558564887E-16));
#522=FACE_BOUND('',#523,.T.);
#523=EDGE_LOOP('',(#979,#980,#981,#982,#983,#984,#985,#986));
#524=FACE_BOUND('',#525,.T.);
#525=EDGE_LOOP('',(#987));
#526=FACE_BOUND('',#527,.T.);
#527=EDGE_LOOP('',(#988));
#528=FACE_BOUND('',#529,.T.);
#529=EDGE_LOOP('',(#989));
#530=FACE_BOUND('',#531,.T.);
#531=EDGE_LOOP('',(#990));
#532=PLANE('',#533);
#533=AXIS2_PLACEMENT_3D('',#534,#535,#536);
#534=CARTESIAN_POINT('',(-2.44929359829471E-16,0.,2.));
#535=DIRECTION('',(1.22464679914735E-16,0.,-1.));
#536=DIRECTION('',(-1.,0.,-1.22464679914735E-16));
#537=FACE_BOUND('',#538,.T.);
#538=EDGE_LOOP('',(#991,#992,#993,#994));
#539=PLANE('',#540);
#540=AXIS2_PLACEMENT_3D('',#541,#542,#543);
#541=CARTESIAN_POINT('',(-22.2727922061358,-14.8786796564404,2.));
#542=DIRECTION('',(0.5,0.5,-0.707106781186548));
#543=DIRECTION('',(0.707106781186548,-0.707106781186548,4.24687194881405E-17));
#544=FACE_BOUND('',#545,.T.);
#545=EDGE_LOOP('',(#995,#996,#997,#998));
#546=PLANE('',#547);
#547=AXIS2_PLACEMENT_3D('',#548,#549,#550);
#548=CARTESIAN_POINT('',(-21.,-21.,2.));
#549=DIRECTION('',(-1.,-8.45884209238214E-17,0.));
#550=DIRECTION('',(-8.45884209238214E-17,1.,0.));
#551=FACE_BOUND('',#552,.T.);
#552=EDGE_LOOP('',(#999,#1000,#1001,#1002));
#553=PLANE('',#554);
#554=AXIS2_PLACEMENT_3D('',#555,#556,#557);
#555=CARTESIAN_POINT('',(-21.,17.,16.));
#556=DIRECTION('',(0.707106781186548,-0.707106781186547,0.));
#557=DIRECTION('',(0.,0.,-1.));
#558=FACE_BOUND('',#559,.T.);
#559=EDGE_LOOP('',(#1003,#1004,#1005,#1006));
#560=PLANE('',#561);
#561=AXIS2_PLACEMENT_3D('',#562,#563,#564);
#562=CARTESIAN_POINT('',(-21.,21.,2.));
#563=DIRECTION('',(-8.45884209238214E-17,1.,0.));
#564=DIRECTION('',(1.,8.45884209238214E-17,1.26882631385732E-16));
#565=FACE_OUTER_BOUND('',#566,.T.);
#566=EDGE_LOOP('',(#1007));
#567=FACE_OUTER_BOUND('',#568,.T.);
#568=EDGE_LOOP('',(#1008));
#569=CONICAL_SURFACE('',#570,2.4,0.78539816339745);
#570=AXIS2_PLACEMENT_3D('',#571,#572,#573);
#571=CARTESIAN_POINT('',(-15.5,-15.5,-14.7));
#572=DIRECTION('',(1.22464679914735E-16,0.,-1.));
#573=DIRECTION('',(-1.,0.,-1.22464679914735E-16));
#574=FACE_OUTER_BOUND('',#575,.T.);
#575=EDGE_LOOP('',(#1009));
#576=FACE_OUTER_BOUND('',#577,.T.);
#577=EDGE_LOOP('',(#1010));
#578=CONICAL_SURFACE('',#579,2.4,0.785398163397449);
#579=AXIS2_PLACEMENT_3D('',#580,#581,#582);
#580=CARTESIAN_POINT('',(15.5,15.5,-14.7));
#581=DIRECTION('',(1.22464679914735E-16,0.,-1.));
#582=DIRECTION('',(-1.,0.,-1.22464679914735E-16));
#583=FACE_BOUND('',#584,.T.);
#584=EDGE_LOOP('',(#1011,#1012,#1013,#1014));
#585=PLANE('',#586);
#586=AXIS2_PLACEMENT_3D('',#587,#588,#589);
#587=CARTESIAN_POINT('',(22.2727922061358,14.8786796564404,2.));
#588=DIRECTION('',(-0.5,-0.500000000000001,-0.707106781186547));
#589=DIRECTION('',(-0.707106781186548,0.707106781186547,-1.24387999497672E-17));
#590=FACE_OUTER_BOUND('',#591,.T.);
#591=EDGE_LOOP('',(#1015));
#592=FACE_OUTER_BOUND('',#593,.T.);
#593=EDGE_LOOP('',(#1016));
#594=CYLINDRICAL_SURFACE('',#595,1.65);
#595=AXIS2_PLACEMENT_3D('',#596,#597,#598);
#596=CARTESIAN_POINT('',(15.5,-15.5,10.));
#597=DIRECTION('',(1.22464679914735E-16,0.,-1.));
#598=DIRECTION('',(-1.,0.,-1.22464679914735E-16));
#599=FACE_OUTER_BOUND('',#600,.T.);
#600=EDGE_LOOP('',(#1017));
#601=FACE_OUTER_BOUND('',#602,.T.);
#602=EDGE_LOOP('',(#1018));
#603=CYLINDRICAL_SURFACE('',#604,1.65);
#604=AXIS2_PLACEMENT_3D('',#605,#606,#607);
#605=CARTESIAN_POINT('',(-15.5,15.5,10.));
#606=DIRECTION('',(1.22464679914735E-16,0.,-1.));
#607=DIRECTION('',(-1.,0.,-1.22464679914735E-16));
#608=FACE_BOUND('',#609,.T.);
#609=EDGE_LOOP('',(#1019,#1020,#1021,#1022));
#610=PLANE('',#611);
#611=AXIS2_PLACEMENT_3D('',#612,#613,#614);
#612=CARTESIAN_POINT('',(-19.4,21.,1.4));
#613=DIRECTION('',(1.497253117817E-16,-0.707106781186546,-0.707106781186549));
#614=DIRECTION('',(1.,9.15647855360954E-17,1.20178781016125E-16));
#615=FACE_BOUND('',#616,.T.);
#616=EDGE_LOOP('',(#1023,#1024,#1025,#1026));
#617=PLANE('',#618);
#618=AXIS2_PLACEMENT_3D('',#619,#620,#621);
#619=CARTESIAN_POINT('',(-14.8786796564404,22.2727922061358,2.));
#620=DIRECTION('',(0.499999999999999,-0.499999999999999,-0.707106781186549));
#621=DIRECTION('',(-0.707106781186547,-0.707106781186548,-4.24687194881403E-17));
#622=FACE_BOUND('',#623,.T.);
#623=EDGE_LOOP('',(#1027,#1028,#1029,#1030));
#624=PLANE('',#625);
#625=AXIS2_PLACEMENT_3D('',#626,#627,#628);
#626=CARTESIAN_POINT('',(-21.,-19.4,1.4));
#627=DIRECTION('',(0.707106781186544,6.47460807704647E-17,-0.707106781186551));
#628=DIRECTION('',(-9.15647855360954E-17,1.,0.));
#629=FACE_OUTER_BOUND('',#630,.T.);
#630=EDGE_LOOP('',(#1031));
#631=FACE_OUTER_BOUND('',#632,.T.);
#632=EDGE_LOOP('',(#1032));
#633=CONICAL_SURFACE('',#634,1.95,0.785398163397448);
#634=AXIS2_PLACEMENT_3D('',#635,#636,#637);
#635=CARTESIAN_POINT('',(15.5,-15.5,1.7));
#636=DIRECTION('',(-1.22464679914735E-16,0.,1.));
#637=DIRECTION('',(1.,0.,1.22464679914735E-16));
#638=FACE_OUTER_BOUND('',#639,.T.);
#639=EDGE_LOOP('',(#1033));
#640=FACE_OUTER_BOUND('',#641,.T.);
#641=EDGE_LOOP('',(#1034));
#642=CONICAL_SURFACE('',#643,1.95,0.78539816339745);
#643=AXIS2_PLACEMENT_3D('',#644,#645,#646);
#644=CARTESIAN_POINT('',(-15.5,15.5,1.7));
#645=DIRECTION('',(-1.22464679914735E-16,0.,1.));
#646=DIRECTION('',(1.,0.,1.22464679914735E-16));
#647=FACE_BOUND('',#648,.T.);
#648=EDGE_LOOP('',(#1035,#1036));
#649=FACE_OUTER_BOUND('',#650,.T.);
#650=EDGE_LOOP('',(#1037));
#651=CONICAL_SURFACE('',#652,1.95,0.785398163397448);
#652=AXIS2_PLACEMENT_3D('',#653,#654,#655);
#653=CARTESIAN_POINT('',(15.5,15.5,1.7));
#654=DIRECTION('',(-1.22464679914735E-16,0.,1.));
#655=DIRECTION('',(1.,0.,1.22464679914735E-16));
#656=FACE_BOUND('',#657,.T.);
#657=EDGE_LOOP('',(#1038,#1039));
#658=FACE_OUTER_BOUND('',#659,.T.);
#659=EDGE_LOOP('',(#1040));
#660=CONICAL_SURFACE('',#661,1.95,0.78539816339745);
#661=AXIS2_PLACEMENT_3D('',#662,#663,#664);
#662=CARTESIAN_POINT('',(-15.5,-15.5,1.7));
#663=DIRECTION('',(-1.22464679914735E-16,0.,1.));
#664=DIRECTION('',(1.,0.,1.22464679914735E-16));
#665=FACE_OUTER_BOUND('',#666,.T.);
#666=EDGE_LOOP('',(#1041));
#667=FACE_OUTER_BOUND('',#668,.T.);
#668=EDGE_LOOP('',(#1042));
#669=CYLINDRICAL_SURFACE('',#670,2.1);
#670=AXIS2_PLACEMENT_3D('',#671,#672,#673);
#671=CARTESIAN_POINT('',(-15.5,-15.5,-9.));
#672=DIRECTION('',(1.22464679914735E-16,0.,-1.));
#673=DIRECTION('',(-1.,0.,-1.22464679914735E-16));
#674=FACE_OUTER_BOUND('',#675,.T.);
#675=EDGE_LOOP('',(#1043));
#676=FACE_OUTER_BOUND('',#677,.T.);
#677=EDGE_LOOP('',(#1044));
#678=CYLINDRICAL_SURFACE('',#679,2.1);
#679=AXIS2_PLACEMENT_3D('',#680,#681,#682);
#680=CARTESIAN_POINT('',(15.5,15.5,-9.));
#681=DIRECTION('',(1.22464679914735E-16,0.,-1.));
#682=DIRECTION('',(-1.,0.,-1.22464679914735E-16));
#683=FACE_BOUND('',#684,.T.);
#684=EDGE_LOOP('',(#1045,#1046));
#685=FACE_OUTER_BOUND('',#686,.T.);
#686=EDGE_LOOP('',(#1047));
#687=CYLINDRICAL_SURFACE('',#688,1.65);
#688=AXIS2_PLACEMENT_3D('',#689,#690,#691);
#689=CARTESIAN_POINT('',(15.5,15.5,10.));
#690=DIRECTION('',(1.22464679914735E-16,0.,-1.));
#691=DIRECTION('',(-1.,0.,-1.22464679914735E-16));
#692=FACE_BOUND('',#693,.T.);
#693=EDGE_LOOP('',(#1048,#1049));
#694=FACE_OUTER_BOUND('',#695,.T.);
#695=EDGE_LOOP('',(#1050));
#696=CYLINDRICAL_SURFACE('',#697,1.65);
#697=AXIS2_PLACEMENT_3D('',#698,#699,#700);
#698=CARTESIAN_POINT('',(-15.5,-15.5,10.));
#699=DIRECTION('',(1.22464679914735E-16,0.,-1.));
#700=DIRECTION('',(-1.,0.,-1.22464679914735E-16));
#701=FACE_BOUND('',#702,.T.);
#702=EDGE_LOOP('',(#1051));
#703=FACE_BOUND('',#704,.T.);
#704=EDGE_LOOP('',(#1052));
#705=PLANE('',#706);
#706=AXIS2_PLACEMENT_3D('',#707,#708,#709);
#707=CARTESIAN_POINT('',(1.10218211923262E-15,0.,-9.));
#708=DIRECTION('',(1.22464679914735E-16,0.,-1.));
#709=DIRECTION('',(-1.,0.,-1.22464679914735E-16));
#710=FACE_BOUND('',#711,.T.);
#711=EDGE_LOOP('',(#1053));
#712=FACE_BOUND('',#713,.T.);
#713=EDGE_LOOP('',(#1054));
#714=PLANE('',#715);
#715=AXIS2_PLACEMENT_3D('',#716,#717,#718);
#716=CARTESIAN_POINT('',(1.10218211923262E-15,0.,-9.));
#717=DIRECTION('',(1.22464679914735E-16,0.,-1.));
#718=DIRECTION('',(-1.,0.,-1.22464679914735E-16));
#719=ORIENTED_EDGE('',*,*,#1055,.F.);
#720=ORIENTED_EDGE('',*,*,#1056,.F.);
#721=ORIENTED_EDGE('',*,*,#1057,.F.);
#722=ORIENTED_EDGE('',*,*,#1058,.F.);
#723=ORIENTED_EDGE('',*,*,#1059,.T.);
#724=ORIENTED_EDGE('',*,*,#1060,.F.);
#725=ORIENTED_EDGE('',*,*,#1061,.F.);
#726=ORIENTED_EDGE('',*,*,#1062,.F.);
#727=ORIENTED_EDGE('',*,*,#1063,.F.);
#728=ORIENTED_EDGE('',*,*,#1064,.F.);
#729=ORIENTED_EDGE('',*,*,#1065,.F.);
#730=ORIENTED_EDGE('',*,*,#1066,.F.);
#731=ORIENTED_EDGE('',*,*,#1067,.F.);
#732=ORIENTED_EDGE('',*,*,#1068,.F.);
#733=ORIENTED_EDGE('',*,*,#1069,.F.);
#734=ORIENTED_EDGE('',*,*,#1070,.F.);
#735=ORIENTED_EDGE('',*,*,#1071,.F.);
#736=ORIENTED_EDGE('',*,*,#1072,.F.);
#737=ORIENTED_EDGE('',*,*,#1073,.T.);
#738=ORIENTED_EDGE('',*,*,#1074,.F.);
#739=ORIENTED_EDGE('',*,*,#1075,.F.);
#740=ORIENTED_EDGE('',*,*,#1076,.F.);
#741=ORIENTED_EDGE('',*,*,#1077,.F.);
#742=ORIENTED_EDGE('',*,*,#1078,.F.);
#743=ORIENTED_EDGE('',*,*,#1079,.F.);
#744=ORIENTED_EDGE('',*,*,#1080,.F.);
#745=ORIENTED_EDGE('',*,*,#1081,.T.);
#746=ORIENTED_EDGE('',*,*,#1082,.T.);
#747=ORIENTED_EDGE('',*,*,#1076,.T.);
#748=ORIENTED_EDGE('',*,*,#1083,.T.);
#749=ORIENTED_EDGE('',*,*,#1084,.F.);
#750=ORIENTED_EDGE('',*,*,#1085,.F.);
#751=ORIENTED_EDGE('',*,*,#1077,.T.);
#752=ORIENTED_EDGE('',*,*,#1085,.T.);
#753=ORIENTED_EDGE('',*,*,#1086,.F.);
#754=ORIENTED_EDGE('',*,*,#1087,.F.);
#755=ORIENTED_EDGE('',*,*,#1078,.T.);
#756=ORIENTED_EDGE('',*,*,#1087,.T.);
#757=ORIENTED_EDGE('',*,*,#1088,.F.);
#758=ORIENTED_EDGE('',*,*,#1089,.F.);
#759=ORIENTED_EDGE('',*,*,#1079,.T.);
#760=ORIENTED_EDGE('',*,*,#1089,.T.);
#761=ORIENTED_EDGE('',*,*,#1090,.F.);
#762=ORIENTED_EDGE('',*,*,#1091,.F.);
#763=ORIENTED_EDGE('',*,*,#1080,.T.);
#764=ORIENTED_EDGE('',*,*,#1091,.T.);
#765=ORIENTED_EDGE('',*,*,#1092,.F.);
#766=ORIENTED_EDGE('',*,*,#1093,.F.);
#767=ORIENTED_EDGE('',*,*,#1075,.T.);
#768=ORIENTED_EDGE('',*,*,#1093,.T.);
#769=ORIENTED_EDGE('',*,*,#1094,.F.);
#770=ORIENTED_EDGE('',*,*,#1083,.F.);
#771=ORIENTED_EDGE('',*,*,#1095,.F.);
#772=ORIENTED_EDGE('',*,*,#1096,.T.);
#773=ORIENTED_EDGE('',*,*,#1055,.T.);
#774=ORIENTED_EDGE('',*,*,#1097,.T.);
#775=ORIENTED_EDGE('',*,*,#1098,.F.);
#776=ORIENTED_EDGE('',*,*,#1099,.F.);
#777=ORIENTED_EDGE('',*,*,#1056,.T.);
#778=ORIENTED_EDGE('',*,*,#1096,.F.);
#779=ORIENTED_EDGE('',*,*,#1100,.T.);
#780=ORIENTED_EDGE('',*,*,#1101,.F.);
#781=ORIENTED_EDGE('',*,*,#1072,.T.);
#782=ORIENTED_EDGE('',*,*,#1102,.F.);
#783=ORIENTED_EDGE('',*,*,#1103,.T.);
#784=ORIENTED_EDGE('',*,*,#1104,.F.);
#785=ORIENTED_EDGE('',*,*,#1105,.F.);
#786=ORIENTED_EDGE('',*,*,#1057,.T.);
#787=ORIENTED_EDGE('',*,*,#1099,.T.);
#788=ORIENTED_EDGE('',*,*,#1106,.F.);
#789=ORIENTED_EDGE('',*,*,#1107,.F.);
#790=ORIENTED_EDGE('',*,*,#1062,.T.);
#791=ORIENTED_EDGE('',*,*,#1108,.F.);
#792=ORIENTED_EDGE('',*,*,#1109,.T.);
#793=ORIENTED_EDGE('',*,*,#1110,.F.);
#794=ORIENTED_EDGE('',*,*,#1058,.T.);
#795=ORIENTED_EDGE('',*,*,#1105,.T.);
#796=ORIENTED_EDGE('',*,*,#1059,.F.);
#797=ORIENTED_EDGE('',*,*,#1110,.T.);
#798=ORIENTED_EDGE('',*,*,#1111,.T.);
#799=ORIENTED_EDGE('',*,*,#1112,.T.);
#800=ORIENTED_EDGE('',*,*,#1113,.T.);
#801=ORIENTED_EDGE('',*,*,#1114,.T.);
#802=ORIENTED_EDGE('',*,*,#1115,.F.);
#803=ORIENTED_EDGE('',*,*,#1116,.F.);
#804=ORIENTED_EDGE('',*,*,#1117,.F.);
#805=ORIENTED_EDGE('',*,*,#1060,.T.);
#806=ORIENTED_EDGE('',*,*,#1112,.F.);
#807=ORIENTED_EDGE('',*,*,#1118,.T.);
#808=ORIENTED_EDGE('',*,*,#1119,.F.);
#809=ORIENTED_EDGE('',*,*,#1108,.T.);
#810=ORIENTED_EDGE('',*,*,#1061,.T.);
#811=ORIENTED_EDGE('',*,*,#1117,.T.);
#812=ORIENTED_EDGE('',*,*,#1120,.T.);
#813=ORIENTED_EDGE('',*,*,#1121,.F.);
#814=ORIENTED_EDGE('',*,*,#1063,.T.);
#815=ORIENTED_EDGE('',*,*,#1107,.T.);
#816=ORIENTED_EDGE('',*,*,#1122,.F.);
#817=ORIENTED_EDGE('',*,*,#1123,.T.);
#818=ORIENTED_EDGE('',*,*,#1064,.T.);
#819=ORIENTED_EDGE('',*,*,#1121,.T.);
#820=ORIENTED_EDGE('',*,*,#1124,.T.);
#821=ORIENTED_EDGE('',*,*,#1125,.T.);
#822=ORIENTED_EDGE('',*,*,#1065,.T.);
#823=ORIENTED_EDGE('',*,*,#1123,.F.);
#824=ORIENTED_EDGE('',*,*,#1126,.F.);
#825=ORIENTED_EDGE('',*,*,#1127,.F.);
#826=ORIENTED_EDGE('',*,*,#1066,.T.);
#827=ORIENTED_EDGE('',*,*,#1125,.F.);
#828=ORIENTED_EDGE('',*,*,#1128,.F.);
#829=ORIENTED_EDGE('',*,*,#1129,.F.);
#830=ORIENTED_EDGE('',*,*,#1067,.T.);
#831=ORIENTED_EDGE('',*,*,#1127,.T.);
#832=ORIENTED_EDGE('',*,*,#1130,.F.);
#833=ORIENTED_EDGE('',*,*,#1131,.F.);
#834=ORIENTED_EDGE('',*,*,#1068,.T.);
#835=ORIENTED_EDGE('',*,*,#1129,.T.);
#836=ORIENTED_EDGE('',*,*,#1132,.T.);
#837=ORIENTED_EDGE('',*,*,#1133,.F.);
#838=ORIENTED_EDGE('',*,*,#1069,.T.);
#839=ORIENTED_EDGE('',*,*,#1131,.T.);
#840=ORIENTED_EDGE('',*,*,#1134,.F.);
#841=ORIENTED_EDGE('',*,*,#1135,.T.);
#842=ORIENTED_EDGE('',*,*,#1070,.T.);
#843=ORIENTED_EDGE('',*,*,#1133,.T.);
#844=ORIENTED_EDGE('',*,*,#1136,.T.);
#845=ORIENTED_EDGE('',*,*,#1102,.T.);
#846=ORIENTED_EDGE('',*,*,#1071,.T.);
#847=ORIENTED_EDGE('',*,*,#1135,.F.);
#848=ORIENTED_EDGE('',*,*,#1137,.T.);
#849=ORIENTED_EDGE('',*,*,#1073,.F.);
#850=ORIENTED_EDGE('',*,*,#1101,.T.);
#851=ORIENTED_EDGE('',*,*,#1138,.T.);
#852=ORIENTED_EDGE('',*,*,#1139,.T.);
#853=ORIENTED_EDGE('',*,*,#1140,.T.);
#854=ORIENTED_EDGE('',*,*,#1141,.F.);
#855=ORIENTED_EDGE('',*,*,#1142,.F.);
#856=ORIENTED_EDGE('',*,*,#1143,.T.);
#857=ORIENTED_EDGE('',*,*,#1144,.T.);
#858=ORIENTED_EDGE('',*,*,#1097,.F.);
#859=ORIENTED_EDGE('',*,*,#1074,.T.);
#860=ORIENTED_EDGE('',*,*,#1137,.F.);
#861=ORIENTED_EDGE('',*,*,#1145,.F.);
#862=ORIENTED_EDGE('',*,*,#1081,.F.);
#863=ORIENTED_EDGE('',*,*,#1146,.F.);
#864=ORIENTED_EDGE('',*,*,#1082,.F.);
#865=ORIENTED_EDGE('',*,*,#1094,.T.);
#866=ORIENTED_EDGE('',*,*,#1092,.T.);
#867=ORIENTED_EDGE('',*,*,#1090,.T.);
#868=ORIENTED_EDGE('',*,*,#1088,.T.);
#869=ORIENTED_EDGE('',*,*,#1086,.T.);
#870=ORIENTED_EDGE('',*,*,#1084,.T.);
#871=ORIENTED_EDGE('',*,*,#1138,.F.);
#872=ORIENTED_EDGE('',*,*,#1100,.F.);
#873=ORIENTED_EDGE('',*,*,#1095,.T.);
#874=ORIENTED_EDGE('',*,*,#1144,.F.);
#875=ORIENTED_EDGE('',*,*,#1098,.T.);
#876=ORIENTED_EDGE('',*,*,#1147,.T.);
#877=ORIENTED_EDGE('',*,*,#1148,.F.);
#878=ORIENTED_EDGE('',*,*,#1149,.F.);
#879=ORIENTED_EDGE('',*,*,#1143,.F.);
#880=ORIENTED_EDGE('',*,*,#1103,.F.);
#881=ORIENTED_EDGE('',*,*,#1150,.F.);
#882=ORIENTED_EDGE('',*,*,#1104,.T.);
#883=ORIENTED_EDGE('',*,*,#1149,.T.);
#884=ORIENTED_EDGE('',*,*,#1151,.F.);
#885=ORIENTED_EDGE('',*,*,#1106,.T.);
#886=ORIENTED_EDGE('',*,*,#1150,.T.);
#887=ORIENTED_EDGE('',*,*,#1152,.F.);
#888=ORIENTED_EDGE('',*,*,#1153,.F.);
#889=ORIENTED_EDGE('',*,*,#1119,.T.);
#890=ORIENTED_EDGE('',*,*,#1118,.F.);
#891=ORIENTED_EDGE('',*,*,#1111,.F.);
#892=ORIENTED_EDGE('',*,*,#1109,.F.);
#893=ORIENTED_EDGE('',*,*,#1113,.F.);
#894=ORIENTED_EDGE('',*,*,#1154,.F.);
#895=ORIENTED_EDGE('',*,*,#1155,.T.);
#896=ORIENTED_EDGE('',*,*,#1156,.T.);
#897=ORIENTED_EDGE('',*,*,#1157,.T.);
#898=ORIENTED_EDGE('',*,*,#1158,.T.);
#899=ORIENTED_EDGE('',*,*,#1159,.F.);
#900=ORIENTED_EDGE('',*,*,#1114,.F.);
#901=ORIENTED_EDGE('',*,*,#1160,.T.);
#902=ORIENTED_EDGE('',*,*,#1141,.T.);
#903=ORIENTED_EDGE('',*,*,#1161,.T.);
#904=ORIENTED_EDGE('',*,*,#1115,.T.);
#905=ORIENTED_EDGE('',*,*,#1159,.T.);
#906=ORIENTED_EDGE('',*,*,#1162,.T.);
#907=ORIENTED_EDGE('',*,*,#1163,.T.);
#908=ORIENTED_EDGE('',*,*,#1164,.T.);
#909=ORIENTED_EDGE('',*,*,#1165,.T.);
#910=ORIENTED_EDGE('',*,*,#1166,.F.);
#911=ORIENTED_EDGE('',*,*,#1167,.T.);
#912=ORIENTED_EDGE('',*,*,#1168,.F.);
#913=ORIENTED_EDGE('',*,*,#1152,.T.);
#914=ORIENTED_EDGE('',*,*,#1151,.T.);
#915=ORIENTED_EDGE('',*,*,#1148,.T.);
#916=ORIENTED_EDGE('',*,*,#1169,.F.);
#917=ORIENTED_EDGE('',*,*,#1170,.T.);
#918=ORIENTED_EDGE('',*,*,#1171,.F.);
#919=ORIENTED_EDGE('',*,*,#1172,.T.);
#920=ORIENTED_EDGE('',*,*,#1173,.T.);
#921=ORIENTED_EDGE('',*,*,#1174,.T.);
#922=ORIENTED_EDGE('',*,*,#1175,.T.);
#923=ORIENTED_EDGE('',*,*,#1176,.T.);
#924=ORIENTED_EDGE('',*,*,#1116,.T.);
#925=ORIENTED_EDGE('',*,*,#1161,.F.);
#926=ORIENTED_EDGE('',*,*,#1140,.F.);
#927=ORIENTED_EDGE('',*,*,#1168,.T.);
#928=ORIENTED_EDGE('',*,*,#1177,.F.);
#929=ORIENTED_EDGE('',*,*,#1120,.F.);
#930=ORIENTED_EDGE('',*,*,#1153,.T.);
#931=ORIENTED_EDGE('',*,*,#1167,.F.);
#932=ORIENTED_EDGE('',*,*,#1178,.F.);
#933=ORIENTED_EDGE('',*,*,#1122,.T.);
#934=ORIENTED_EDGE('',*,*,#1177,.T.);
#935=ORIENTED_EDGE('',*,*,#1166,.T.);
#936=ORIENTED_EDGE('',*,*,#1179,.F.);
#937=ORIENTED_EDGE('',*,*,#1124,.F.);
#938=ORIENTED_EDGE('',*,*,#1178,.T.);
#939=ORIENTED_EDGE('',*,*,#1126,.T.);
#940=ORIENTED_EDGE('',*,*,#1179,.T.);
#941=ORIENTED_EDGE('',*,*,#1165,.F.);
#942=ORIENTED_EDGE('',*,*,#1180,.T.);
#943=ORIENTED_EDGE('',*,*,#1180,.F.);
#944=ORIENTED_EDGE('',*,*,#1173,.F.);
#945=ORIENTED_EDGE('',*,*,#1181,.F.);
#946=ORIENTED_EDGE('',*,*,#1128,.T.);
#947=ORIENTED_EDGE('',*,*,#1130,.T.);
#948=ORIENTED_EDGE('',*,*,#1181,.T.);
#949=ORIENTED_EDGE('',*,*,#1172,.F.);
#950=ORIENTED_EDGE('',*,*,#1182,.F.);
#951=ORIENTED_EDGE('',*,*,#1171,.T.);
#952=ORIENTED_EDGE('',*,*,#1183,.F.);
#953=ORIENTED_EDGE('',*,*,#1132,.F.);
#954=ORIENTED_EDGE('',*,*,#1182,.T.);
#955=ORIENTED_EDGE('',*,*,#1170,.F.);
#956=ORIENTED_EDGE('',*,*,#1184,.F.);
#957=ORIENTED_EDGE('',*,*,#1134,.T.);
#958=ORIENTED_EDGE('',*,*,#1183,.T.);
#959=ORIENTED_EDGE('',*,*,#1169,.T.);
#960=ORIENTED_EDGE('',*,*,#1147,.F.);
#961=ORIENTED_EDGE('',*,*,#1136,.F.);
#962=ORIENTED_EDGE('',*,*,#1184,.T.);
#963=ORIENTED_EDGE('',*,*,#1139,.F.);
#964=ORIENTED_EDGE('',*,*,#1185,.F.);
#965=ORIENTED_EDGE('',*,*,#1186,.T.);
#966=ORIENTED_EDGE('',*,*,#1187,.T.);
#967=ORIENTED_EDGE('',*,*,#1188,.T.);
#968=ORIENTED_EDGE('',*,*,#1142,.T.);
#969=ORIENTED_EDGE('',*,*,#1160,.F.);
#970=ORIENTED_EDGE('',*,*,#1189,.F.);
#971=ORIENTED_EDGE('',*,*,#1145,.T.);
#972=ORIENTED_EDGE('',*,*,#1190,.F.);
#973=ORIENTED_EDGE('',*,*,#1146,.T.);
#974=ORIENTED_EDGE('',*,*,#1191,.F.);
#975=ORIENTED_EDGE('',*,*,#1192,.T.);
#976=ORIENTED_EDGE('',*,*,#1154,.T.);
#977=ORIENTED_EDGE('',*,*,#1176,.F.);
#978=ORIENTED_EDGE('',*,*,#1187,.F.);
#979=ORIENTED_EDGE('',*,*,#1186,.F.);
#980=ORIENTED_EDGE('',*,*,#1193,.F.);
#981=ORIENTED_EDGE('',*,*,#1194,.F.);
#982=ORIENTED_EDGE('',*,*,#1195,.F.);
#983=ORIENTED_EDGE('',*,*,#1196,.F.);
#984=ORIENTED_EDGE('',*,*,#1197,.F.);
#985=ORIENTED_EDGE('',*,*,#1155,.F.);
#986=ORIENTED_EDGE('',*,*,#1192,.F.);
#987=ORIENTED_EDGE('',*,*,#1198,.T.);
#988=ORIENTED_EDGE('',*,*,#1199,.T.);
#989=ORIENTED_EDGE('',*,*,#1200,.T.);
#990=ORIENTED_EDGE('',*,*,#1201,.T.);
#991=ORIENTED_EDGE('',*,*,#1197,.T.);
#992=ORIENTED_EDGE('',*,*,#1202,.T.);
#993=ORIENTED_EDGE('',*,*,#1157,.F.);
#994=ORIENTED_EDGE('',*,*,#1156,.F.);
#995=ORIENTED_EDGE('',*,*,#1203,.T.);
#996=ORIENTED_EDGE('',*,*,#1204,.T.);
#997=ORIENTED_EDGE('',*,*,#1162,.F.);
#998=ORIENTED_EDGE('',*,*,#1158,.F.);
#999=ORIENTED_EDGE('',*,*,#1205,.T.);
#1000=ORIENTED_EDGE('',*,*,#1206,.T.);
#1001=ORIENTED_EDGE('',*,*,#1163,.F.);
#1002=ORIENTED_EDGE('',*,*,#1204,.F.);
#1003=ORIENTED_EDGE('',*,*,#1207,.T.);
#1004=ORIENTED_EDGE('',*,*,#1189,.T.);
#1005=ORIENTED_EDGE('',*,*,#1164,.F.);
#1006=ORIENTED_EDGE('',*,*,#1206,.F.);
#1007=ORIENTED_EDGE('',*,*,#1208,.T.);
#1008=ORIENTED_EDGE('',*,*,#1174,.F.);
#1009=ORIENTED_EDGE('',*,*,#1209,.T.);
#1010=ORIENTED_EDGE('',*,*,#1175,.F.);
#1011=ORIENTED_EDGE('',*,*,#1193,.T.);
#1012=ORIENTED_EDGE('',*,*,#1185,.T.);
#1013=ORIENTED_EDGE('',*,*,#1188,.F.);
#1014=ORIENTED_EDGE('',*,*,#1210,.F.);
#1015=ORIENTED_EDGE('',*,*,#1211,.F.);
#1016=ORIENTED_EDGE('',*,*,#1190,.T.);
#1017=ORIENTED_EDGE('',*,*,#1212,.F.);
#1018=ORIENTED_EDGE('',*,*,#1191,.T.);
#1019=ORIENTED_EDGE('',*,*,#1207,.F.);
#1020=ORIENTED_EDGE('',*,*,#1213,.F.);
#1021=ORIENTED_EDGE('',*,*,#1194,.T.);
#1022=ORIENTED_EDGE('',*,*,#1210,.T.);
#1023=ORIENTED_EDGE('',*,*,#1195,.T.);
#1024=ORIENTED_EDGE('',*,*,#1213,.T.);
#1025=ORIENTED_EDGE('',*,*,#1205,.F.);
#1026=ORIENTED_EDGE('',*,*,#1214,.F.);
#1027=ORIENTED_EDGE('',*,*,#1203,.F.);
#1028=ORIENTED_EDGE('',*,*,#1202,.F.);
#1029=ORIENTED_EDGE('',*,*,#1196,.T.);
#1030=ORIENTED_EDGE('',*,*,#1214,.T.);
#1031=ORIENTED_EDGE('',*,*,#1211,.T.);
#1032=ORIENTED_EDGE('',*,*,#1198,.F.);
#1033=ORIENTED_EDGE('',*,*,#1212,.T.);
#1034=ORIENTED_EDGE('',*,*,#1199,.F.);
#1035=ORIENTED_EDGE('',*,*,#1215,.T.);
#1036=ORIENTED_EDGE('',*,*,#1216,.T.);
#1037=ORIENTED_EDGE('',*,*,#1200,.F.);
#1038=ORIENTED_EDGE('',*,*,#1217,.T.);
#1039=ORIENTED_EDGE('',*,*,#1218,.T.);
#1040=ORIENTED_EDGE('',*,*,#1201,.F.);
#1041=ORIENTED_EDGE('',*,*,#1219,.F.);
#1042=ORIENTED_EDGE('',*,*,#1208,.F.);
#1043=ORIENTED_EDGE('',*,*,#1220,.F.);
#1044=ORIENTED_EDGE('',*,*,#1209,.F.);
#1045=ORIENTED_EDGE('',*,*,#1216,.F.);
#1046=ORIENTED_EDGE('',*,*,#1215,.F.);
#1047=ORIENTED_EDGE('',*,*,#1221,.T.);
#1048=ORIENTED_EDGE('',*,*,#1218,.F.);
#1049=ORIENTED_EDGE('',*,*,#1217,.F.);
#1050=ORIENTED_EDGE('',*,*,#1222,.T.);
#1051=ORIENTED_EDGE('',*,*,#1219,.T.);
#1052=ORIENTED_EDGE('',*,*,#1222,.F.);
#1053=ORIENTED_EDGE('',*,*,#1220,.T.);
#1054=ORIENTED_EDGE('',*,*,#1221,.F.);
#1055=EDGE_CURVE('',#1223,#1224,#1225,.T.);
#1056=EDGE_CURVE('',#1226,#1223,#1227,.T.);
#1057=EDGE_CURVE('',#1228,#1226,#1229,.T.);
#1058=EDGE_CURVE('',#1230,#1228,#1231,.T.);
#1059=EDGE_CURVE('',#1230,#1232,#1233,.T.);
#1060=EDGE_CURVE('',#1234,#1232,#1235,.F.);
#1061=EDGE_CURVE('',#1236,#1234,#1237,.T.);
#1062=EDGE_CURVE('',#1238,#1236,#1239,.T.);
#1063=EDGE_CURVE('',#1240,#1238,#1241,.F.);
#1064=EDGE_CURVE('',#1242,#1240,#1243,.T.);
#1065=EDGE_CURVE('',#1244,#1242,#1245,.F.);
#1066=EDGE_CURVE('',#1246,#1244,#1247,.T.);
#1067=EDGE_CURVE('',#1248,#1246,#1249,.T.);
#1068=EDGE_CURVE('',#1250,#1248,#1251,.T.);
#1069=EDGE_CURVE('',#1252,#1250,#1253,.F.);
#1070=EDGE_CURVE('',#1254,#1252,#1255,.T.);
#1071=EDGE_CURVE('',#1256,#1254,#1257,.F.);
#1072=EDGE_CURVE('',#1258,#1256,#1259,.T.);
#1073=EDGE_CURVE('',#1258,#1260,#1261,.T.);
#1074=EDGE_CURVE('',#1224,#1260,#1262,.F.);
#1075=EDGE_CURVE('',#1263,#1264,#1265,.T.);
#1076=EDGE_CURVE('',#1266,#1263,#1267,.T.);
#1077=EDGE_CURVE('',#1268,#1266,#1269,.T.);
#1078=EDGE_CURVE('',#1270,#1268,#1271,.T.);
#1079=EDGE_CURVE('',#1272,#1270,#1273,.T.);
#1080=EDGE_CURVE('',#1264,#1272,#1274,.T.);
#1081=EDGE_CURVE('',#1275,#1275,#1276,.F.);
#1082=EDGE_CURVE('',#1277,#1277,#1278,.F.);
#1083=EDGE_CURVE('',#1263,#1279,#1280,.T.);
#1084=EDGE_CURVE('',#1281,#1279,#1282,.T.);
#1085=EDGE_CURVE('',#1266,#1281,#1283,.T.);
#1086=EDGE_CURVE('',#1284,#1281,#1285,.T.);
#1087=EDGE_CURVE('',#1268,#1284,#1286,.T.);
#1088=EDGE_CURVE('',#1287,#1284,#1288,.T.);
#1089=EDGE_CURVE('',#1270,#1287,#1289,.T.);
#1090=EDGE_CURVE('',#1290,#1287,#1291,.T.);
#1091=EDGE_CURVE('',#1272,#1290,#1292,.T.);
#1092=EDGE_CURVE('',#1293,#1290,#1294,.T.);
#1093=EDGE_CURVE('',#1264,#1293,#1295,.T.);
#1094=EDGE_CURVE('',#1279,#1293,#1296,.T.);
#1095=EDGE_CURVE('',#1297,#1298,#1299,.T.);
#1096=EDGE_CURVE('',#1297,#1223,#1300,.F.);
#1097=EDGE_CURVE('',#1224,#1298,#1301,.F.);
#1098=EDGE_CURVE('',#1302,#1303,#1304,.T.);
#1099=EDGE_CURVE('',#1226,#1302,#1305,.T.);
#1100=EDGE_CURVE('',#1297,#1306,#1307,.F.);
#1101=EDGE_CURVE('',#1258,#1306,#1308,.F.);
#1102=EDGE_CURVE('',#1303,#1256,#1309,.F.);
#1103=EDGE_CURVE('',#1310,#1310,#1311,.T.);
#1104=EDGE_CURVE('',#1312,#1302,#1313,.T.);
#1105=EDGE_CURVE('',#1228,#1312,#1314,.T.);
#1106=EDGE_CURVE('',#1315,#1312,#1316,.T.);
#1107=EDGE_CURVE('',#1238,#1315,#1317,.T.);
#1108=EDGE_CURVE('',#1318,#1236,#1319,.F.);
#1109=EDGE_CURVE('',#1318,#1320,#1321,.F.);
#1110=EDGE_CURVE('',#1230,#1320,#1322,.F.);
#1111=EDGE_CURVE('',#1320,#1323,#1324,.T.);
#1112=EDGE_CURVE('',#1323,#1232,#1325,.F.);
#1113=EDGE_CURVE('',#1326,#1327,#1328,.T.);
#1114=EDGE_CURVE('',#1327,#1329,#1330,.T.);
#1115=EDGE_CURVE('',#1331,#1329,#1332,.T.);
#1116=EDGE_CURVE('',#1326,#1331,#1333,.T.);
#1117=EDGE_CURVE('',#1234,#1334,#1335,.F.);
#1118=EDGE_CURVE('',#1323,#1334,#1336,.F.);
#1119=EDGE_CURVE('',#1318,#1334,#1337,.T.);
#1120=EDGE_CURVE('',#1315,#1338,#1339,.F.);
#1121=EDGE_CURVE('',#1240,#1338,#1340,.T.);
#1122=EDGE_CURVE('',#1341,#1338,#1342,.T.);
#1123=EDGE_CURVE('',#1341,#1242,#1343,.F.);
#1124=EDGE_CURVE('',#1341,#1344,#1345,.F.);
#1125=EDGE_CURVE('',#1344,#1244,#1346,.F.);
#1126=EDGE_CURVE('',#1347,#1344,#1348,.T.);
#1127=EDGE_CURVE('',#1246,#1347,#1349,.T.);
#1128=EDGE_CURVE('',#1350,#1347,#1351,.T.);
#1129=EDGE_CURVE('',#1248,#1350,#1352,.T.);
#1130=EDGE_CURVE('',#1353,#1350,#1354,.T.);
#1131=EDGE_CURVE('',#1250,#1353,#1355,.T.);
#1132=EDGE_CURVE('',#1353,#1356,#1357,.F.);
#1133=EDGE_CURVE('',#1252,#1356,#1358,.T.);
#1134=EDGE_CURVE('',#1359,#1356,#1360,.T.);
#1135=EDGE_CURVE('',#1359,#1254,#1361,.F.);
#1136=EDGE_CURVE('',#1359,#1303,#1362,.F.);
#1137=EDGE_CURVE('',#1363,#1260,#1364,.F.);
#1138=EDGE_CURVE('',#1306,#1363,#1365,.T.);
#1139=EDGE_CURVE('',#1366,#1367,#1368,.T.);
#1140=EDGE_CURVE('',#1367,#1369,#1370,.T.);
#1141=EDGE_CURVE('',#1371,#1369,#1372,.T.);
#1142=EDGE_CURVE('',#1366,#1371,#1373,.T.);
#1143=EDGE_CURVE('',#1374,#1374,#1375,.F.);
#1144=EDGE_CURVE('',#1363,#1298,#1376,.F.);
#1145=EDGE_CURVE('',#1377,#1377,#1378,.T.);
#1146=EDGE_CURVE('',#1379,#1379,#1380,.T.);
#1147=EDGE_CURVE('',#1303,#1381,#1382,.T.);
#1148=EDGE_CURVE('',#1383,#1381,#1384,.T.);
#1149=EDGE_CURVE('',#1302,#1383,#1385,.T.);
#1150=EDGE_CURVE('',#1312,#1386,#1387,.F.);
#1151=EDGE_CURVE('',#1386,#1383,#1388,.T.);
#1152=EDGE_CURVE('',#1389,#1386,#1390,.T.);
#1153=EDGE_CURVE('',#1315,#1389,#1391,.F.);
#1154=EDGE_CURVE('',#1392,#1326,#1393,.T.);
#1155=EDGE_CURVE('',#1392,#1394,#1395,.T.);
#1156=EDGE_CURVE('',#1394,#1327,#1396,.F.);
#1157=EDGE_CURVE('',#1327,#1397,#1398,.F.);
#1158=EDGE_CURVE('',#1397,#1399,#1400,.T.);
#1159=EDGE_CURVE('',#1329,#1399,#1401,.T.);
#1160=EDGE_CURVE('',#1402,#1371,#1403,.T.);
#1161=EDGE_CURVE('',#1369,#1331,#1404,.T.);
#1162=EDGE_CURVE('',#1399,#1405,#1406,.T.);
#1163=EDGE_CURVE('',#1405,#1407,#1408,.T.);
#1164=EDGE_CURVE('',#1407,#1402,#1409,.T.);
#1165=EDGE_CURVE('',#1410,#1411,#1412,.T.);
#1166=EDGE_CURVE('',#1413,#1411,#1414,.F.);
#1167=EDGE_CURVE('',#1413,#1415,#1416,.T.);
#1168=EDGE_CURVE('',#1389,#1415,#1417,.F.);
#1169=EDGE_CURVE('',#1418,#1381,#1419,.F.);
#1170=EDGE_CURVE('',#1418,#1420,#1421,.T.);
#1171=EDGE_CURVE('',#1422,#1420,#1423,.F.);
#1172=EDGE_CURVE('',#1422,#1424,#1425,.T.);
#1173=EDGE_CURVE('',#1424,#1410,#1426,.T.);
#1174=EDGE_CURVE('',#1427,#1427,#1428,.F.);
#1175=EDGE_CURVE('',#1429,#1429,#1430,.F.);
#1176=EDGE_CURVE('',#1367,#1326,#1431,.F.);
#1177=EDGE_CURVE('',#1338,#1415,#1432,.F.);
#1178=EDGE_CURVE('',#1341,#1413,#1433,.F.);
#1179=EDGE_CURVE('',#1344,#1411,#1434,.T.);
#1180=EDGE_CURVE('',#1410,#1347,#1435,.F.);
#1181=EDGE_CURVE('',#1350,#1424,#1436,.T.);
#1182=EDGE_CURVE('',#1353,#1422,#1437,.F.);
#1183=EDGE_CURVE('',#1356,#1420,#1438,.F.);
#1184=EDGE_CURVE('',#1359,#1418,#1439,.F.);
#1185=EDGE_CURVE('',#1440,#1366,#1441,.T.);
#1186=EDGE_CURVE('',#1440,#1442,#1443,.T.);
#1187=EDGE_CURVE('',#1442,#1367,#1444,.F.);
#1188=EDGE_CURVE('',#1445,#1366,#1446,.F.);
#1189=EDGE_CURVE('',#1445,#1402,#1447,.T.);
#1190=EDGE_CURVE('',#1448,#1448,#1449,.T.);
#1191=EDGE_CURVE('',#1450,#1450,#1451,.T.);
#1192=EDGE_CURVE('',#1442,#1392,#1452,.F.);
#1193=EDGE_CURVE('',#1453,#1440,#1454,.F.);
#1194=EDGE_CURVE('',#1455,#1453,#1456,.T.);
#1195=EDGE_CURVE('',#1457,#1455,#1458,.F.);
#1196=EDGE_CURVE('',#1459,#1457,#1460,.T.);
#1197=EDGE_CURVE('',#1394,#1459,#1461,.F.);
#1198=EDGE_CURVE('',#1462,#1462,#1463,.T.);
#1199=EDGE_CURVE('',#1464,#1464,#1465,.T.);
#1200=EDGE_CURVE('',#1466,#1466,#1467,.T.);
#1201=EDGE_CURVE('',#1468,#1468,#1469,.T.);
#1202=EDGE_CURVE('',#1459,#1397,#1470,.T.);
#1203=EDGE_CURVE('',#1397,#1471,#1472,.T.);
#1204=EDGE_CURVE('',#1471,#1405,#1473,.T.);
#1205=EDGE_CURVE('',#1471,#1474,#1475,.F.);
#1206=EDGE_CURVE('',#1474,#1407,#1476,.T.);
#1207=EDGE_CURVE('',#1474,#1445,#1477,.T.);
#1208=EDGE_CURVE('',#1478,#1478,#1479,.F.);
#1209=EDGE_CURVE('',#1480,#1480,#1481,.F.);
#1210=EDGE_CURVE('',#1453,#1445,#1482,.F.);
#1211=EDGE_CURVE('',#1483,#1483,#1484,.T.);
#1212=EDGE_CURVE('',#1485,#1485,#1486,.T.);
#1213=EDGE_CURVE('',#1455,#1474,#1487,.T.);
#1214=EDGE_CURVE('',#1457,#1471,#1488,.F.);
#1215=EDGE_CURVE('',#1489,#1490,#1491,.T.);
#1216=EDGE_CURVE('',#1490,#1489,#1492,.T.);
#1217=EDGE_CURVE('',#1493,#1494,#1495,.T.);
#1218=EDGE_CURVE('',#1494,#1493,#1496,.T.);
#1219=EDGE_CURVE('',#1497,#1497,#1498,.T.);
#1220=EDGE_CURVE('',#1499,#1499,#1500,.T.);
#1221=EDGE_CURVE('',#1501,#1501,#1502,.T.);
#1222=EDGE_CURVE('',#1503,#1503,#1504,.T.);
#1223=VERTEX_POINT('',#1505);
#1224=VERTEX_POINT('',#1506);
#1225=LINE('',#1507,#1508);
#1226=VERTEX_POINT('',#1510);
#1227=LINE('',#1511,#1512);
#1228=VERTEX_POINT('',#1514);
#1229=LINE('',#1515,#1516);
#1230=VERTEX_POINT('',#1518);
#1231=LINE('',#1519,#1520);
#1232=VERTEX_POINT('',#1522);
#1233=LINE('',#1523,#1524);
#1234=VERTEX_POINT('',#1526);
#1235=LINE('',#1527,#1528);
#1236=VERTEX_POINT('',#1530);
#1237=LINE('',#1531,#1532);
#1238=VERTEX_POINT('',#1534);
#1239=LINE('',#1535,#1536);
#1240=VERTEX_POINT('',#1538);
#1241=CIRCLE('',#1539,2.);
#1242=VERTEX_POINT('',#1543);
#1243=CIRCLE('',#1544,4.65);
#1244=VERTEX_POINT('',#1548);
#1245=CIRCLE('',#1549,2.);
#1246=VERTEX_POINT('',#1553);
#1247=LINE('',#1554,#1555);
#1248=VERTEX_POINT('',#1557);
#1249=LINE('',#1558,#1559);
#1250=VERTEX_POINT('',#1561);
#1251=LINE('',#1562,#1563);
#1252=VERTEX_POINT('',#1565);
#1253=CIRCLE('',#1566,2.);
#1254=VERTEX_POINT('',#1570);
#1255=CIRCLE('',#1571,4.65);
#1256=VERTEX_POINT('',#1575);
#1257=CIRCLE('',#1576,2.);
#1258=VERTEX_POINT('',#1580);
#1259=LINE('',#1581,#1582);
#1260=VERTEX_POINT('',#1584);
#1261=LINE('',#1585,#1586);
#1262=LINE('',#1588,#1589);
#1263=VERTEX_POINT('',#1591);
#1264=VERTEX_POINT('',#1592);
#1265=LINE('',#1593,#1594);
#1266=VERTEX_POINT('',#1596);
#1267=LINE('',#1597,#1598);
#1268=VERTEX_POINT('',#1600);
#1269=LINE('',#1601,#1602);
#1270=VERTEX_POINT('',#1604);
#1271=LINE('',#1605,#1606);
#1272=VERTEX_POINT('',#1608);
#1273=LINE('',#1609,#1610);
#1274=LINE('',#1612,#1613);
#1275=VERTEX_POINT('',#1615);
#1276=CIRCLE('',#1616,3.);
#1277=VERTEX_POINT('',#1620);
#1278=CIRCLE('',#1621,3.);
#1279=VERTEX_POINT('',#1625);
#1280=LINE('',#1626,#1627);
#1281=VERTEX_POINT('',#1629);
#1282=LINE('',#1630,#1631);
#1283=LINE('',#1633,#1634);
#1284=VERTEX_POINT('',#1636);
#1285=LINE('',#1637,#1638);
#1286=LINE('',#1640,#1641);
#1287=VERTEX_POINT('',#1643);
#1288=LINE('',#1644,#1645);
#1289=LINE('',#1647,#1648);
#1290=VERTEX_POINT('',#1650);
#1291=LINE('',#1651,#1652);
#1292=LINE('',#1654,#1655);
#1293=VERTEX_POINT('',#1657);
#1294=LINE('',#1658,#1659);
#1295=LINE('',#1661,#1662);
#1296=LINE('',#1664,#1665);
#1297=VERTEX_POINT('',#1667);
#1298=VERTEX_POINT('',#1668);
#1299=LINE('',#1669,#1670);
#1300=CIRCLE('',#1672,0.75);
#1301=CIRCLE('',#1676,0.75);
#1302=VERTEX_POINT('',#1680);
#1303=VERTEX_POINT('',#1681);
#1304=LINE('',#1682,#1683);
#1305=LINE('',#1685,#1686);
#1306=VERTEX_POINT('',#1688);
#1307=LINE('',#1689,#1690);
#1308=CIRCLE('',#1692,0.75);
#1309=LINE('',#1696,#1697);
#1310=VERTEX_POINT('',#1699);
#1311=CIRCLE('',#1700,5.35);
#1312=VERTEX_POINT('',#1704);
#1313=LINE('',#1705,#1706);
#1314=LINE('',#1708,#1709);
#1315=VERTEX_POINT('',#1711);
#1316=LINE('',#1712,#1713);
#1317=LINE('',#1715,#1716);
#1318=VERTEX_POINT('',#1718);
#1319=CIRCLE('',#1719,0.75);
#1320=VERTEX_POINT('',#1723);
#1321=LINE('',#1724,#1725);
#1322=CIRCLE('',#1727,0.75);
#1323=VERTEX_POINT('',#1731);
#1324=LINE('',#1732,#1733);
#1325=CIRCLE('',#1735,0.749999999999996);
#1326=VERTEX_POINT('',#1739);
#1327=VERTEX_POINT('',#1740);
#1328=LINE('',#1741,#1742);
#1329=VERTEX_POINT('',#1744);
#1330=LINE('',#1745,#1746);
#1331=VERTEX_POINT('',#1748);
#1332=LINE('',#1749,#1750);
#1333=LINE('',#1752,#1753);
#1334=VERTEX_POINT('',#1755);
#1335=CIRCLE('',#1756,0.75);
#1336=LINE('',#1760,#1761);
#1337=LINE('',#1763,#1764);
#1338=VERTEX_POINT('',#1766);
#1339=CIRCLE('',#1767,2.);
#1340=LINE('',#1771,#1772);
#1341=VERTEX_POINT('',#1774);
#1342=CIRCLE('',#1775,4.65);
#1343=LINE('',#1779,#1780);
#1344=VERTEX_POINT('',#1782);
#1345=CIRCLE('',#1783,2.);
#1346=LINE('',#1787,#1788);
#1347=VERTEX_POINT('',#1790);
#1348=LINE('',#1791,#1792);
#1349=LINE('',#1794,#1795);
#1350=VERTEX_POINT('',#1797);
#1351=LINE('',#1798,#1799);
#1352=LINE('',#1801,#1802);
#1353=VERTEX_POINT('',#1804);
#1354=LINE('',#1805,#1806);
#1355=LINE('',#1808,#1809);
#1356=VERTEX_POINT('',#1811);
#1357=CIRCLE('',#1812,2.);
#1358=LINE('',#1816,#1817);
#1359=VERTEX_POINT('',#1819);
#1360=CIRCLE('',#1820,4.65);
#1361=LINE('',#1824,#1825);
#1362=CIRCLE('',#1827,2.);
#1363=VERTEX_POINT('',#1831);
#1364=CIRCLE('',#1832,0.749999999999998);
#1365=LINE('',#1836,#1837);
#1366=VERTEX_POINT('',#1839);
#1367=VERTEX_POINT('',#1840);
#1368=LINE('',#1841,#1842);
#1369=VERTEX_POINT('',#1844);
#1370=LINE('',#1845,#1846);
#1371=VERTEX_POINT('',#1848);
#1372=LINE('',#1849,#1850);
#1373=LINE('',#1852,#1853);
#1374=VERTEX_POINT('',#1855);
#1375=CIRCLE('',#1856,5.35);
#1376=LINE('',#1860,#1861);
#1377=VERTEX_POINT('',#1863);
#1378=CIRCLE('',#1864,3.);
#1379=VERTEX_POINT('',#1868);
#1380=CIRCLE('',#1869,3.);
#1381=VERTEX_POINT('',#1873);
#1382=LINE('',#1874,#1875);
#1383=VERTEX_POINT('',#1877);
#1384=LINE('',#1878,#1879);
#1385=LINE('',#1881,#1882);
#1386=VERTEX_POINT('',#1884);
#1387=LINE('',#1885,#1886);
#1388=LINE('',#1888,#1889);
#1389=VERTEX_POINT('',#1891);
#1390=LINE('',#1892,#1893);
#1391=LINE('',#1895,#1896);
#1392=VERTEX_POINT('',#1898);
#1393=LINE('',#1899,#1900);
#1394=VERTEX_POINT('',#1902);
#1395=LINE('',#1903,#1904);
#1396=LINE('',#1906,#1907);
#1397=VERTEX_POINT('',#1909);
#1398=LINE('',#1910,#1911);
#1399=VERTEX_POINT('',#1913);
#1400=LINE('',#1914,#1915);
#1401=LINE('',#1917,#1918);
#1402=VERTEX_POINT('',#1920);
#1403=LINE('',#1921,#1922);
#1404=LINE('',#1924,#1925);
#1405=VERTEX_POINT('',#1927);
#1406=LINE('',#1928,#1929);
#1407=VERTEX_POINT('',#1931);
#1408=LINE('',#1932,#1933);
#1409=LINE('',#1935,#1936);
#1410=VERTEX_POINT('',#1938);
#1411=VERTEX_POINT('',#1939);
#1412=LINE('',#1940,#1941);
#1413=VERTEX_POINT('',#1943);
#1414=CIRCLE('',#1944,2.6);
#1415=VERTEX_POINT('',#1948);
#1416=CIRCLE('',#1949,4.05);
#1417=CIRCLE('',#1953,2.6);
#1418=VERTEX_POINT('',#1957);
#1419=CIRCLE('',#1958,2.6);
#1420=VERTEX_POINT('',#1962);
#1421=CIRCLE('',#1963,4.05);
#1422=VERTEX_POINT('',#1967);
#1423=CIRCLE('',#1968,2.6);
#1424=VERTEX_POINT('',#1972);
#1425=LINE('',#1973,#1974);
#1426=LINE('',#1976,#1977);
#1427=VERTEX_POINT('',#1979);
#1428=CIRCLE('',#1980,2.7);
#1429=VERTEX_POINT('',#1984);
#1430=CIRCLE('',#1985,2.7);
#1431=LINE('',#1989,#1990);
#1432=LINE('',#1992,#1993);
#1433=LINE('',#1995,#1996);
#1434=LINE('',#1998,#1999);
#1435=LINE('',#2001,#2002);
#1436=LINE('',#2004,#2005);
#1437=LINE('',#2007,#2008);
#1438=LINE('',#2010,#2011);
#1439=LINE('',#2013,#2014);
#1440=VERTEX_POINT('',#2016);
#1441=LINE('',#2017,#2018);
#1442=VERTEX_POINT('',#2020);
#1443=LINE('',#2021,#2022);
#1444=LINE('',#2024,#2025);
#1445=VERTEX_POINT('',#2027);
#1446=LINE('',#2028,#2029);
#1447=LINE('',#2031,#2032);
#1448=VERTEX_POINT('',#2034);
#1449=CIRCLE('',#2035,1.65);
#1450=VERTEX_POINT('',#2039);
#1451=CIRCLE('',#2040,1.65);
#1452=LINE('',#2044,#2045);
#1453=VERTEX_POINT('',#2047);
#1454=LINE('',#2048,#2049);
#1455=VERTEX_POINT('',#2051);
#1456=LINE('',#2052,#2053);
#1457=VERTEX_POINT('',#2055);
#1458=LINE('',#2056,#2057);
#1459=VERTEX_POINT('',#2059);
#1460=LINE('',#2060,#2061);
#1461=LINE('',#2063,#2064);
#1462=VERTEX_POINT('',#2066);
#1463=CIRCLE('',#2067,2.25);
#1464=VERTEX_POINT('',#2071);
#1465=CIRCLE('',#2072,2.25);
#1466=VERTEX_POINT('',#2076);
#1467=CIRCLE('',#2077,2.25);
#1468=VERTEX_POINT('',#2081);
#1469=CIRCLE('',#2082,2.25);
#1470=LINE('',#2086,#2087);
#1471=VERTEX_POINT('',#2089);
#1472=LINE('',#2090,#2091);
#1473=LINE('',#2093,#2094);
#1474=VERTEX_POINT('',#2096);
#1475=LINE('',#2097,#2098);
#1476=LINE('',#2100,#2101);
#1477=LINE('',#2103,#2104);
#1478=VERTEX_POINT('',#2106);
#1479=CIRCLE('',#2107,2.1);
#1480=VERTEX_POINT('',#2111);
#1481=CIRCLE('',#2112,2.1);
#1482=LINE('',#2116,#2117);
#1483=VERTEX_POINT('',#2119);
#1484=CIRCLE('',#2120,1.65);
#1485=VERTEX_POINT('',#2124);
#1486=CIRCLE('',#2125,1.65);
#1487=LINE('',#2129,#2130);
#1488=LINE('',#2132,#2133);
#1489=VERTEX_POINT('',#2135);
#1490=VERTEX_POINT('',#2136);
#1491=CIRCLE('',#2137,1.65);
#1492=CIRCLE('',#2141,1.65);
#1493=VERTEX_POINT('',#2145);
#1494=VERTEX_POINT('',#2146);
#1495=CIRCLE('',#2147,1.65);
#1496=CIRCLE('',#2151,1.65);
#1497=VERTEX_POINT('',#2155);
#1498=CIRCLE('',#2156,2.1);
#1499=VERTEX_POINT('',#2160);
#1500=CIRCLE('',#2161,2.1);
#1501=VERTEX_POINT('',#2165);
#1502=CIRCLE('',#2166,1.65);
#1503=VERTEX_POINT('',#2170);
#1504=CIRCLE('',#2171,1.65);
#1505=CARTESIAN_POINT('',(19.4,-1.5,2.36103264413485E-15));
#1506=CARTESIAN_POINT('',(21.,-1.5,1.93046834987413E-15));
#1507=CARTESIAN_POINT('',(19.4,-1.5,9.65862790247901E-16));
#1508=VECTOR('',#1509,1.);
#1509=DIRECTION('',(1.,0.,6.12323399573676E-17));
#1510=CARTESIAN_POINT('',(19.4,-16.337258300203,2.37581479034587E-15));
#1511=CARTESIAN_POINT('',(19.4,-16.337258300203,2.37581479034587E-15));
#1512=VECTOR('',#1513,1.);
#1513=DIRECTION('',(0.,1.,0.));
#1514=CARTESIAN_POINT('',(16.3372583002031,-19.4,2.00073710841872E-15));
#1515=CARTESIAN_POINT('',(16.3372583002031,-19.4,2.00073710841872E-15));
#1516=VECTOR('',#1517,1.);
#1517=DIRECTION('',(0.707106781186546,0.707106781186549,8.65956056235492E-17));
#1518=CARTESIAN_POINT('',(2.25,-19.4,1.46689585717931E-16));
#1519=CARTESIAN_POINT('',(2.25,-19.4,2.75545529808154E-16));
#1520=VECTOR('',#1521,1.);
#1521=DIRECTION('',(1.,0.,1.22464679914735E-16));
#1522=CARTESIAN_POINT('',(2.25,-21.,-1.91737925264642E-17));
#1523=CARTESIAN_POINT('',(2.25,-19.4,1.93283916135335E-16));
#1524=VECTOR('',#1525,1.);
#1525=DIRECTION('',(2.77555756156289E-16,-1.,1.54074395550979E-32));
#1526=CARTESIAN_POINT('',(-2.25,-21.,-2.02870812398567E-16));
#1527=CARTESIAN_POINT('',(2.25,-21.,-8.42718400209541E-17));
#1528=VECTOR('',#1529,1.);
#1529=DIRECTION('',(-1.,0.,-3.65607171879197E-17));
#1530=CARTESIAN_POINT('',(-2.25,-19.4,-2.94719322334619E-16));
#1531=CARTESIAN_POINT('',(-2.25,-19.4,-3.59817369829109E-16));
#1532=VECTOR('',#1533,1.);
#1533=DIRECTION('',(0.,-1.,0.));
#1534=CARTESIAN_POINT('',(-9.1272062641256,-19.4,-1.41130741054303E-15));
#1535=CARTESIAN_POINT('',(-9.1272062641256,-19.4,-1.11776039365191E-15));
#1536=VECTOR('',#1537,1.);
#1537=DIRECTION('',(1.,0.,1.22464679914735E-16));
#1538=CARTESIAN_POINT('',(-11.0438359591254,-16.8285714285714,-1.49377217031018E-15));
#1539=AXIS2_PLACEMENT_3D('',#1540,#1541,#1542);
#1540=CARTESIAN_POINT('',(-9.1272062641256,-17.4,-1.11776039365191E-15));
#1541=DIRECTION('',(1.22464679914735E-16,0.,-1.));
#1542=DIRECTION('',(0.,-1.,0.));
#1543=CARTESIAN_POINT('',(-16.8285714285714,-11.0438359591254,-1.8180262854649E-15));
#1544=AXIS2_PLACEMENT_3D('',#1545,#1546,#1547);
#1545=CARTESIAN_POINT('',(-15.5,-15.5,-1.8982025386784E-15));
#1546=DIRECTION('',(1.22464679914735E-16,0.,-1.));
#1547=DIRECTION('',(-0.285714285714286,0.95831484749991,-3.49899085470672E-17));
#1548=CARTESIAN_POINT('',(-19.4,-9.12720626412559,-2.10198060505565E-15));
#1549=AXIS2_PLACEMENT_3D('',#1550,#1551,#1552);
#1550=CARTESIAN_POINT('',(-17.4,-9.1272062641256,-2.13088543051639E-15));
#1551=DIRECTION('',(1.22464679914735E-16,0.,-1.));
#1552=DIRECTION('',(0.285714285714285,-0.95831484749991,3.49899085470671E-17));
#1553=CARTESIAN_POINT('',(-19.4,16.337258300203,-2.37581479034586E-15));
#1554=CARTESIAN_POINT('',(-19.4,16.337258300203,-2.37581479034586E-15));
#1555=VECTOR('',#1556,1.);
#1556=DIRECTION('',(0.,-1.,0.));
#1557=CARTESIAN_POINT('',(-16.337258300203,19.4,-2.00073710841872E-15));
#1558=CARTESIAN_POINT('',(-16.3372583002031,19.4,-2.00073710841872E-15));
#1559=VECTOR('',#1560,1.);
#1560=DIRECTION('',(-0.707106781186547,-0.707106781186548,-8.65956056235493E-17));
#1561=CARTESIAN_POINT('',(9.1272062641256,19.4,1.33729254223469E-15));
#1562=CARTESIAN_POINT('',(9.1272062641256,19.4,1.11776039365191E-15));
#1563=VECTOR('',#1564,1.);
#1564=DIRECTION('',(-1.,-2.7903305563921E-16,-1.22464679914735E-16));
#1565=CARTESIAN_POINT('',(11.0438359591254,16.8285714285714,1.71581677523521E-15));
#1566=AXIS2_PLACEMENT_3D('',#1567,#1568,#1569);
#1567=CARTESIAN_POINT('',(9.1272062641256,17.4,1.11776039365191E-15));
#1568=DIRECTION('',(1.22464679914735E-16,0.,-1.));
#1569=DIRECTION('',(8.88178419700127E-16,1.,1.08770485875751E-31));
#1570=CARTESIAN_POINT('',(16.8285714285714,11.0438359591254,2.33613036362331E-15));
#1571=AXIS2_PLACEMENT_3D('',#1572,#1573,#1574);
#1572=CARTESIAN_POINT('',(15.5,15.5,1.8982025386784E-15));
#1573=DIRECTION('',(1.22464679914735E-16,0.,-1.));
#1574=DIRECTION('',(0.285714285714287,-0.958314847499909,3.49899085470674E-17));
#1575=CARTESIAN_POINT('',(19.4,9.1272062641256,2.32402520998068E-15));
#1576=AXIS2_PLACEMENT_3D('',#1577,#1578,#1579);
#1577=CARTESIAN_POINT('',(17.4,9.1272062641256,2.1308854305164E-15));
#1578=DIRECTION('',(1.22464679914735E-16,0.,-1.));
#1579=DIRECTION('',(-0.285714285714286,0.95831484749991,-3.49899085470673E-17));
#1580=CARTESIAN_POINT('',(19.4,1.5,2.39804007828902E-15));
#1581=CARTESIAN_POINT('',(19.4,1.5,2.37581479034587E-15));
#1582=VECTOR('',#1583,1.);
#1583=DIRECTION('',(0.,1.,0.));
#1584=CARTESIAN_POINT('',(21.,1.5,1.56039400833241E-15));
#1585=CARTESIAN_POINT('',(19.4,1.5,2.29813041979809E-15));
#1586=VECTOR('',#1587,1.);
#1587=DIRECTION('',(1.,0.,1.65315748515976E-16));
#1588=CARTESIAN_POINT('',(21.,1.5,1.06383453417969E-15));
#1589=VECTOR('',#1590,1.);
#1590=DIRECTION('',(0.,-1.,0.));
#1591=CARTESIAN_POINT('',(0.,-10.,0.));
#1592=CARTESIAN_POINT('',(-10.,-10.,-1.22464679914735E-15));
#1593=CARTESIAN_POINT('',(0.,-10.,0.));
#1594=VECTOR('',#1595,1.);
#1595=DIRECTION('',(-1.,0.,-1.22464679914735E-16));
#1596=CARTESIAN_POINT('',(0.,0.,0.));
#1597=CARTESIAN_POINT('',(0.,0.,0.));
#1598=VECTOR('',#1599,1.);
#1599=DIRECTION('',(0.,-1.,0.));
#1600=CARTESIAN_POINT('',(10.,0.,1.22464679914735E-15));
#1601=CARTESIAN_POINT('',(10.,0.,1.22464679914735E-15));
#1602=VECTOR('',#1603,1.);
#1603=DIRECTION('',(-1.,0.,-1.22464679914735E-16));
#1604=CARTESIAN_POINT('',(10.,10.,1.22464679914735E-15));
#1605=CARTESIAN_POINT('',(10.,10.,1.22464679914735E-15));
#1606=VECTOR('',#1607,1.);
#1607=DIRECTION('',(0.,-1.,0.));
#1608=CARTESIAN_POINT('',(-10.,10.,-1.22464679914735E-15));
#1609=CARTESIAN_POINT('',(-10.,10.,-1.22464679914735E-15));
#1610=VECTOR('',#1611,1.);
#1611=DIRECTION('',(1.,0.,1.22464679914735E-16));
#1612=CARTESIAN_POINT('',(-10.,-10.,-1.22464679914735E-15));
#1613=VECTOR('',#1614,1.);
#1614=DIRECTION('',(0.,1.,0.));
#1615=CARTESIAN_POINT('',(12.5,-15.5,1.53080849893419E-15));
#1616=AXIS2_PLACEMENT_3D('',#1617,#1618,#1619);
#1617=CARTESIAN_POINT('',(15.5,-15.5,1.8982025386784E-15));
#1618=DIRECTION('',(1.22464679914735E-16,0.,-1.));
#1619=DIRECTION('',(-1.,0.,-1.22464679914735E-16));
#1620=CARTESIAN_POINT('',(-18.5,15.5,-2.2655965784226E-15));
#1621=AXIS2_PLACEMENT_3D('',#1622,#1623,#1624);
#1622=CARTESIAN_POINT('',(-15.5,15.5,-1.8982025386784E-15));
#1623=DIRECTION('',(1.22464679914735E-16,0.,-1.));
#1624=DIRECTION('',(-1.,0.,-1.22464679914735E-16));
#1625=CARTESIAN_POINT('',(8.57252759403147E-16,-10.,-7.));
#1626=CARTESIAN_POINT('',(0.,-10.,0.));
#1627=VECTOR('',#1628,1.);
#1628=DIRECTION('',(1.22464679914735E-16,0.,-1.));
#1629=CARTESIAN_POINT('',(8.57252759403147E-16,0.,-7.));
#1630=CARTESIAN_POINT('',(8.57252759403147E-16,0.,-7.));
#1631=VECTOR('',#1632,1.);
#1632=DIRECTION('',(0.,-1.,0.));
#1633=CARTESIAN_POINT('',(0.,0.,0.));
#1634=VECTOR('',#1635,1.);
#1635=DIRECTION('',(1.22464679914735E-16,0.,-1.));
#1636=CARTESIAN_POINT('',(10.,0.,-7.));
#1637=CARTESIAN_POINT('',(10.,0.,-7.));
#1638=VECTOR('',#1639,1.);
#1639=DIRECTION('',(-1.,0.,-8.88178419700125E-17));
#1640=CARTESIAN_POINT('',(10.,0.,1.22464679914735E-15));
#1641=VECTOR('',#1642,1.);
#1642=DIRECTION('',(0.,0.,-1.));
#1643=CARTESIAN_POINT('',(10.,10.,-7.));
#1644=CARTESIAN_POINT('',(10.,10.,-7.));
#1645=VECTOR('',#1646,1.);
#1646=DIRECTION('',(0.,-1.,0.));
#1647=CARTESIAN_POINT('',(10.,10.,1.22464679914735E-15));
#1648=VECTOR('',#1649,1.);
#1649=DIRECTION('',(0.,0.,-1.));
#1650=CARTESIAN_POINT('',(-10.,10.,-7.));
#1651=CARTESIAN_POINT('',(-10.,10.,-7.));
#1652=VECTOR('',#1653,1.);
#1653=DIRECTION('',(1.,0.,4.44089209850063E-17));
#1654=CARTESIAN_POINT('',(-10.,10.,-1.22464679914735E-15));
#1655=VECTOR('',#1656,1.);
#1656=DIRECTION('',(0.,0.,-1.));
#1657=CARTESIAN_POINT('',(-10.,-10.,-7.));
#1658=CARTESIAN_POINT('',(-10.,-10.,-7.));
#1659=VECTOR('',#1660,1.);
#1660=DIRECTION('',(0.,1.,0.));
#1661=CARTESIAN_POINT('',(-10.,-10.,-1.22464679914735E-15));
#1662=VECTOR('',#1663,1.);
#1663=DIRECTION('',(0.,0.,-1.));
#1664=CARTESIAN_POINT('',(8.57252759403147E-16,-10.,-7.));
#1665=VECTOR('',#1666,1.);
#1666=DIRECTION('',(-1.,0.,-8.88178419700125E-17));
#1667=CARTESIAN_POINT('',(19.4,-1.5,-1.5));
#1668=CARTESIAN_POINT('',(21.,-1.5,-1.5));
#1669=CARTESIAN_POINT('',(19.4,-1.5,-1.5));
#1670=VECTOR('',#1671,1.);
#1671=DIRECTION('',(1.,0.,0.));
#1672=AXIS2_PLACEMENT_3D('',#1673,#1674,#1675);
#1673=CARTESIAN_POINT('',(19.4,-1.5,-0.75));
#1674=DIRECTION('',(1.,-1.08730412824419E-16,2.368475785867E-16));
#1675=DIRECTION('',(-2.368475785867E-16,5.03301104496738E-15,1.));
#1676=AXIS2_PLACEMENT_3D('',#1677,#1678,#1679);
#1677=CARTESIAN_POINT('',(21.,-1.5,-0.749999999999998));
#1678=DIRECTION('',(-1.,0.,0.));
#1679=DIRECTION('',(0.,0.,-1.));
#1680=CARTESIAN_POINT('',(19.4,-16.337258300203,-14.4));
#1681=CARTESIAN_POINT('',(19.4,9.1272062641256,-14.4));
#1682=CARTESIAN_POINT('',(19.4,-16.337258300203,-14.4));
#1683=VECTOR('',#1684,1.);
#1684=DIRECTION('',(1.39516527819605E-16,1.,-6.97582639098025E-17));
#1685=CARTESIAN_POINT('',(19.4,-16.337258300203,2.37581479034587E-15));
#1686=VECTOR('',#1687,1.);
#1687=DIRECTION('',(2.46716227694479E-16,0.,-1.));
#1688=CARTESIAN_POINT('',(19.4,1.5,-1.5));
#1689=CARTESIAN_POINT('',(19.4,1.5,-1.5));
#1690=VECTOR('',#1691,1.);
#1691=DIRECTION('',(-1.1842378929335E-15,-1.,1.48029736616688E-16));
#1692=AXIS2_PLACEMENT_3D('',#1693,#1694,#1695);
#1693=CARTESIAN_POINT('',(19.4,1.5,-0.749999999999997));
#1694=DIRECTION('',(1.,-1.08730412824419E-16,2.368475785867E-16));
#1695=DIRECTION('',(2.368475785867E-16,-2.5752534996196E-32,-1.));
#1696=CARTESIAN_POINT('',(19.4,9.1272062641256,2.07608581487306E-15));
#1697=VECTOR('',#1698,1.);
#1698=DIRECTION('',(2.46716227694479E-16,1.2335811384724E-16,-1.));
#1699=CARTESIAN_POINT('',(19.4,-8.5,-12.85));
#1700=AXIS2_PLACEMENT_3D('',#1701,#1702,#1703);
#1701=CARTESIAN_POINT('',(19.4,-8.5,-7.5));
#1702=DIRECTION('',(1.,-1.08730412824419E-16,2.368475785867E-16));
#1703=DIRECTION('',(2.368475785867E-16,-1.22464679914735E-16,-1.));
#1704=CARTESIAN_POINT('',(16.3372583002031,-19.4,-14.4));
#1705=CARTESIAN_POINT('',(16.3372583002031,-19.4,-14.4));
#1706=VECTOR('',#1707,1.);
#1707=DIRECTION('',(0.707106781186546,0.707106781186549,0.));
#1708=CARTESIAN_POINT('',(16.3372583002031,-19.4,2.00073710841872E-15));
#1709=VECTOR('',#1710,1.);
#1710=DIRECTION('',(4.93432455388959E-16,0.,-1.));
#1711=CARTESIAN_POINT('',(-9.1272062641256,-19.4,-14.4));
#1712=CARTESIAN_POINT('',(-9.1272062641256,-19.4,-14.4));
#1713=VECTOR('',#1714,1.);
#1714=DIRECTION('',(1.,0.,2.09274791729407E-16));
#1715=CARTESIAN_POINT('',(-9.1272062641256,-19.4,-1.66910322145111E-15));
#1716=VECTOR('',#1717,1.);
#1717=DIRECTION('',(0.,0.,-1.));
#1718=CARTESIAN_POINT('',(-2.25,-19.4,-1.5));
#1719=AXIS2_PLACEMENT_3D('',#1720,#1721,#1722);
#1720=CARTESIAN_POINT('',(-2.25,-19.4,-0.75));
#1721=DIRECTION('',(0.,-1.,0.));
#1722=DIRECTION('',(-5.9211894646675E-16,0.,1.));
#1723=CARTESIAN_POINT('',(2.25,-19.4,-1.5));
#1724=CARTESIAN_POINT('',(2.25,-19.4,-1.5));
#1725=VECTOR('',#1726,1.);
#1726=DIRECTION('',(-1.,0.,1.97372982155583E-16));
#1727=AXIS2_PLACEMENT_3D('',#1728,#1729,#1730);
#1728=CARTESIAN_POINT('',(2.25,-19.4,-0.75));
#1729=DIRECTION('',(0.,-1.,0.));
#1730=DIRECTION('',(0.,0.,-1.));
#1731=CARTESIAN_POINT('',(2.25,-21.,-1.5));
#1732=CARTESIAN_POINT('',(2.25,-19.4,-1.5));
#1733=VECTOR('',#1734,1.);
#1734=DIRECTION('',(0.,-1.,0.));
#1735=AXIS2_PLACEMENT_3D('',#1736,#1737,#1738);
#1736=CARTESIAN_POINT('',(2.25,-21.,-0.750000000000001));
#1737=DIRECTION('',(0.,1.,0.));
#1738=DIRECTION('',(-5.32907051820078E-15,0.,1.));
#1739=CARTESIAN_POINT('',(17.,-21.,1.4));
#1740=CARTESIAN_POINT('',(-17.,-21.,1.4));
#1741=CARTESIAN_POINT('',(17.,-21.,1.4));
#1742=VECTOR('',#1743,1.);
#1743=DIRECTION('',(-1.,0.,-1.17553026136781E-16));
#1744=CARTESIAN_POINT('',(-17.,-21.,-15.));
#1745=CARTESIAN_POINT('',(-17.,-21.,1.4));
#1746=VECTOR('',#1747,1.);
#1747=DIRECTION('',(2.16628882853689E-16,0.,-1.));
#1748=CARTESIAN_POINT('',(17.,-21.,-15.));
#1749=CARTESIAN_POINT('',(17.,-21.,-15.));
#1750=VECTOR('',#1751,1.);
#1751=DIRECTION('',(-1.,0.,-1.0449157878825E-16));
#1752=CARTESIAN_POINT('',(17.,-21.,1.4));
#1753=VECTOR('',#1754,1.);
#1754=DIRECTION('',(2.16628882853689E-16,2.16628882853689E-16,-1.));
#1755=CARTESIAN_POINT('',(-2.25,-21.,-1.5));
#1756=AXIS2_PLACEMENT_3D('',#1757,#1758,#1759);
#1757=CARTESIAN_POINT('',(-2.25,-21.,-0.75));
#1758=DIRECTION('',(0.,1.,0.));
#1759=DIRECTION('',(0.,0.,-1.));
#1760=CARTESIAN_POINT('',(-2.25,-21.,-1.5));
#1761=VECTOR('',#1762,1.);
#1762=DIRECTION('',(1.,0.,-1.97372982155583E-16));
#1763=CARTESIAN_POINT('',(-2.25,-19.4,-1.5));
#1764=VECTOR('',#1765,1.);
#1765=DIRECTION('',(0.,-1.,0.));
#1766=CARTESIAN_POINT('',(-11.0438359591254,-16.8285714285714,-14.4));
#1767=AXIS2_PLACEMENT_3D('',#1768,#1769,#1770);
#1768=CARTESIAN_POINT('',(-9.1272062641256,-17.4,-14.4));
#1769=DIRECTION('',(-7.72329060608805E-17,0.,1.));
#1770=DIRECTION('',(-0.958314847499909,0.285714285714288,-7.40134405937075E-17));
#1771=CARTESIAN_POINT('',(-11.0438359591254,-16.8285714285714,-1.35247983576514E-15));
#1772=VECTOR('',#1773,1.);
#1773=DIRECTION('',(1.2335811384724E-16,0.,-1.));
#1774=CARTESIAN_POINT('',(-16.8285714285714,-11.0438359591254,-14.4));
#1775=AXIS2_PLACEMENT_3D('',#1776,#1777,#1778);
#1776=CARTESIAN_POINT('',(-15.5,-15.5,-14.4));
#1777=DIRECTION('',(1.22464679914735E-16,0.,-1.));
#1778=DIRECTION('',(-0.285714285714286,0.95831484749991,-3.49899085470672E-17));
#1779=CARTESIAN_POINT('',(-16.8285714285714,-11.0438359591254,-2.06090561342226E-15));
#1780=VECTOR('',#1781,1.);
#1781=DIRECTION('',(0.,0.,-1.));
#1782=CARTESIAN_POINT('',(-19.4,-9.1272062641256,-14.4));
#1783=AXIS2_PLACEMENT_3D('',#1784,#1785,#1786);
#1784=CARTESIAN_POINT('',(-17.4,-9.1272062641256,-14.4));
#1785=DIRECTION('',(-1.54465812121761E-16,7.72329060608805E-17,1.));
#1786=DIRECTION('',(-1.,-1.38777878078145E-15,-1.54465812121761E-16));
#1787=CARTESIAN_POINT('',(-19.4,-9.1272062641256,-1.85404120994803E-15));
#1788=VECTOR('',#1789,1.);
#1789=DIRECTION('',(2.46716227694479E-16,-1.2335811384724E-16,-1.));
#1790=CARTESIAN_POINT('',(-19.4,16.337258300203,-14.4));
#1791=CARTESIAN_POINT('',(-19.4,16.337258300203,-14.4));
#1792=VECTOR('',#1793,1.);
#1793=DIRECTION('',(0.,-1.,0.));
#1794=CARTESIAN_POINT('',(-19.4,16.337258300203,-2.37581479034586E-15));
#1795=VECTOR('',#1796,1.);
#1796=DIRECTION('',(2.46716227694479E-16,2.46716227694479E-16,-1.));
#1797=CARTESIAN_POINT('',(-16.337258300203,19.4,-14.4));
#1798=CARTESIAN_POINT('',(-16.337258300203,19.4,-14.4));
#1799=VECTOR('',#1800,1.);
#1800=DIRECTION('',(-0.707106781186547,-0.707106781186548,0.));
#1801=CARTESIAN_POINT('',(-16.337258300203,19.4,-2.00073710841872E-15));
#1802=VECTOR('',#1803,1.);
#1803=DIRECTION('',(0.,0.,-1.));
#1804=CARTESIAN_POINT('',(9.1272062641256,19.4,-14.4));
#1805=CARTESIAN_POINT('',(9.1272062641256,19.4,-14.4));
#1806=VECTOR('',#1807,1.);
#1807=DIRECTION('',(-1.,-2.7903305563921E-16,-2.09274791729407E-16));
#1808=CARTESIAN_POINT('',(9.1272062641256,19.4,1.44705861652608E-15));
#1809=VECTOR('',#1810,1.);
#1810=DIRECTION('',(1.2335811384724E-16,0.,-1.));
#1811=CARTESIAN_POINT('',(11.0438359591254,16.8285714285714,-14.4));
#1812=AXIS2_PLACEMENT_3D('',#1813,#1814,#1815);
#1813=CARTESIAN_POINT('',(9.1272062641256,17.4,-14.4));
#1814=DIRECTION('',(-1.54465812121761E-16,0.,1.));
#1815=DIRECTION('',(0.958314847499909,-0.285714285714288,1.48026881187415E-16));
#1816=CARTESIAN_POINT('',(11.0438359591254,16.8285714285714,1.7965690456152E-15));
#1817=VECTOR('',#1818,1.);
#1818=DIRECTION('',(1.2335811384724E-16,0.,-1.));
#1819=CARTESIAN_POINT('',(16.8285714285714,11.0438359591254,-14.4));
#1820=AXIS2_PLACEMENT_3D('',#1821,#1822,#1823);
#1821=CARTESIAN_POINT('',(15.5,15.5,-14.4));
#1822=DIRECTION('',(1.22464679914735E-16,0.,-1.));
#1823=DIRECTION('',(0.285714285714286,-0.95831484749991,3.49899085470673E-17));
#1824=CARTESIAN_POINT('',(16.8285714285714,11.0438359591254,2.50499482327232E-15));
#1825=VECTOR('',#1826,1.);
#1826=DIRECTION('',(0.,0.,-1.));
#1827=AXIS2_PLACEMENT_3D('',#1828,#1829,#1830);
#1828=CARTESIAN_POINT('',(17.4,9.1272062641256,-14.4));
#1829=DIRECTION('',(0.,0.,1.));
#1830=DIRECTION('',(1.,1.49880108324396E-15,0.));
#1831=CARTESIAN_POINT('',(21.,1.5,-1.5));
#1832=AXIS2_PLACEMENT_3D('',#1833,#1834,#1835);
#1833=CARTESIAN_POINT('',(21.,1.5,-0.749999999999999));
#1834=DIRECTION('',(-1.,0.,0.));
#1835=DIRECTION('',(0.,2.96059473233376E-16,1.));
#1836=CARTESIAN_POINT('',(19.4,1.5,-1.5));
#1837=VECTOR('',#1838,1.);
#1838=DIRECTION('',(1.,-2.7755575615629E-16,1.38777878078145E-16));
#1839=CARTESIAN_POINT('',(21.,17.,1.4));
#1840=CARTESIAN_POINT('',(21.,-17.,1.4));
#1841=CARTESIAN_POINT('',(21.,17.,1.4));
#1842=VECTOR('',#1843,1.);
#1843=DIRECTION('',(0.,-1.,0.));
#1844=CARTESIAN_POINT('',(21.,-17.,-15.));
#1845=CARTESIAN_POINT('',(21.,-17.,1.4));
#1846=VECTOR('',#1847,1.);
#1847=DIRECTION('',(0.,0.,-1.));
#1848=CARTESIAN_POINT('',(21.,17.,-15.));
#1849=CARTESIAN_POINT('',(21.,17.,-15.));
#1850=VECTOR('',#1851,1.);
#1851=DIRECTION('',(0.,-1.,0.));
#1852=CARTESIAN_POINT('',(21.,17.,1.4));
#1853=VECTOR('',#1854,1.);
#1854=DIRECTION('',(4.33257765707378E-16,0.,-1.));
#1855=CARTESIAN_POINT('',(21.,-8.5,-12.85));
#1856=AXIS2_PLACEMENT_3D('',#1857,#1858,#1859);
#1857=CARTESIAN_POINT('',(21.,-8.5,-7.5));
#1858=DIRECTION('',(1.,0.,0.));
#1859=DIRECTION('',(0.,-1.22464679914735E-16,-1.));
#1860=CARTESIAN_POINT('',(21.,-1.5,-1.5));
#1861=VECTOR('',#1862,1.);
#1862=DIRECTION('',(0.,1.,-1.48029736616688E-16));
#1863=CARTESIAN_POINT('',(12.5,-15.5,1.));
#1864=AXIS2_PLACEMENT_3D('',#1865,#1866,#1867);
#1865=CARTESIAN_POINT('',(15.5,-15.5,1.));
#1866=DIRECTION('',(1.22464679914735E-16,0.,-1.));
#1867=DIRECTION('',(-1.,0.,-1.22464679914735E-16));
#1868=CARTESIAN_POINT('',(-18.5,15.5,0.999999999999998));
#1869=AXIS2_PLACEMENT_3D('',#1870,#1871,#1872);
#1870=CARTESIAN_POINT('',(-15.5,15.5,0.999999999999998));
#1871=DIRECTION('',(1.22464679914735E-16,0.,-1.));
#1872=DIRECTION('',(-1.,0.,-1.22464679914735E-16));
#1873=CARTESIAN_POINT('',(20.,9.12720626412559,-15.));
#1874=CARTESIAN_POINT('',(19.4,9.12720626412559,-14.4));
#1875=VECTOR('',#1876,1.);
#1876=DIRECTION('',(0.707106781186545,0.,-0.70710678118655));
#1877=CARTESIAN_POINT('',(20.,-16.5857864376269,-15.));
#1878=CARTESIAN_POINT('',(20.,-16.5857864376269,-15.));
#1879=VECTOR('',#1880,1.);
#1880=DIRECTION('',(1.38168035125618E-16,1.,-6.90840175628091E-17));
#1881=CARTESIAN_POINT('',(19.4,-16.337258300203,-14.4));
#1882=VECTOR('',#1883,1.);
#1883=DIRECTION('',(0.678598344545844,-0.28108463771482,-0.67859834454585));
#1884=CARTESIAN_POINT('',(16.5857864376269,-20.,-15.));
#1885=CARTESIAN_POINT('',(16.5857864376269,-20.,-15.));
#1886=VECTOR('',#1887,1.);
#1887=DIRECTION('',(-0.281084637714817,0.678598344545849,0.678598344545847));
#1888=CARTESIAN_POINT('',(16.5857864376269,-20.,-15.));
#1889=VECTOR('',#1890,1.);
#1890=DIRECTION('',(0.707106781186547,0.707106781186548,0.));
#1891=CARTESIAN_POINT('',(-9.1272062641256,-20.,-15.));
#1892=CARTESIAN_POINT('',(-9.1272062641256,-20.,-15.));
#1893=VECTOR('',#1894,1.);
#1894=DIRECTION('',(1.,0.,2.07252052688427E-16));
#1895=CARTESIAN_POINT('',(-9.1272062641256,-20.,-15.));
#1896=VECTOR('',#1897,1.);
#1897=DIRECTION('',(2.09345661157838E-15,0.70710678118655,0.707106781186545));
#1898=CARTESIAN_POINT('',(16.7514718625761,-20.4,2.));
#1899=CARTESIAN_POINT('',(16.7514718625761,-20.4,2.));
#1900=VECTOR('',#1901,1.);
#1901=DIRECTION('',(0.281084637714817,-0.678598344545849,-0.678598344545847));
#1902=CARTESIAN_POINT('',(-16.7514718625761,-20.4,2.));
#1903=CARTESIAN_POINT('',(16.7514718625761,-20.4,2.));
#1904=VECTOR('',#1905,1.);
#1905=DIRECTION('',(-1.,0.,-1.25924680773896E-16));
#1906=CARTESIAN_POINT('',(-17.,-21.,1.4));
#1907=VECTOR('',#1908,1.);
#1908=DIRECTION('',(0.281084637714817,0.678598344545849,0.678598344545846));
#1909=CARTESIAN_POINT('',(-21.,-17.,1.4));
#1910=CARTESIAN_POINT('',(-21.,-17.,1.4));
#1911=VECTOR('',#1912,1.);
#1912=DIRECTION('',(0.707106781186548,-0.707106781186547,-3.92523114670943E-17));
#1913=CARTESIAN_POINT('',(-21.,-17.,-15.));
#1914=CARTESIAN_POINT('',(-21.,-17.,1.4));
#1915=VECTOR('',#1916,1.);
#1916=DIRECTION('',(2.16628882853689E-16,0.,-1.));
#1917=CARTESIAN_POINT('',(-17.,-21.,-15.));
#1918=VECTOR('',#1919,1.);
#1919=DIRECTION('',(-0.707106781186547,0.707106781186548,-3.14018491736755E-16));
#1920=CARTESIAN_POINT('',(17.,21.,-15.));
#1921=CARTESIAN_POINT('',(17.,21.,-15.));
#1922=VECTOR('',#1923,1.);
#1923=DIRECTION('',(0.707106781186548,-0.707106781186547,0.));
#1924=CARTESIAN_POINT('',(21.,-17.,-15.));
#1925=VECTOR('',#1926,1.);
#1926=DIRECTION('',(-0.707106781186547,-0.707106781186548,0.));
#1927=CARTESIAN_POINT('',(-21.,17.,-15.));
#1928=CARTESIAN_POINT('',(-21.,-17.,-15.));
#1929=VECTOR('',#1930,1.);
#1930=DIRECTION('',(0.,1.,0.));
#1931=CARTESIAN_POINT('',(-17.,21.,-15.));
#1932=CARTESIAN_POINT('',(-21.,17.,-15.));
#1933=VECTOR('',#1934,1.);
#1934=DIRECTION('',(0.707106781186547,0.707106781186548,0.));
#1935=CARTESIAN_POINT('',(-17.,21.,-15.));
#1936=VECTOR('',#1937,1.);
#1937=DIRECTION('',(1.,2.089831575765E-16,1.0449157878825E-16));
#1938=CARTESIAN_POINT('',(-20.,16.5857864376269,-15.));
#1939=CARTESIAN_POINT('',(-20.,-9.1272062641256,-15.));
#1940=CARTESIAN_POINT('',(-20.,16.5857864376269,-15.));
#1941=VECTOR('',#1942,1.);
#1942=DIRECTION('',(0.,-1.,0.));
#1943=CARTESIAN_POINT('',(-16.6571428571428,-11.6188248676254,-15.));
#1944=AXIS2_PLACEMENT_3D('',#1945,#1946,#1947);
#1945=CARTESIAN_POINT('',(-17.4,-9.1272062641256,-15.));
#1946=DIRECTION('',(-1.22464679914735E-16,0.,1.));
#1947=DIRECTION('',(-1.,0.,-1.22464679914735E-16));
#1948=CARTESIAN_POINT('',(-11.6188248676254,-16.6571428571429,-15.));
#1949=AXIS2_PLACEMENT_3D('',#1950,#1951,#1952);
#1950=CARTESIAN_POINT('',(-15.5,-15.5,-15.));
#1951=DIRECTION('',(1.22464679914735E-16,0.,-1.));
#1952=DIRECTION('',(-0.285714285714285,0.95831484749991,-3.49899085470671E-17));
#1953=AXIS2_PLACEMENT_3D('',#1954,#1955,#1956);
#1954=CARTESIAN_POINT('',(-9.1272062641256,-17.4,-15.));
#1955=DIRECTION('',(-1.22464679914735E-16,6.16297582203915E-33,1.));
#1956=DIRECTION('',(-0.95831484749991,0.285714285714286,-1.17359721056615E-16));
#1957=CARTESIAN_POINT('',(16.6571428571429,11.6188248676254,-15.));
#1958=AXIS2_PLACEMENT_3D('',#1959,#1960,#1961);
#1959=CARTESIAN_POINT('',(17.4,9.1272062641256,-15.));
#1960=DIRECTION('',(-1.22464679914735E-16,0.,1.));
#1961=DIRECTION('',(1.,-6.83214169000097E-16,1.22464679914735E-16));
#1962=CARTESIAN_POINT('',(11.6188248676254,16.6571428571429,-15.));
#1963=AXIS2_PLACEMENT_3D('',#1964,#1965,#1966);
#1964=CARTESIAN_POINT('',(15.5,15.5,-15.));
#1965=DIRECTION('',(1.22464679914735E-16,6.16297582203915E-33,-1.));
#1966=DIRECTION('',(0.285714285714287,-0.958314847499909,3.49899085470674E-17));
#1967=CARTESIAN_POINT('',(9.1272062641256,20.,-15.));
#1968=AXIS2_PLACEMENT_3D('',#1969,#1970,#1971);
#1969=CARTESIAN_POINT('',(9.1272062641256,17.4,-15.));
#1970=DIRECTION('',(-1.22464679914735E-16,0.,1.));
#1971=DIRECTION('',(0.958314847499908,-0.28571428571429,1.17359721056615E-16));
#1972=CARTESIAN_POINT('',(-16.5857864376269,20.,-15.));
#1973=CARTESIAN_POINT('',(9.1272062641256,20.,-15.));
#1974=VECTOR('',#1975,1.);
#1975=DIRECTION('',(-1.,-1.38168035125618E-16,-2.07252052688427E-16));
#1976=CARTESIAN_POINT('',(-16.5857864376269,20.,-15.));
#1977=VECTOR('',#1978,1.);
#1978=DIRECTION('',(-0.707106781186547,-0.707106781186548,0.));
#1979=CARTESIAN_POINT('',(-18.2,-15.5,-15.));
#1980=AXIS2_PLACEMENT_3D('',#1981,#1982,#1983);
#1981=CARTESIAN_POINT('',(-15.5,-15.5,-15.));
#1982=DIRECTION('',(1.22464679914735E-16,0.,-1.));
#1983=DIRECTION('',(-1.,0.,-1.22464679914735E-16));
#1984=CARTESIAN_POINT('',(12.8,15.5,-15.));
#1985=AXIS2_PLACEMENT_3D('',#1986,#1987,#1988);
#1986=CARTESIAN_POINT('',(15.5,15.5,-15.));
#1987=DIRECTION('',(1.22464679914735E-16,0.,-1.));
#1988=DIRECTION('',(-1.,0.,-1.22464679914735E-16));
#1989=CARTESIAN_POINT('',(17.,-21.,1.4));
#1990=VECTOR('',#1991,1.);
#1991=DIRECTION('',(0.707106781186546,0.707106781186549,3.92523114670943E-17));
#1992=CARTESIAN_POINT('',(-11.6188248676254,-16.6571428571429,-15.));
#1993=VECTOR('',#1994,1.);
#1994=DIRECTION('',(0.677630927178937,-0.202030508910441,0.707106781186549));
#1995=CARTESIAN_POINT('',(-16.6571428571428,-11.6188248676254,-15.));
#1996=VECTOR('',#1997,1.);
#1997=DIRECTION('',(-0.202030508910446,0.67763092717894,0.707106781186545));
#1998=CARTESIAN_POINT('',(-19.4,-9.1272062641256,-14.4));
#1999=VECTOR('',#2000,1.);
#2000=DIRECTION('',(-0.707106781186545,-2.09345661157837E-15,-0.70710678118655));
#2001=CARTESIAN_POINT('',(-19.4,16.337258300203,-14.4));
#2002=VECTOR('',#2003,1.);
#2003=DIRECTION('',(-0.678598344545842,0.281084637714829,-0.678598344545848));
#2004=CARTESIAN_POINT('',(-16.337258300203,19.4,-14.4));
#2005=VECTOR('',#2006,1.);
#2006=DIRECTION('',(-0.28108463771482,0.678598344545848,-0.678598344545846));
#2007=CARTESIAN_POINT('',(9.1272062641256,20.,-15.));
#2008=VECTOR('',#2009,1.);
#2009=DIRECTION('',(2.09345661157836E-15,-0.707106781186549,0.707106781186546));
#2010=CARTESIAN_POINT('',(11.6188248676254,16.6571428571429,-15.));
#2011=VECTOR('',#2012,1.);
#2012=DIRECTION('',(-0.677630927178936,0.202030508910442,0.70710678118655));
#2013=CARTESIAN_POINT('',(16.6571428571429,11.6188248676254,-15.));
#2014=VECTOR('',#2015,1.);
#2015=DIRECTION('',(0.202030508910441,-0.677630927178938,0.707106781186548));
#2016=CARTESIAN_POINT('',(20.4,16.7514718625762,2.));
#2017=CARTESIAN_POINT('',(20.4,16.7514718625762,2.));
#2018=VECTOR('',#2019,1.);
#2019=DIRECTION('',(0.678598344545843,0.281084637714826,-0.678598344545848));
#2020=CARTESIAN_POINT('',(20.4,-16.7514718625761,2.));
#2021=CARTESIAN_POINT('',(20.4,16.7514718625762,2.));
#2022=VECTOR('',#2023,1.);
#2023=DIRECTION('',(0.,-1.,0.));
#2024=CARTESIAN_POINT('',(21.,-17.,1.4));
#2025=VECTOR('',#2026,1.);
#2026=DIRECTION('',(-0.678598344545845,0.281084637714818,0.67859834454585));
#2027=CARTESIAN_POINT('',(17.,21.,1.4));
#2028=CARTESIAN_POINT('',(21.,17.,1.4));
#2029=VECTOR('',#2030,1.);
#2030=DIRECTION('',(-0.707106781186549,0.707106781186546,-3.92523114670944E-17));
#2031=CARTESIAN_POINT('',(17.,21.,1.4));
#2032=VECTOR('',#2033,1.);
#2033=DIRECTION('',(2.16628882853689E-16,0.,-1.));
#2034=CARTESIAN_POINT('',(13.85,-15.5,1.));
#2035=AXIS2_PLACEMENT_3D('',#2036,#2037,#2038);
#2036=CARTESIAN_POINT('',(15.5,-15.5,1.));
#2037=DIRECTION('',(1.22464679914735E-16,0.,-1.));
#2038=DIRECTION('',(-1.,0.,-1.22464679914735E-16));
#2039=CARTESIAN_POINT('',(-17.15,15.5,0.999999999999998));
#2040=AXIS2_PLACEMENT_3D('',#2041,#2042,#2043);
#2041=CARTESIAN_POINT('',(-15.5,15.5,0.999999999999998));
#2042=DIRECTION('',(1.22464679914735E-16,0.,-1.));
#2043=DIRECTION('',(-1.,0.,-1.22464679914735E-16));
#2044=CARTESIAN_POINT('',(16.7514718625761,-20.4,2.));
#2045=VECTOR('',#2046,1.);
#2046=DIRECTION('',(0.707106781186547,0.707106781186549,8.6067170077651E-17));
#2047=CARTESIAN_POINT('',(16.7514718625761,20.4,2.));
#2048=CARTESIAN_POINT('',(20.4,16.7514718625762,2.));
#2049=VECTOR('',#2050,1.);
#2050=DIRECTION('',(-0.707106781186548,0.707106781186547,0.));
#2051=CARTESIAN_POINT('',(-16.7514718625761,20.4,2.));
#2052=CARTESIAN_POINT('',(-16.7514718625761,20.4,2.));
#2053=VECTOR('',#2054,1.);
#2054=DIRECTION('',(1.,2.12083672882351E-16,1.19297065996322E-16));
#2055=CARTESIAN_POINT('',(-20.4,16.7514718625761,2.));
#2056=CARTESIAN_POINT('',(-16.7514718625761,20.4,2.));
#2057=VECTOR('',#2058,1.);
#2058=DIRECTION('',(-0.707106781186546,-0.707106781186548,-4.30335850388254E-17));
#2059=CARTESIAN_POINT('',(-20.4,-16.7514718625762,2.));
#2060=CARTESIAN_POINT('',(-20.4,-16.7514718625762,2.));
#2061=VECTOR('',#2062,1.);
#2062=DIRECTION('',(-2.12083672882351E-16,1.,-6.62761477757346E-18));
#2063=CARTESIAN_POINT('',(-20.4,-16.7514718625762,2.));
#2064=VECTOR('',#2065,1.);
#2065=DIRECTION('',(0.707106781186548,-0.707106781186547,4.30335850388256E-17));
#2066=CARTESIAN_POINT('',(13.25,-15.5,2.));
#2067=AXIS2_PLACEMENT_3D('',#2068,#2069,#2070);
#2068=CARTESIAN_POINT('',(15.5,-15.5,2.));
#2069=DIRECTION('',(1.22464679914735E-16,0.,-1.));
#2070=DIRECTION('',(-1.,0.,-1.22464679914735E-16));
#2071=CARTESIAN_POINT('',(-17.75,15.5,2.));
#2072=AXIS2_PLACEMENT_3D('',#2073,#2074,#2075);
#2073=CARTESIAN_POINT('',(-15.5,15.5,2.));
#2074=DIRECTION('',(1.22464679914735E-16,0.,-1.));
#2075=DIRECTION('',(-1.,0.,-1.22464679914735E-16));
#2076=CARTESIAN_POINT('',(13.25,15.5,2.));
#2077=AXIS2_PLACEMENT_3D('',#2078,#2079,#2080);
#2078=CARTESIAN_POINT('',(15.5,15.5,2.));
#2079=DIRECTION('',(1.22464679914735E-16,0.,-1.));
#2080=DIRECTION('',(-1.,0.,-1.22464679914735E-16));
#2081=CARTESIAN_POINT('',(-17.75,-15.5,2.));
#2082=AXIS2_PLACEMENT_3D('',#2083,#2084,#2085);
#2083=CARTESIAN_POINT('',(-15.5,-15.5,2.));
#2084=DIRECTION('',(1.22464679914735E-16,0.,-1.));
#2085=DIRECTION('',(-1.,0.,-1.22464679914735E-16));
#2086=CARTESIAN_POINT('',(-20.4,-16.7514718625762,2.));
#2087=VECTOR('',#2088,1.);
#2088=DIRECTION('',(-0.67859834454585,-0.281084637714817,-0.678598344545845));
#2089=CARTESIAN_POINT('',(-21.,17.,1.4));
#2090=CARTESIAN_POINT('',(-21.,-17.,1.4));
#2091=VECTOR('',#2092,1.);
#2092=DIRECTION('',(-1.0449157878825E-16,1.,0.));
#2093=CARTESIAN_POINT('',(-21.,17.,1.4));
#2094=VECTOR('',#2095,1.);
#2095=DIRECTION('',(0.,0.,-1.));
#2096=CARTESIAN_POINT('',(-17.,21.,1.4));
#2097=CARTESIAN_POINT('',(-17.,21.,1.4));
#2098=VECTOR('',#2099,1.);
#2099=DIRECTION('',(-0.707106781186547,-0.707106781186548,-3.92523114670943E-17));
#2100=CARTESIAN_POINT('',(-17.,21.,1.4));
#2101=VECTOR('',#2102,1.);
#2102=DIRECTION('',(0.,2.16628882853689E-16,-1.));
#2103=CARTESIAN_POINT('',(-17.,21.,1.4));
#2104=VECTOR('',#2105,1.);
#2105=DIRECTION('',(1.,1.0449157878825E-16,1.17553026136781E-16));
#2106=CARTESIAN_POINT('',(-17.6,-15.5,-14.4));
#2107=AXIS2_PLACEMENT_3D('',#2108,#2109,#2110);
#2108=CARTESIAN_POINT('',(-15.5,-15.5,-14.4));
#2109=DIRECTION('',(1.22464679914735E-16,0.,-1.));
#2110=DIRECTION('',(-1.,0.,-1.22464679914735E-16));
#2111=CARTESIAN_POINT('',(13.4,15.5,-14.4));
#2112=AXIS2_PLACEMENT_3D('',#2113,#2114,#2115);
#2113=CARTESIAN_POINT('',(15.5,15.5,-14.4));
#2114=DIRECTION('',(1.22464679914735E-16,0.,-1.));
#2115=DIRECTION('',(-1.,0.,-1.22464679914735E-16));
#2116=CARTESIAN_POINT('',(17.,21.,1.4));
#2117=VECTOR('',#2118,1.);
#2118=DIRECTION('',(-0.281084637714817,-0.678598344545849,0.678598344545846));
#2119=CARTESIAN_POINT('',(13.85,-15.5,1.4));
#2120=AXIS2_PLACEMENT_3D('',#2121,#2122,#2123);
#2121=CARTESIAN_POINT('',(15.5,-15.5,1.4));
#2122=DIRECTION('',(1.22464679914735E-16,0.,-1.));
#2123=DIRECTION('',(-1.,0.,-1.22464679914735E-16));
#2124=CARTESIAN_POINT('',(-17.15,15.5,1.4));
#2125=AXIS2_PLACEMENT_3D('',#2126,#2127,#2128);
#2126=CARTESIAN_POINT('',(-15.5,15.5,1.4));
#2127=DIRECTION('',(1.22464679914735E-16,0.,-1.));
#2128=DIRECTION('',(-1.,0.,-1.22464679914735E-16));
#2129=CARTESIAN_POINT('',(-16.7514718625761,20.4,2.));
#2130=VECTOR('',#2131,1.);
#2131=DIRECTION('',(-0.281084637714825,0.678598344545846,-0.678598344545846));
#2132=CARTESIAN_POINT('',(-21.,17.,1.4));
#2133=VECTOR('',#2134,1.);
#2134=DIRECTION('',(0.678598344545848,-0.281084637714818,0.678598344545847));
#2135=CARTESIAN_POINT('',(15.5,17.15,1.4));
#2136=CARTESIAN_POINT('',(13.85,15.5,1.4));
#2137=AXIS2_PLACEMENT_3D('',#2138,#2139,#2140);
#2138=CARTESIAN_POINT('',(15.5,15.5,1.4));
#2139=DIRECTION('',(1.22464679914735E-16,0.,-1.));
#2140=DIRECTION('',(0.,1.,0.));
#2141=AXIS2_PLACEMENT_3D('',#2142,#2143,#2144);
#2142=CARTESIAN_POINT('',(15.5,15.5,1.4));
#2143=DIRECTION('',(1.22464679914735E-16,0.,-1.));
#2144=DIRECTION('',(-1.,0.,-1.22464679914735E-16));
#2145=CARTESIAN_POINT('',(-15.5,-13.85,1.4));
#2146=CARTESIAN_POINT('',(-17.15,-15.5,1.4));
#2147=AXIS2_PLACEMENT_3D('',#2148,#2149,#2150);
#2148=CARTESIAN_POINT('',(-15.5,-15.5,1.4));
#2149=DIRECTION('',(1.22464679914735E-16,0.,-1.));
#2150=DIRECTION('',(0.,1.,0.));
#2151=AXIS2_PLACEMENT_3D('',#2152,#2153,#2154);
#2152=CARTESIAN_POINT('',(-15.5,-15.5,1.4));
#2153=DIRECTION('',(1.22464679914735E-16,0.,-1.));
#2154=DIRECTION('',(-1.,0.,-1.22464679914735E-16));
#2155=CARTESIAN_POINT('',(-17.6,-15.5,-9.));
#2156=AXIS2_PLACEMENT_3D('',#2157,#2158,#2159);
#2157=CARTESIAN_POINT('',(-15.5,-15.5,-9.));
#2158=DIRECTION('',(1.22464679914735E-16,0.,-1.));
#2159=DIRECTION('',(-1.,0.,-1.22464679914735E-16));
#2160=CARTESIAN_POINT('',(13.4,15.5,-9.));
#2161=AXIS2_PLACEMENT_3D('',#2162,#2163,#2164);
#2162=CARTESIAN_POINT('',(15.5,15.5,-9.));
#2163=DIRECTION('',(1.22464679914735E-16,0.,-1.));
#2164=DIRECTION('',(-1.,0.,-1.22464679914735E-16));
#2165=CARTESIAN_POINT('',(15.5,17.15,-9.));
#2166=AXIS2_PLACEMENT_3D('',#2167,#2168,#2169);
#2167=CARTESIAN_POINT('',(15.5,15.5,-9.));
#2168=DIRECTION('',(1.22464679914735E-16,0.,-1.));
#2169=DIRECTION('',(1.83697019872103E-16,1.,2.24963967399279E-32));
#2170=CARTESIAN_POINT('',(-15.5,-13.85,-9.));
#2171=AXIS2_PLACEMENT_3D('',#2172,#2173,#2174);
#2172=CARTESIAN_POINT('',(-15.5,-15.5,-9.));
#2173=DIRECTION('',(1.22464679914735E-16,0.,-1.));
#2174=DIRECTION('',(1.83697019872103E-16,1.,2.24963967399279E-32));
ENDSEC;
END-ISO-10303-21;
