ISO-10303-21;
HEADER;
FILE_DESCRIPTION(('STEP AP242'),
    '1');
FILE_NAME('MotorBaseNew',
    '',
    ('UNSPECIFIED'),
    ('UNSPECIFIED'),
    'C3D Converter',
    'C3D Toolkit',
    '');
FILE_SCHEMA(('AP242_MANAGED_MODEL_BASED_3D_ENGINEERING_MIM_LF { 1 0 10303 442 1 1 4 }'));
ENDSEC;

DATA;
#1=PRODUCT_DEFINITION('','UNSPECIFIED',#28,#31);
#2=SHAPE_DEFINITION_REPRESENTATION(#26,#3);
#3=SHAPE_REPRESENTATION('NONE',(#4),#8);
#4=AXIS2_PLACEMENT_3D('',#5,#6,#7);
#5=CARTESIAN_POINT('',(0.,0.,0.));
#6=DIRECTION('',(0.,0.,1.));
#7=DIRECTION('',(1.,0.,0.));
#8=(GEOMETRIC_REPRESENTATION_CONTEXT(3)GLOBAL_UNCERTAINTY_ASSIGNED_CONTEXT((#10))
GLOBAL_UNIT_ASSIGNED_CONTEXT((#9,#11,#12))REPRESENTATION_CONTEXT('NONE','NONE'));
#9=(LENGTH_UNIT()NAMED_UNIT(*)SI_UNIT(.MILLI.,.METRE.));
#10=UNCERTAINTY_MEASURE_WITH_UNIT(LENGTH_MEASURE(1.E-5),#9,'NONE','NONE');
#11=(NAMED_UNIT(*)PLANE_ANGLE_UNIT()SI_UNIT($,.RADIAN.));
#12=(NAMED_UNIT(*)SI_UNIT($,.STERADIAN.)SOLID_ANGLE_UNIT());
#13=MANIFOLD_SOLID_BREP('',#14);
#14=CLOSED_SHELL('',(#53,#54,#55,#56,#57,#58,#59,#60,#61,#62,#63,#64,#65,#66,#67,
#68,#69,#70,#71,#72,#73,#74,#75,#76,#77,#78,#79,#80,#81,#82,#83,#84,#85,#86,#87,
#88,#89,#90,#91,#92,#93,#94,#95,#96,#97,#98,#99,#100,#101,#102,#103,#104,#105,#106,
#107,#108,#109,#110,#111,#112,#113));
#15=COLOUR_RGB('',0.564705882352941,0.564705882352941,0.564705882352941);
#16=FILL_AREA_STYLE_COLOUR('',#15);
#17=FILL_AREA_STYLE($,(#16));
#18=SURFACE_STYLE_FILL_AREA(#17);
#19=SURFACE_SIDE_STYLE('',(#18));
#20=SURFACE_STYLE_USAGE(.BOTH.,#19);
#21=PRESENTATION_STYLE_ASSIGNMENT((#20));
#22=MECHANICAL_DESIGN_GEOMETRIC_PRESENTATION_REPRESENTATION('NONE',(#23),#8);
#23=STYLED_ITEM('',(#21),#13);
#24=ADVANCED_BREP_SHAPE_REPRESENTATION('NONE',(#13),#8);
#25=SHAPE_REPRESENTATION_RELATIONSHIP('','',#3,#24);
#26=PRODUCT_DEFINITION_SHAPE('NONE','NONE',#1);
#27=MECHANICAL_CONTEXT('NONE',#32,'mechanical');
#28=PRODUCT_DEFINITION_FORMATION_WITH_SPECIFIED_SOURCE('ANY','UNSPECIFIED',#29,.NOT_KNOWN.);
#29=PRODUCT('','\X2\0414043504420430043B044C\X0\','NONE',(#27));
#30=PRODUCT_RELATED_PRODUCT_CATEGORY('detail','',(#29));
#31=DESIGN_CONTEXT('detailed design',#32,'design');
#32=APPLICATION_CONTEXT('configuration controlled 3d designs of mechanical parts and assemblies');
#33=APPLICATION_PROTOCOL_DEFINITION('international standard','config_control_design',
1994,#32);
#34=CC_DESIGN_DATE_AND_TIME_ASSIGNMENT(#35,#39,(#1));
#35=DATE_AND_TIME(#36,#37);
#36=CALENDAR_DATE(0,1,1);
#37=LOCAL_TIME(0,0,0.,#38);
#38=COORDINATED_UNIVERSAL_TIME_OFFSET(0,0,.AHEAD.);
#39=DATE_TIME_ROLE('creation_date');
#40=CC_DESIGN_APPROVAL(#41,(#1));
#41=APPROVAL(#42,'UNSPECIFIED');
#42=APPROVAL_STATUS('not_yet_approved');
#43=APPROVAL_DATE_TIME(#44,#41);
#44=DATE_AND_TIME(#45,#46);
#45=CALENDAR_DATE(0,1,1);
#46=LOCAL_TIME(0,0,0.,#47);
#47=COORDINATED_UNIVERSAL_TIME_OFFSET(0,0,.AHEAD.);
#48=PERSON('UNSPECIFIED','ledibonibell','UNSPECIFIED',('UNSPECIFIED'),('UNSPECIFIED'),
('UNSPECIFIED'));
#49=ORGANIZATION('UNSPECIFIED','UNSPECIFIED','UNSPECIFIED');
#50=PERSON_AND_ORGANIZATION(#48,#49);
#51=PERSON_AND_ORGANIZATION_ROLE('creator');
#52=CC_DESIGN_PERSON_AND_ORGANIZATION_ASSIGNMENT(#50,#51,(#28,#1));
#53=ADVANCED_FACE('',(#114,#116),#118,.F.);
#54=ADVANCED_FACE('',(#123,#125),#127,.F.);
#55=ADVANCED_FACE('',(#132,#134),#136,.F.);
#56=ADVANCED_FACE('',(#141,#143),#145,.F.);
#57=ADVANCED_FACE('',(#150,#152,#154,#156,#158,#160,#162,#164,#166,#168),#170,.F.);
#58=ADVANCED_FACE('',(#175,#177),#179,.T.);
#59=ADVANCED_FACE('',(#184,#186),#188,.F.);
#60=ADVANCED_FACE('',(#193,#195),#197,.T.);
#61=ADVANCED_FACE('',(#202,#204),#206,.F.);
#62=ADVANCED_FACE('',(#211,#213),#215,.T.);
#63=ADVANCED_FACE('',(#220,#222),#224,.F.);
#64=ADVANCED_FACE('',(#229,#231),#233,.T.);
#65=ADVANCED_FACE('',(#238,#240),#242,.F.);
#66=ADVANCED_FACE('',(#247,#249,#251,#253,#255,#257,#259,#261,#263,#265),#267,.T.);
#67=ADVANCED_FACE('',(#272),#274,.T.);
#68=ADVANCED_FACE('',(#279),#281,.T.);
#69=ADVANCED_FACE('',(#286),#288,.T.);
#70=ADVANCED_FACE('',(#293),#295,.T.);
#71=ADVANCED_FACE('',(#300),#302,.T.);
#72=ADVANCED_FACE('',(#307),#309,.T.);
#73=ADVANCED_FACE('',(#314),#316,.T.);
#74=ADVANCED_FACE('',(#321),#323,.T.);
#75=ADVANCED_FACE('',(#328,#330),#332,.F.);
#76=ADVANCED_FACE('',(#337,#339),#341,.F.);
#77=ADVANCED_FACE('',(#346,#348),#350,.F.);
#78=ADVANCED_FACE('',(#355,#357),#359,.F.);
#79=ADVANCED_FACE('',(#364,#366),#368,.F.);
#80=ADVANCED_FACE('',(#373,#375),#377,.F.);
#81=ADVANCED_FACE('',(#382,#384),#386,.F.);
#82=ADVANCED_FACE('',(#391),#393,.F.);
#83=ADVANCED_FACE('',(#398),#400,.T.);
#84=ADVANCED_FACE('',(#405),#407,.F.);
#85=ADVANCED_FACE('',(#412),#414,.T.);
#86=ADVANCED_FACE('',(#419),#421,.F.);
#87=ADVANCED_FACE('',(#426),#428,.T.);
#88=ADVANCED_FACE('',(#433),#435,.F.);
#89=ADVANCED_FACE('',(#440),#442,.T.);
#90=ADVANCED_FACE('',(#447),#449,.T.);
#91=ADVANCED_FACE('',(#454),#456,.T.);
#92=ADVANCED_FACE('',(#461),#463,.T.);
#93=ADVANCED_FACE('',(#468),#470,.T.);
#94=ADVANCED_FACE('',(#475),#477,.T.);
#95=ADVANCED_FACE('',(#482),#484,.T.);
#96=ADVANCED_FACE('',(#489),#491,.T.);
#97=ADVANCED_FACE('',(#496),#498,.T.);
#98=ADVANCED_FACE('',(#503,#505),#507,.F.);
#99=ADVANCED_FACE('',(#512,#514),#516,.F.);
#100=ADVANCED_FACE('',(#521,#523),#525,.F.);
#101=ADVANCED_FACE('',(#530,#532),#534,.F.);
#102=ADVANCED_FACE('',(#539,#541),#543,.F.);
#103=ADVANCED_FACE('',(#548,#550),#552,.F.);
#104=ADVANCED_FACE('',(#557,#559),#561,.F.);
#105=ADVANCED_FACE('',(#566,#568),#570,.F.);
#106=ADVANCED_FACE('',(#575,#577),#579,.F.);
#107=ADVANCED_FACE('',(#584,#586),#588,.F.);
#108=ADVANCED_FACE('',(#593,#595),#597,.F.);
#109=ADVANCED_FACE('',(#602,#604),#606,.F.);
#110=ADVANCED_FACE('',(#611,#613),#615,.F.);
#111=ADVANCED_FACE('',(#620,#622),#624,.F.);
#112=ADVANCED_FACE('',(#629,#631),#633,.F.);
#113=ADVANCED_FACE('',(#638,#640),#642,.F.);
#114=FACE_OUTER_BOUND('',#115,.T.);
#115=EDGE_LOOP('',(#647));
#116=FACE_OUTER_BOUND('',#117,.T.);
#117=EDGE_LOOP('',(#648));
#118=CYLINDRICAL_SURFACE('',#119,1.65);
#119=AXIS2_PLACEMENT_3D('',#120,#121,#122);
#120=CARTESIAN_POINT('',(17.5,-17.5,-5.));
#121=DIRECTION('',(0.,0.,1.));
#122=DIRECTION('',(6.12323399573677E-17,-1.,0.));
#123=FACE_OUTER_BOUND('',#124,.T.);
#124=EDGE_LOOP('',(#649));
#125=FACE_OUTER_BOUND('',#126,.T.);
#126=EDGE_LOOP('',(#650));
#127=CYLINDRICAL_SURFACE('',#128,1.65);
#128=AXIS2_PLACEMENT_3D('',#129,#130,#131);
#129=CARTESIAN_POINT('',(17.5,17.5,-5.));
#130=DIRECTION('',(0.,0.,1.));
#131=DIRECTION('',(6.12323399573677E-17,-1.,0.));
#132=FACE_OUTER_BOUND('',#133,.T.);
#133=EDGE_LOOP('',(#651));
#134=FACE_OUTER_BOUND('',#135,.T.);
#135=EDGE_LOOP('',(#652));
#136=CYLINDRICAL_SURFACE('',#137,1.65);
#137=AXIS2_PLACEMENT_3D('',#138,#139,#140);
#138=CARTESIAN_POINT('',(-17.5,17.5,-5.));
#139=DIRECTION('',(0.,0.,1.));
#140=DIRECTION('',(6.12323399573677E-17,-1.,0.));
#141=FACE_OUTER_BOUND('',#142,.T.);
#142=EDGE_LOOP('',(#653));
#143=FACE_OUTER_BOUND('',#144,.T.);
#144=EDGE_LOOP('',(#654));
#145=CYLINDRICAL_SURFACE('',#146,1.65);
#146=AXIS2_PLACEMENT_3D('',#147,#148,#149);
#147=CARTESIAN_POINT('',(-17.5,-17.5,-5.));
#148=DIRECTION('',(0.,0.,1.));
#149=DIRECTION('',(6.12323399573677E-17,-1.,0.));
#150=FACE_BOUND('',#151,.T.);
#151=EDGE_LOOP('',(#655,#656,#657,#658,#659,#660,#661,#662));
#152=FACE_BOUND('',#153,.T.);
#153=EDGE_LOOP('',(#663));
#154=FACE_BOUND('',#155,.T.);
#155=EDGE_LOOP('',(#664));
#156=FACE_BOUND('',#157,.T.);
#157=EDGE_LOOP('',(#665));
#158=FACE_BOUND('',#159,.T.);
#159=EDGE_LOOP('',(#666));
#160=FACE_BOUND('',#161,.T.);
#161=EDGE_LOOP('',(#667));
#162=FACE_BOUND('',#163,.T.);
#163=EDGE_LOOP('',(#668));
#164=FACE_BOUND('',#165,.T.);
#165=EDGE_LOOP('',(#669));
#166=FACE_BOUND('',#167,.T.);
#167=EDGE_LOOP('',(#670));
#168=FACE_BOUND('',#169,.T.);
#169=EDGE_LOOP('',(#671));
#170=PLANE('',#171);
#171=AXIS2_PLACEMENT_3D('',#172,#173,#174);
#172=CARTESIAN_POINT('',(0.,0.,0.));
#173=DIRECTION('',(0.,0.,1.));
#174=DIRECTION('',(6.12323399573677E-17,-1.,0.));
#175=FACE_BOUND('',#176,.T.);
#176=EDGE_LOOP('',(#672));
#177=FACE_BOUND('',#178,.T.);
#178=EDGE_LOOP('',(#673));
#179=PLANE('',#180);
#180=AXIS2_PLACEMENT_3D('',#181,#182,#183);
#181=CARTESIAN_POINT('',(0.,0.,1.2));
#182=DIRECTION('',(0.,0.,-1.));
#183=DIRECTION('',(-6.12323399573677E-17,1.,0.));
#184=FACE_OUTER_BOUND('',#185,.T.);
#185=EDGE_LOOP('',(#674));
#186=FACE_OUTER_BOUND('',#187,.T.);
#187=EDGE_LOOP('',(#675));
#188=CYLINDRICAL_SURFACE('',#189,3.);
#189=AXIS2_PLACEMENT_3D('',#190,#191,#192);
#190=CARTESIAN_POINT('',(-17.5,-17.5,1.2));
#191=DIRECTION('',(0.,0.,-1.));
#192=DIRECTION('',(-6.12323399573676E-17,1.,0.));
#193=FACE_BOUND('',#194,.T.);
#194=EDGE_LOOP('',(#676));
#195=FACE_BOUND('',#196,.T.);
#196=EDGE_LOOP('',(#677));
#197=PLANE('',#198);
#198=AXIS2_PLACEMENT_3D('',#199,#200,#201);
#199=CARTESIAN_POINT('',(0.,0.,1.2));
#200=DIRECTION('',(0.,0.,-1.));
#201=DIRECTION('',(-6.12323399573677E-17,1.,0.));
#202=FACE_OUTER_BOUND('',#203,.T.);
#203=EDGE_LOOP('',(#678));
#204=FACE_OUTER_BOUND('',#205,.T.);
#205=EDGE_LOOP('',(#679));
#206=CYLINDRICAL_SURFACE('',#207,3.);
#207=AXIS2_PLACEMENT_3D('',#208,#209,#210);
#208=CARTESIAN_POINT('',(17.5,17.5,1.2));
#209=DIRECTION('',(0.,0.,-1.));
#210=DIRECTION('',(-6.12323399573676E-17,1.,0.));
#211=FACE_BOUND('',#212,.T.);
#212=EDGE_LOOP('',(#680));
#213=FACE_BOUND('',#214,.T.);
#214=EDGE_LOOP('',(#681));
#215=PLANE('',#216);
#216=AXIS2_PLACEMENT_3D('',#217,#218,#219);
#217=CARTESIAN_POINT('',(0.,0.,1.2));
#218=DIRECTION('',(0.,0.,-1.));
#219=DIRECTION('',(-6.12323399573677E-17,1.,0.));
#220=FACE_OUTER_BOUND('',#221,.T.);
#221=EDGE_LOOP('',(#682));
#222=FACE_OUTER_BOUND('',#223,.T.);
#223=EDGE_LOOP('',(#683));
#224=CYLINDRICAL_SURFACE('',#225,3.);
#225=AXIS2_PLACEMENT_3D('',#226,#227,#228);
#226=CARTESIAN_POINT('',(17.5,-17.5,1.2));
#227=DIRECTION('',(0.,0.,-1.));
#228=DIRECTION('',(-6.12323399573676E-17,1.,0.));
#229=FACE_BOUND('',#230,.T.);
#230=EDGE_LOOP('',(#684));
#231=FACE_BOUND('',#232,.T.);
#232=EDGE_LOOP('',(#685));
#233=PLANE('',#234);
#234=AXIS2_PLACEMENT_3D('',#235,#236,#237);
#235=CARTESIAN_POINT('',(0.,0.,1.2));
#236=DIRECTION('',(0.,0.,-1.));
#237=DIRECTION('',(-6.12323399573677E-17,1.,0.));
#238=FACE_OUTER_BOUND('',#239,.T.);
#239=EDGE_LOOP('',(#686));
#240=FACE_OUTER_BOUND('',#241,.T.);
#241=EDGE_LOOP('',(#687));
#242=CYLINDRICAL_SURFACE('',#243,3.);
#243=AXIS2_PLACEMENT_3D('',#244,#245,#246);
#244=CARTESIAN_POINT('',(-17.5,17.5,1.2));
#245=DIRECTION('',(0.,0.,-1.));
#246=DIRECTION('',(-6.12323399573676E-17,1.,0.));
#247=FACE_BOUND('',#248,.T.);
#248=EDGE_LOOP('',(#688,#689,#690,#691,#692,#693,#694,#695));
#249=FACE_BOUND('',#250,.T.);
#250=EDGE_LOOP('',(#696));
#251=FACE_BOUND('',#252,.T.);
#252=EDGE_LOOP('',(#697));
#253=FACE_BOUND('',#254,.T.);
#254=EDGE_LOOP('',(#698));
#255=FACE_BOUND('',#256,.T.);
#256=EDGE_LOOP('',(#699));
#257=FACE_BOUND('',#258,.T.);
#258=EDGE_LOOP('',(#700));
#259=FACE_BOUND('',#260,.T.);
#260=EDGE_LOOP('',(#701));
#261=FACE_BOUND('',#262,.T.);
#262=EDGE_LOOP('',(#702));
#263=FACE_BOUND('',#264,.T.);
#264=EDGE_LOOP('',(#703));
#265=FACE_BOUND('',#266,.T.);
#266=EDGE_LOOP('',(#704));
#267=PLANE('',#268);
#268=AXIS2_PLACEMENT_3D('',#269,#270,#271);
#269=CARTESIAN_POINT('',(0.,0.,5.));
#270=DIRECTION('',(0.,0.,1.));
#271=DIRECTION('',(6.12323399573677E-17,-1.,0.));
#272=FACE_BOUND('',#273,.T.);
#273=EDGE_LOOP('',(#705,#706,#707,#708));
#274=CYLINDRICAL_SURFACE('',#275,4.);
#275=AXIS2_PLACEMENT_3D('',#276,#277,#278);
#276=CARTESIAN_POINT('',(-23.5,23.5,-16.));
#277=DIRECTION('',(0.,0.,-1.));
#278=DIRECTION('',(-1.,0.,0.));
#279=FACE_BOUND('',#280,.T.);
#280=EDGE_LOOP('',(#709,#710,#711,#712));
#281=PLANE('',#282);
#282=AXIS2_PLACEMENT_3D('',#283,#284,#285);
#283=CARTESIAN_POINT('',(27.5,27.5,0.));
#284=DIRECTION('',(0.,1.,0.));
#285=DIRECTION('',(-1.,0.,0.));
#286=FACE_BOUND('',#287,.T.);
#287=EDGE_LOOP('',(#713,#714,#715,#716));
#288=CYLINDRICAL_SURFACE('',#289,4.);
#289=AXIS2_PLACEMENT_3D('',#290,#291,#292);
#290=CARTESIAN_POINT('',(23.5,23.5,-16.));
#291=DIRECTION('',(0.,0.,-1.));
#292=DIRECTION('',(0.,1.,0.));
#293=FACE_BOUND('',#294,.T.);
#294=EDGE_LOOP('',(#717,#718,#719,#720));
#295=PLANE('',#296);
#296=AXIS2_PLACEMENT_3D('',#297,#298,#299);
#297=CARTESIAN_POINT('',(27.5,-27.5,0.));
#298=DIRECTION('',(1.,0.,0.));
#299=DIRECTION('',(0.,1.,0.));
#300=FACE_BOUND('',#301,.T.);
#301=EDGE_LOOP('',(#721,#722,#723,#724));
#302=CYLINDRICAL_SURFACE('',#303,4.);
#303=AXIS2_PLACEMENT_3D('',#304,#305,#306);
#304=CARTESIAN_POINT('',(23.5,-23.5,-16.));
#305=DIRECTION('',(0.,0.,-1.));
#306=DIRECTION('',(1.,0.,0.));
#307=FACE_BOUND('',#308,.T.);
#308=EDGE_LOOP('',(#725,#726,#727,#728));
#309=PLANE('',#310);
#310=AXIS2_PLACEMENT_3D('',#311,#312,#313);
#311=CARTESIAN_POINT('',(-27.5,-27.5,0.));
#312=DIRECTION('',(0.,-1.,0.));
#313=DIRECTION('',(1.,0.,0.));
#314=FACE_BOUND('',#315,.T.);
#315=EDGE_LOOP('',(#729,#730,#731,#732));
#316=CYLINDRICAL_SURFACE('',#317,4.);
#317=AXIS2_PLACEMENT_3D('',#318,#319,#320);
#318=CARTESIAN_POINT('',(-23.5,-23.5,-16.));
#319=DIRECTION('',(0.,0.,-1.));
#320=DIRECTION('',(0.,-1.,0.));
#321=FACE_BOUND('',#322,.T.);
#322=EDGE_LOOP('',(#733,#734,#735,#736));
#323=PLANE('',#324);
#324=AXIS2_PLACEMENT_3D('',#325,#326,#327);
#325=CARTESIAN_POINT('',(-27.5,27.5,0.));
#326=DIRECTION('',(-1.,0.,0.));
#327=DIRECTION('',(0.,-1.,0.));
#328=FACE_OUTER_BOUND('',#329,.T.);
#329=EDGE_LOOP('',(#737));
#330=FACE_OUTER_BOUND('',#331,.T.);
#331=EDGE_LOOP('',(#738));
#332=CYLINDRICAL_SURFACE('',#333,13.);
#333=AXIS2_PLACEMENT_3D('',#334,#335,#336);
#334=CARTESIAN_POINT('',(0.,0.,-5.));
#335=DIRECTION('',(0.,0.,1.));
#336=DIRECTION('',(6.12323399573677E-17,-1.,0.));
#337=FACE_OUTER_BOUND('',#338,.T.);
#338=EDGE_LOOP('',(#739));
#339=FACE_OUTER_BOUND('',#340,.T.);
#340=EDGE_LOOP('',(#740));
#341=CYLINDRICAL_SURFACE('',#342,2.15);
#342=AXIS2_PLACEMENT_3D('',#343,#344,#345);
#343=CARTESIAN_POINT('',(-23.5,-23.5,-5.));
#344=DIRECTION('',(0.,0.,1.));
#345=DIRECTION('',(6.12323399573677E-17,-1.,0.));
#346=FACE_OUTER_BOUND('',#347,.T.);
#347=EDGE_LOOP('',(#741));
#348=FACE_OUTER_BOUND('',#349,.T.);
#349=EDGE_LOOP('',(#742));
#350=CYLINDRICAL_SURFACE('',#351,2.15);
#351=AXIS2_PLACEMENT_3D('',#352,#353,#354);
#352=CARTESIAN_POINT('',(-23.5,23.5,-5.));
#353=DIRECTION('',(0.,0.,1.));
#354=DIRECTION('',(6.12323399573677E-17,-1.,0.));
#355=FACE_OUTER_BOUND('',#356,.T.);
#356=EDGE_LOOP('',(#743));
#357=FACE_OUTER_BOUND('',#358,.T.);
#358=EDGE_LOOP('',(#744));
#359=CYLINDRICAL_SURFACE('',#360,2.15);
#360=AXIS2_PLACEMENT_3D('',#361,#362,#363);
#361=CARTESIAN_POINT('',(23.5,-23.5,-5.));
#362=DIRECTION('',(0.,0.,1.));
#363=DIRECTION('',(6.12323399573677E-17,-1.,0.));
#364=FACE_OUTER_BOUND('',#365,.T.);
#365=EDGE_LOOP('',(#745));
#366=FACE_OUTER_BOUND('',#367,.T.);
#367=EDGE_LOOP('',(#746));
#368=CYLINDRICAL_SURFACE('',#369,2.15);
#369=AXIS2_PLACEMENT_3D('',#370,#371,#372);
#370=CARTESIAN_POINT('',(23.5,23.5,-5.));
#371=DIRECTION('',(0.,0.,1.));
#372=DIRECTION('',(6.12323399573677E-17,-1.,0.));
#373=FACE_OUTER_BOUND('',#374,.T.);
#374=EDGE_LOOP('',(#747));
#375=FACE_OUTER_BOUND('',#376,.T.);
#376=EDGE_LOOP('',(#748));
#377=CONICAL_SURFACE('',#378,13.3,0.785398163397448);
#378=AXIS2_PLACEMENT_3D('',#379,#380,#381);
#379=CARTESIAN_POINT('',(0.,0.,0.3));
#380=DIRECTION('',(0.,0.,-1.));
#381=DIRECTION('',(-6.12323399573677E-17,1.,0.));
#382=FACE_OUTER_BOUND('',#383,.T.);
#383=EDGE_LOOP('',(#749));
#384=FACE_OUTER_BOUND('',#385,.T.);
#385=EDGE_LOOP('',(#750));
#386=CONICAL_SURFACE('',#387,13.3,0.785398163397448);
#387=AXIS2_PLACEMENT_3D('',#388,#389,#390);
#388=CARTESIAN_POINT('',(0.,0.,4.7));
#389=DIRECTION('',(0.,0.,1.));
#390=DIRECTION('',(6.12323399573677E-17,-1.,0.));
#391=FACE_BOUND('',#392,.T.);
#392=EDGE_LOOP('',(#751,#752,#753,#754));
#393=PLANE('',#394);
#394=AXIS2_PLACEMENT_3D('',#395,#396,#397);
#395=CARTESIAN_POINT('',(-25.9,-27.5,0.6));
#396=DIRECTION('',(1.51553326127777E-18,0.707106781186549,0.707106781186546));
#397=DIRECTION('',(1.,0.,-2.14328769232656E-18));
#398=FACE_BOUND('',#399,.T.);
#399=EDGE_LOOP('',(#755,#756,#757,#758));
#400=CONICAL_SURFACE('',#401,3.7,0.785398163397451);
#401=AXIS2_PLACEMENT_3D('',#402,#403,#404);
#402=CARTESIAN_POINT('',(23.5,-23.5,0.299999999999999));
#403=DIRECTION('',(0.,0.,1.));
#404=DIRECTION('',(-0.938360128310479,-0.345659181271294,0.));
#405=FACE_BOUND('',#406,.T.);
#406=EDGE_LOOP('',(#759,#760,#761,#762));
#407=PLANE('',#408);
#408=AXIS2_PLACEMENT_3D('',#409,#410,#411);
#409=CARTESIAN_POINT('',(27.5,-25.9,0.6));
#410=DIRECTION('',(-0.707106781186549,1.51553326127777E-18,0.707106781186546));
#411=DIRECTION('',(0.,1.,-2.14328769232656E-18));
#412=FACE_BOUND('',#413,.T.);
#413=EDGE_LOOP('',(#763,#764,#765,#766));
#414=CONICAL_SURFACE('',#415,3.7,0.785398163397451);
#415=AXIS2_PLACEMENT_3D('',#416,#417,#418);
#416=CARTESIAN_POINT('',(23.5,23.5,0.299999999999999));
#417=DIRECTION('',(0.,0.,1.));
#418=DIRECTION('',(0.345659181271294,-0.938360128310479,0.));
#419=FACE_BOUND('',#420,.T.);
#420=EDGE_LOOP('',(#767,#768,#769,#770));
#421=PLANE('',#422);
#422=AXIS2_PLACEMENT_3D('',#423,#424,#425);
#423=CARTESIAN_POINT('',(25.9,27.5,0.6));
#424=DIRECTION('',(-1.51553326127777E-18,-0.707106781186549,0.707106781186546));
#425=DIRECTION('',(-1.,0.,-2.14328769232656E-18));
#426=FACE_BOUND('',#427,.T.);
#427=EDGE_LOOP('',(#771,#772,#773,#774));
#428=CONICAL_SURFACE('',#429,3.7,0.785398163397451);
#429=AXIS2_PLACEMENT_3D('',#430,#431,#432);
#430=CARTESIAN_POINT('',(-23.5,23.5,0.299999999999999));
#431=DIRECTION('',(0.,0.,1.));
#432=DIRECTION('',(0.938360128310479,0.345659181271294,0.));
#433=FACE_BOUND('',#434,.T.);
#434=EDGE_LOOP('',(#775,#776,#777,#778));
#435=PLANE('',#436);
#436=AXIS2_PLACEMENT_3D('',#437,#438,#439);
#437=CARTESIAN_POINT('',(-27.5,25.9,0.6));
#438=DIRECTION('',(0.707106781186549,-1.51553326127777E-18,0.707106781186546));
#439=DIRECTION('',(0.,-1.,-2.14328769232656E-18));
#440=FACE_BOUND('',#441,.T.);
#441=EDGE_LOOP('',(#779,#780,#781,#782));
#442=CONICAL_SURFACE('',#443,3.7,0.785398163397448);
#443=AXIS2_PLACEMENT_3D('',#444,#445,#446);
#444=CARTESIAN_POINT('',(-23.5,-23.5,0.300000000000001));
#445=DIRECTION('',(0.,0.,1.));
#446=DIRECTION('',(-0.345659181271294,0.938360128310479,0.));
#447=FACE_BOUND('',#448,.T.);
#448=EDGE_LOOP('',(#783,#784,#785,#786));
#449=PLANE('',#450);
#450=AXIS2_PLACEMENT_3D('',#451,#452,#453);
#451=CARTESIAN_POINT('',(25.9,27.5,4.4));
#452=DIRECTION('',(-1.21242660902222E-17,0.707106781186548,0.707106781186547));
#453=DIRECTION('',(-1.,0.,-1.71463015386125E-17));
#454=FACE_BOUND('',#455,.T.);
#455=EDGE_LOOP('',(#787,#788,#789,#790));
#456=CONICAL_SURFACE('',#457,3.7,0.785398163397449);
#457=AXIS2_PLACEMENT_3D('',#458,#459,#460);
#458=CARTESIAN_POINT('',(-23.5,23.5,4.7));
#459=DIRECTION('',(0.,0.,-1.));
#460=DIRECTION('',(-0.345659181271295,-0.938360128310479,0.));
#461=FACE_BOUND('',#462,.T.);
#462=EDGE_LOOP('',(#791,#792,#793,#794));
#463=PLANE('',#464);
#464=AXIS2_PLACEMENT_3D('',#465,#466,#467);
#465=CARTESIAN_POINT('',(-27.5,25.9,4.4));
#466=DIRECTION('',(-0.707106781186548,-1.21242660902222E-17,0.707106781186547));
#467=DIRECTION('',(0.,-1.,-1.71463015386125E-17));
#468=FACE_BOUND('',#469,.T.);
#469=EDGE_LOOP('',(#795,#796,#797,#798));
#470=CONICAL_SURFACE('',#471,3.7,0.785398163397445);
#471=AXIS2_PLACEMENT_3D('',#472,#473,#474);
#472=CARTESIAN_POINT('',(-23.5,-23.5,4.7));
#473=DIRECTION('',(0.,0.,-1.));
#474=DIRECTION('',(0.938360128310479,-0.345659181271295,0.));
#475=FACE_BOUND('',#476,.T.);
#476=EDGE_LOOP('',(#799,#800,#801,#802));
#477=PLANE('',#478);
#478=AXIS2_PLACEMENT_3D('',#479,#480,#481);
#479=CARTESIAN_POINT('',(-25.9,-27.5,4.4));
#480=DIRECTION('',(1.21242660902222E-17,-0.707106781186548,0.707106781186547));
#481=DIRECTION('',(1.,0.,-1.71463015386125E-17));
#482=FACE_BOUND('',#483,.T.);
#483=EDGE_LOOP('',(#803,#804,#805,#806));
#484=CONICAL_SURFACE('',#485,3.7,0.785398163397448);
#485=AXIS2_PLACEMENT_3D('',#486,#487,#488);
#486=CARTESIAN_POINT('',(23.5,-23.5,4.7));
#487=DIRECTION('',(0.,0.,-1.));
#488=DIRECTION('',(0.345659181271294,0.938360128310479,0.));
#489=FACE_BOUND('',#490,.T.);
#490=EDGE_LOOP('',(#807,#808,#809,#810));
#491=PLANE('',#492);
#492=AXIS2_PLACEMENT_3D('',#493,#494,#495);
#493=CARTESIAN_POINT('',(27.5,-25.9,4.4));
#494=DIRECTION('',(0.707106781186548,1.21242660902222E-17,0.707106781186547));
#495=DIRECTION('',(0.,1.,-1.71463015386125E-17));
#496=FACE_BOUND('',#497,.T.);
#497=EDGE_LOOP('',(#811,#812,#813,#814));
#498=CONICAL_SURFACE('',#499,3.7,0.785398163397449);
#499=AXIS2_PLACEMENT_3D('',#500,#501,#502);
#500=CARTESIAN_POINT('',(23.5,23.5,4.7));
#501=DIRECTION('',(0.,0.,-1.));
#502=DIRECTION('',(-0.938360128310479,0.345659181271295,0.));
#503=FACE_OUTER_BOUND('',#504,.T.);
#504=EDGE_LOOP('',(#815));
#505=FACE_OUTER_BOUND('',#506,.T.);
#506=EDGE_LOOP('',(#816));
#507=CONICAL_SURFACE('',#508,3.3,0.78539816339745);
#508=AXIS2_PLACEMENT_3D('',#509,#510,#511);
#509=CARTESIAN_POINT('',(-17.5,17.5,0.3));
#510=DIRECTION('',(0.,0.,-1.));
#511=DIRECTION('',(0.,1.,0.));
#512=FACE_OUTER_BOUND('',#513,.T.);
#513=EDGE_LOOP('',(#817));
#514=FACE_OUTER_BOUND('',#515,.T.);
#515=EDGE_LOOP('',(#818));
#516=CONICAL_SURFACE('',#517,3.3,0.785398163397448);
#517=AXIS2_PLACEMENT_3D('',#518,#519,#520);
#518=CARTESIAN_POINT('',(17.5,-17.5,0.3));
#519=DIRECTION('',(0.,0.,-1.));
#520=DIRECTION('',(0.,1.,0.));
#521=FACE_OUTER_BOUND('',#522,.T.);
#522=EDGE_LOOP('',(#819));
#523=FACE_OUTER_BOUND('',#524,.T.);
#524=EDGE_LOOP('',(#820));
#525=CONICAL_SURFACE('',#526,3.3,0.78539816339745);
#526=AXIS2_PLACEMENT_3D('',#527,#528,#529);
#527=CARTESIAN_POINT('',(17.5,17.5,0.3));
#528=DIRECTION('',(0.,0.,-1.));
#529=DIRECTION('',(0.,1.,0.));
#530=FACE_OUTER_BOUND('',#531,.T.);
#531=EDGE_LOOP('',(#821));
#532=FACE_OUTER_BOUND('',#533,.T.);
#533=EDGE_LOOP('',(#822));
#534=CONICAL_SURFACE('',#535,3.3,0.785398163397448);
#535=AXIS2_PLACEMENT_3D('',#536,#537,#538);
#536=CARTESIAN_POINT('',(-17.5,-17.5,0.3));
#537=DIRECTION('',(0.,0.,-1.));
#538=DIRECTION('',(0.,1.,0.));
#539=FACE_OUTER_BOUND('',#540,.T.);
#540=EDGE_LOOP('',(#823));
#541=FACE_OUTER_BOUND('',#542,.T.);
#542=EDGE_LOOP('',(#824));
#543=CONICAL_SURFACE('',#544,2.45,0.78539816339745);
#544=AXIS2_PLACEMENT_3D('',#545,#546,#547);
#545=CARTESIAN_POINT('',(-23.5,-23.5,0.3));
#546=DIRECTION('',(0.,0.,-1.));
#547=DIRECTION('',(0.,1.,0.));
#548=FACE_OUTER_BOUND('',#549,.T.);
#549=EDGE_LOOP('',(#825));
#550=FACE_OUTER_BOUND('',#551,.T.);
#551=EDGE_LOOP('',(#826));
#552=CONICAL_SURFACE('',#553,2.45,0.78539816339745);
#553=AXIS2_PLACEMENT_3D('',#554,#555,#556);
#554=CARTESIAN_POINT('',(-23.5,23.5,0.3));
#555=DIRECTION('',(0.,0.,-1.));
#556=DIRECTION('',(0.,1.,0.));
#557=FACE_OUTER_BOUND('',#558,.T.);
#558=EDGE_LOOP('',(#827));
#559=FACE_OUTER_BOUND('',#560,.T.);
#560=EDGE_LOOP('',(#828));
#561=CONICAL_SURFACE('',#562,2.45,0.78539816339745);
#562=AXIS2_PLACEMENT_3D('',#563,#564,#565);
#563=CARTESIAN_POINT('',(23.5,-23.5,0.3));
#564=DIRECTION('',(0.,0.,-1.));
#565=DIRECTION('',(0.,1.,0.));
#566=FACE_OUTER_BOUND('',#567,.T.);
#567=EDGE_LOOP('',(#829));
#568=FACE_OUTER_BOUND('',#569,.T.);
#569=EDGE_LOOP('',(#830));
#570=CONICAL_SURFACE('',#571,2.45,0.78539816339745);
#571=AXIS2_PLACEMENT_3D('',#572,#573,#574);
#572=CARTESIAN_POINT('',(23.5,23.5,0.3));
#573=DIRECTION('',(0.,0.,-1.));
#574=DIRECTION('',(0.,1.,0.));
#575=FACE_OUTER_BOUND('',#576,.T.);
#576=EDGE_LOOP('',(#831));
#577=FACE_OUTER_BOUND('',#578,.T.);
#578=EDGE_LOOP('',(#832));
#579=CONICAL_SURFACE('',#580,2.45,0.78539816339745);
#580=AXIS2_PLACEMENT_3D('',#581,#582,#583);
#581=CARTESIAN_POINT('',(23.5,23.5,4.7));
#582=DIRECTION('',(0.,0.,1.));
#583=DIRECTION('',(0.,-1.,0.));
#584=FACE_OUTER_BOUND('',#585,.T.);
#585=EDGE_LOOP('',(#833));
#586=FACE_OUTER_BOUND('',#587,.T.);
#587=EDGE_LOOP('',(#834));
#588=CONICAL_SURFACE('',#589,2.45,0.78539816339745);
#589=AXIS2_PLACEMENT_3D('',#590,#591,#592);
#590=CARTESIAN_POINT('',(23.5,-23.5,4.7));
#591=DIRECTION('',(0.,0.,1.));
#592=DIRECTION('',(0.,-1.,0.));
#593=FACE_OUTER_BOUND('',#594,.T.);
#594=EDGE_LOOP('',(#835));
#595=FACE_OUTER_BOUND('',#596,.T.);
#596=EDGE_LOOP('',(#836));
#597=CONICAL_SURFACE('',#598,2.45,0.78539816339745);
#598=AXIS2_PLACEMENT_3D('',#599,#600,#601);
#599=CARTESIAN_POINT('',(-23.5,23.5,4.7));
#600=DIRECTION('',(0.,0.,1.));
#601=DIRECTION('',(0.,-1.,0.));
#602=FACE_OUTER_BOUND('',#603,.T.);
#603=EDGE_LOOP('',(#837));
#604=FACE_OUTER_BOUND('',#605,.T.);
#605=EDGE_LOOP('',(#838));
#606=CONICAL_SURFACE('',#607,2.45,0.78539816339745);
#607=AXIS2_PLACEMENT_3D('',#608,#609,#610);
#608=CARTESIAN_POINT('',(-23.5,-23.5,4.7));
#609=DIRECTION('',(0.,0.,1.));
#610=DIRECTION('',(0.,-1.,0.));
#611=FACE_OUTER_BOUND('',#612,.T.);
#612=EDGE_LOOP('',(#839));
#613=FACE_OUTER_BOUND('',#614,.T.);
#614=EDGE_LOOP('',(#840));
#615=CONICAL_SURFACE('',#616,1.95,0.78539816339745);
#616=AXIS2_PLACEMENT_3D('',#617,#618,#619);
#617=CARTESIAN_POINT('',(17.5,-17.5,4.7));
#618=DIRECTION('',(0.,0.,1.));
#619=DIRECTION('',(0.,-1.,0.));
#620=FACE_OUTER_BOUND('',#621,.T.);
#621=EDGE_LOOP('',(#841));
#622=FACE_OUTER_BOUND('',#623,.T.);
#623=EDGE_LOOP('',(#842));
#624=CONICAL_SURFACE('',#625,1.95,0.785398163397448);
#625=AXIS2_PLACEMENT_3D('',#626,#627,#628);
#626=CARTESIAN_POINT('',(17.5,17.5,4.7));
#627=DIRECTION('',(0.,0.,1.));
#628=DIRECTION('',(0.,-1.,0.));
#629=FACE_OUTER_BOUND('',#630,.T.);
#630=EDGE_LOOP('',(#843));
#631=FACE_OUTER_BOUND('',#632,.T.);
#632=EDGE_LOOP('',(#844));
#633=CONICAL_SURFACE('',#634,1.95,0.785398163397448);
#634=AXIS2_PLACEMENT_3D('',#635,#636,#637);
#635=CARTESIAN_POINT('',(-17.5,17.5,4.7));
#636=DIRECTION('',(0.,0.,1.));
#637=DIRECTION('',(0.,-1.,0.));
#638=FACE_OUTER_BOUND('',#639,.T.);
#639=EDGE_LOOP('',(#845));
#640=FACE_OUTER_BOUND('',#641,.T.);
#641=EDGE_LOOP('',(#846));
#642=CONICAL_SURFACE('',#643,1.95,0.78539816339745);
#643=AXIS2_PLACEMENT_3D('',#644,#645,#646);
#644=CARTESIAN_POINT('',(-17.5,-17.5,4.7));
#645=DIRECTION('',(0.,0.,1.));
#646=DIRECTION('',(0.,-1.,0.));
#647=ORIENTED_EDGE('',*,*,#847,.F.);
#648=ORIENTED_EDGE('',*,*,#848,.T.);
#649=ORIENTED_EDGE('',*,*,#849,.F.);
#650=ORIENTED_EDGE('',*,*,#850,.T.);
#651=ORIENTED_EDGE('',*,*,#851,.F.);
#652=ORIENTED_EDGE('',*,*,#852,.T.);
#653=ORIENTED_EDGE('',*,*,#853,.F.);
#654=ORIENTED_EDGE('',*,*,#854,.T.);
#655=ORIENTED_EDGE('',*,*,#855,.F.);
#656=ORIENTED_EDGE('',*,*,#856,.F.);
#657=ORIENTED_EDGE('',*,*,#857,.F.);
#658=ORIENTED_EDGE('',*,*,#858,.F.);
#659=ORIENTED_EDGE('',*,*,#859,.F.);
#660=ORIENTED_EDGE('',*,*,#860,.F.);
#661=ORIENTED_EDGE('',*,*,#861,.F.);
#662=ORIENTED_EDGE('',*,*,#862,.F.);
#663=ORIENTED_EDGE('',*,*,#863,.T.);
#664=ORIENTED_EDGE('',*,*,#864,.T.);
#665=ORIENTED_EDGE('',*,*,#865,.T.);
#666=ORIENTED_EDGE('',*,*,#866,.T.);
#667=ORIENTED_EDGE('',*,*,#867,.T.);
#668=ORIENTED_EDGE('',*,*,#868,.T.);
#669=ORIENTED_EDGE('',*,*,#869,.T.);
#670=ORIENTED_EDGE('',*,*,#870,.T.);
#671=ORIENTED_EDGE('',*,*,#871,.T.);
#672=ORIENTED_EDGE('',*,*,#872,.T.);
#673=ORIENTED_EDGE('',*,*,#854,.F.);
#674=ORIENTED_EDGE('',*,*,#872,.F.);
#675=ORIENTED_EDGE('',*,*,#873,.F.);
#676=ORIENTED_EDGE('',*,*,#874,.T.);
#677=ORIENTED_EDGE('',*,*,#850,.F.);
#678=ORIENTED_EDGE('',*,*,#874,.F.);
#679=ORIENTED_EDGE('',*,*,#875,.F.);
#680=ORIENTED_EDGE('',*,*,#876,.T.);
#681=ORIENTED_EDGE('',*,*,#848,.F.);
#682=ORIENTED_EDGE('',*,*,#876,.F.);
#683=ORIENTED_EDGE('',*,*,#877,.F.);
#684=ORIENTED_EDGE('',*,*,#878,.T.);
#685=ORIENTED_EDGE('',*,*,#852,.F.);
#686=ORIENTED_EDGE('',*,*,#878,.F.);
#687=ORIENTED_EDGE('',*,*,#879,.F.);
#688=ORIENTED_EDGE('',*,*,#880,.T.);
#689=ORIENTED_EDGE('',*,*,#881,.F.);
#690=ORIENTED_EDGE('',*,*,#882,.T.);
#691=ORIENTED_EDGE('',*,*,#883,.F.);
#692=ORIENTED_EDGE('',*,*,#884,.T.);
#693=ORIENTED_EDGE('',*,*,#885,.F.);
#694=ORIENTED_EDGE('',*,*,#886,.T.);
#695=ORIENTED_EDGE('',*,*,#887,.F.);
#696=ORIENTED_EDGE('',*,*,#888,.T.);
#697=ORIENTED_EDGE('',*,*,#889,.T.);
#698=ORIENTED_EDGE('',*,*,#890,.T.);
#699=ORIENTED_EDGE('',*,*,#891,.T.);
#700=ORIENTED_EDGE('',*,*,#892,.T.);
#701=ORIENTED_EDGE('',*,*,#893,.T.);
#702=ORIENTED_EDGE('',*,*,#894,.T.);
#703=ORIENTED_EDGE('',*,*,#895,.T.);
#704=ORIENTED_EDGE('',*,*,#896,.T.);
#705=ORIENTED_EDGE('',*,*,#897,.T.);
#706=ORIENTED_EDGE('',*,*,#898,.F.);
#707=ORIENTED_EDGE('',*,*,#899,.T.);
#708=ORIENTED_EDGE('',*,*,#900,.T.);
#709=ORIENTED_EDGE('',*,*,#901,.F.);
#710=ORIENTED_EDGE('',*,*,#902,.F.);
#711=ORIENTED_EDGE('',*,*,#903,.T.);
#712=ORIENTED_EDGE('',*,*,#898,.T.);
#713=ORIENTED_EDGE('',*,*,#904,.T.);
#714=ORIENTED_EDGE('',*,*,#905,.F.);
#715=ORIENTED_EDGE('',*,*,#906,.T.);
#716=ORIENTED_EDGE('',*,*,#902,.T.);
#717=ORIENTED_EDGE('',*,*,#907,.F.);
#718=ORIENTED_EDGE('',*,*,#908,.F.);
#719=ORIENTED_EDGE('',*,*,#909,.T.);
#720=ORIENTED_EDGE('',*,*,#905,.T.);
#721=ORIENTED_EDGE('',*,*,#910,.T.);
#722=ORIENTED_EDGE('',*,*,#911,.F.);
#723=ORIENTED_EDGE('',*,*,#912,.T.);
#724=ORIENTED_EDGE('',*,*,#908,.T.);
#725=ORIENTED_EDGE('',*,*,#913,.F.);
#726=ORIENTED_EDGE('',*,*,#914,.F.);
#727=ORIENTED_EDGE('',*,*,#915,.T.);
#728=ORIENTED_EDGE('',*,*,#911,.T.);
#729=ORIENTED_EDGE('',*,*,#916,.T.);
#730=ORIENTED_EDGE('',*,*,#917,.F.);
#731=ORIENTED_EDGE('',*,*,#918,.T.);
#732=ORIENTED_EDGE('',*,*,#914,.T.);
#733=ORIENTED_EDGE('',*,*,#919,.F.);
#734=ORIENTED_EDGE('',*,*,#900,.F.);
#735=ORIENTED_EDGE('',*,*,#920,.T.);
#736=ORIENTED_EDGE('',*,*,#917,.T.);
#737=ORIENTED_EDGE('',*,*,#921,.F.);
#738=ORIENTED_EDGE('',*,*,#922,.F.);
#739=ORIENTED_EDGE('',*,*,#923,.F.);
#740=ORIENTED_EDGE('',*,*,#924,.F.);
#741=ORIENTED_EDGE('',*,*,#925,.F.);
#742=ORIENTED_EDGE('',*,*,#926,.F.);
#743=ORIENTED_EDGE('',*,*,#927,.F.);
#744=ORIENTED_EDGE('',*,*,#928,.F.);
#745=ORIENTED_EDGE('',*,*,#929,.F.);
#746=ORIENTED_EDGE('',*,*,#930,.F.);
#747=ORIENTED_EDGE('',*,*,#922,.T.);
#748=ORIENTED_EDGE('',*,*,#867,.F.);
#749=ORIENTED_EDGE('',*,*,#921,.T.);
#750=ORIENTED_EDGE('',*,*,#892,.F.);
#751=ORIENTED_EDGE('',*,*,#915,.F.);
#752=ORIENTED_EDGE('',*,*,#931,.F.);
#753=ORIENTED_EDGE('',*,*,#855,.T.);
#754=ORIENTED_EDGE('',*,*,#932,.T.);
#755=ORIENTED_EDGE('',*,*,#862,.T.);
#756=ORIENTED_EDGE('',*,*,#933,.T.);
#757=ORIENTED_EDGE('',*,*,#912,.F.);
#758=ORIENTED_EDGE('',*,*,#932,.F.);
#759=ORIENTED_EDGE('',*,*,#909,.F.);
#760=ORIENTED_EDGE('',*,*,#933,.F.);
#761=ORIENTED_EDGE('',*,*,#861,.T.);
#762=ORIENTED_EDGE('',*,*,#934,.T.);
#763=ORIENTED_EDGE('',*,*,#860,.T.);
#764=ORIENTED_EDGE('',*,*,#935,.T.);
#765=ORIENTED_EDGE('',*,*,#906,.F.);
#766=ORIENTED_EDGE('',*,*,#934,.F.);
#767=ORIENTED_EDGE('',*,*,#903,.F.);
#768=ORIENTED_EDGE('',*,*,#935,.F.);
#769=ORIENTED_EDGE('',*,*,#859,.T.);
#770=ORIENTED_EDGE('',*,*,#936,.T.);
#771=ORIENTED_EDGE('',*,*,#858,.T.);
#772=ORIENTED_EDGE('',*,*,#937,.T.);
#773=ORIENTED_EDGE('',*,*,#899,.F.);
#774=ORIENTED_EDGE('',*,*,#936,.F.);
#775=ORIENTED_EDGE('',*,*,#920,.F.);
#776=ORIENTED_EDGE('',*,*,#937,.F.);
#777=ORIENTED_EDGE('',*,*,#857,.T.);
#778=ORIENTED_EDGE('',*,*,#938,.T.);
#779=ORIENTED_EDGE('',*,*,#856,.T.);
#780=ORIENTED_EDGE('',*,*,#931,.T.);
#781=ORIENTED_EDGE('',*,*,#918,.F.);
#782=ORIENTED_EDGE('',*,*,#938,.F.);
#783=ORIENTED_EDGE('',*,*,#901,.T.);
#784=ORIENTED_EDGE('',*,*,#939,.T.);
#785=ORIENTED_EDGE('',*,*,#880,.F.);
#786=ORIENTED_EDGE('',*,*,#940,.F.);
#787=ORIENTED_EDGE('',*,*,#881,.T.);
#788=ORIENTED_EDGE('',*,*,#939,.F.);
#789=ORIENTED_EDGE('',*,*,#897,.F.);
#790=ORIENTED_EDGE('',*,*,#941,.T.);
#791=ORIENTED_EDGE('',*,*,#919,.T.);
#792=ORIENTED_EDGE('',*,*,#942,.T.);
#793=ORIENTED_EDGE('',*,*,#882,.F.);
#794=ORIENTED_EDGE('',*,*,#941,.F.);
#795=ORIENTED_EDGE('',*,*,#883,.T.);
#796=ORIENTED_EDGE('',*,*,#942,.F.);
#797=ORIENTED_EDGE('',*,*,#916,.F.);
#798=ORIENTED_EDGE('',*,*,#943,.T.);
#799=ORIENTED_EDGE('',*,*,#913,.T.);
#800=ORIENTED_EDGE('',*,*,#944,.T.);
#801=ORIENTED_EDGE('',*,*,#884,.F.);
#802=ORIENTED_EDGE('',*,*,#943,.F.);
#803=ORIENTED_EDGE('',*,*,#885,.T.);
#804=ORIENTED_EDGE('',*,*,#944,.F.);
#805=ORIENTED_EDGE('',*,*,#910,.F.);
#806=ORIENTED_EDGE('',*,*,#945,.T.);
#807=ORIENTED_EDGE('',*,*,#907,.T.);
#808=ORIENTED_EDGE('',*,*,#946,.T.);
#809=ORIENTED_EDGE('',*,*,#886,.F.);
#810=ORIENTED_EDGE('',*,*,#945,.F.);
#811=ORIENTED_EDGE('',*,*,#887,.T.);
#812=ORIENTED_EDGE('',*,*,#946,.F.);
#813=ORIENTED_EDGE('',*,*,#904,.F.);
#814=ORIENTED_EDGE('',*,*,#940,.T.);
#815=ORIENTED_EDGE('',*,*,#868,.F.);
#816=ORIENTED_EDGE('',*,*,#879,.T.);
#817=ORIENTED_EDGE('',*,*,#866,.F.);
#818=ORIENTED_EDGE('',*,*,#877,.T.);
#819=ORIENTED_EDGE('',*,*,#869,.F.);
#820=ORIENTED_EDGE('',*,*,#875,.T.);
#821=ORIENTED_EDGE('',*,*,#865,.F.);
#822=ORIENTED_EDGE('',*,*,#873,.T.);
#823=ORIENTED_EDGE('',*,*,#924,.T.);
#824=ORIENTED_EDGE('',*,*,#870,.F.);
#825=ORIENTED_EDGE('',*,*,#926,.T.);
#826=ORIENTED_EDGE('',*,*,#864,.F.);
#827=ORIENTED_EDGE('',*,*,#928,.T.);
#828=ORIENTED_EDGE('',*,*,#871,.F.);
#829=ORIENTED_EDGE('',*,*,#930,.T.);
#830=ORIENTED_EDGE('',*,*,#863,.F.);
#831=ORIENTED_EDGE('',*,*,#929,.T.);
#832=ORIENTED_EDGE('',*,*,#893,.F.);
#833=ORIENTED_EDGE('',*,*,#927,.T.);
#834=ORIENTED_EDGE('',*,*,#891,.F.);
#835=ORIENTED_EDGE('',*,*,#925,.T.);
#836=ORIENTED_EDGE('',*,*,#894,.F.);
#837=ORIENTED_EDGE('',*,*,#923,.T.);
#838=ORIENTED_EDGE('',*,*,#890,.F.);
#839=ORIENTED_EDGE('',*,*,#847,.T.);
#840=ORIENTED_EDGE('',*,*,#895,.F.);
#841=ORIENTED_EDGE('',*,*,#849,.T.);
#842=ORIENTED_EDGE('',*,*,#889,.F.);
#843=ORIENTED_EDGE('',*,*,#851,.T.);
#844=ORIENTED_EDGE('',*,*,#896,.F.);
#845=ORIENTED_EDGE('',*,*,#853,.T.);
#846=ORIENTED_EDGE('',*,*,#888,.F.);
#847=EDGE_CURVE('',#947,#947,#948,.F.);
#848=EDGE_CURVE('',#949,#949,#950,.F.);
#849=EDGE_CURVE('',#951,#951,#952,.F.);
#850=EDGE_CURVE('',#953,#953,#954,.F.);
#851=EDGE_CURVE('',#955,#955,#956,.F.);
#852=EDGE_CURVE('',#957,#957,#958,.F.);
#853=EDGE_CURVE('',#959,#959,#960,.F.);
#854=EDGE_CURVE('',#961,#961,#962,.F.);
#855=EDGE_CURVE('',#963,#964,#965,.T.);
#856=EDGE_CURVE('',#966,#963,#967,.F.);
#857=EDGE_CURVE('',#968,#966,#969,.T.);
#858=EDGE_CURVE('',#970,#968,#971,.F.);
#859=EDGE_CURVE('',#972,#970,#973,.T.);
#860=EDGE_CURVE('',#974,#972,#975,.F.);
#861=EDGE_CURVE('',#976,#974,#977,.T.);
#862=EDGE_CURVE('',#964,#976,#978,.F.);
#863=EDGE_CURVE('',#979,#979,#980,.T.);
#864=EDGE_CURVE('',#981,#981,#982,.T.);
#865=EDGE_CURVE('',#983,#983,#984,.F.);
#866=EDGE_CURVE('',#985,#985,#986,.F.);
#867=EDGE_CURVE('',#987,#987,#988,.T.);
#868=EDGE_CURVE('',#989,#989,#990,.F.);
#869=EDGE_CURVE('',#991,#991,#992,.F.);
#870=EDGE_CURVE('',#993,#993,#994,.T.);
#871=EDGE_CURVE('',#995,#995,#996,.T.);
#872=EDGE_CURVE('',#997,#997,#998,.T.);
#873=EDGE_CURVE('',#999,#999,#1000,.F.);
#874=EDGE_CURVE('',#1001,#1001,#1002,.T.);
#875=EDGE_CURVE('',#1003,#1003,#1004,.F.);
#876=EDGE_CURVE('',#1005,#1005,#1006,.T.);
#877=EDGE_CURVE('',#1007,#1007,#1008,.F.);
#878=EDGE_CURVE('',#1009,#1009,#1010,.T.);
#879=EDGE_CURVE('',#1011,#1011,#1012,.F.);
#880=EDGE_CURVE('',#1013,#1014,#1015,.T.);
#881=EDGE_CURVE('',#1016,#1014,#1017,.F.);
#882=EDGE_CURVE('',#1016,#1018,#1019,.T.);
#883=EDGE_CURVE('',#1020,#1018,#1021,.F.);
#884=EDGE_CURVE('',#1020,#1022,#1023,.T.);
#885=EDGE_CURVE('',#1024,#1022,#1025,.F.);
#886=EDGE_CURVE('',#1024,#1026,#1027,.T.);
#887=EDGE_CURVE('',#1013,#1026,#1028,.F.);
#888=EDGE_CURVE('',#1029,#1029,#1030,.F.);
#889=EDGE_CURVE('',#1031,#1031,#1032,.F.);
#890=EDGE_CURVE('',#1033,#1033,#1034,.F.);
#891=EDGE_CURVE('',#1035,#1035,#1036,.F.);
#892=EDGE_CURVE('',#1037,#1037,#1038,.F.);
#893=EDGE_CURVE('',#1039,#1039,#1040,.F.);
#894=EDGE_CURVE('',#1041,#1041,#1042,.F.);
#895=EDGE_CURVE('',#1043,#1043,#1044,.F.);
#896=EDGE_CURVE('',#1045,#1045,#1046,.F.);
#897=EDGE_CURVE('',#1047,#1048,#1049,.F.);
#898=EDGE_CURVE('',#1050,#1048,#1051,.T.);
#899=EDGE_CURVE('',#1050,#1052,#1053,.F.);
#900=EDGE_CURVE('',#1052,#1047,#1054,.T.);
#901=EDGE_CURVE('',#1055,#1048,#1056,.T.);
#902=EDGE_CURVE('',#1057,#1055,#1058,.T.);
#903=EDGE_CURVE('',#1057,#1050,#1059,.T.);
#904=EDGE_CURVE('',#1055,#1060,#1061,.F.);
#905=EDGE_CURVE('',#1062,#1060,#1063,.T.);
#906=EDGE_CURVE('',#1062,#1057,#1064,.F.);
#907=EDGE_CURVE('',#1065,#1060,#1066,.T.);
#908=EDGE_CURVE('',#1067,#1065,#1068,.T.);
#909=EDGE_CURVE('',#1067,#1062,#1069,.T.);
#910=EDGE_CURVE('',#1065,#1070,#1071,.F.);
#911=EDGE_CURVE('',#1072,#1070,#1073,.T.);
#912=EDGE_CURVE('',#1072,#1067,#1074,.F.);
#913=EDGE_CURVE('',#1075,#1070,#1076,.T.);
#914=EDGE_CURVE('',#1077,#1075,#1078,.T.);
#915=EDGE_CURVE('',#1077,#1072,#1079,.T.);
#916=EDGE_CURVE('',#1075,#1080,#1081,.F.);
#917=EDGE_CURVE('',#1082,#1080,#1083,.T.);
#918=EDGE_CURVE('',#1082,#1077,#1084,.F.);
#919=EDGE_CURVE('',#1047,#1080,#1085,.T.);
#920=EDGE_CURVE('',#1052,#1082,#1086,.T.);
#921=EDGE_CURVE('',#1087,#1087,#1088,.F.);
#922=EDGE_CURVE('',#1089,#1089,#1090,.T.);
#923=EDGE_CURVE('',#1091,#1091,#1092,.F.);
#924=EDGE_CURVE('',#1093,#1093,#1094,.T.);
#925=EDGE_CURVE('',#1095,#1095,#1096,.F.);
#926=EDGE_CURVE('',#1097,#1097,#1098,.T.);
#927=EDGE_CURVE('',#1099,#1099,#1100,.F.);
#928=EDGE_CURVE('',#1101,#1101,#1102,.T.);
#929=EDGE_CURVE('',#1103,#1103,#1104,.F.);
#930=EDGE_CURVE('',#1105,#1105,#1106,.T.);
#931=EDGE_CURVE('',#963,#1077,#1107,.T.);
#932=EDGE_CURVE('',#964,#1072,#1108,.F.);
#933=EDGE_CURVE('',#976,#1067,#1109,.T.);
#934=EDGE_CURVE('',#974,#1062,#1110,.F.);
#935=EDGE_CURVE('',#972,#1057,#1111,.T.);
#936=EDGE_CURVE('',#970,#1050,#1112,.F.);
#937=EDGE_CURVE('',#968,#1052,#1113,.T.);
#938=EDGE_CURVE('',#966,#1082,#1114,.F.);
#939=EDGE_CURVE('',#1048,#1014,#1115,.T.);
#940=EDGE_CURVE('',#1055,#1013,#1116,.F.);
#941=EDGE_CURVE('',#1047,#1016,#1117,.F.);
#942=EDGE_CURVE('',#1080,#1018,#1118,.T.);
#943=EDGE_CURVE('',#1075,#1020,#1119,.F.);
#944=EDGE_CURVE('',#1070,#1022,#1120,.T.);
#945=EDGE_CURVE('',#1065,#1024,#1121,.F.);
#946=EDGE_CURVE('',#1060,#1026,#1122,.T.);
#947=VERTEX_POINT('',#1123);
#948=CIRCLE('',#1124,1.65);
#949=VERTEX_POINT('',#1128);
#950=CIRCLE('',#1129,1.65);
#951=VERTEX_POINT('',#1133);
#952=CIRCLE('',#1134,1.65);
#953=VERTEX_POINT('',#1138);
#954=CIRCLE('',#1139,1.65);
#955=VERTEX_POINT('',#1143);
#956=CIRCLE('',#1144,1.65);
#957=VERTEX_POINT('',#1148);
#958=CIRCLE('',#1149,1.65);
#959=VERTEX_POINT('',#1153);
#960=CIRCLE('',#1154,1.65);
#961=VERTEX_POINT('',#1158);
#962=CIRCLE('',#1159,1.65);
#963=VERTEX_POINT('',#1163);
#964=VERTEX_POINT('',#1164);
#965=LINE('',#1165,#1166);
#966=VERTEX_POINT('',#1168);
#967=CIRCLE('',#1169,3.4);
#968=VERTEX_POINT('',#1173);
#969=LINE('',#1174,#1175);
#970=VERTEX_POINT('',#1177);
#971=CIRCLE('',#1178,3.4);
#972=VERTEX_POINT('',#1182);
#973=LINE('',#1183,#1184);
#974=VERTEX_POINT('',#1186);
#975=CIRCLE('',#1187,3.4);
#976=VERTEX_POINT('',#1191);
#977=LINE('',#1192,#1193);
#978=CIRCLE('',#1195,3.4);
#979=VERTEX_POINT('',#1199);
#980=CIRCLE('',#1200,2.75);
#981=VERTEX_POINT('',#1204);
#982=CIRCLE('',#1205,2.75);
#983=VERTEX_POINT('',#1209);
#984=CIRCLE('',#1210,3.6);
#985=VERTEX_POINT('',#1214);
#986=CIRCLE('',#1215,3.6);
#987=VERTEX_POINT('',#1219);
#988=CIRCLE('',#1220,13.6);
#989=VERTEX_POINT('',#1224);
#990=CIRCLE('',#1225,3.6);
#991=VERTEX_POINT('',#1229);
#992=CIRCLE('',#1230,3.6);
#993=VERTEX_POINT('',#1234);
#994=CIRCLE('',#1235,2.75);
#995=VERTEX_POINT('',#1239);
#996=CIRCLE('',#1240,2.75);
#997=VERTEX_POINT('',#1244);
#998=CIRCLE('',#1245,3.);
#999=VERTEX_POINT('',#1249);
#1000=CIRCLE('',#1250,3.);
#1001=VERTEX_POINT('',#1254);
#1002=CIRCLE('',#1255,3.);
#1003=VERTEX_POINT('',#1259);
#1004=CIRCLE('',#1260,3.);
#1005=VERTEX_POINT('',#1264);
#1006=CIRCLE('',#1265,3.);
#1007=VERTEX_POINT('',#1269);
#1008=CIRCLE('',#1270,3.);
#1009=VERTEX_POINT('',#1274);
#1010=CIRCLE('',#1275,3.);
#1011=VERTEX_POINT('',#1279);
#1012=CIRCLE('',#1280,3.);
#1013=VERTEX_POINT('',#1284);
#1014=VERTEX_POINT('',#1285);
#1015=LINE('',#1286,#1287);
#1016=VERTEX_POINT('',#1289);
#1017=CIRCLE('',#1290,3.4);
#1018=VERTEX_POINT('',#1294);
#1019=LINE('',#1295,#1296);
#1020=VERTEX_POINT('',#1298);
#1021=CIRCLE('',#1299,3.4);
#1022=VERTEX_POINT('',#1303);
#1023=LINE('',#1304,#1305);
#1024=VERTEX_POINT('',#1307);
#1025=CIRCLE('',#1308,3.4);
#1026=VERTEX_POINT('',#1312);
#1027=LINE('',#1313,#1314);
#1028=CIRCLE('',#1316,3.4);
#1029=VERTEX_POINT('',#1320);
#1030=CIRCLE('',#1321,2.25);
#1031=VERTEX_POINT('',#1325);
#1032=CIRCLE('',#1326,2.25);
#1033=VERTEX_POINT('',#1330);
#1034=CIRCLE('',#1331,2.75);
#1035=VERTEX_POINT('',#1335);
#1036=CIRCLE('',#1336,2.75);
#1037=VERTEX_POINT('',#1340);
#1038=CIRCLE('',#1341,13.6);
#1039=VERTEX_POINT('',#1345);
#1040=CIRCLE('',#1346,2.75);
#1041=VERTEX_POINT('',#1350);
#1042=CIRCLE('',#1351,2.75);
#1043=VERTEX_POINT('',#1355);
#1044=CIRCLE('',#1356,2.25);
#1045=VERTEX_POINT('',#1360);
#1046=CIRCLE('',#1361,2.25);
#1047=VERTEX_POINT('',#1365);
#1048=VERTEX_POINT('',#1366);
#1049=CIRCLE('',#1367,4.);
#1050=VERTEX_POINT('',#1371);
#1051=LINE('',#1372,#1373);
#1052=VERTEX_POINT('',#1375);
#1053=CIRCLE('',#1376,4.);
#1054=LINE('',#1380,#1381);
#1055=VERTEX_POINT('',#1383);
#1056=LINE('',#1384,#1385);
#1057=VERTEX_POINT('',#1387);
#1058=LINE('',#1388,#1389);
#1059=LINE('',#1391,#1392);
#1060=VERTEX_POINT('',#1394);
#1061=CIRCLE('',#1395,4.);
#1062=VERTEX_POINT('',#1399);
#1063=LINE('',#1400,#1401);
#1064=CIRCLE('',#1403,4.);
#1065=VERTEX_POINT('',#1407);
#1066=LINE('',#1408,#1409);
#1067=VERTEX_POINT('',#1411);
#1068=LINE('',#1412,#1413);
#1069=LINE('',#1415,#1416);
#1070=VERTEX_POINT('',#1418);
#1071=CIRCLE('',#1419,4.);
#1072=VERTEX_POINT('',#1423);
#1073=LINE('',#1424,#1425);
#1074=CIRCLE('',#1427,4.);
#1075=VERTEX_POINT('',#1431);
#1076=LINE('',#1432,#1433);
#1077=VERTEX_POINT('',#1435);
#1078=LINE('',#1436,#1437);
#1079=LINE('',#1439,#1440);
#1080=VERTEX_POINT('',#1442);
#1081=CIRCLE('',#1443,4.);
#1082=VERTEX_POINT('',#1447);
#1083=LINE('',#1448,#1449);
#1084=CIRCLE('',#1451,4.);
#1085=LINE('',#1455,#1456);
#1086=LINE('',#1458,#1459);
#1087=VERTEX_POINT('',#1461);
#1088=CIRCLE('',#1462,13.);
#1089=VERTEX_POINT('',#1466);
#1090=CIRCLE('',#1467,13.);
#1091=VERTEX_POINT('',#1471);
#1092=CIRCLE('',#1472,2.15);
#1093=VERTEX_POINT('',#1476);
#1094=CIRCLE('',#1477,2.15);
#1095=VERTEX_POINT('',#1481);
#1096=CIRCLE('',#1482,2.15);
#1097=VERTEX_POINT('',#1486);
#1098=CIRCLE('',#1487,2.15);
#1099=VERTEX_POINT('',#1491);
#1100=CIRCLE('',#1492,2.15);
#1101=VERTEX_POINT('',#1496);
#1102=CIRCLE('',#1497,2.15);
#1103=VERTEX_POINT('',#1501);
#1104=CIRCLE('',#1502,2.15);
#1105=VERTEX_POINT('',#1506);
#1106=CIRCLE('',#1507,2.15);
#1107=LINE('',#1511,#1512);
#1108=LINE('',#1514,#1515);
#1109=LINE('',#1517,#1518);
#1110=LINE('',#1520,#1521);
#1111=LINE('',#1523,#1524);
#1112=LINE('',#1526,#1527);
#1113=LINE('',#1529,#1530);
#1114=LINE('',#1532,#1533);
#1115=LINE('',#1535,#1536);
#1116=LINE('',#1538,#1539);
#1117=LINE('',#1541,#1542);
#1118=LINE('',#1544,#1545);
#1119=LINE('',#1547,#1548);
#1120=LINE('',#1550,#1551);
#1121=LINE('',#1553,#1554);
#1122=LINE('',#1556,#1557);
#1123=CARTESIAN_POINT('',(17.5,-19.15,4.4));
#1124=AXIS2_PLACEMENT_3D('',#1125,#1126,#1127);
#1125=CARTESIAN_POINT('',(17.5,-17.5,4.4));
#1126=DIRECTION('',(0.,0.,1.));
#1127=DIRECTION('',(0.,-1.,0.));
#1128=CARTESIAN_POINT('',(17.5,-19.15,1.2));
#1129=AXIS2_PLACEMENT_3D('',#1130,#1131,#1132);
#1130=CARTESIAN_POINT('',(17.5,-17.5,1.2));
#1131=DIRECTION('',(0.,0.,1.));
#1132=DIRECTION('',(6.12323399573677E-17,-1.,0.));
#1133=CARTESIAN_POINT('',(17.5,15.85,4.4));
#1134=AXIS2_PLACEMENT_3D('',#1135,#1136,#1137);
#1135=CARTESIAN_POINT('',(17.5,17.5,4.4));
#1136=DIRECTION('',(0.,0.,1.));
#1137=DIRECTION('',(0.,-1.,0.));
#1138=CARTESIAN_POINT('',(17.5,15.85,1.2));
#1139=AXIS2_PLACEMENT_3D('',#1140,#1141,#1142);
#1140=CARTESIAN_POINT('',(17.5,17.5,1.2));
#1141=DIRECTION('',(0.,0.,1.));
#1142=DIRECTION('',(6.12323399573677E-17,-1.,0.));
#1143=CARTESIAN_POINT('',(-17.5,15.85,4.4));
#1144=AXIS2_PLACEMENT_3D('',#1145,#1146,#1147);
#1145=CARTESIAN_POINT('',(-17.5,17.5,4.4));
#1146=DIRECTION('',(0.,0.,1.));
#1147=DIRECTION('',(0.,-1.,0.));
#1148=CARTESIAN_POINT('',(-17.5,15.85,1.2));
#1149=AXIS2_PLACEMENT_3D('',#1150,#1151,#1152);
#1150=CARTESIAN_POINT('',(-17.5,17.5,1.2));
#1151=DIRECTION('',(0.,0.,1.));
#1152=DIRECTION('',(6.12323399573677E-17,-1.,0.));
#1153=CARTESIAN_POINT('',(-17.5,-19.15,4.4));
#1154=AXIS2_PLACEMENT_3D('',#1155,#1156,#1157);
#1155=CARTESIAN_POINT('',(-17.5,-17.5,4.4));
#1156=DIRECTION('',(0.,0.,1.));
#1157=DIRECTION('',(0.,-1.,0.));
#1158=CARTESIAN_POINT('',(-17.5,-19.15,1.2));
#1159=AXIS2_PLACEMENT_3D('',#1160,#1161,#1162);
#1160=CARTESIAN_POINT('',(-17.5,-17.5,1.2));
#1161=DIRECTION('',(0.,0.,1.));
#1162=DIRECTION('',(6.12323399573677E-17,-1.,0.));
#1163=CARTESIAN_POINT('',(-23.5,-26.9,-5.55111512312578E-16));
#1164=CARTESIAN_POINT('',(23.5,-26.9,-5.9211894646675E-16));
#1165=CARTESIAN_POINT('',(-23.5,-26.9,-8.32667268468867E-16));
#1166=VECTOR('',#1167,1.);
#1167=DIRECTION('',(1.,0.,-1.18108832406932E-18));
#1168=CARTESIAN_POINT('',(-26.9,-23.5,-5.9211894646675E-16));
#1169=AXIS2_PLACEMENT_3D('',#1170,#1171,#1172);
#1170=CARTESIAN_POINT('',(-23.5,-23.5,0.));
#1171=DIRECTION('',(0.,0.,-1.));
#1172=DIRECTION('',(0.,-1.,0.));
#1173=CARTESIAN_POINT('',(-26.9,23.5,-5.55111512312578E-16));
#1174=CARTESIAN_POINT('',(-26.9,23.5,-8.32667268468867E-16));
#1175=VECTOR('',#1176,1.);
#1176=DIRECTION('',(0.,-1.,-1.18108832406932E-18));
#1177=CARTESIAN_POINT('',(-23.5,26.9,-5.18104078158406E-16));
#1178=AXIS2_PLACEMENT_3D('',#1179,#1180,#1181);
#1179=CARTESIAN_POINT('',(-23.5,23.5,0.));
#1180=DIRECTION('',(0.,0.,-1.));
#1181=DIRECTION('',(-1.,0.,0.));
#1182=CARTESIAN_POINT('',(23.5,26.9,-4.81096644004234E-16));
#1183=CARTESIAN_POINT('',(23.5,26.9,-7.21644966006352E-16));
#1184=VECTOR('',#1185,1.);
#1185=DIRECTION('',(-1.,0.,-1.18108832406932E-18));
#1186=CARTESIAN_POINT('',(26.9,23.5,-5.18104078158406E-16));
#1187=AXIS2_PLACEMENT_3D('',#1188,#1189,#1190);
#1188=CARTESIAN_POINT('',(23.5,23.5,0.));
#1189=DIRECTION('',(0.,0.,-1.));
#1190=DIRECTION('',(0.,1.,0.));
#1191=CARTESIAN_POINT('',(26.9,-23.5,-4.81096644004234E-16));
#1192=CARTESIAN_POINT('',(26.9,-23.5,-7.21644966006352E-16));
#1193=VECTOR('',#1194,1.);
#1194=DIRECTION('',(0.,1.,-1.18108832406932E-18));
#1195=AXIS2_PLACEMENT_3D('',#1196,#1197,#1198);
#1196=CARTESIAN_POINT('',(23.5,-23.5,0.));
#1197=DIRECTION('',(0.,0.,-1.));
#1198=DIRECTION('',(1.,0.,0.));
#1199=CARTESIAN_POINT('',(23.5,20.75,0.));
#1200=AXIS2_PLACEMENT_3D('',#1201,#1202,#1203);
#1201=CARTESIAN_POINT('',(23.5,23.5,0.));
#1202=DIRECTION('',(0.,0.,1.));
#1203=DIRECTION('',(6.12323399573677E-17,-1.,0.));
#1204=CARTESIAN_POINT('',(-23.5,20.75,0.));
#1205=AXIS2_PLACEMENT_3D('',#1206,#1207,#1208);
#1206=CARTESIAN_POINT('',(-23.5,23.5,0.));
#1207=DIRECTION('',(0.,0.,1.));
#1208=DIRECTION('',(6.12323399573677E-17,-1.,0.));
#1209=CARTESIAN_POINT('',(-17.5,-13.9,0.));
#1210=AXIS2_PLACEMENT_3D('',#1211,#1212,#1213);
#1211=CARTESIAN_POINT('',(-17.5,-17.5,0.));
#1212=DIRECTION('',(0.,0.,-1.));
#1213=DIRECTION('',(6.12323399573677E-17,1.,0.));
#1214=CARTESIAN_POINT('',(17.5,-13.9,0.));
#1215=AXIS2_PLACEMENT_3D('',#1216,#1217,#1218);
#1216=CARTESIAN_POINT('',(17.5,-17.5,0.));
#1217=DIRECTION('',(0.,0.,-1.));
#1218=DIRECTION('',(6.12323399573677E-17,1.,0.));
#1219=CARTESIAN_POINT('',(-8.327598234202E-16,-13.6,0.));
#1220=AXIS2_PLACEMENT_3D('',#1221,#1222,#1223);
#1221=CARTESIAN_POINT('',(0.,0.,0.));
#1222=DIRECTION('',(0.,0.,1.));
#1223=DIRECTION('',(6.12323399573677E-17,-1.,0.));
#1224=CARTESIAN_POINT('',(-17.5,21.1,0.));
#1225=AXIS2_PLACEMENT_3D('',#1226,#1227,#1228);
#1226=CARTESIAN_POINT('',(-17.5,17.5,0.));
#1227=DIRECTION('',(0.,0.,-1.));
#1228=DIRECTION('',(6.12323399573677E-17,1.,0.));
#1229=CARTESIAN_POINT('',(17.5,21.1,0.));
#1230=AXIS2_PLACEMENT_3D('',#1231,#1232,#1233);
#1231=CARTESIAN_POINT('',(17.5,17.5,0.));
#1232=DIRECTION('',(0.,0.,-1.));
#1233=DIRECTION('',(6.12323399573677E-17,1.,0.));
#1234=CARTESIAN_POINT('',(-23.5,-26.25,0.));
#1235=AXIS2_PLACEMENT_3D('',#1236,#1237,#1238);
#1236=CARTESIAN_POINT('',(-23.5,-23.5,0.));
#1237=DIRECTION('',(0.,0.,1.));
#1238=DIRECTION('',(6.12323399573677E-17,-1.,0.));
#1239=CARTESIAN_POINT('',(23.5,-26.25,0.));
#1240=AXIS2_PLACEMENT_3D('',#1241,#1242,#1243);
#1241=CARTESIAN_POINT('',(23.5,-23.5,0.));
#1242=DIRECTION('',(0.,0.,1.));
#1243=DIRECTION('',(6.12323399573677E-17,-1.,0.));
#1244=CARTESIAN_POINT('',(-17.5,-14.5,1.2));
#1245=AXIS2_PLACEMENT_3D('',#1246,#1247,#1248);
#1246=CARTESIAN_POINT('',(-17.5,-17.5,1.2));
#1247=DIRECTION('',(0.,0.,-1.));
#1248=DIRECTION('',(-6.12323399573677E-17,1.,0.));
#1249=CARTESIAN_POINT('',(-17.5,-14.5,0.6));
#1250=AXIS2_PLACEMENT_3D('',#1251,#1252,#1253);
#1251=CARTESIAN_POINT('',(-17.5,-17.5,0.6));
#1252=DIRECTION('',(0.,0.,-1.));
#1253=DIRECTION('',(0.,1.,0.));
#1254=CARTESIAN_POINT('',(17.5,20.5,1.2));
#1255=AXIS2_PLACEMENT_3D('',#1256,#1257,#1258);
#1256=CARTESIAN_POINT('',(17.5,17.5,1.2));
#1257=DIRECTION('',(0.,0.,-1.));
#1258=DIRECTION('',(-6.12323399573677E-17,1.,0.));
#1259=CARTESIAN_POINT('',(17.5,20.5,0.6));
#1260=AXIS2_PLACEMENT_3D('',#1261,#1262,#1263);
#1261=CARTESIAN_POINT('',(17.5,17.5,0.6));
#1262=DIRECTION('',(0.,0.,-1.));
#1263=DIRECTION('',(0.,1.,0.));
#1264=CARTESIAN_POINT('',(17.5,-14.5,1.2));
#1265=AXIS2_PLACEMENT_3D('',#1266,#1267,#1268);
#1266=CARTESIAN_POINT('',(17.5,-17.5,1.2));
#1267=DIRECTION('',(0.,0.,-1.));
#1268=DIRECTION('',(-6.12323399573677E-17,1.,0.));
#1269=CARTESIAN_POINT('',(17.5,-14.5,0.6));
#1270=AXIS2_PLACEMENT_3D('',#1271,#1272,#1273);
#1271=CARTESIAN_POINT('',(17.5,-17.5,0.6));
#1272=DIRECTION('',(0.,0.,-1.));
#1273=DIRECTION('',(0.,1.,0.));
#1274=CARTESIAN_POINT('',(-17.5,20.5,1.2));
#1275=AXIS2_PLACEMENT_3D('',#1276,#1277,#1278);
#1276=CARTESIAN_POINT('',(-17.5,17.5,1.2));
#1277=DIRECTION('',(0.,0.,-1.));
#1278=DIRECTION('',(-6.12323399573677E-17,1.,0.));
#1279=CARTESIAN_POINT('',(-17.5,20.5,0.6));
#1280=AXIS2_PLACEMENT_3D('',#1281,#1282,#1283);
#1281=CARTESIAN_POINT('',(-17.5,17.5,0.6));
#1282=DIRECTION('',(0.,0.,-1.));
#1283=DIRECTION('',(0.,1.,0.));
#1284=CARTESIAN_POINT('',(23.5,26.9,5.));
#1285=CARTESIAN_POINT('',(-23.5,26.9,5.));
#1286=CARTESIAN_POINT('',(23.5,26.9,5.));
#1287=VECTOR('',#1288,1.);
#1288=DIRECTION('',(-1.,-7.55896527404362E-17,0.));
#1289=CARTESIAN_POINT('',(-26.9,23.5,5.));
#1290=AXIS2_PLACEMENT_3D('',#1291,#1292,#1293);
#1291=CARTESIAN_POINT('',(-23.5,23.5,5.));
#1292=DIRECTION('',(0.,0.,1.));
#1293=DIRECTION('',(2.089831575765E-15,1.,0.));
#1294=CARTESIAN_POINT('',(-26.9,-23.5,5.));
#1295=CARTESIAN_POINT('',(-26.9,23.5,5.));
#1296=VECTOR('',#1297,1.);
#1297=DIRECTION('',(7.55896527404362E-17,-1.,0.));
#1298=CARTESIAN_POINT('',(-23.5,-26.9,5.));
#1299=AXIS2_PLACEMENT_3D('',#1300,#1301,#1302);
#1300=CARTESIAN_POINT('',(-23.5,-23.5,5.));
#1301=DIRECTION('',(0.,0.,1.));
#1302=DIRECTION('',(-1.,1.0449157878825E-15,0.));
#1303=CARTESIAN_POINT('',(23.5,-26.9,5.));
#1304=CARTESIAN_POINT('',(-23.5,-26.9,5.));
#1305=VECTOR('',#1306,1.);
#1306=DIRECTION('',(1.,7.55896527404362E-17,0.));
#1307=CARTESIAN_POINT('',(26.9,-23.5,5.));
#1308=AXIS2_PLACEMENT_3D('',#1309,#1310,#1311);
#1309=CARTESIAN_POINT('',(23.5,-23.5,5.));
#1310=DIRECTION('',(0.,0.,1.));
#1311=DIRECTION('',(0.,-1.,0.));
#1312=CARTESIAN_POINT('',(26.9,23.5,5.));
#1313=CARTESIAN_POINT('',(26.9,-23.5,5.));
#1314=VECTOR('',#1315,1.);
#1315=DIRECTION('',(-7.55896527404362E-17,1.,0.));
#1316=AXIS2_PLACEMENT_3D('',#1317,#1318,#1319);
#1317=CARTESIAN_POINT('',(23.5,23.5,5.));
#1318=DIRECTION('',(0.,0.,1.));
#1319=DIRECTION('',(1.,-2.089831575765E-15,0.));
#1320=CARTESIAN_POINT('',(-17.5,-19.75,5.));
#1321=AXIS2_PLACEMENT_3D('',#1322,#1323,#1324);
#1322=CARTESIAN_POINT('',(-17.5,-17.5,5.));
#1323=DIRECTION('',(0.,0.,1.));
#1324=DIRECTION('',(6.12323399573677E-17,-1.,0.));
#1325=CARTESIAN_POINT('',(17.5,15.25,5.));
#1326=AXIS2_PLACEMENT_3D('',#1327,#1328,#1329);
#1327=CARTESIAN_POINT('',(17.5,17.5,5.));
#1328=DIRECTION('',(0.,0.,1.));
#1329=DIRECTION('',(6.12323399573677E-17,-1.,0.));
#1330=CARTESIAN_POINT('',(-23.5,-26.25,5.));
#1331=AXIS2_PLACEMENT_3D('',#1332,#1333,#1334);
#1332=CARTESIAN_POINT('',(-23.5,-23.5,5.));
#1333=DIRECTION('',(0.,0.,1.));
#1334=DIRECTION('',(6.12323399573677E-17,-1.,0.));
#1335=CARTESIAN_POINT('',(23.5,-26.25,5.));
#1336=AXIS2_PLACEMENT_3D('',#1337,#1338,#1339);
#1337=CARTESIAN_POINT('',(23.5,-23.5,5.));
#1338=DIRECTION('',(0.,0.,1.));
#1339=DIRECTION('',(6.12323399573677E-17,-1.,0.));
#1340=CARTESIAN_POINT('',(-8.327598234202E-16,-13.6,5.));
#1341=AXIS2_PLACEMENT_3D('',#1342,#1343,#1344);
#1342=CARTESIAN_POINT('',(0.,0.,5.));
#1343=DIRECTION('',(0.,0.,1.));
#1344=DIRECTION('',(6.12323399573677E-17,-1.,0.));
#1345=CARTESIAN_POINT('',(23.5,20.75,5.));
#1346=AXIS2_PLACEMENT_3D('',#1347,#1348,#1349);
#1347=CARTESIAN_POINT('',(23.5,23.5,5.));
#1348=DIRECTION('',(0.,0.,1.));
#1349=DIRECTION('',(6.12323399573677E-17,-1.,0.));
#1350=CARTESIAN_POINT('',(-23.5,20.75,5.));
#1351=AXIS2_PLACEMENT_3D('',#1352,#1353,#1354);
#1352=CARTESIAN_POINT('',(-23.5,23.5,5.));
#1353=DIRECTION('',(0.,0.,1.));
#1354=DIRECTION('',(6.12323399573677E-17,-1.,0.));
#1355=CARTESIAN_POINT('',(17.5,-19.75,5.));
#1356=AXIS2_PLACEMENT_3D('',#1357,#1358,#1359);
#1357=CARTESIAN_POINT('',(17.5,-17.5,5.));
#1358=DIRECTION('',(0.,0.,1.));
#1359=DIRECTION('',(6.12323399573677E-17,-1.,0.));
#1360=CARTESIAN_POINT('',(-17.5,15.25,5.));
#1361=AXIS2_PLACEMENT_3D('',#1362,#1363,#1364);
#1362=CARTESIAN_POINT('',(-17.5,17.5,5.));
#1363=DIRECTION('',(0.,0.,1.));
#1364=DIRECTION('',(6.12323399573677E-17,-1.,0.));
#1365=CARTESIAN_POINT('',(-27.5,23.5,4.4));
#1366=CARTESIAN_POINT('',(-23.5,27.5,4.4));
#1367=AXIS2_PLACEMENT_3D('',#1368,#1369,#1370);
#1368=CARTESIAN_POINT('',(-23.5,23.5,4.4));
#1369=DIRECTION('',(0.,0.,1.));
#1370=DIRECTION('',(-2.83276944882399E-16,1.,0.));
#1371=CARTESIAN_POINT('',(-23.5,27.5,0.599999999999999));
#1372=CARTESIAN_POINT('',(-23.5,27.5,0.599999999999999));
#1373=VECTOR('',#1374,1.);
#1374=DIRECTION('',(0.,0.,1.));
#1375=CARTESIAN_POINT('',(-27.5,23.5,0.599999999999999));
#1376=AXIS2_PLACEMENT_3D('',#1377,#1378,#1379);
#1377=CARTESIAN_POINT('',(-23.5,23.5,0.599999999999998));
#1378=DIRECTION('',(0.,0.,-1.));
#1379=DIRECTION('',(-1.,0.,0.));
#1380=CARTESIAN_POINT('',(-27.5,23.5,0.599999999999999));
#1381=VECTOR('',#1382,1.);
#1382=DIRECTION('',(0.,0.,1.));
#1383=CARTESIAN_POINT('',(23.5,27.5,4.4));
#1384=CARTESIAN_POINT('',(23.5,27.5,4.4));
#1385=VECTOR('',#1386,1.);
#1386=DIRECTION('',(-1.,0.,-1.8897413185109E-17));
#1387=CARTESIAN_POINT('',(23.5,27.5,0.599999999999999));
#1388=CARTESIAN_POINT('',(23.5,27.5,0.599999999999999));
#1389=VECTOR('',#1390,1.);
#1390=DIRECTION('',(0.,0.,1.));
#1391=CARTESIAN_POINT('',(23.5,27.5,0.6));
#1392=VECTOR('',#1393,1.);
#1393=DIRECTION('',(-1.,0.,-2.36217664813863E-18));
#1394=CARTESIAN_POINT('',(27.5,23.5,4.4));
#1395=AXIS2_PLACEMENT_3D('',#1396,#1397,#1398);
#1396=CARTESIAN_POINT('',(23.5,23.5,4.4));
#1397=DIRECTION('',(0.,0.,1.));
#1398=DIRECTION('',(1.,2.83276944882399E-16,0.));
#1399=CARTESIAN_POINT('',(27.5,23.5,0.599999999999999));
#1400=CARTESIAN_POINT('',(27.5,23.5,0.599999999999999));
#1401=VECTOR('',#1402,1.);
#1402=DIRECTION('',(0.,0.,1.));
#1403=AXIS2_PLACEMENT_3D('',#1404,#1405,#1406);
#1404=CARTESIAN_POINT('',(23.5,23.5,0.599999999999998));
#1405=DIRECTION('',(0.,0.,-1.));
#1406=DIRECTION('',(0.,1.,0.));
#1407=CARTESIAN_POINT('',(27.5,-23.5,4.4));
#1408=CARTESIAN_POINT('',(27.5,-23.5,4.4));
#1409=VECTOR('',#1410,1.);
#1410=DIRECTION('',(0.,1.,-1.8897413185109E-17));
#1411=CARTESIAN_POINT('',(27.5,-23.5,0.599999999999999));
#1412=CARTESIAN_POINT('',(27.5,-23.5,0.599999999999999));
#1413=VECTOR('',#1414,1.);
#1414=DIRECTION('',(0.,0.,1.));
#1415=CARTESIAN_POINT('',(27.5,-23.5,0.6));
#1416=VECTOR('',#1417,1.);
#1417=DIRECTION('',(0.,1.,-2.36217664813863E-18));
#1418=CARTESIAN_POINT('',(23.5,-27.5,4.4));
#1419=AXIS2_PLACEMENT_3D('',#1420,#1421,#1422);
#1420=CARTESIAN_POINT('',(23.5,-23.5,4.4));
#1421=DIRECTION('',(0.,0.,1.));
#1422=DIRECTION('',(2.83276944882399E-16,-1.,0.));
#1423=CARTESIAN_POINT('',(23.5,-27.5,0.599999999999999));
#1424=CARTESIAN_POINT('',(23.5,-27.5,0.599999999999999));
#1425=VECTOR('',#1426,1.);
#1426=DIRECTION('',(0.,0.,1.));
#1427=AXIS2_PLACEMENT_3D('',#1428,#1429,#1430);
#1428=CARTESIAN_POINT('',(23.5,-23.5,0.599999999999998));
#1429=DIRECTION('',(0.,0.,-1.));
#1430=DIRECTION('',(1.,0.,0.));
#1431=CARTESIAN_POINT('',(-23.5,-27.5,4.4));
#1432=CARTESIAN_POINT('',(-23.5,-27.5,4.4));
#1433=VECTOR('',#1434,1.);
#1434=DIRECTION('',(1.,0.,-1.8897413185109E-17));
#1435=CARTESIAN_POINT('',(-23.5,-27.5,0.6));
#1436=CARTESIAN_POINT('',(-23.5,-27.5,0.599999999999999));
#1437=VECTOR('',#1438,1.);
#1438=DIRECTION('',(0.,0.,1.));
#1439=CARTESIAN_POINT('',(-23.5,-27.5,0.6));
#1440=VECTOR('',#1441,1.);
#1441=DIRECTION('',(1.,0.,-2.36217664813863E-18));
#1442=CARTESIAN_POINT('',(-27.5,-23.5,4.4));
#1443=AXIS2_PLACEMENT_3D('',#1444,#1445,#1446);
#1444=CARTESIAN_POINT('',(-23.5,-23.5,4.4));
#1445=DIRECTION('',(0.,0.,1.));
#1446=DIRECTION('',(-1.,-6.12323399573677E-17,0.));
#1447=CARTESIAN_POINT('',(-27.5,-23.5,0.6));
#1448=CARTESIAN_POINT('',(-27.5,-23.5,0.599999999999999));
#1449=VECTOR('',#1450,1.);
#1450=DIRECTION('',(0.,-1.86984930463184E-15,1.));
#1451=AXIS2_PLACEMENT_3D('',#1452,#1453,#1454);
#1452=CARTESIAN_POINT('',(-23.5,-23.5,0.599999999999998));
#1453=DIRECTION('',(0.,0.,-1.));
#1454=DIRECTION('',(0.,-1.,0.));
#1455=CARTESIAN_POINT('',(-27.5,23.5,4.4));
#1456=VECTOR('',#1457,1.);
#1457=DIRECTION('',(0.,-1.,-1.8897413185109E-17));
#1458=CARTESIAN_POINT('',(-27.5,23.5,0.6));
#1459=VECTOR('',#1460,1.);
#1460=DIRECTION('',(0.,-1.,-2.36217664813863E-18));
#1461=CARTESIAN_POINT('',(-7.96020419445779E-16,-13.,4.4));
#1462=AXIS2_PLACEMENT_3D('',#1463,#1464,#1465);
#1463=CARTESIAN_POINT('',(0.,0.,4.4));
#1464=DIRECTION('',(0.,0.,1.));
#1465=DIRECTION('',(6.12323399573677E-17,-1.,0.));
#1466=CARTESIAN_POINT('',(-7.96020419445779E-16,-13.,0.6));
#1467=AXIS2_PLACEMENT_3D('',#1468,#1469,#1470);
#1468=CARTESIAN_POINT('',(0.,0.,0.6));
#1469=DIRECTION('',(0.,0.,1.));
#1470=DIRECTION('',(6.12323399573677E-17,-1.,0.));
#1471=CARTESIAN_POINT('',(-23.5,-25.65,4.4));
#1472=AXIS2_PLACEMENT_3D('',#1473,#1474,#1475);
#1473=CARTESIAN_POINT('',(-23.5,-23.5,4.4));
#1474=DIRECTION('',(0.,0.,1.));
#1475=DIRECTION('',(0.,-1.,0.));
#1476=CARTESIAN_POINT('',(-23.5,-25.65,0.6));
#1477=AXIS2_PLACEMENT_3D('',#1478,#1479,#1480);
#1478=CARTESIAN_POINT('',(-23.5,-23.5,0.6));
#1479=DIRECTION('',(0.,0.,1.));
#1480=DIRECTION('',(0.,-1.,0.));
#1481=CARTESIAN_POINT('',(-23.5,21.35,4.4));
#1482=AXIS2_PLACEMENT_3D('',#1483,#1484,#1485);
#1483=CARTESIAN_POINT('',(-23.5,23.5,4.4));
#1484=DIRECTION('',(0.,0.,1.));
#1485=DIRECTION('',(0.,-1.,0.));
#1486=CARTESIAN_POINT('',(-23.5,21.35,0.6));
#1487=AXIS2_PLACEMENT_3D('',#1488,#1489,#1490);
#1488=CARTESIAN_POINT('',(-23.5,23.5,0.6));
#1489=DIRECTION('',(0.,0.,1.));
#1490=DIRECTION('',(0.,-1.,0.));
#1491=CARTESIAN_POINT('',(23.5,-25.65,4.4));
#1492=AXIS2_PLACEMENT_3D('',#1493,#1494,#1495);
#1493=CARTESIAN_POINT('',(23.5,-23.5,4.4));
#1494=DIRECTION('',(0.,0.,1.));
#1495=DIRECTION('',(0.,-1.,0.));
#1496=CARTESIAN_POINT('',(23.5,-25.65,0.6));
#1497=AXIS2_PLACEMENT_3D('',#1498,#1499,#1500);
#1498=CARTESIAN_POINT('',(23.5,-23.5,0.6));
#1499=DIRECTION('',(0.,0.,1.));
#1500=DIRECTION('',(0.,-1.,0.));
#1501=CARTESIAN_POINT('',(23.5,21.35,4.4));
#1502=AXIS2_PLACEMENT_3D('',#1503,#1504,#1505);
#1503=CARTESIAN_POINT('',(23.5,23.5,4.4));
#1504=DIRECTION('',(0.,0.,1.));
#1505=DIRECTION('',(0.,-1.,0.));
#1506=CARTESIAN_POINT('',(23.5,21.35,0.6));
#1507=AXIS2_PLACEMENT_3D('',#1508,#1509,#1510);
#1508=CARTESIAN_POINT('',(23.5,23.5,0.6));
#1509=DIRECTION('',(0.,0.,1.));
#1510=DIRECTION('',(0.,-1.,0.));
#1511=CARTESIAN_POINT('',(-23.5,-26.9,-8.32667268468867E-16));
#1512=VECTOR('',#1513,1.);
#1513=DIRECTION('',(0.,-0.707106781186545,0.70710678118655));
#1514=CARTESIAN_POINT('',(23.5,-27.5,0.599999999999999));
#1515=VECTOR('',#1516,1.);
#1516=DIRECTION('',(0.,0.707106781186546,-0.707106781186549));
#1517=CARTESIAN_POINT('',(26.9,-23.5,-7.21644966006352E-16));
#1518=VECTOR('',#1519,1.);
#1519=DIRECTION('',(0.707106781186546,0.,0.707106781186548));
#1520=CARTESIAN_POINT('',(27.5,23.5,0.599999999999999));
#1521=VECTOR('',#1522,1.);
#1522=DIRECTION('',(-0.707106781186546,0.,-0.707106781186549));
#1523=CARTESIAN_POINT('',(23.5,26.9,-7.21644966006352E-16));
#1524=VECTOR('',#1525,1.);
#1525=DIRECTION('',(0.,0.707106781186546,0.707106781186548));
#1526=CARTESIAN_POINT('',(-23.5,27.5,0.599999999999999));
#1527=VECTOR('',#1528,1.);
#1528=DIRECTION('',(0.,-0.707106781186546,-0.707106781186549));
#1529=CARTESIAN_POINT('',(-26.9,23.5,-8.32667268468867E-16));
#1530=VECTOR('',#1531,1.);
#1531=DIRECTION('',(-0.707106781186546,0.,0.707106781186549));
#1532=CARTESIAN_POINT('',(-27.5,-23.5,0.600000000000001));
#1533=VECTOR('',#1534,1.);
#1534=DIRECTION('',(0.707106781186545,0.,-0.70710678118655));
#1535=CARTESIAN_POINT('',(-23.5,27.5,4.4));
#1536=VECTOR('',#1537,1.);
#1537=DIRECTION('',(0.,-0.707106781186549,0.707106781186546));
#1538=CARTESIAN_POINT('',(23.5,26.9,5.));
#1539=VECTOR('',#1540,1.);
#1540=DIRECTION('',(0.,0.707106781186549,-0.707106781186546));
#1541=CARTESIAN_POINT('',(-26.9,23.5,5.));
#1542=VECTOR('',#1543,1.);
#1543=DIRECTION('',(-0.707106781186549,0.,-0.707106781186546));
#1544=CARTESIAN_POINT('',(-27.5,-23.5,4.4));
#1545=VECTOR('',#1546,1.);
#1546=DIRECTION('',(0.707106781186545,-4.18691322315674E-15,0.70710678118655));
#1547=CARTESIAN_POINT('',(-23.5,-26.9,5.));
#1548=VECTOR('',#1549,1.);
#1549=DIRECTION('',(0.,-0.707106781186546,-0.707106781186549));
#1550=CARTESIAN_POINT('',(23.5,-27.5,4.4));
#1551=VECTOR('',#1552,1.);
#1552=DIRECTION('',(0.,0.707106781186546,0.707106781186548));
#1553=CARTESIAN_POINT('',(26.9,-23.5,5.));
#1554=VECTOR('',#1555,1.);
#1555=DIRECTION('',(0.707106781186547,0.,-0.707106781186548));
#1556=CARTESIAN_POINT('',(27.5,23.5,4.4));
#1557=VECTOR('',#1558,1.);
#1558=DIRECTION('',(-0.707106781186549,0.,0.707106781186546));
ENDSEC;
END-ISO-10303-21;
