ISO-10303-21;
HEADER;
FILE_DESCRIPTION(('STEP AP242'),
    '1');
FILE_NAME('MotorBase',
    '',
    ('UNSPECIFIED'),
    ('UNSPECIFIED'),
    'C3D Converter',
    'C3D Toolkit',
    '');
FILE_SCHEMA(('AP242_MANAGED_MODEL_BASED_3D_ENGINEERING_MIM_LF { 1 0 10303 442 1 1 4 }'));
ENDSEC;

DATA;
#1=PRODUCT_DEFINITION('','UNSPECIFIED',#28,#31);
#2=SHAPE_DEFINITION_REPRESENTATION(#26,#3);
#3=SHAPE_REPRESENTATION('NONE',(#4),#8);
#4=AXIS2_PLACEMENT_3D('',#5,#6,#7);
#5=CARTESIAN_POINT('',(0.,0.,0.));
#6=DIRECTION('',(0.,0.,1.));
#7=DIRECTION('',(1.,0.,0.));
#8=(GEOMETRIC_REPRESENTATION_CONTEXT(3)GLOBAL_UNCERTAINTY_ASSIGNED_CONTEXT((#10))
GLOBAL_UNIT_ASSIGNED_CONTEXT((#9,#11,#12))REPRESENTATION_CONTEXT('NONE','NONE'));
#9=(LENGTH_UNIT()NAMED_UNIT(*)SI_UNIT(.MILLI.,.METRE.));
#10=UNCERTAINTY_MEASURE_WITH_UNIT(LENGTH_MEASURE(1.E-5),#9,'NONE','NONE');
#11=(NAMED_UNIT(*)PLANE_ANGLE_UNIT()SI_UNIT($,.RADIAN.));
#12=(NAMED_UNIT(*)SI_UNIT($,.STERADIAN.)SOLID_ANGLE_UNIT());
#13=MANIFOLD_SOLID_BREP('',#14);
#14=CLOSED_SHELL('',(#53,#54,#55,#56,#57,#58,#59,#60,#61,#62,#63,#64,#65,#66,#67,
#68,#69,#70,#71,#72,#73,#74,#75,#76,#77,#78,#79,#80,#81,#82,#83,#84,#85,#86,#87,
#88,#89,#90,#91,#92,#93,#94,#95,#96,#97,#98,#99,#100,#101,#102,#103,#104,#105,#106,
#107,#108,#109,#110,#111,#112,#113));
#15=COLOUR_RGB('',0.564705882352941,0.564705882352941,0.564705882352941);
#16=FILL_AREA_STYLE_COLOUR('',#15);
#17=FILL_AREA_STYLE($,(#16));
#18=SURFACE_STYLE_FILL_AREA(#17);
#19=SURFACE_SIDE_STYLE('',(#18));
#20=SURFACE_STYLE_USAGE(.BOTH.,#19);
#21=PRESENTATION_STYLE_ASSIGNMENT((#20));
#22=MECHANICAL_DESIGN_GEOMETRIC_PRESENTATION_REPRESENTATION('NONE',(#23),#8);
#23=STYLED_ITEM('',(#21),#13);
#24=ADVANCED_BREP_SHAPE_REPRESENTATION('NONE',(#13),#8);
#25=SHAPE_REPRESENTATION_RELATIONSHIP('','',#3,#24);
#26=PRODUCT_DEFINITION_SHAPE('NONE','NONE',#1);
#27=MECHANICAL_CONTEXT('NONE',#32,'mechanical');
#28=PRODUCT_DEFINITION_FORMATION_WITH_SPECIFIED_SOURCE('ANY','UNSPECIFIED',#29,.NOT_KNOWN.);
#29=PRODUCT('','\X2\0414043504420430043B044C\X0\','NONE',(#27));
#30=PRODUCT_RELATED_PRODUCT_CATEGORY('detail','',(#29));
#31=DESIGN_CONTEXT('detailed design',#32,'design');
#32=APPLICATION_CONTEXT('configuration controlled 3d designs of mechanical parts and assemblies');
#33=APPLICATION_PROTOCOL_DEFINITION('international standard','config_control_design',
1994,#32);
#34=CC_DESIGN_DATE_AND_TIME_ASSIGNMENT(#35,#39,(#1));
#35=DATE_AND_TIME(#36,#37);
#36=CALENDAR_DATE(0,1,1);
#37=LOCAL_TIME(0,0,0.,#38);
#38=COORDINATED_UNIVERSAL_TIME_OFFSET(0,0,.AHEAD.);
#39=DATE_TIME_ROLE('creation_date');
#40=CC_DESIGN_APPROVAL(#41,(#1));
#41=APPROVAL(#42,'UNSPECIFIED');
#42=APPROVAL_STATUS('not_yet_approved');
#43=APPROVAL_DATE_TIME(#44,#41);
#44=DATE_AND_TIME(#45,#46);
#45=CALENDAR_DATE(0,1,1);
#46=LOCAL_TIME(0,0,0.,#47);
#47=COORDINATED_UNIVERSAL_TIME_OFFSET(0,0,.AHEAD.);
#48=PERSON('UNSPECIFIED','ledibonibell','UNSPECIFIED',('UNSPECIFIED'),('UNSPECIFIED'),
('UNSPECIFIED'));
#49=ORGANIZATION('UNSPECIFIED','UNSPECIFIED','UNSPECIFIED');
#50=PERSON_AND_ORGANIZATION(#48,#49);
#51=PERSON_AND_ORGANIZATION_ROLE('creator');
#52=CC_DESIGN_PERSON_AND_ORGANIZATION_ASSIGNMENT(#50,#51,(#28,#1));
#53=ADVANCED_FACE('',(#114,#116),#118,.F.);
#54=ADVANCED_FACE('',(#123,#125),#127,.F.);
#55=ADVANCED_FACE('',(#132,#134),#136,.F.);
#56=ADVANCED_FACE('',(#141,#143),#145,.F.);
#57=ADVANCED_FACE('',(#150,#152,#154,#156,#158,#160),#162,.F.);
#58=ADVANCED_FACE('',(#167,#169),#171,.T.);
#59=ADVANCED_FACE('',(#176,#178),#180,.F.);
#60=ADVANCED_FACE('',(#185,#187),#189,.T.);
#61=ADVANCED_FACE('',(#194,#196),#198,.F.);
#62=ADVANCED_FACE('',(#203,#205),#207,.T.);
#63=ADVANCED_FACE('',(#212,#214),#216,.F.);
#64=ADVANCED_FACE('',(#221,#223),#225,.T.);
#65=ADVANCED_FACE('',(#230,#232),#234,.F.);
#66=ADVANCED_FACE('',(#239,#241,#243,#245,#247,#249,#251,#253,#255,#257),#259,.T.);
#67=ADVANCED_FACE('',(#264),#266,.T.);
#68=ADVANCED_FACE('',(#271),#273,.T.);
#69=ADVANCED_FACE('',(#278),#280,.T.);
#70=ADVANCED_FACE('',(#285),#287,.T.);
#71=ADVANCED_FACE('',(#292),#294,.T.);
#72=ADVANCED_FACE('',(#299),#301,.T.);
#73=ADVANCED_FACE('',(#306),#308,.T.);
#74=ADVANCED_FACE('',(#313),#315,.T.);
#75=ADVANCED_FACE('',(#320,#322),#324,.F.);
#76=ADVANCED_FACE('',(#329,#331),#333,.F.);
#77=ADVANCED_FACE('',(#338,#340),#342,.F.);
#78=ADVANCED_FACE('',(#347,#349),#351,.F.);
#79=ADVANCED_FACE('',(#356,#358),#360,.F.);
#80=ADVANCED_FACE('',(#365,#367),#369,.F.);
#81=ADVANCED_FACE('',(#374,#376),#378,.F.);
#82=ADVANCED_FACE('',(#383),#385,.F.);
#83=ADVANCED_FACE('',(#390),#392,.T.);
#84=ADVANCED_FACE('',(#397),#399,.F.);
#85=ADVANCED_FACE('',(#404),#406,.T.);
#86=ADVANCED_FACE('',(#411),#413,.F.);
#87=ADVANCED_FACE('',(#418),#420,.T.);
#88=ADVANCED_FACE('',(#425),#427,.F.);
#89=ADVANCED_FACE('',(#432),#434,.T.);
#90=ADVANCED_FACE('',(#439),#441,.T.);
#91=ADVANCED_FACE('',(#446),#448,.T.);
#92=ADVANCED_FACE('',(#453),#455,.T.);
#93=ADVANCED_FACE('',(#460),#462,.T.);
#94=ADVANCED_FACE('',(#467),#469,.T.);
#95=ADVANCED_FACE('',(#474),#476,.T.);
#96=ADVANCED_FACE('',(#481),#483,.T.);
#97=ADVANCED_FACE('',(#488),#490,.T.);
#98=ADVANCED_FACE('',(#495,#497),#499,.F.);
#99=ADVANCED_FACE('',(#504,#506),#508,.F.);
#100=ADVANCED_FACE('',(#513,#515),#517,.F.);
#101=ADVANCED_FACE('',(#522,#524),#526,.F.);
#102=ADVANCED_FACE('',(#531,#533),#535,.F.);
#103=ADVANCED_FACE('',(#540,#542),#544,.F.);
#104=ADVANCED_FACE('',(#549,#551),#553,.F.);
#105=ADVANCED_FACE('',(#558,#560),#562,.F.);
#106=ADVANCED_FACE('',(#567,#569),#571,.F.);
#107=ADVANCED_FACE('',(#576,#578),#580,.F.);
#108=ADVANCED_FACE('',(#585,#587),#589,.F.);
#109=ADVANCED_FACE('',(#594,#596),#598,.F.);
#110=ADVANCED_FACE('',(#603,#605),#607,.F.);
#111=ADVANCED_FACE('',(#612,#614),#616,.F.);
#112=ADVANCED_FACE('',(#621,#623),#625,.F.);
#113=ADVANCED_FACE('',(#630,#632),#634,.F.);
#114=FACE_OUTER_BOUND('',#115,.T.);
#115=EDGE_LOOP('',(#639));
#116=FACE_OUTER_BOUND('',#117,.T.);
#117=EDGE_LOOP('',(#640));
#118=CYLINDRICAL_SURFACE('',#119,2.1);
#119=AXIS2_PLACEMENT_3D('',#120,#121,#122);
#120=CARTESIAN_POINT('',(1.07156594925393E-15,17.5,-5.));
#121=DIRECTION('',(0.,0.,1.));
#122=DIRECTION('',(6.12323399573677E-17,-1.,0.));
#123=FACE_OUTER_BOUND('',#124,.T.);
#124=EDGE_LOOP('',(#641));
#125=FACE_OUTER_BOUND('',#126,.T.);
#126=EDGE_LOOP('',(#642));
#127=CYLINDRICAL_SURFACE('',#128,2.1);
#128=AXIS2_PLACEMENT_3D('',#129,#130,#131);
#129=CARTESIAN_POINT('',(17.5,0.,-5.));
#130=DIRECTION('',(0.,0.,1.));
#131=DIRECTION('',(6.12323399573677E-17,-1.,0.));
#132=FACE_OUTER_BOUND('',#133,.T.);
#133=EDGE_LOOP('',(#643));
#134=FACE_OUTER_BOUND('',#135,.T.);
#135=EDGE_LOOP('',(#644));
#136=CYLINDRICAL_SURFACE('',#137,2.1);
#137=AXIS2_PLACEMENT_3D('',#138,#139,#140);
#138=CARTESIAN_POINT('',(1.07156594925393E-15,-17.5,-5.));
#139=DIRECTION('',(0.,0.,1.));
#140=DIRECTION('',(6.12323399573677E-17,-1.,0.));
#141=FACE_OUTER_BOUND('',#142,.T.);
#142=EDGE_LOOP('',(#645));
#143=FACE_OUTER_BOUND('',#144,.T.);
#144=EDGE_LOOP('',(#646));
#145=CYLINDRICAL_SURFACE('',#146,2.1);
#146=AXIS2_PLACEMENT_3D('',#147,#148,#149);
#147=CARTESIAN_POINT('',(-17.5,2.14313189850787E-15,-5.));
#148=DIRECTION('',(0.,0.,1.));
#149=DIRECTION('',(6.12323399573677E-17,-1.,0.));
#150=FACE_BOUND('',#151,.T.);
#151=EDGE_LOOP('',(#647,#648,#649,#650,#651,#652,#653,#654));
#152=FACE_BOUND('',#153,.T.);
#153=EDGE_LOOP('',(#655));
#154=FACE_BOUND('',#155,.T.);
#155=EDGE_LOOP('',(#656));
#156=FACE_BOUND('',#157,.T.);
#157=EDGE_LOOP('',(#657,#658,#659,#660,#661,#662,#663,#664,#665,#666,#667));
#158=FACE_BOUND('',#159,.T.);
#159=EDGE_LOOP('',(#668));
#160=FACE_BOUND('',#161,.T.);
#161=EDGE_LOOP('',(#669));
#162=PLANE('',#163);
#163=AXIS2_PLACEMENT_3D('',#164,#165,#166);
#164=CARTESIAN_POINT('',(0.,0.,0.));
#165=DIRECTION('',(0.,0.,1.));
#166=DIRECTION('',(6.12323399573677E-17,-1.,0.));
#167=FACE_BOUND('',#168,.T.);
#168=EDGE_LOOP('',(#670));
#169=FACE_BOUND('',#170,.T.);
#170=EDGE_LOOP('',(#671));
#171=PLANE('',#172);
#172=AXIS2_PLACEMENT_3D('',#173,#174,#175);
#173=CARTESIAN_POINT('',(0.,0.,2.4));
#174=DIRECTION('',(0.,0.,-1.));
#175=DIRECTION('',(-6.12323399573677E-17,1.,0.));
#176=FACE_OUTER_BOUND('',#177,.T.);
#177=EDGE_LOOP('',(#672));
#178=FACE_OUTER_BOUND('',#179,.T.);
#179=EDGE_LOOP('',(#673));
#180=CYLINDRICAL_SURFACE('',#181,3.8);
#181=AXIS2_PLACEMENT_3D('',#182,#183,#184);
#182=CARTESIAN_POINT('',(-17.5,2.14313189850787E-15,2.4));
#183=DIRECTION('',(0.,0.,-1.));
#184=DIRECTION('',(-6.12323399573676E-17,1.,0.));
#185=FACE_BOUND('',#186,.T.);
#186=EDGE_LOOP('',(#674));
#187=FACE_BOUND('',#188,.T.);
#188=EDGE_LOOP('',(#675));
#189=PLANE('',#190);
#190=AXIS2_PLACEMENT_3D('',#191,#192,#193);
#191=CARTESIAN_POINT('',(0.,0.,2.4));
#192=DIRECTION('',(0.,0.,-1.));
#193=DIRECTION('',(-6.12323399573677E-17,1.,0.));
#194=FACE_OUTER_BOUND('',#195,.T.);
#195=EDGE_LOOP('',(#676));
#196=FACE_OUTER_BOUND('',#197,.T.);
#197=EDGE_LOOP('',(#677));
#198=CYLINDRICAL_SURFACE('',#199,3.8);
#199=AXIS2_PLACEMENT_3D('',#200,#201,#202);
#200=CARTESIAN_POINT('',(1.07156594925393E-15,17.5,2.4));
#201=DIRECTION('',(0.,0.,-1.));
#202=DIRECTION('',(-6.12323399573676E-17,1.,0.));
#203=FACE_BOUND('',#204,.T.);
#204=EDGE_LOOP('',(#678));
#205=FACE_BOUND('',#206,.T.);
#206=EDGE_LOOP('',(#679));
#207=PLANE('',#208);
#208=AXIS2_PLACEMENT_3D('',#209,#210,#211);
#209=CARTESIAN_POINT('',(0.,0.,2.4));
#210=DIRECTION('',(0.,0.,-1.));
#211=DIRECTION('',(-6.12323399573677E-17,1.,0.));
#212=FACE_OUTER_BOUND('',#213,.T.);
#213=EDGE_LOOP('',(#680));
#214=FACE_OUTER_BOUND('',#215,.T.);
#215=EDGE_LOOP('',(#681));
#216=CYLINDRICAL_SURFACE('',#217,3.8);
#217=AXIS2_PLACEMENT_3D('',#218,#219,#220);
#218=CARTESIAN_POINT('',(17.5,0.,2.4));
#219=DIRECTION('',(0.,0.,-1.));
#220=DIRECTION('',(-6.12323399573676E-17,1.,0.));
#221=FACE_BOUND('',#222,.T.);
#222=EDGE_LOOP('',(#682));
#223=FACE_BOUND('',#224,.T.);
#224=EDGE_LOOP('',(#683));
#225=PLANE('',#226);
#226=AXIS2_PLACEMENT_3D('',#227,#228,#229);
#227=CARTESIAN_POINT('',(0.,0.,2.4));
#228=DIRECTION('',(0.,0.,-1.));
#229=DIRECTION('',(-6.12323399573677E-17,1.,0.));
#230=FACE_OUTER_BOUND('',#231,.T.);
#231=EDGE_LOOP('',(#684));
#232=FACE_OUTER_BOUND('',#233,.T.);
#233=EDGE_LOOP('',(#685));
#234=CYLINDRICAL_SURFACE('',#235,3.8);
#235=AXIS2_PLACEMENT_3D('',#236,#237,#238);
#236=CARTESIAN_POINT('',(1.07156594925393E-15,-17.5,2.4));
#237=DIRECTION('',(0.,0.,-1.));
#238=DIRECTION('',(-6.12323399573676E-17,1.,0.));
#239=FACE_BOUND('',#240,.T.);
#240=EDGE_LOOP('',(#686,#687,#688,#689,#690,#691,#692,#693));
#241=FACE_BOUND('',#242,.T.);
#242=EDGE_LOOP('',(#694));
#243=FACE_BOUND('',#244,.T.);
#244=EDGE_LOOP('',(#695));
#245=FACE_BOUND('',#246,.T.);
#246=EDGE_LOOP('',(#696));
#247=FACE_BOUND('',#248,.T.);
#248=EDGE_LOOP('',(#697));
#249=FACE_BOUND('',#250,.T.);
#250=EDGE_LOOP('',(#698));
#251=FACE_BOUND('',#252,.T.);
#252=EDGE_LOOP('',(#699));
#253=FACE_BOUND('',#254,.T.);
#254=EDGE_LOOP('',(#700));
#255=FACE_BOUND('',#256,.T.);
#256=EDGE_LOOP('',(#701));
#257=FACE_BOUND('',#258,.T.);
#258=EDGE_LOOP('',(#702));
#259=PLANE('',#260);
#260=AXIS2_PLACEMENT_3D('',#261,#262,#263);
#261=CARTESIAN_POINT('',(0.,0.,5.));
#262=DIRECTION('',(0.,0.,1.));
#263=DIRECTION('',(6.12323399573677E-17,-1.,0.));
#264=FACE_BOUND('',#265,.T.);
#265=EDGE_LOOP('',(#703,#704,#705,#706));
#266=CYLINDRICAL_SURFACE('',#267,4.);
#267=AXIS2_PLACEMENT_3D('',#268,#269,#270);
#268=CARTESIAN_POINT('',(-23.5,23.5,-16.));
#269=DIRECTION('',(0.,0.,-1.));
#270=DIRECTION('',(-1.,0.,0.));
#271=FACE_BOUND('',#272,.T.);
#272=EDGE_LOOP('',(#707,#708,#709,#710));
#273=PLANE('',#274);
#274=AXIS2_PLACEMENT_3D('',#275,#276,#277);
#275=CARTESIAN_POINT('',(27.5,27.5,0.));
#276=DIRECTION('',(0.,1.,0.));
#277=DIRECTION('',(-1.,0.,0.));
#278=FACE_BOUND('',#279,.T.);
#279=EDGE_LOOP('',(#711,#712,#713,#714));
#280=CYLINDRICAL_SURFACE('',#281,4.);
#281=AXIS2_PLACEMENT_3D('',#282,#283,#284);
#282=CARTESIAN_POINT('',(23.5,23.5,-16.));
#283=DIRECTION('',(0.,0.,-1.));
#284=DIRECTION('',(0.,1.,0.));
#285=FACE_BOUND('',#286,.T.);
#286=EDGE_LOOP('',(#715,#716,#717,#718));
#287=PLANE('',#288);
#288=AXIS2_PLACEMENT_3D('',#289,#290,#291);
#289=CARTESIAN_POINT('',(27.5,-27.5,0.));
#290=DIRECTION('',(1.,0.,0.));
#291=DIRECTION('',(0.,1.,0.));
#292=FACE_BOUND('',#293,.T.);
#293=EDGE_LOOP('',(#719,#720,#721,#722));
#294=CYLINDRICAL_SURFACE('',#295,4.);
#295=AXIS2_PLACEMENT_3D('',#296,#297,#298);
#296=CARTESIAN_POINT('',(23.5,-23.5,-16.));
#297=DIRECTION('',(0.,0.,-1.));
#298=DIRECTION('',(1.,0.,0.));
#299=FACE_BOUND('',#300,.T.);
#300=EDGE_LOOP('',(#723,#724,#725,#726));
#301=PLANE('',#302);
#302=AXIS2_PLACEMENT_3D('',#303,#304,#305);
#303=CARTESIAN_POINT('',(-27.5,-27.5,0.));
#304=DIRECTION('',(0.,-1.,0.));
#305=DIRECTION('',(1.,0.,0.));
#306=FACE_BOUND('',#307,.T.);
#307=EDGE_LOOP('',(#727,#728,#729,#730));
#308=CYLINDRICAL_SURFACE('',#309,4.);
#309=AXIS2_PLACEMENT_3D('',#310,#311,#312);
#310=CARTESIAN_POINT('',(-23.5,-23.5,-16.));
#311=DIRECTION('',(0.,0.,-1.));
#312=DIRECTION('',(0.,-1.,0.));
#313=FACE_BOUND('',#314,.T.);
#314=EDGE_LOOP('',(#731,#732,#733,#734));
#315=PLANE('',#316);
#316=AXIS2_PLACEMENT_3D('',#317,#318,#319);
#317=CARTESIAN_POINT('',(-27.5,27.5,0.));
#318=DIRECTION('',(-1.,0.,0.));
#319=DIRECTION('',(0.,-1.,0.));
#320=FACE_OUTER_BOUND('',#321,.T.);
#321=EDGE_LOOP('',(#735));
#322=FACE_OUTER_BOUND('',#323,.T.);
#323=EDGE_LOOP('',(#736));
#324=CYLINDRICAL_SURFACE('',#325,12.75);
#325=AXIS2_PLACEMENT_3D('',#326,#327,#328);
#326=CARTESIAN_POINT('',(0.,0.,-5.));
#327=DIRECTION('',(0.,0.,1.));
#328=DIRECTION('',(6.12323399573677E-17,-1.,0.));
#329=FACE_OUTER_BOUND('',#330,.T.);
#330=EDGE_LOOP('',(#737));
#331=FACE_OUTER_BOUND('',#332,.T.);
#332=EDGE_LOOP('',(#738));
#333=CYLINDRICAL_SURFACE('',#334,2.15);
#334=AXIS2_PLACEMENT_3D('',#335,#336,#337);
#335=CARTESIAN_POINT('',(-23.5,-23.5,-5.));
#336=DIRECTION('',(0.,0.,1.));
#337=DIRECTION('',(6.12323399573677E-17,-1.,0.));
#338=FACE_OUTER_BOUND('',#339,.T.);
#339=EDGE_LOOP('',(#739));
#340=FACE_OUTER_BOUND('',#341,.T.);
#341=EDGE_LOOP('',(#740));
#342=CYLINDRICAL_SURFACE('',#343,2.15);
#343=AXIS2_PLACEMENT_3D('',#344,#345,#346);
#344=CARTESIAN_POINT('',(-23.5,23.5,-5.));
#345=DIRECTION('',(0.,0.,1.));
#346=DIRECTION('',(6.12323399573677E-17,-1.,0.));
#347=FACE_OUTER_BOUND('',#348,.T.);
#348=EDGE_LOOP('',(#741));
#349=FACE_OUTER_BOUND('',#350,.T.);
#350=EDGE_LOOP('',(#742));
#351=CYLINDRICAL_SURFACE('',#352,2.15);
#352=AXIS2_PLACEMENT_3D('',#353,#354,#355);
#353=CARTESIAN_POINT('',(23.5,-23.5,-5.));
#354=DIRECTION('',(0.,0.,1.));
#355=DIRECTION('',(6.12323399573677E-17,-1.,0.));
#356=FACE_OUTER_BOUND('',#357,.T.);
#357=EDGE_LOOP('',(#743));
#358=FACE_OUTER_BOUND('',#359,.T.);
#359=EDGE_LOOP('',(#744));
#360=CYLINDRICAL_SURFACE('',#361,2.15);
#361=AXIS2_PLACEMENT_3D('',#362,#363,#364);
#362=CARTESIAN_POINT('',(23.5,23.5,-5.));
#363=DIRECTION('',(0.,0.,1.));
#364=DIRECTION('',(6.12323399573677E-17,-1.,0.));
#365=FACE_BOUND('',#366,.T.);
#366=EDGE_LOOP('',(#745,#746,#747,#748,#749,#750,#751,#752,#753));
#367=FACE_OUTER_BOUND('',#368,.T.);
#368=EDGE_LOOP('',(#754));
#369=CONICAL_SURFACE('',#370,13.05,0.785398163397448);
#370=AXIS2_PLACEMENT_3D('',#371,#372,#373);
#371=CARTESIAN_POINT('',(0.,0.,0.3));
#372=DIRECTION('',(0.,0.,-1.));
#373=DIRECTION('',(-6.12323399573677E-17,1.,0.));
#374=FACE_OUTER_BOUND('',#375,.T.);
#375=EDGE_LOOP('',(#755));
#376=FACE_OUTER_BOUND('',#377,.T.);
#377=EDGE_LOOP('',(#756));
#378=CONICAL_SURFACE('',#379,13.05,0.785398163397448);
#379=AXIS2_PLACEMENT_3D('',#380,#381,#382);
#380=CARTESIAN_POINT('',(0.,0.,4.7));
#381=DIRECTION('',(0.,0.,1.));
#382=DIRECTION('',(6.12323399573677E-17,-1.,0.));
#383=FACE_BOUND('',#384,.T.);
#384=EDGE_LOOP('',(#757,#758,#759,#760));
#385=PLANE('',#386);
#386=AXIS2_PLACEMENT_3D('',#387,#388,#389);
#387=CARTESIAN_POINT('',(-25.9,-27.5,0.6));
#388=DIRECTION('',(1.51553326127777E-18,0.707106781186549,0.707106781186546));
#389=DIRECTION('',(1.,0.,-2.14328769232656E-18));
#390=FACE_BOUND('',#391,.T.);
#391=EDGE_LOOP('',(#761,#762,#763,#764));
#392=CONICAL_SURFACE('',#393,3.7,0.785398163397451);
#393=AXIS2_PLACEMENT_3D('',#394,#395,#396);
#394=CARTESIAN_POINT('',(23.5,-23.5,0.299999999999999));
#395=DIRECTION('',(0.,0.,1.));
#396=DIRECTION('',(-0.938360128310479,-0.345659181271294,0.));
#397=FACE_BOUND('',#398,.T.);
#398=EDGE_LOOP('',(#765,#766,#767,#768));
#399=PLANE('',#400);
#400=AXIS2_PLACEMENT_3D('',#401,#402,#403);
#401=CARTESIAN_POINT('',(27.5,-25.9,0.6));
#402=DIRECTION('',(-0.707106781186549,1.51553326127777E-18,0.707106781186546));
#403=DIRECTION('',(0.,1.,-2.14328769232656E-18));
#404=FACE_BOUND('',#405,.T.);
#405=EDGE_LOOP('',(#769,#770,#771,#772));
#406=CONICAL_SURFACE('',#407,3.7,0.785398163397451);
#407=AXIS2_PLACEMENT_3D('',#408,#409,#410);
#408=CARTESIAN_POINT('',(23.5,23.5,0.299999999999999));
#409=DIRECTION('',(0.,0.,1.));
#410=DIRECTION('',(0.345659181271294,-0.938360128310479,0.));
#411=FACE_BOUND('',#412,.T.);
#412=EDGE_LOOP('',(#773,#774,#775,#776));
#413=PLANE('',#414);
#414=AXIS2_PLACEMENT_3D('',#415,#416,#417);
#415=CARTESIAN_POINT('',(25.9,27.5,0.6));
#416=DIRECTION('',(-1.51553326127777E-18,-0.707106781186549,0.707106781186546));
#417=DIRECTION('',(-1.,0.,-2.14328769232656E-18));
#418=FACE_BOUND('',#419,.T.);
#419=EDGE_LOOP('',(#777,#778,#779,#780));
#420=CONICAL_SURFACE('',#421,3.7,0.785398163397451);
#421=AXIS2_PLACEMENT_3D('',#422,#423,#424);
#422=CARTESIAN_POINT('',(-23.5,23.5,0.299999999999999));
#423=DIRECTION('',(0.,0.,1.));
#424=DIRECTION('',(0.938360128310479,0.345659181271294,0.));
#425=FACE_BOUND('',#426,.T.);
#426=EDGE_LOOP('',(#781,#782,#783,#784));
#427=PLANE('',#428);
#428=AXIS2_PLACEMENT_3D('',#429,#430,#431);
#429=CARTESIAN_POINT('',(-27.5,25.9,0.6));
#430=DIRECTION('',(0.707106781186549,-1.51553326127777E-18,0.707106781186546));
#431=DIRECTION('',(0.,-1.,-2.14328769232656E-18));
#432=FACE_BOUND('',#433,.T.);
#433=EDGE_LOOP('',(#785,#786,#787,#788));
#434=CONICAL_SURFACE('',#435,3.7,0.785398163397448);
#435=AXIS2_PLACEMENT_3D('',#436,#437,#438);
#436=CARTESIAN_POINT('',(-23.5,-23.5,0.300000000000001));
#437=DIRECTION('',(0.,0.,1.));
#438=DIRECTION('',(-0.345659181271294,0.938360128310479,0.));
#439=FACE_BOUND('',#440,.T.);
#440=EDGE_LOOP('',(#789,#790,#791,#792));
#441=PLANE('',#442);
#442=AXIS2_PLACEMENT_3D('',#443,#444,#445);
#443=CARTESIAN_POINT('',(25.9,27.5,4.4));
#444=DIRECTION('',(-1.21242660902222E-17,0.707106781186548,0.707106781186547));
#445=DIRECTION('',(-1.,0.,-1.71463015386125E-17));
#446=FACE_BOUND('',#447,.T.);
#447=EDGE_LOOP('',(#793,#794,#795,#796));
#448=CONICAL_SURFACE('',#449,3.7,0.785398163397449);
#449=AXIS2_PLACEMENT_3D('',#450,#451,#452);
#450=CARTESIAN_POINT('',(-23.5,23.5,4.7));
#451=DIRECTION('',(0.,0.,-1.));
#452=DIRECTION('',(-0.345659181271295,-0.938360128310479,0.));
#453=FACE_BOUND('',#454,.T.);
#454=EDGE_LOOP('',(#797,#798,#799,#800));
#455=PLANE('',#456);
#456=AXIS2_PLACEMENT_3D('',#457,#458,#459);
#457=CARTESIAN_POINT('',(-27.5,25.9,4.4));
#458=DIRECTION('',(-0.707106781186548,-1.21242660902222E-17,0.707106781186547));
#459=DIRECTION('',(0.,-1.,-1.71463015386125E-17));
#460=FACE_BOUND('',#461,.T.);
#461=EDGE_LOOP('',(#801,#802,#803,#804));
#462=CONICAL_SURFACE('',#463,3.7,0.785398163397445);
#463=AXIS2_PLACEMENT_3D('',#464,#465,#466);
#464=CARTESIAN_POINT('',(-23.5,-23.5,4.7));
#465=DIRECTION('',(0.,0.,-1.));
#466=DIRECTION('',(0.938360128310479,-0.345659181271295,0.));
#467=FACE_BOUND('',#468,.T.);
#468=EDGE_LOOP('',(#805,#806,#807,#808));
#469=PLANE('',#470);
#470=AXIS2_PLACEMENT_3D('',#471,#472,#473);
#471=CARTESIAN_POINT('',(-25.9,-27.5,4.4));
#472=DIRECTION('',(1.21242660902222E-17,-0.707106781186548,0.707106781186547));
#473=DIRECTION('',(1.,0.,-1.71463015386125E-17));
#474=FACE_BOUND('',#475,.T.);
#475=EDGE_LOOP('',(#809,#810,#811,#812));
#476=CONICAL_SURFACE('',#477,3.7,0.785398163397448);
#477=AXIS2_PLACEMENT_3D('',#478,#479,#480);
#478=CARTESIAN_POINT('',(23.5,-23.5,4.7));
#479=DIRECTION('',(0.,0.,-1.));
#480=DIRECTION('',(0.345659181271294,0.938360128310479,0.));
#481=FACE_BOUND('',#482,.T.);
#482=EDGE_LOOP('',(#813,#814,#815,#816));
#483=PLANE('',#484);
#484=AXIS2_PLACEMENT_3D('',#485,#486,#487);
#485=CARTESIAN_POINT('',(27.5,-25.9,4.4));
#486=DIRECTION('',(0.707106781186548,1.21242660902222E-17,0.707106781186547));
#487=DIRECTION('',(0.,1.,-1.71463015386125E-17));
#488=FACE_BOUND('',#489,.T.);
#489=EDGE_LOOP('',(#817,#818,#819,#820));
#490=CONICAL_SURFACE('',#491,3.7,0.785398163397449);
#491=AXIS2_PLACEMENT_3D('',#492,#493,#494);
#492=CARTESIAN_POINT('',(23.5,23.5,4.7));
#493=DIRECTION('',(0.,0.,-1.));
#494=DIRECTION('',(-0.938360128310479,0.345659181271295,0.));
#495=FACE_BOUND('',#496,.T.);
#496=EDGE_LOOP('',(#821,#822,#823));
#497=FACE_OUTER_BOUND('',#498,.T.);
#498=EDGE_LOOP('',(#824));
#499=CONICAL_SURFACE('',#500,4.1,0.785398163397448);
#500=AXIS2_PLACEMENT_3D('',#501,#502,#503);
#501=CARTESIAN_POINT('',(1.07156594925393E-15,-17.5,0.3));
#502=DIRECTION('',(0.,0.,-1.));
#503=DIRECTION('',(4.48041511883177E-18,1.,0.));
#504=FACE_BOUND('',#505,.T.);
#505=EDGE_LOOP('',(#825,#826,#827));
#506=FACE_OUTER_BOUND('',#507,.T.);
#507=EDGE_LOOP('',(#828));
#508=CONICAL_SURFACE('',#509,4.1,0.785398163397449);
#509=AXIS2_PLACEMENT_3D('',#510,#511,#512);
#510=CARTESIAN_POINT('',(17.5,0.,0.3));
#511=DIRECTION('',(0.,0.,-1.));
#512=DIRECTION('',(0.,1.,0.));
#513=FACE_BOUND('',#514,.T.);
#514=EDGE_LOOP('',(#829,#830,#831));
#515=FACE_OUTER_BOUND('',#516,.T.);
#516=EDGE_LOOP('',(#832));
#517=CONICAL_SURFACE('',#518,4.1,0.78539816339745);
#518=AXIS2_PLACEMENT_3D('',#519,#520,#521);
#519=CARTESIAN_POINT('',(1.07156594925393E-15,17.5,0.3));
#520=DIRECTION('',(0.,0.,-1.));
#521=DIRECTION('',(4.48041511883181E-18,1.,0.));
#522=FACE_BOUND('',#523,.T.);
#523=EDGE_LOOP('',(#833,#834,#835));
#524=FACE_OUTER_BOUND('',#525,.T.);
#525=EDGE_LOOP('',(#836));
#526=CONICAL_SURFACE('',#527,4.1,0.785398163397448);
#527=AXIS2_PLACEMENT_3D('',#528,#529,#530);
#528=CARTESIAN_POINT('',(-17.5,2.14313189850787E-15,0.3));
#529=DIRECTION('',(0.,0.,-1.));
#530=DIRECTION('',(0.,1.,0.));
#531=FACE_OUTER_BOUND('',#532,.T.);
#532=EDGE_LOOP('',(#837));
#533=FACE_OUTER_BOUND('',#534,.T.);
#534=EDGE_LOOP('',(#838));
#535=CONICAL_SURFACE('',#536,2.45,0.78539816339745);
#536=AXIS2_PLACEMENT_3D('',#537,#538,#539);
#537=CARTESIAN_POINT('',(-23.5,-23.5,0.3));
#538=DIRECTION('',(0.,0.,-1.));
#539=DIRECTION('',(0.,1.,0.));
#540=FACE_OUTER_BOUND('',#541,.T.);
#541=EDGE_LOOP('',(#839));
#542=FACE_OUTER_BOUND('',#543,.T.);
#543=EDGE_LOOP('',(#840));
#544=CONICAL_SURFACE('',#545,2.45,0.78539816339745);
#545=AXIS2_PLACEMENT_3D('',#546,#547,#548);
#546=CARTESIAN_POINT('',(-23.5,23.5,0.3));
#547=DIRECTION('',(0.,0.,-1.));
#548=DIRECTION('',(0.,1.,0.));
#549=FACE_OUTER_BOUND('',#550,.T.);
#550=EDGE_LOOP('',(#841));
#551=FACE_OUTER_BOUND('',#552,.T.);
#552=EDGE_LOOP('',(#842));
#553=CONICAL_SURFACE('',#554,2.45,0.78539816339745);
#554=AXIS2_PLACEMENT_3D('',#555,#556,#557);
#555=CARTESIAN_POINT('',(23.5,-23.5,0.3));
#556=DIRECTION('',(0.,0.,-1.));
#557=DIRECTION('',(0.,1.,0.));
#558=FACE_OUTER_BOUND('',#559,.T.);
#559=EDGE_LOOP('',(#843));
#560=FACE_OUTER_BOUND('',#561,.T.);
#561=EDGE_LOOP('',(#844));
#562=CONICAL_SURFACE('',#563,2.45,0.78539816339745);
#563=AXIS2_PLACEMENT_3D('',#564,#565,#566);
#564=CARTESIAN_POINT('',(23.5,23.5,0.3));
#565=DIRECTION('',(0.,0.,-1.));
#566=DIRECTION('',(0.,1.,0.));
#567=FACE_OUTER_BOUND('',#568,.T.);
#568=EDGE_LOOP('',(#845));
#569=FACE_OUTER_BOUND('',#570,.T.);
#570=EDGE_LOOP('',(#846));
#571=CONICAL_SURFACE('',#572,2.45,0.78539816339745);
#572=AXIS2_PLACEMENT_3D('',#573,#574,#575);
#573=CARTESIAN_POINT('',(23.5,23.5,4.7));
#574=DIRECTION('',(0.,0.,1.));
#575=DIRECTION('',(0.,-1.,0.));
#576=FACE_OUTER_BOUND('',#577,.T.);
#577=EDGE_LOOP('',(#847));
#578=FACE_OUTER_BOUND('',#579,.T.);
#579=EDGE_LOOP('',(#848));
#580=CONICAL_SURFACE('',#581,2.45,0.78539816339745);
#581=AXIS2_PLACEMENT_3D('',#582,#583,#584);
#582=CARTESIAN_POINT('',(23.5,-23.5,4.7));
#583=DIRECTION('',(0.,0.,1.));
#584=DIRECTION('',(0.,-1.,0.));
#585=FACE_OUTER_BOUND('',#586,.T.);
#586=EDGE_LOOP('',(#849));
#587=FACE_OUTER_BOUND('',#588,.T.);
#588=EDGE_LOOP('',(#850));
#589=CONICAL_SURFACE('',#590,2.45,0.78539816339745);
#590=AXIS2_PLACEMENT_3D('',#591,#592,#593);
#591=CARTESIAN_POINT('',(-23.5,23.5,4.7));
#592=DIRECTION('',(0.,0.,1.));
#593=DIRECTION('',(0.,-1.,0.));
#594=FACE_OUTER_BOUND('',#595,.T.);
#595=EDGE_LOOP('',(#851));
#596=FACE_OUTER_BOUND('',#597,.T.);
#597=EDGE_LOOP('',(#852));
#598=CONICAL_SURFACE('',#599,2.45,0.78539816339745);
#599=AXIS2_PLACEMENT_3D('',#600,#601,#602);
#600=CARTESIAN_POINT('',(-23.5,-23.5,4.7));
#601=DIRECTION('',(0.,0.,1.));
#602=DIRECTION('',(0.,-1.,0.));
#603=FACE_OUTER_BOUND('',#604,.T.);
#604=EDGE_LOOP('',(#853));
#605=FACE_OUTER_BOUND('',#606,.T.);
#606=EDGE_LOOP('',(#854));
#607=CONICAL_SURFACE('',#608,2.4,0.785398163397448);
#608=AXIS2_PLACEMENT_3D('',#609,#610,#611);
#609=CARTESIAN_POINT('',(1.07156594925393E-15,17.5,4.7));
#610=DIRECTION('',(0.,0.,1.));
#611=DIRECTION('',(6.12323399573676E-17,-1.,0.));
#612=FACE_OUTER_BOUND('',#613,.T.);
#613=EDGE_LOOP('',(#855));
#614=FACE_OUTER_BOUND('',#615,.T.);
#615=EDGE_LOOP('',(#856));
#616=CONICAL_SURFACE('',#617,2.4,0.785398163397449);
#617=AXIS2_PLACEMENT_3D('',#618,#619,#620);
#618=CARTESIAN_POINT('',(17.5,0.,4.7));
#619=DIRECTION('',(0.,0.,1.));
#620=DIRECTION('',(0.,-1.,0.));
#621=FACE_OUTER_BOUND('',#622,.T.);
#622=EDGE_LOOP('',(#857));
#623=FACE_OUTER_BOUND('',#624,.T.);
#624=EDGE_LOOP('',(#858));
#625=CONICAL_SURFACE('',#626,2.4,0.78539816339745);
#626=AXIS2_PLACEMENT_3D('',#627,#628,#629);
#627=CARTESIAN_POINT('',(1.07156594925393E-15,-17.5,4.7));
#628=DIRECTION('',(0.,0.,1.));
#629=DIRECTION('',(6.12323399573676E-17,-1.,0.));
#630=FACE_OUTER_BOUND('',#631,.T.);
#631=EDGE_LOOP('',(#859));
#632=FACE_OUTER_BOUND('',#633,.T.);
#633=EDGE_LOOP('',(#860));
#634=CONICAL_SURFACE('',#635,2.4,0.785398163397449);
#635=AXIS2_PLACEMENT_3D('',#636,#637,#638);
#636=CARTESIAN_POINT('',(-17.5,2.14313189850787E-15,4.7));
#637=DIRECTION('',(0.,0.,1.));
#638=DIRECTION('',(0.,-1.,0.));
#639=ORIENTED_EDGE('',*,*,#861,.F.);
#640=ORIENTED_EDGE('',*,*,#862,.T.);
#641=ORIENTED_EDGE('',*,*,#863,.F.);
#642=ORIENTED_EDGE('',*,*,#864,.T.);
#643=ORIENTED_EDGE('',*,*,#865,.F.);
#644=ORIENTED_EDGE('',*,*,#866,.T.);
#645=ORIENTED_EDGE('',*,*,#867,.F.);
#646=ORIENTED_EDGE('',*,*,#868,.T.);
#647=ORIENTED_EDGE('',*,*,#869,.F.);
#648=ORIENTED_EDGE('',*,*,#870,.F.);
#649=ORIENTED_EDGE('',*,*,#871,.F.);
#650=ORIENTED_EDGE('',*,*,#872,.F.);
#651=ORIENTED_EDGE('',*,*,#873,.F.);
#652=ORIENTED_EDGE('',*,*,#874,.F.);
#653=ORIENTED_EDGE('',*,*,#875,.F.);
#654=ORIENTED_EDGE('',*,*,#876,.F.);
#655=ORIENTED_EDGE('',*,*,#877,.T.);
#656=ORIENTED_EDGE('',*,*,#878,.T.);
#657=ORIENTED_EDGE('',*,*,#879,.T.);
#658=ORIENTED_EDGE('',*,*,#880,.T.);
#659=ORIENTED_EDGE('',*,*,#881,.T.);
#660=ORIENTED_EDGE('',*,*,#882,.T.);
#661=ORIENTED_EDGE('',*,*,#883,.T.);
#662=ORIENTED_EDGE('',*,*,#884,.T.);
#663=ORIENTED_EDGE('',*,*,#885,.T.);
#664=ORIENTED_EDGE('',*,*,#886,.T.);
#665=ORIENTED_EDGE('',*,*,#887,.T.);
#666=ORIENTED_EDGE('',*,*,#888,.T.);
#667=ORIENTED_EDGE('',*,*,#889,.T.);
#668=ORIENTED_EDGE('',*,*,#890,.T.);
#669=ORIENTED_EDGE('',*,*,#891,.T.);
#670=ORIENTED_EDGE('',*,*,#892,.T.);
#671=ORIENTED_EDGE('',*,*,#868,.F.);
#672=ORIENTED_EDGE('',*,*,#892,.F.);
#673=ORIENTED_EDGE('',*,*,#893,.F.);
#674=ORIENTED_EDGE('',*,*,#894,.T.);
#675=ORIENTED_EDGE('',*,*,#862,.F.);
#676=ORIENTED_EDGE('',*,*,#894,.F.);
#677=ORIENTED_EDGE('',*,*,#895,.F.);
#678=ORIENTED_EDGE('',*,*,#896,.T.);
#679=ORIENTED_EDGE('',*,*,#864,.F.);
#680=ORIENTED_EDGE('',*,*,#896,.F.);
#681=ORIENTED_EDGE('',*,*,#897,.F.);
#682=ORIENTED_EDGE('',*,*,#898,.T.);
#683=ORIENTED_EDGE('',*,*,#866,.F.);
#684=ORIENTED_EDGE('',*,*,#898,.F.);
#685=ORIENTED_EDGE('',*,*,#899,.F.);
#686=ORIENTED_EDGE('',*,*,#900,.T.);
#687=ORIENTED_EDGE('',*,*,#901,.F.);
#688=ORIENTED_EDGE('',*,*,#902,.T.);
#689=ORIENTED_EDGE('',*,*,#903,.F.);
#690=ORIENTED_EDGE('',*,*,#904,.T.);
#691=ORIENTED_EDGE('',*,*,#905,.F.);
#692=ORIENTED_EDGE('',*,*,#906,.T.);
#693=ORIENTED_EDGE('',*,*,#907,.F.);
#694=ORIENTED_EDGE('',*,*,#908,.T.);
#695=ORIENTED_EDGE('',*,*,#909,.T.);
#696=ORIENTED_EDGE('',*,*,#910,.T.);
#697=ORIENTED_EDGE('',*,*,#911,.T.);
#698=ORIENTED_EDGE('',*,*,#912,.T.);
#699=ORIENTED_EDGE('',*,*,#913,.T.);
#700=ORIENTED_EDGE('',*,*,#914,.T.);
#701=ORIENTED_EDGE('',*,*,#915,.T.);
#702=ORIENTED_EDGE('',*,*,#916,.T.);
#703=ORIENTED_EDGE('',*,*,#917,.T.);
#704=ORIENTED_EDGE('',*,*,#918,.F.);
#705=ORIENTED_EDGE('',*,*,#919,.T.);
#706=ORIENTED_EDGE('',*,*,#920,.T.);
#707=ORIENTED_EDGE('',*,*,#921,.F.);
#708=ORIENTED_EDGE('',*,*,#922,.F.);
#709=ORIENTED_EDGE('',*,*,#923,.T.);
#710=ORIENTED_EDGE('',*,*,#918,.T.);
#711=ORIENTED_EDGE('',*,*,#924,.T.);
#712=ORIENTED_EDGE('',*,*,#925,.F.);
#713=ORIENTED_EDGE('',*,*,#926,.T.);
#714=ORIENTED_EDGE('',*,*,#922,.T.);
#715=ORIENTED_EDGE('',*,*,#927,.F.);
#716=ORIENTED_EDGE('',*,*,#928,.F.);
#717=ORIENTED_EDGE('',*,*,#929,.T.);
#718=ORIENTED_EDGE('',*,*,#925,.T.);
#719=ORIENTED_EDGE('',*,*,#930,.T.);
#720=ORIENTED_EDGE('',*,*,#931,.F.);
#721=ORIENTED_EDGE('',*,*,#932,.T.);
#722=ORIENTED_EDGE('',*,*,#928,.T.);
#723=ORIENTED_EDGE('',*,*,#933,.F.);
#724=ORIENTED_EDGE('',*,*,#934,.F.);
#725=ORIENTED_EDGE('',*,*,#935,.T.);
#726=ORIENTED_EDGE('',*,*,#931,.T.);
#727=ORIENTED_EDGE('',*,*,#936,.T.);
#728=ORIENTED_EDGE('',*,*,#937,.F.);
#729=ORIENTED_EDGE('',*,*,#938,.T.);
#730=ORIENTED_EDGE('',*,*,#934,.T.);
#731=ORIENTED_EDGE('',*,*,#939,.F.);
#732=ORIENTED_EDGE('',*,*,#920,.F.);
#733=ORIENTED_EDGE('',*,*,#940,.T.);
#734=ORIENTED_EDGE('',*,*,#937,.T.);
#735=ORIENTED_EDGE('',*,*,#941,.F.);
#736=ORIENTED_EDGE('',*,*,#942,.F.);
#737=ORIENTED_EDGE('',*,*,#943,.F.);
#738=ORIENTED_EDGE('',*,*,#944,.F.);
#739=ORIENTED_EDGE('',*,*,#945,.F.);
#740=ORIENTED_EDGE('',*,*,#946,.F.);
#741=ORIENTED_EDGE('',*,*,#947,.F.);
#742=ORIENTED_EDGE('',*,*,#948,.F.);
#743=ORIENTED_EDGE('',*,*,#949,.F.);
#744=ORIENTED_EDGE('',*,*,#950,.F.);
#745=ORIENTED_EDGE('',*,*,#951,.F.);
#746=ORIENTED_EDGE('',*,*,#882,.F.);
#747=ORIENTED_EDGE('',*,*,#952,.T.);
#748=ORIENTED_EDGE('',*,*,#953,.F.);
#749=ORIENTED_EDGE('',*,*,#880,.F.);
#750=ORIENTED_EDGE('',*,*,#954,.F.);
#751=ORIENTED_EDGE('',*,*,#888,.F.);
#752=ORIENTED_EDGE('',*,*,#955,.F.);
#753=ORIENTED_EDGE('',*,*,#885,.F.);
#754=ORIENTED_EDGE('',*,*,#942,.T.);
#755=ORIENTED_EDGE('',*,*,#941,.T.);
#756=ORIENTED_EDGE('',*,*,#912,.F.);
#757=ORIENTED_EDGE('',*,*,#935,.F.);
#758=ORIENTED_EDGE('',*,*,#956,.F.);
#759=ORIENTED_EDGE('',*,*,#869,.T.);
#760=ORIENTED_EDGE('',*,*,#957,.T.);
#761=ORIENTED_EDGE('',*,*,#876,.T.);
#762=ORIENTED_EDGE('',*,*,#958,.T.);
#763=ORIENTED_EDGE('',*,*,#932,.F.);
#764=ORIENTED_EDGE('',*,*,#957,.F.);
#765=ORIENTED_EDGE('',*,*,#929,.F.);
#766=ORIENTED_EDGE('',*,*,#958,.F.);
#767=ORIENTED_EDGE('',*,*,#875,.T.);
#768=ORIENTED_EDGE('',*,*,#959,.T.);
#769=ORIENTED_EDGE('',*,*,#874,.T.);
#770=ORIENTED_EDGE('',*,*,#960,.T.);
#771=ORIENTED_EDGE('',*,*,#926,.F.);
#772=ORIENTED_EDGE('',*,*,#959,.F.);
#773=ORIENTED_EDGE('',*,*,#923,.F.);
#774=ORIENTED_EDGE('',*,*,#960,.F.);
#775=ORIENTED_EDGE('',*,*,#873,.T.);
#776=ORIENTED_EDGE('',*,*,#961,.T.);
#777=ORIENTED_EDGE('',*,*,#872,.T.);
#778=ORIENTED_EDGE('',*,*,#962,.T.);
#779=ORIENTED_EDGE('',*,*,#919,.F.);
#780=ORIENTED_EDGE('',*,*,#961,.F.);
#781=ORIENTED_EDGE('',*,*,#940,.F.);
#782=ORIENTED_EDGE('',*,*,#962,.F.);
#783=ORIENTED_EDGE('',*,*,#871,.T.);
#784=ORIENTED_EDGE('',*,*,#963,.T.);
#785=ORIENTED_EDGE('',*,*,#870,.T.);
#786=ORIENTED_EDGE('',*,*,#956,.T.);
#787=ORIENTED_EDGE('',*,*,#938,.F.);
#788=ORIENTED_EDGE('',*,*,#963,.F.);
#789=ORIENTED_EDGE('',*,*,#921,.T.);
#790=ORIENTED_EDGE('',*,*,#964,.T.);
#791=ORIENTED_EDGE('',*,*,#900,.F.);
#792=ORIENTED_EDGE('',*,*,#965,.F.);
#793=ORIENTED_EDGE('',*,*,#901,.T.);
#794=ORIENTED_EDGE('',*,*,#964,.F.);
#795=ORIENTED_EDGE('',*,*,#917,.F.);
#796=ORIENTED_EDGE('',*,*,#966,.T.);
#797=ORIENTED_EDGE('',*,*,#939,.T.);
#798=ORIENTED_EDGE('',*,*,#967,.T.);
#799=ORIENTED_EDGE('',*,*,#902,.F.);
#800=ORIENTED_EDGE('',*,*,#966,.F.);
#801=ORIENTED_EDGE('',*,*,#903,.T.);
#802=ORIENTED_EDGE('',*,*,#967,.F.);
#803=ORIENTED_EDGE('',*,*,#936,.F.);
#804=ORIENTED_EDGE('',*,*,#968,.T.);
#805=ORIENTED_EDGE('',*,*,#933,.T.);
#806=ORIENTED_EDGE('',*,*,#969,.T.);
#807=ORIENTED_EDGE('',*,*,#904,.F.);
#808=ORIENTED_EDGE('',*,*,#968,.F.);
#809=ORIENTED_EDGE('',*,*,#905,.T.);
#810=ORIENTED_EDGE('',*,*,#969,.F.);
#811=ORIENTED_EDGE('',*,*,#930,.F.);
#812=ORIENTED_EDGE('',*,*,#970,.T.);
#813=ORIENTED_EDGE('',*,*,#927,.T.);
#814=ORIENTED_EDGE('',*,*,#971,.T.);
#815=ORIENTED_EDGE('',*,*,#906,.F.);
#816=ORIENTED_EDGE('',*,*,#970,.F.);
#817=ORIENTED_EDGE('',*,*,#907,.T.);
#818=ORIENTED_EDGE('',*,*,#971,.F.);
#819=ORIENTED_EDGE('',*,*,#924,.F.);
#820=ORIENTED_EDGE('',*,*,#965,.T.);
#821=ORIENTED_EDGE('',*,*,#881,.F.);
#822=ORIENTED_EDGE('',*,*,#953,.T.);
#823=ORIENTED_EDGE('',*,*,#952,.F.);
#824=ORIENTED_EDGE('',*,*,#899,.T.);
#825=ORIENTED_EDGE('',*,*,#883,.F.);
#826=ORIENTED_EDGE('',*,*,#951,.T.);
#827=ORIENTED_EDGE('',*,*,#884,.F.);
#828=ORIENTED_EDGE('',*,*,#897,.T.);
#829=ORIENTED_EDGE('',*,*,#955,.T.);
#830=ORIENTED_EDGE('',*,*,#887,.F.);
#831=ORIENTED_EDGE('',*,*,#886,.F.);
#832=ORIENTED_EDGE('',*,*,#895,.T.);
#833=ORIENTED_EDGE('',*,*,#954,.T.);
#834=ORIENTED_EDGE('',*,*,#879,.F.);
#835=ORIENTED_EDGE('',*,*,#889,.F.);
#836=ORIENTED_EDGE('',*,*,#893,.T.);
#837=ORIENTED_EDGE('',*,*,#944,.T.);
#838=ORIENTED_EDGE('',*,*,#890,.F.);
#839=ORIENTED_EDGE('',*,*,#946,.T.);
#840=ORIENTED_EDGE('',*,*,#878,.F.);
#841=ORIENTED_EDGE('',*,*,#948,.T.);
#842=ORIENTED_EDGE('',*,*,#891,.F.);
#843=ORIENTED_EDGE('',*,*,#950,.T.);
#844=ORIENTED_EDGE('',*,*,#877,.F.);
#845=ORIENTED_EDGE('',*,*,#949,.T.);
#846=ORIENTED_EDGE('',*,*,#913,.F.);
#847=ORIENTED_EDGE('',*,*,#947,.T.);
#848=ORIENTED_EDGE('',*,*,#911,.F.);
#849=ORIENTED_EDGE('',*,*,#945,.T.);
#850=ORIENTED_EDGE('',*,*,#914,.F.);
#851=ORIENTED_EDGE('',*,*,#943,.T.);
#852=ORIENTED_EDGE('',*,*,#910,.F.);
#853=ORIENTED_EDGE('',*,*,#861,.T.);
#854=ORIENTED_EDGE('',*,*,#915,.F.);
#855=ORIENTED_EDGE('',*,*,#863,.T.);
#856=ORIENTED_EDGE('',*,*,#909,.F.);
#857=ORIENTED_EDGE('',*,*,#865,.T.);
#858=ORIENTED_EDGE('',*,*,#916,.F.);
#859=ORIENTED_EDGE('',*,*,#867,.T.);
#860=ORIENTED_EDGE('',*,*,#908,.F.);
#861=EDGE_CURVE('',#972,#972,#973,.F.);
#862=EDGE_CURVE('',#974,#974,#975,.F.);
#863=EDGE_CURVE('',#976,#976,#977,.F.);
#864=EDGE_CURVE('',#978,#978,#979,.F.);
#865=EDGE_CURVE('',#980,#980,#981,.F.);
#866=EDGE_CURVE('',#982,#982,#983,.F.);
#867=EDGE_CURVE('',#984,#984,#985,.F.);
#868=EDGE_CURVE('',#986,#986,#987,.F.);
#869=EDGE_CURVE('',#988,#989,#990,.T.);
#870=EDGE_CURVE('',#991,#988,#992,.F.);
#871=EDGE_CURVE('',#993,#991,#994,.T.);
#872=EDGE_CURVE('',#995,#993,#996,.F.);
#873=EDGE_CURVE('',#997,#995,#998,.T.);
#874=EDGE_CURVE('',#999,#997,#1000,.F.);
#875=EDGE_CURVE('',#1001,#999,#1002,.T.);
#876=EDGE_CURVE('',#989,#1001,#1003,.F.);
#877=EDGE_CURVE('',#1004,#1004,#1005,.T.);
#878=EDGE_CURVE('',#1006,#1006,#1007,.T.);
#879=EDGE_CURVE('',#1008,#1009,#1010,.F.);
#880=EDGE_CURVE('',#1009,#1011,#1012,.T.);
#881=EDGE_CURVE('',#1011,#1013,#1014,.F.);
#882=EDGE_CURVE('',#1013,#1015,#1016,.T.);
#883=EDGE_CURVE('',#1015,#1017,#1018,.F.);
#884=EDGE_CURVE('',#1017,#1019,#1020,.F.);
#885=EDGE_CURVE('',#1019,#1021,#1022,.T.);
#886=EDGE_CURVE('',#1021,#1023,#1024,.F.);
#887=EDGE_CURVE('',#1023,#1025,#1026,.F.);
#888=EDGE_CURVE('',#1025,#1027,#1028,.T.);
#889=EDGE_CURVE('',#1027,#1008,#1029,.F.);
#890=EDGE_CURVE('',#1030,#1030,#1031,.T.);
#891=EDGE_CURVE('',#1032,#1032,#1033,.T.);
#892=EDGE_CURVE('',#1034,#1034,#1035,.T.);
#893=EDGE_CURVE('',#1036,#1036,#1037,.F.);
#894=EDGE_CURVE('',#1038,#1038,#1039,.T.);
#895=EDGE_CURVE('',#1040,#1040,#1041,.F.);
#896=EDGE_CURVE('',#1042,#1042,#1043,.T.);
#897=EDGE_CURVE('',#1044,#1044,#1045,.F.);
#898=EDGE_CURVE('',#1046,#1046,#1047,.T.);
#899=EDGE_CURVE('',#1048,#1048,#1049,.F.);
#900=EDGE_CURVE('',#1050,#1051,#1052,.T.);
#901=EDGE_CURVE('',#1053,#1051,#1054,.F.);
#902=EDGE_CURVE('',#1053,#1055,#1056,.T.);
#903=EDGE_CURVE('',#1057,#1055,#1058,.F.);
#904=EDGE_CURVE('',#1057,#1059,#1060,.T.);
#905=EDGE_CURVE('',#1061,#1059,#1062,.F.);
#906=EDGE_CURVE('',#1061,#1063,#1064,.T.);
#907=EDGE_CURVE('',#1050,#1063,#1065,.F.);
#908=EDGE_CURVE('',#1066,#1066,#1067,.F.);
#909=EDGE_CURVE('',#1068,#1068,#1069,.F.);
#910=EDGE_CURVE('',#1070,#1070,#1071,.F.);
#911=EDGE_CURVE('',#1072,#1072,#1073,.F.);
#912=EDGE_CURVE('',#1074,#1074,#1075,.F.);
#913=EDGE_CURVE('',#1076,#1076,#1077,.F.);
#914=EDGE_CURVE('',#1078,#1078,#1079,.F.);
#915=EDGE_CURVE('',#1080,#1080,#1081,.F.);
#916=EDGE_CURVE('',#1082,#1082,#1083,.F.);
#917=EDGE_CURVE('',#1084,#1085,#1086,.F.);
#918=EDGE_CURVE('',#1087,#1085,#1088,.T.);
#919=EDGE_CURVE('',#1087,#1089,#1090,.F.);
#920=EDGE_CURVE('',#1089,#1084,#1091,.T.);
#921=EDGE_CURVE('',#1092,#1085,#1093,.T.);
#922=EDGE_CURVE('',#1094,#1092,#1095,.T.);
#923=EDGE_CURVE('',#1094,#1087,#1096,.T.);
#924=EDGE_CURVE('',#1092,#1097,#1098,.F.);
#925=EDGE_CURVE('',#1099,#1097,#1100,.T.);
#926=EDGE_CURVE('',#1099,#1094,#1101,.F.);
#927=EDGE_CURVE('',#1102,#1097,#1103,.T.);
#928=EDGE_CURVE('',#1104,#1102,#1105,.T.);
#929=EDGE_CURVE('',#1104,#1099,#1106,.T.);
#930=EDGE_CURVE('',#1102,#1107,#1108,.F.);
#931=EDGE_CURVE('',#1109,#1107,#1110,.T.);
#932=EDGE_CURVE('',#1109,#1104,#1111,.F.);
#933=EDGE_CURVE('',#1112,#1107,#1113,.T.);
#934=EDGE_CURVE('',#1114,#1112,#1115,.T.);
#935=EDGE_CURVE('',#1114,#1109,#1116,.T.);
#936=EDGE_CURVE('',#1112,#1117,#1118,.F.);
#937=EDGE_CURVE('',#1119,#1117,#1120,.T.);
#938=EDGE_CURVE('',#1119,#1114,#1121,.F.);
#939=EDGE_CURVE('',#1084,#1117,#1122,.T.);
#940=EDGE_CURVE('',#1089,#1119,#1123,.T.);
#941=EDGE_CURVE('',#1124,#1124,#1125,.F.);
#942=EDGE_CURVE('',#1126,#1126,#1127,.T.);
#943=EDGE_CURVE('',#1128,#1128,#1129,.F.);
#944=EDGE_CURVE('',#1130,#1130,#1131,.T.);
#945=EDGE_CURVE('',#1132,#1132,#1133,.F.);
#946=EDGE_CURVE('',#1134,#1134,#1135,.T.);
#947=EDGE_CURVE('',#1136,#1136,#1137,.F.);
#948=EDGE_CURVE('',#1138,#1138,#1139,.T.);
#949=EDGE_CURVE('',#1140,#1140,#1141,.F.);
#950=EDGE_CURVE('',#1142,#1142,#1143,.T.);
#951=EDGE_CURVE('',#1015,#1019,#1144,.T.);
#952=EDGE_CURVE('',#1013,#1145,#1146,.T.);
#953=EDGE_CURVE('',#1011,#1145,#1147,.T.);
#954=EDGE_CURVE('',#1027,#1009,#1148,.T.);
#955=EDGE_CURVE('',#1021,#1025,#1149,.T.);
#956=EDGE_CURVE('',#988,#1114,#1150,.T.);
#957=EDGE_CURVE('',#989,#1109,#1151,.F.);
#958=EDGE_CURVE('',#1001,#1104,#1152,.T.);
#959=EDGE_CURVE('',#999,#1099,#1153,.F.);
#960=EDGE_CURVE('',#997,#1094,#1154,.T.);
#961=EDGE_CURVE('',#995,#1087,#1155,.F.);
#962=EDGE_CURVE('',#993,#1089,#1156,.T.);
#963=EDGE_CURVE('',#991,#1119,#1157,.F.);
#964=EDGE_CURVE('',#1085,#1051,#1158,.T.);
#965=EDGE_CURVE('',#1092,#1050,#1159,.F.);
#966=EDGE_CURVE('',#1084,#1053,#1160,.F.);
#967=EDGE_CURVE('',#1117,#1055,#1161,.T.);
#968=EDGE_CURVE('',#1112,#1057,#1162,.F.);
#969=EDGE_CURVE('',#1107,#1059,#1163,.T.);
#970=EDGE_CURVE('',#1102,#1061,#1164,.F.);
#971=EDGE_CURVE('',#1097,#1063,#1165,.T.);
#972=VERTEX_POINT('',#1166);
#973=CIRCLE('',#1167,2.1);
#974=VERTEX_POINT('',#1171);
#975=CIRCLE('',#1172,2.1);
#976=VERTEX_POINT('',#1176);
#977=CIRCLE('',#1177,2.1);
#978=VERTEX_POINT('',#1181);
#979=CIRCLE('',#1182,2.1);
#980=VERTEX_POINT('',#1186);
#981=CIRCLE('',#1187,2.1);
#982=VERTEX_POINT('',#1191);
#983=CIRCLE('',#1192,2.1);
#984=VERTEX_POINT('',#1196);
#985=CIRCLE('',#1197,2.1);
#986=VERTEX_POINT('',#1201);
#987=CIRCLE('',#1202,2.1);
#988=VERTEX_POINT('',#1206);
#989=VERTEX_POINT('',#1207);
#990=LINE('',#1208,#1209);
#991=VERTEX_POINT('',#1211);
#992=CIRCLE('',#1212,3.4);
#993=VERTEX_POINT('',#1216);
#994=LINE('',#1217,#1218);
#995=VERTEX_POINT('',#1220);
#996=CIRCLE('',#1221,3.4);
#997=VERTEX_POINT('',#1225);
#998=LINE('',#1226,#1227);
#999=VERTEX_POINT('',#1229);
#1000=CIRCLE('',#1230,3.4);
#1001=VERTEX_POINT('',#1234);
#1002=LINE('',#1235,#1236);
#1003=CIRCLE('',#1238,3.4);
#1004=VERTEX_POINT('',#1242);
#1005=CIRCLE('',#1243,2.75);
#1006=VERTEX_POINT('',#1247);
#1007=CIRCLE('',#1248,2.75);
#1008=VERTEX_POINT('',#1252);
#1009=VERTEX_POINT('',#1253);
#1010=CIRCLE('',#1254,4.4);
#1011=VERTEX_POINT('',#1258);
#1012=CIRCLE('',#1259,13.35);
#1013=VERTEX_POINT('',#1263);
#1014=CIRCLE('',#1264,4.4);
#1015=VERTEX_POINT('',#1268);
#1016=CIRCLE('',#1269,13.35);
#1017=VERTEX_POINT('',#1273);
#1018=CIRCLE('',#1274,4.4);
#1019=VERTEX_POINT('',#1278);
#1020=CIRCLE('',#1279,4.4);
#1021=VERTEX_POINT('',#1283);
#1022=CIRCLE('',#1284,13.35);
#1023=VERTEX_POINT('',#1288);
#1024=CIRCLE('',#1289,4.4);
#1025=VERTEX_POINT('',#1293);
#1026=CIRCLE('',#1294,4.4);
#1027=VERTEX_POINT('',#1298);
#1028=CIRCLE('',#1299,13.35);
#1029=CIRCLE('',#1303,4.4);
#1030=VERTEX_POINT('',#1307);
#1031=CIRCLE('',#1308,2.75);
#1032=VERTEX_POINT('',#1312);
#1033=CIRCLE('',#1313,2.75);
#1034=VERTEX_POINT('',#1317);
#1035=CIRCLE('',#1318,3.8);
#1036=VERTEX_POINT('',#1322);
#1037=CIRCLE('',#1323,3.8);
#1038=VERTEX_POINT('',#1327);
#1039=CIRCLE('',#1328,3.8);
#1040=VERTEX_POINT('',#1332);
#1041=CIRCLE('',#1333,3.8);
#1042=VERTEX_POINT('',#1337);
#1043=CIRCLE('',#1338,3.8);
#1044=VERTEX_POINT('',#1342);
#1045=CIRCLE('',#1343,3.8);
#1046=VERTEX_POINT('',#1347);
#1047=CIRCLE('',#1348,3.8);
#1048=VERTEX_POINT('',#1352);
#1049=CIRCLE('',#1353,3.8);
#1050=VERTEX_POINT('',#1357);
#1051=VERTEX_POINT('',#1358);
#1052=LINE('',#1359,#1360);
#1053=VERTEX_POINT('',#1362);
#1054=CIRCLE('',#1363,3.4);
#1055=VERTEX_POINT('',#1367);
#1056=LINE('',#1368,#1369);
#1057=VERTEX_POINT('',#1371);
#1058=CIRCLE('',#1372,3.4);
#1059=VERTEX_POINT('',#1376);
#1060=LINE('',#1377,#1378);
#1061=VERTEX_POINT('',#1380);
#1062=CIRCLE('',#1381,3.4);
#1063=VERTEX_POINT('',#1385);
#1064=LINE('',#1386,#1387);
#1065=CIRCLE('',#1389,3.4);
#1066=VERTEX_POINT('',#1393);
#1067=CIRCLE('',#1394,2.7);
#1068=VERTEX_POINT('',#1398);
#1069=CIRCLE('',#1399,2.7);
#1070=VERTEX_POINT('',#1403);
#1071=CIRCLE('',#1404,2.75);
#1072=VERTEX_POINT('',#1408);
#1073=CIRCLE('',#1409,2.75);
#1074=VERTEX_POINT('',#1413);
#1075=CIRCLE('',#1414,13.35);
#1076=VERTEX_POINT('',#1418);
#1077=CIRCLE('',#1419,2.75);
#1078=VERTEX_POINT('',#1423);
#1079=CIRCLE('',#1424,2.75);
#1080=VERTEX_POINT('',#1428);
#1081=CIRCLE('',#1429,2.7);
#1082=VERTEX_POINT('',#1433);
#1083=CIRCLE('',#1434,2.7);
#1084=VERTEX_POINT('',#1438);
#1085=VERTEX_POINT('',#1439);
#1086=CIRCLE('',#1440,4.);
#1087=VERTEX_POINT('',#1444);
#1088=LINE('',#1445,#1446);
#1089=VERTEX_POINT('',#1448);
#1090=CIRCLE('',#1449,4.);
#1091=LINE('',#1453,#1454);
#1092=VERTEX_POINT('',#1456);
#1093=LINE('',#1457,#1458);
#1094=VERTEX_POINT('',#1460);
#1095=LINE('',#1461,#1462);
#1096=LINE('',#1464,#1465);
#1097=VERTEX_POINT('',#1467);
#1098=CIRCLE('',#1468,4.);
#1099=VERTEX_POINT('',#1472);
#1100=LINE('',#1473,#1474);
#1101=CIRCLE('',#1476,4.);
#1102=VERTEX_POINT('',#1480);
#1103=LINE('',#1481,#1482);
#1104=VERTEX_POINT('',#1484);
#1105=LINE('',#1485,#1486);
#1106=LINE('',#1488,#1489);
#1107=VERTEX_POINT('',#1491);
#1108=CIRCLE('',#1492,4.);
#1109=VERTEX_POINT('',#1496);
#1110=LINE('',#1497,#1498);
#1111=CIRCLE('',#1500,4.);
#1112=VERTEX_POINT('',#1504);
#1113=LINE('',#1505,#1506);
#1114=VERTEX_POINT('',#1508);
#1115=LINE('',#1509,#1510);
#1116=LINE('',#1512,#1513);
#1117=VERTEX_POINT('',#1515);
#1118=CIRCLE('',#1516,4.);
#1119=VERTEX_POINT('',#1520);
#1120=LINE('',#1521,#1522);
#1121=CIRCLE('',#1524,4.);
#1122=LINE('',#1528,#1529);
#1123=LINE('',#1531,#1532);
#1124=VERTEX_POINT('',#1534);
#1125=CIRCLE('',#1535,12.75);
#1126=VERTEX_POINT('',#1539);
#1127=CIRCLE('',#1540,12.75);
#1128=VERTEX_POINT('',#1544);
#1129=CIRCLE('',#1545,2.15);
#1130=VERTEX_POINT('',#1549);
#1131=CIRCLE('',#1550,2.15);
#1132=VERTEX_POINT('',#1554);
#1133=CIRCLE('',#1555,2.15);
#1134=VERTEX_POINT('',#1559);
#1135=CIRCLE('',#1560,2.15);
#1136=VERTEX_POINT('',#1564);
#1137=CIRCLE('',#1565,2.15);
#1138=VERTEX_POINT('',#1569);
#1139=CIRCLE('',#1570,2.15);
#1140=VERTEX_POINT('',#1574);
#1141=CIRCLE('',#1575,2.15);
#1142=VERTEX_POINT('',#1579);
#1143=CIRCLE('',#1580,2.15);
#1144=B_SPLINE_CURVE_WITH_KNOTS('',3,
(#1584,#1585,#1586,#1587,#1588,#1589,#1590,#1591,#1592,#1593,#1594,#1595,#1596,#1597,
#1598,#1599,#1600,#1601,#1602,#1603,#1604,#1605,#1606,#1607,#1608,#1609,#1610,#1611,
#1612,#1613,#1614,#1615,#1616,#1617,#1618,#1619),
.UNSPECIFIED.,.F.,.F.,
(4,1,1,1,1,1,1,1,1,1,1,1,1,1,1,1,1,1,1,1,1,1,1,1,1,1,1,1,1,1,1,1,1,4),
(0.,0.0216982011982555,0.0441572882874168,0.0673581624340925,0.0915666402803534,
0.11637789111884,0.141973430980035,0.167909456804699,0.193849601870247,0.219560935703917,
0.245467821660886,0.271666635594186,0.298584635859162,0.325899260419001,0.354338800554549,
0.383519617721288,0.413678447602857,0.444100401152832,0.475525168701613,0.500106182629103,
0.50765674548864,0.541140669233623,0.575205466480023,0.610567208478462,0.646626951141822,
0.68357144378853,0.720688915891501,0.758826420659776,0.797912423136025,0.838524875842216,
0.879814824999343,0.920868092495665,0.961012753911332,1.),
.UNSPECIFIED.);
#1145=VERTEX_POINT('',#1620);
#1146=B_SPLINE_CURVE_WITH_KNOTS('',3,
(#1621,#1622,#1623,#1624,#1625,#1626,#1627,#1628,#1629,#1630,#1631,#1632,#1633,#1634,
#1635,#1636,#1637,#1638,#1639,#1640,#1641,#1642,#1643,#1644,#1645,#1646,#1647,#1648,
#1649,#1650,#1651,#1652,#1653,#1654,#1655,#1656,#1657,#1658,#1659,#1660,#1661,#1662,
#1663,#1664,#1665,#1666,#1667,#1668,#1669,#1670,#1671),
.UNSPECIFIED.,.F.,.F.,
(4,1,1,1,1,1,1,1,1,1,1,1,1,1,1,1,1,1,1,1,1,1,1,1,1,1,1,1,1,1,1,1,1,1,1,1,1,1,1,1,
1,1,1,1,1,1,1,1,4),
(0.,0.020156225636462,0.0402376376584364,0.0601951383533775,0.0798910040239788,0.0994796836658423,
0.118818061385926,0.137977308783269,0.156864194503472,0.175681805434072,0.194395895146186,
0.213058824122837,0.231658394278439,0.250253807053693,0.269016559697807,0.287931836705861,
0.307028942332929,0.3261790646276,0.345421556207381,0.364705810987348,0.384069242558023,
0.403439258575718,0.422843269240858,0.442261182554896,0.461689053069246,0.481110890316092,
0.500674264982338,0.520392015985925,0.540428191975595,0.560641457422758,0.581365255913524,
0.6024423281492,0.624061302847669,0.645895250712019,0.668250204425839,0.690869405785046,
0.713833326733619,0.736849449430706,0.760086603000785,0.783442752552723,0.80695098227793,
0.830472110860338,0.854114568344963,0.877877159388661,0.901870570004671,0.926020140378075,
0.950460037644994,0.97511415709087,1.),
.UNSPECIFIED.);
#1147=B_SPLINE_CURVE_WITH_KNOTS('',3,
(#1672,#1673,#1674,#1675,#1676,#1677,#1678,#1679,#1680,#1681,#1682,#1683,#1684,#1685,
#1686,#1687,#1688,#1689,#1690,#1691,#1692,#1693,#1694,#1695,#1696,#1697,#1698,#1699,
#1700,#1701,#1702,#1703,#1704,#1705,#1706,#1707,#1708,#1709,#1710,#1711,#1712,#1713,
#1714,#1715,#1716,#1717,#1718,#1719,#1720,#1721,#1722),
.UNSPECIFIED.,.F.,.F.,
(4,1,1,1,1,1,1,1,1,1,1,1,1,1,1,1,1,1,1,1,1,1,1,1,1,1,1,1,1,1,1,1,1,1,1,1,1,1,1,1,
1,1,1,1,1,1,1,1,4),
(0.,0.0201569578722597,0.0402388708836209,0.0601966626347413,0.0798925526824644,
0.0994811037513547,0.118819167606159,0.137978022806523,0.15686447848216,0.17568169607621,
0.194395477636255,0.213058163888749,0.231657599251453,0.250252950384874,0.269015866354409,
0.287931483516374,0.307029110859958,0.326179820023905,0.345421247264584,0.364702697388349,
0.38405992951262,0.403422005524305,0.422813128025167,0.442214860725352,0.46162164339075,
0.481020701502549,0.500558202795487,0.520248666307688,0.540256424991981,0.560441679196346,
0.581139824628926,0.602193485095395,0.623793204407977,0.645610261769026,0.667953547398893,
0.6905613049009,0.713521149285732,0.736536907622015,0.759782059457639,0.783151170640246,
0.806678899083685,0.830221262003408,0.853889897713521,0.877681964648705,0.901709826899159,
0.925895611000679,0.950375194373875,0.975070819171697,1.),
.UNSPECIFIED.);
#1148=B_SPLINE_CURVE_WITH_KNOTS('',3,
(#1723,#1724,#1725,#1726,#1727,#1728,#1729,#1730,#1731,#1732,#1733,#1734,#1735,#1736,
#1737,#1738,#1739,#1740,#1741,#1742,#1743,#1744,#1745,#1746,#1747,#1748,#1749,#1750,
#1751,#1752,#1753,#1754,#1755,#1756,#1757,#1758),
.UNSPECIFIED.,.F.,.F.,
(4,1,1,1,1,1,1,1,1,1,1,1,1,1,1,1,1,1,1,1,1,1,1,1,1,1,1,1,1,1,1,1,1,4),
(0.,0.0216977513136554,0.0441564539915853,0.0673570059351843,0.0915651431348583,
0.116376031201469,0.141971563766782,0.167908081706454,0.193849990436617,0.21956394020626,
0.245473638520097,0.271674703902999,0.29859310342154,0.325906076981759,0.354342233476366,
0.38352026120894,0.413677395047007,0.444098711450727,0.475523692022935,0.500105987847433,
0.507654665272298,0.54113625765616,0.575199639689078,0.610561100380764,0.646621626068038,
0.683566623322989,0.720682226855546,0.75881249954526,0.797885984066585,0.83848275333478,
0.879771026988436,0.920833749951231,0.960993824755918,1.),
.UNSPECIFIED.);
#1149=B_SPLINE_CURVE_WITH_KNOTS('',3,
(#1759,#1760,#1761,#1762,#1763,#1764,#1765,#1766,#1767,#1768,#1769,#1770,#1771,#1772,
#1773,#1774,#1775,#1776,#1777,#1778,#1779,#1780,#1781,#1782,#1783,#1784,#1785,#1786,
#1787,#1788,#1789,#1790,#1791,#1792,#1793,#1794),
.UNSPECIFIED.,.F.,.F.,
(4,1,1,1,1,1,1,1,1,1,1,1,1,1,1,1,1,1,1,1,1,1,1,1,1,1,1,1,1,1,1,1,1,4),
(0.,0.0216977513136651,0.0441564539915935,0.0673570059352006,0.0915651431348805,
0.116376031201491,0.141971563766806,0.16790808170648,0.193849990436642,0.219563940206288,
0.245473638520126,0.271674703903029,0.29859310342157,0.325906076981785,0.354342233476392,
0.383520261208966,0.413677395047027,0.444098711450752,0.475523692022956,0.500105987847436,
0.507654665272318,0.541136257656177,0.575199639689097,0.610561100380781,0.646621626068056,
0.683566623323011,0.720682226855563,0.758812499545276,0.7978859840666,0.838482753334797,
0.879771026988448,0.920833749951236,0.960993824755918,1.),
.UNSPECIFIED.);
#1150=LINE('',#1795,#1796);
#1151=LINE('',#1798,#1799);
#1152=LINE('',#1801,#1802);
#1153=LINE('',#1804,#1805);
#1154=LINE('',#1807,#1808);
#1155=LINE('',#1810,#1811);
#1156=LINE('',#1813,#1814);
#1157=LINE('',#1816,#1817);
#1158=LINE('',#1819,#1820);
#1159=LINE('',#1822,#1823);
#1160=LINE('',#1825,#1826);
#1161=LINE('',#1828,#1829);
#1162=LINE('',#1831,#1832);
#1163=LINE('',#1834,#1835);
#1164=LINE('',#1837,#1838);
#1165=LINE('',#1840,#1841);
#1166=CARTESIAN_POINT('',(9.42978035343462E-16,15.4,4.4));
#1167=AXIS2_PLACEMENT_3D('',#1168,#1169,#1170);
#1168=CARTESIAN_POINT('',(1.07156594925393E-15,17.5,4.4));
#1169=DIRECTION('',(0.,0.,1.));
#1170=DIRECTION('',(6.12323399573676E-17,-1.,0.));
#1171=CARTESIAN_POINT('',(9.42978035343462E-16,15.4,2.4));
#1172=AXIS2_PLACEMENT_3D('',#1173,#1174,#1175);
#1173=CARTESIAN_POINT('',(1.07156594925393E-15,17.5,2.4));
#1174=DIRECTION('',(0.,0.,1.));
#1175=DIRECTION('',(6.12323399573677E-17,-1.,0.));
#1176=CARTESIAN_POINT('',(17.5,-2.1,4.4));
#1177=AXIS2_PLACEMENT_3D('',#1178,#1179,#1180);
#1178=CARTESIAN_POINT('',(17.5,0.,4.4));
#1179=DIRECTION('',(0.,0.,1.));
#1180=DIRECTION('',(0.,-1.,0.));
#1181=CARTESIAN_POINT('',(17.5,-2.1,2.4));
#1182=AXIS2_PLACEMENT_3D('',#1183,#1184,#1185);
#1183=CARTESIAN_POINT('',(17.5,0.,2.4));
#1184=DIRECTION('',(0.,0.,1.));
#1185=DIRECTION('',(6.12323399573677E-17,-1.,0.));
#1186=CARTESIAN_POINT('',(9.42978035343462E-16,-19.6,4.4));
#1187=AXIS2_PLACEMENT_3D('',#1188,#1189,#1190);
#1188=CARTESIAN_POINT('',(1.07156594925393E-15,-17.5,4.4));
#1189=DIRECTION('',(0.,0.,1.));
#1190=DIRECTION('',(6.12323399573676E-17,-1.,0.));
#1191=CARTESIAN_POINT('',(9.42978035343462E-16,-19.6,2.4));
#1192=AXIS2_PLACEMENT_3D('',#1193,#1194,#1195);
#1193=CARTESIAN_POINT('',(1.07156594925393E-15,-17.5,2.4));
#1194=DIRECTION('',(0.,0.,1.));
#1195=DIRECTION('',(6.12323399573677E-17,-1.,0.));
#1196=CARTESIAN_POINT('',(-17.5,-2.1,4.4));
#1197=AXIS2_PLACEMENT_3D('',#1198,#1199,#1200);
#1198=CARTESIAN_POINT('',(-17.5,2.14313189850787E-15,4.4));
#1199=DIRECTION('',(0.,0.,1.));
#1200=DIRECTION('',(0.,-1.,0.));
#1201=CARTESIAN_POINT('',(-17.5,-2.1,2.4));
#1202=AXIS2_PLACEMENT_3D('',#1203,#1204,#1205);
#1203=CARTESIAN_POINT('',(-17.5,2.14313189850787E-15,2.4));
#1204=DIRECTION('',(0.,0.,1.));
#1205=DIRECTION('',(6.12323399573677E-17,-1.,0.));
#1206=CARTESIAN_POINT('',(-23.5,-26.9,-5.55111512312578E-16));
#1207=CARTESIAN_POINT('',(23.5,-26.9,-5.9211894646675E-16));
#1208=CARTESIAN_POINT('',(-23.5,-26.9,-8.32667268468867E-16));
#1209=VECTOR('',#1210,1.);
#1210=DIRECTION('',(1.,0.,-1.18108832406932E-18));
#1211=CARTESIAN_POINT('',(-26.9,-23.5,-5.9211894646675E-16));
#1212=AXIS2_PLACEMENT_3D('',#1213,#1214,#1215);
#1213=CARTESIAN_POINT('',(-23.5,-23.5,0.));
#1214=DIRECTION('',(0.,0.,-1.));
#1215=DIRECTION('',(0.,-1.,0.));
#1216=CARTESIAN_POINT('',(-26.9,23.5,-5.55111512312578E-16));
#1217=CARTESIAN_POINT('',(-26.9,23.5,-8.32667268468867E-16));
#1218=VECTOR('',#1219,1.);
#1219=DIRECTION('',(0.,-1.,-1.18108832406932E-18));
#1220=CARTESIAN_POINT('',(-23.5,26.9,-5.18104078158406E-16));
#1221=AXIS2_PLACEMENT_3D('',#1222,#1223,#1224);
#1222=CARTESIAN_POINT('',(-23.5,23.5,0.));
#1223=DIRECTION('',(0.,0.,-1.));
#1224=DIRECTION('',(-1.,0.,0.));
#1225=CARTESIAN_POINT('',(23.5,26.9,-4.81096644004234E-16));
#1226=CARTESIAN_POINT('',(23.5,26.9,-7.21644966006352E-16));
#1227=VECTOR('',#1228,1.);
#1228=DIRECTION('',(-1.,0.,-1.18108832406932E-18));
#1229=CARTESIAN_POINT('',(26.9,23.5,-5.18104078158406E-16));
#1230=AXIS2_PLACEMENT_3D('',#1231,#1232,#1233);
#1231=CARTESIAN_POINT('',(23.5,23.5,0.));
#1232=DIRECTION('',(0.,0.,-1.));
#1233=DIRECTION('',(0.,1.,0.));
#1234=CARTESIAN_POINT('',(26.9,-23.5,-4.81096644004234E-16));
#1235=CARTESIAN_POINT('',(26.9,-23.5,-7.21644966006352E-16));
#1236=VECTOR('',#1237,1.);
#1237=DIRECTION('',(0.,1.,-1.18108832406932E-18));
#1238=AXIS2_PLACEMENT_3D('',#1239,#1240,#1241);
#1239=CARTESIAN_POINT('',(23.5,-23.5,0.));
#1240=DIRECTION('',(0.,0.,-1.));
#1241=DIRECTION('',(1.,0.,0.));
#1242=CARTESIAN_POINT('',(23.5,20.75,0.));
#1243=AXIS2_PLACEMENT_3D('',#1244,#1245,#1246);
#1244=CARTESIAN_POINT('',(23.5,23.5,0.));
#1245=DIRECTION('',(0.,0.,1.));
#1246=DIRECTION('',(6.12323399573677E-17,-1.,0.));
#1247=CARTESIAN_POINT('',(-23.5,20.75,0.));
#1248=AXIS2_PLACEMENT_3D('',#1249,#1250,#1251);
#1249=CARTESIAN_POINT('',(-23.5,23.5,0.));
#1250=DIRECTION('',(0.,0.,1.));
#1251=DIRECTION('',(6.12323399573677E-17,-1.,0.));
#1252=CARTESIAN_POINT('',(-17.5,4.4,0.));
#1253=CARTESIAN_POINT('',(-13.2889285714286,-1.27549105189702,0.));
#1254=AXIS2_PLACEMENT_3D('',#1255,#1256,#1257);
#1255=CARTESIAN_POINT('',(-17.5,2.14313189850787E-15,0.));
#1256=DIRECTION('',(0.,0.,-1.));
#1257=DIRECTION('',(0.957061688311689,-0.289884329976596,0.));
#1258=CARTESIAN_POINT('',(-1.27549105189703,-13.2889285714286,0.));
#1259=AXIS2_PLACEMENT_3D('',#1260,#1261,#1262);
#1260=CARTESIAN_POINT('',(0.,0.,0.));
#1261=DIRECTION('',(0.,0.,1.));
#1262=DIRECTION('',(-0.995425361155698,-0.095542400891162,0.));
#1263=CARTESIAN_POINT('',(1.27549105189702,-13.2889285714286,0.));
#1264=AXIS2_PLACEMENT_3D('',#1265,#1266,#1267);
#1265=CARTESIAN_POINT('',(1.07156594925393E-15,-17.5,0.));
#1266=DIRECTION('',(0.,0.,-1.));
#1267=DIRECTION('',(0.289884329976596,0.957061688311689,0.));
#1268=CARTESIAN_POINT('',(13.2889285714286,-1.27549105189703,0.));
#1269=AXIS2_PLACEMENT_3D('',#1270,#1271,#1272);
#1270=CARTESIAN_POINT('',(0.,0.,0.));
#1271=DIRECTION('',(0.,0.,1.));
#1272=DIRECTION('',(0.0955424008911629,-0.995425361155698,0.));
#1273=CARTESIAN_POINT('',(17.5,4.4,0.));
#1274=AXIS2_PLACEMENT_3D('',#1275,#1276,#1277);
#1275=CARTESIAN_POINT('',(17.5,0.,0.));
#1276=DIRECTION('',(0.,0.,-1.));
#1277=DIRECTION('',(0.,1.,0.));
#1278=CARTESIAN_POINT('',(13.2889285714286,1.27549105189703,0.));
#1279=AXIS2_PLACEMENT_3D('',#1280,#1281,#1282);
#1280=CARTESIAN_POINT('',(17.5,0.,0.));
#1281=DIRECTION('',(0.,0.,-1.));
#1282=DIRECTION('',(-0.957061688311688,0.289884329976597,0.));
#1283=CARTESIAN_POINT('',(1.27549105189704,13.2889285714286,0.));
#1284=AXIS2_PLACEMENT_3D('',#1285,#1286,#1287);
#1285=CARTESIAN_POINT('',(0.,0.,0.));
#1286=DIRECTION('',(0.,0.,1.));
#1287=DIRECTION('',(0.995425361155698,0.095542400891163,0.));
#1288=CARTESIAN_POINT('',(6.35671340581811E-16,21.9,0.));
#1289=AXIS2_PLACEMENT_3D('',#1290,#1291,#1292);
#1290=CARTESIAN_POINT('',(1.07156594925393E-15,17.5,0.));
#1291=DIRECTION('',(0.,0.,-1.));
#1292=DIRECTION('',(6.12323399573676E-17,1.,0.));
#1293=CARTESIAN_POINT('',(-1.27549105189703,13.2889285714286,0.));
#1294=AXIS2_PLACEMENT_3D('',#1295,#1296,#1297);
#1295=CARTESIAN_POINT('',(1.07156594925393E-15,17.5,0.));
#1296=DIRECTION('',(0.,0.,-1.));
#1297=DIRECTION('',(-0.289884329976598,-0.957061688311688,0.));
#1298=CARTESIAN_POINT('',(-13.2889285714286,1.27549105189703,0.));
#1299=AXIS2_PLACEMENT_3D('',#1300,#1301,#1302);
#1300=CARTESIAN_POINT('',(0.,0.,0.));
#1301=DIRECTION('',(0.,0.,1.));
#1302=DIRECTION('',(-0.0955424008911634,0.995425361155698,0.));
#1303=AXIS2_PLACEMENT_3D('',#1304,#1305,#1306);
#1304=CARTESIAN_POINT('',(-17.5,2.14313189850787E-15,0.));
#1305=DIRECTION('',(0.,0.,-1.));
#1306=DIRECTION('',(0.,1.,0.));
#1307=CARTESIAN_POINT('',(-23.5,-26.25,0.));
#1308=AXIS2_PLACEMENT_3D('',#1309,#1310,#1311);
#1309=CARTESIAN_POINT('',(-23.5,-23.5,0.));
#1310=DIRECTION('',(0.,0.,1.));
#1311=DIRECTION('',(6.12323399573677E-17,-1.,0.));
#1312=CARTESIAN_POINT('',(23.5,-26.25,0.));
#1313=AXIS2_PLACEMENT_3D('',#1314,#1315,#1316);
#1314=CARTESIAN_POINT('',(23.5,-23.5,0.));
#1315=DIRECTION('',(0.,0.,1.));
#1316=DIRECTION('',(6.12323399573677E-17,-1.,0.));
#1317=CARTESIAN_POINT('',(-17.5,3.8,2.4));
#1318=AXIS2_PLACEMENT_3D('',#1319,#1320,#1321);
#1319=CARTESIAN_POINT('',(-17.5,2.14313189850787E-15,2.4));
#1320=DIRECTION('',(0.,0.,-1.));
#1321=DIRECTION('',(-6.12323399573677E-17,1.,0.));
#1322=CARTESIAN_POINT('',(-17.5,3.8,0.6));
#1323=AXIS2_PLACEMENT_3D('',#1324,#1325,#1326);
#1324=CARTESIAN_POINT('',(-17.5,2.14313189850787E-15,0.6));
#1325=DIRECTION('',(0.,0.,-1.));
#1326=DIRECTION('',(0.,1.,0.));
#1327=CARTESIAN_POINT('',(3.73517273739943E-16,21.3,2.4));
#1328=AXIS2_PLACEMENT_3D('',#1329,#1330,#1331);
#1329=CARTESIAN_POINT('',(1.07156594925393E-15,17.5,2.4));
#1330=DIRECTION('',(0.,0.,-1.));
#1331=DIRECTION('',(-6.12323399573677E-17,1.,0.));
#1332=CARTESIAN_POINT('',(4.98371508384722E-16,21.3,0.6));
#1333=AXIS2_PLACEMENT_3D('',#1334,#1335,#1336);
#1334=CARTESIAN_POINT('',(1.07156594925393E-15,17.5,0.6));
#1335=DIRECTION('',(0.,0.,-1.));
#1336=DIRECTION('',(-6.12323399573676E-17,1.,0.));
#1337=CARTESIAN_POINT('',(17.5,3.8,2.4));
#1338=AXIS2_PLACEMENT_3D('',#1339,#1340,#1341);
#1339=CARTESIAN_POINT('',(17.5,0.,2.4));
#1340=DIRECTION('',(0.,0.,-1.));
#1341=DIRECTION('',(-6.12323399573677E-17,1.,0.));
#1342=CARTESIAN_POINT('',(17.5,3.8,0.6));
#1343=AXIS2_PLACEMENT_3D('',#1344,#1345,#1346);
#1344=CARTESIAN_POINT('',(17.5,0.,0.6));
#1345=DIRECTION('',(0.,0.,-1.));
#1346=DIRECTION('',(0.,1.,0.));
#1347=CARTESIAN_POINT('',(3.73517273739943E-16,-13.7,2.4));
#1348=AXIS2_PLACEMENT_3D('',#1349,#1350,#1351);
#1349=CARTESIAN_POINT('',(1.07156594925393E-15,-17.5,2.4));
#1350=DIRECTION('',(0.,0.,-1.));
#1351=DIRECTION('',(-6.12323399573677E-17,1.,0.));
#1352=CARTESIAN_POINT('',(4.98371508384722E-16,-13.7,0.6));
#1353=AXIS2_PLACEMENT_3D('',#1354,#1355,#1356);
#1354=CARTESIAN_POINT('',(1.07156594925393E-15,-17.5,0.6));
#1355=DIRECTION('',(0.,0.,-1.));
#1356=DIRECTION('',(-6.12323399573677E-17,1.,0.));
#1357=CARTESIAN_POINT('',(23.5,26.9,5.));
#1358=CARTESIAN_POINT('',(-23.5,26.9,5.));
#1359=CARTESIAN_POINT('',(23.5,26.9,5.));
#1360=VECTOR('',#1361,1.);
#1361=DIRECTION('',(-1.,-7.55896527404362E-17,0.));
#1362=CARTESIAN_POINT('',(-26.9,23.5,5.));
#1363=AXIS2_PLACEMENT_3D('',#1364,#1365,#1366);
#1364=CARTESIAN_POINT('',(-23.5,23.5,5.));
#1365=DIRECTION('',(0.,0.,1.));
#1366=DIRECTION('',(2.089831575765E-15,1.,0.));
#1367=CARTESIAN_POINT('',(-26.9,-23.5,5.));
#1368=CARTESIAN_POINT('',(-26.9,23.5,5.));
#1369=VECTOR('',#1370,1.);
#1370=DIRECTION('',(7.55896527404362E-17,-1.,0.));
#1371=CARTESIAN_POINT('',(-23.5,-26.9,5.));
#1372=AXIS2_PLACEMENT_3D('',#1373,#1374,#1375);
#1373=CARTESIAN_POINT('',(-23.5,-23.5,5.));
#1374=DIRECTION('',(0.,0.,1.));
#1375=DIRECTION('',(-1.,1.0449157878825E-15,0.));
#1376=CARTESIAN_POINT('',(23.5,-26.9,5.));
#1377=CARTESIAN_POINT('',(-23.5,-26.9,5.));
#1378=VECTOR('',#1379,1.);
#1379=DIRECTION('',(1.,7.55896527404362E-17,0.));
#1380=CARTESIAN_POINT('',(26.9,-23.5,5.));
#1381=AXIS2_PLACEMENT_3D('',#1382,#1383,#1384);
#1382=CARTESIAN_POINT('',(23.5,-23.5,5.));
#1383=DIRECTION('',(0.,0.,1.));
#1384=DIRECTION('',(0.,-1.,0.));
#1385=CARTESIAN_POINT('',(26.9,23.5,5.));
#1386=CARTESIAN_POINT('',(26.9,-23.5,5.));
#1387=VECTOR('',#1388,1.);
#1388=DIRECTION('',(-7.55896527404362E-17,1.,0.));
#1389=AXIS2_PLACEMENT_3D('',#1390,#1391,#1392);
#1390=CARTESIAN_POINT('',(23.5,23.5,5.));
#1391=DIRECTION('',(0.,0.,1.));
#1392=DIRECTION('',(1.,-2.089831575765E-15,0.));
#1393=CARTESIAN_POINT('',(-17.5,-2.7,5.));
#1394=AXIS2_PLACEMENT_3D('',#1395,#1396,#1397);
#1395=CARTESIAN_POINT('',(-17.5,2.14313189850787E-15,5.));
#1396=DIRECTION('',(0.,0.,1.));
#1397=DIRECTION('',(6.12323399573677E-17,-1.,0.));
#1398=CARTESIAN_POINT('',(17.5,-2.7,5.));
#1399=AXIS2_PLACEMENT_3D('',#1400,#1401,#1402);
#1400=CARTESIAN_POINT('',(17.5,0.,5.));
#1401=DIRECTION('',(0.,0.,1.));
#1402=DIRECTION('',(6.12323399573677E-17,-1.,0.));
#1403=CARTESIAN_POINT('',(-23.5,-26.25,5.));
#1404=AXIS2_PLACEMENT_3D('',#1405,#1406,#1407);
#1405=CARTESIAN_POINT('',(-23.5,-23.5,5.));
#1406=DIRECTION('',(0.,0.,1.));
#1407=DIRECTION('',(6.12323399573677E-17,-1.,0.));
#1408=CARTESIAN_POINT('',(23.5,-26.25,5.));
#1409=AXIS2_PLACEMENT_3D('',#1410,#1411,#1412);
#1410=CARTESIAN_POINT('',(23.5,-23.5,5.));
#1411=DIRECTION('',(0.,0.,1.));
#1412=DIRECTION('',(6.12323399573677E-17,-1.,0.));
#1413=CARTESIAN_POINT('',(-8.17451738430858E-16,-13.35,5.));
#1414=AXIS2_PLACEMENT_3D('',#1415,#1416,#1417);
#1415=CARTESIAN_POINT('',(0.,0.,5.));
#1416=DIRECTION('',(0.,0.,1.));
#1417=DIRECTION('',(6.12323399573677E-17,-1.,0.));
#1418=CARTESIAN_POINT('',(23.5,20.75,5.));
#1419=AXIS2_PLACEMENT_3D('',#1420,#1421,#1422);
#1420=CARTESIAN_POINT('',(23.5,23.5,5.));
#1421=DIRECTION('',(0.,0.,1.));
#1422=DIRECTION('',(6.12323399573677E-17,-1.,0.));
#1423=CARTESIAN_POINT('',(-23.5,20.75,5.));
#1424=AXIS2_PLACEMENT_3D('',#1425,#1426,#1427);
#1425=CARTESIAN_POINT('',(-23.5,23.5,5.));
#1426=DIRECTION('',(0.,0.,1.));
#1427=DIRECTION('',(6.12323399573677E-17,-1.,0.));
#1428=CARTESIAN_POINT('',(9.06238631369041E-16,14.8,5.));
#1429=AXIS2_PLACEMENT_3D('',#1430,#1431,#1432);
#1430=CARTESIAN_POINT('',(1.07156594925393E-15,17.5,5.));
#1431=DIRECTION('',(0.,0.,1.));
#1432=DIRECTION('',(6.12323399573677E-17,-1.,0.));
#1433=CARTESIAN_POINT('',(9.06238631369041E-16,-20.2,5.));
#1434=AXIS2_PLACEMENT_3D('',#1435,#1436,#1437);
#1435=CARTESIAN_POINT('',(1.07156594925393E-15,-17.5,5.));
#1436=DIRECTION('',(0.,0.,1.));
#1437=DIRECTION('',(6.12323399573677E-17,-1.,0.));
#1438=CARTESIAN_POINT('',(-27.5,23.5,4.4));
#1439=CARTESIAN_POINT('',(-23.5,27.5,4.4));
#1440=AXIS2_PLACEMENT_3D('',#1441,#1442,#1443);
#1441=CARTESIAN_POINT('',(-23.5,23.5,4.4));
#1442=DIRECTION('',(0.,0.,1.));
#1443=DIRECTION('',(-2.83276944882399E-16,1.,0.));
#1444=CARTESIAN_POINT('',(-23.5,27.5,0.599999999999999));
#1445=CARTESIAN_POINT('',(-23.5,27.5,0.599999999999999));
#1446=VECTOR('',#1447,1.);
#1447=DIRECTION('',(0.,0.,1.));
#1448=CARTESIAN_POINT('',(-27.5,23.5,0.599999999999999));
#1449=AXIS2_PLACEMENT_3D('',#1450,#1451,#1452);
#1450=CARTESIAN_POINT('',(-23.5,23.5,0.599999999999998));
#1451=DIRECTION('',(0.,0.,-1.));
#1452=DIRECTION('',(-1.,0.,0.));
#1453=CARTESIAN_POINT('',(-27.5,23.5,0.599999999999999));
#1454=VECTOR('',#1455,1.);
#1455=DIRECTION('',(0.,0.,1.));
#1456=CARTESIAN_POINT('',(23.5,27.5,4.4));
#1457=CARTESIAN_POINT('',(23.5,27.5,4.4));
#1458=VECTOR('',#1459,1.);
#1459=DIRECTION('',(-1.,0.,-1.8897413185109E-17));
#1460=CARTESIAN_POINT('',(23.5,27.5,0.599999999999999));
#1461=CARTESIAN_POINT('',(23.5,27.5,0.599999999999999));
#1462=VECTOR('',#1463,1.);
#1463=DIRECTION('',(0.,0.,1.));
#1464=CARTESIAN_POINT('',(23.5,27.5,0.6));
#1465=VECTOR('',#1466,1.);
#1466=DIRECTION('',(-1.,0.,-2.36217664813863E-18));
#1467=CARTESIAN_POINT('',(27.5,23.5,4.4));
#1468=AXIS2_PLACEMENT_3D('',#1469,#1470,#1471);
#1469=CARTESIAN_POINT('',(23.5,23.5,4.4));
#1470=DIRECTION('',(0.,0.,1.));
#1471=DIRECTION('',(1.,2.83276944882399E-16,0.));
#1472=CARTESIAN_POINT('',(27.5,23.5,0.599999999999999));
#1473=CARTESIAN_POINT('',(27.5,23.5,0.599999999999999));
#1474=VECTOR('',#1475,1.);
#1475=DIRECTION('',(0.,0.,1.));
#1476=AXIS2_PLACEMENT_3D('',#1477,#1478,#1479);
#1477=CARTESIAN_POINT('',(23.5,23.5,0.599999999999998));
#1478=DIRECTION('',(0.,0.,-1.));
#1479=DIRECTION('',(0.,1.,0.));
#1480=CARTESIAN_POINT('',(27.5,-23.5,4.4));
#1481=CARTESIAN_POINT('',(27.5,-23.5,4.4));
#1482=VECTOR('',#1483,1.);
#1483=DIRECTION('',(0.,1.,-1.8897413185109E-17));
#1484=CARTESIAN_POINT('',(27.5,-23.5,0.599999999999999));
#1485=CARTESIAN_POINT('',(27.5,-23.5,0.599999999999999));
#1486=VECTOR('',#1487,1.);
#1487=DIRECTION('',(0.,0.,1.));
#1488=CARTESIAN_POINT('',(27.5,-23.5,0.6));
#1489=VECTOR('',#1490,1.);
#1490=DIRECTION('',(0.,1.,-2.36217664813863E-18));
#1491=CARTESIAN_POINT('',(23.5,-27.5,4.4));
#1492=AXIS2_PLACEMENT_3D('',#1493,#1494,#1495);
#1493=CARTESIAN_POINT('',(23.5,-23.5,4.4));
#1494=DIRECTION('',(0.,0.,1.));
#1495=DIRECTION('',(2.83276944882399E-16,-1.,0.));
#1496=CARTESIAN_POINT('',(23.5,-27.5,0.599999999999999));
#1497=CARTESIAN_POINT('',(23.5,-27.5,0.599999999999999));
#1498=VECTOR('',#1499,1.);
#1499=DIRECTION('',(0.,0.,1.));
#1500=AXIS2_PLACEMENT_3D('',#1501,#1502,#1503);
#1501=CARTESIAN_POINT('',(23.5,-23.5,0.599999999999998));
#1502=DIRECTION('',(0.,0.,-1.));
#1503=DIRECTION('',(1.,0.,0.));
#1504=CARTESIAN_POINT('',(-23.5,-27.5,4.4));
#1505=CARTESIAN_POINT('',(-23.5,-27.5,4.4));
#1506=VECTOR('',#1507,1.);
#1507=DIRECTION('',(1.,0.,-1.8897413185109E-17));
#1508=CARTESIAN_POINT('',(-23.5,-27.5,0.6));
#1509=CARTESIAN_POINT('',(-23.5,-27.5,0.599999999999999));
#1510=VECTOR('',#1511,1.);
#1511=DIRECTION('',(0.,0.,1.));
#1512=CARTESIAN_POINT('',(-23.5,-27.5,0.6));
#1513=VECTOR('',#1514,1.);
#1514=DIRECTION('',(1.,0.,-2.36217664813863E-18));
#1515=CARTESIAN_POINT('',(-27.5,-23.5,4.4));
#1516=AXIS2_PLACEMENT_3D('',#1517,#1518,#1519);
#1517=CARTESIAN_POINT('',(-23.5,-23.5,4.4));
#1518=DIRECTION('',(0.,0.,1.));
#1519=DIRECTION('',(-1.,-6.12323399573677E-17,0.));
#1520=CARTESIAN_POINT('',(-27.5,-23.5,0.6));
#1521=CARTESIAN_POINT('',(-27.5,-23.5,0.599999999999999));
#1522=VECTOR('',#1523,1.);
#1523=DIRECTION('',(0.,-1.86984930463184E-15,1.));
#1524=AXIS2_PLACEMENT_3D('',#1525,#1526,#1527);
#1525=CARTESIAN_POINT('',(-23.5,-23.5,0.599999999999998));
#1526=DIRECTION('',(0.,0.,-1.));
#1527=DIRECTION('',(0.,-1.,0.));
#1528=CARTESIAN_POINT('',(-27.5,23.5,4.4));
#1529=VECTOR('',#1530,1.);
#1530=DIRECTION('',(0.,-1.,-1.8897413185109E-17));
#1531=CARTESIAN_POINT('',(-27.5,23.5,0.6));
#1532=VECTOR('',#1533,1.);
#1533=DIRECTION('',(0.,-1.,-2.36217664813863E-18));
#1534=CARTESIAN_POINT('',(-7.80712334456438E-16,-12.75,4.4));
#1535=AXIS2_PLACEMENT_3D('',#1536,#1537,#1538);
#1536=CARTESIAN_POINT('',(0.,0.,4.4));
#1537=DIRECTION('',(0.,0.,1.));
#1538=DIRECTION('',(6.12323399573677E-17,-1.,0.));
#1539=CARTESIAN_POINT('',(-7.80712334456438E-16,-12.75,0.6));
#1540=AXIS2_PLACEMENT_3D('',#1541,#1542,#1543);
#1541=CARTESIAN_POINT('',(0.,0.,0.6));
#1542=DIRECTION('',(0.,0.,1.));
#1543=DIRECTION('',(6.12323399573677E-17,-1.,0.));
#1544=CARTESIAN_POINT('',(-23.5,-25.65,4.4));
#1545=AXIS2_PLACEMENT_3D('',#1546,#1547,#1548);
#1546=CARTESIAN_POINT('',(-23.5,-23.5,4.4));
#1547=DIRECTION('',(0.,0.,1.));
#1548=DIRECTION('',(0.,-1.,0.));
#1549=CARTESIAN_POINT('',(-23.5,-25.65,0.6));
#1550=AXIS2_PLACEMENT_3D('',#1551,#1552,#1553);
#1551=CARTESIAN_POINT('',(-23.5,-23.5,0.6));
#1552=DIRECTION('',(0.,0.,1.));
#1553=DIRECTION('',(0.,-1.,0.));
#1554=CARTESIAN_POINT('',(-23.5,21.35,4.4));
#1555=AXIS2_PLACEMENT_3D('',#1556,#1557,#1558);
#1556=CARTESIAN_POINT('',(-23.5,23.5,4.4));
#1557=DIRECTION('',(0.,0.,1.));
#1558=DIRECTION('',(0.,-1.,0.));
#1559=CARTESIAN_POINT('',(-23.5,21.35,0.6));
#1560=AXIS2_PLACEMENT_3D('',#1561,#1562,#1563);
#1561=CARTESIAN_POINT('',(-23.5,23.5,0.6));
#1562=DIRECTION('',(0.,0.,1.));
#1563=DIRECTION('',(0.,-1.,0.));
#1564=CARTESIAN_POINT('',(23.5,-25.65,4.4));
#1565=AXIS2_PLACEMENT_3D('',#1566,#1567,#1568);
#1566=CARTESIAN_POINT('',(23.5,-23.5,4.4));
#1567=DIRECTION('',(0.,0.,1.));
#1568=DIRECTION('',(0.,-1.,0.));
#1569=CARTESIAN_POINT('',(23.5,-25.65,0.6));
#1570=AXIS2_PLACEMENT_3D('',#1571,#1572,#1573);
#1571=CARTESIAN_POINT('',(23.5,-23.5,0.6));
#1572=DIRECTION('',(0.,0.,1.));
#1573=DIRECTION('',(0.,-1.,0.));
#1574=CARTESIAN_POINT('',(23.5,21.35,4.4));
#1575=AXIS2_PLACEMENT_3D('',#1576,#1577,#1578);
#1576=CARTESIAN_POINT('',(23.5,23.5,4.4));
#1577=DIRECTION('',(0.,0.,1.));
#1578=DIRECTION('',(0.,-1.,0.));
#1579=CARTESIAN_POINT('',(23.5,21.35,0.6));
#1580=AXIS2_PLACEMENT_3D('',#1581,#1582,#1583);
#1581=CARTESIAN_POINT('',(23.5,23.5,0.6));
#1582=DIRECTION('',(0.,0.,1.));
#1583=DIRECTION('',(0.,-1.,0.));
#1584=CARTESIAN_POINT('',(13.2889285714286,-1.27549105189703,0.));
#1585=CARTESIAN_POINT('',(13.2871132321314,-1.25725300718332,0.00354954611169491));
#1586=CARTESIAN_POINT('',(13.2834935777893,-1.22011368588763,0.010627082534959));
#1587=CARTESIAN_POINT('',(13.278205837411,-1.16338949082434,0.0209662396991029));
#1588=CARTESIAN_POINT('',(13.2729738603433,-1.1044772494018,0.0311963624573004));
#1589=CARTESIAN_POINT('',(13.2678393386333,-1.04350478639138,0.0412359300465573));
#1590=CARTESIAN_POINT('',(13.2628292491526,-0.98043135043876,0.0510321943942305));
#1591=CARTESIAN_POINT('',(13.2580157513582,-0.915818139277234,0.0604440615900645));
#1592=CARTESIAN_POINT('',(13.2534579624453,-0.850171341222996,0.0693559393525579));
#1593=CARTESIAN_POINT('',(13.2492254324782,-0.784352060901177,0.077631835936255));
#1594=CARTESIAN_POINT('',(13.2453273362018,-0.718487848017088,0.0852538118955869));
#1595=CARTESIAN_POINT('',(13.2417520099525,-0.652335837362147,0.0922446732768466));
#1596=CARTESIAN_POINT('',(13.2384674370124,-0.585089958866513,0.0986670226010186));
#1597=CARTESIAN_POINT('',(13.235485534822,-0.516577448738801,0.104497557609956));
#1598=CARTESIAN_POINT('',(13.232801614863,-0.446086277797924,0.109745445797839));
#1599=CARTESIAN_POINT('',(13.2304487211609,-0.373594373241825,0.114346075941589));
#1600=CARTESIAN_POINT('',(13.2284511339745,-0.298601684140766,0.118251972674527));
#1601=CARTESIAN_POINT('',(13.2268676172256,-0.221841625728712,0.121348234473859));
#1602=CARTESIAN_POINT('',(13.2257270162235,-0.143089319959399,0.123578459896735));
#1603=CARTESIAN_POINT('',(13.2251200558358,-0.0690587623545675,0.124765253950787));
#1604=CARTESIAN_POINT('',(13.224983815224,-0.014596038560369,0.125031646208224));
#1605=CARTESIAN_POINT('',(13.225027017545,0.0416392390904716,0.124947172396033));
#1606=CARTESIAN_POINT('',(13.2253452621408,0.106011754229456,0.124324906426523));
#1607=CARTESIAN_POINT('',(13.2263876017477,0.194219006020518,0.122286812222693));
#1608=CARTESIAN_POINT('',(13.228093578431,0.284602239815989,0.118951103623735));
#1609=CARTESIAN_POINT('',(13.2305175121067,0.377389130106382,0.114211568503265));
#1610=CARTESIAN_POINT('',(13.2336743590598,0.471581710052694,0.108038962728748));
#1611=CARTESIAN_POINT('',(13.2376024588269,0.567417533577282,0.10035832072556));
#1612=CARTESIAN_POINT('',(13.2423361333534,0.66491886085157,0.0911025325447996));
#1613=CARTESIAN_POINT('',(13.2479790893465,0.765200418157518,0.08006881970863));
#1614=CARTESIAN_POINT('',(13.2545731695484,0.867922967081429,0.0671753667995325));
#1615=CARTESIAN_POINT('',(13.2620978582665,0.972031249278516,0.0524622882998603));
#1616=CARTESIAN_POINT('',(13.2704045726781,1.075425073625,0.0362201092822206));
#1617=CARTESIAN_POINT('',(13.2793247604441,1.17653526135177,0.0187784013592631));
#1618=CARTESIAN_POINT('',(13.2856815938563,1.24287063964986,0.0063488388210326));
#1619=CARTESIAN_POINT('',(13.2889285714254,1.27549105189697,-1.48231427132828E-12));
#1620=CARTESIAN_POINT('',(-1.2130723934237E-16,-13.225,0.124999999999999));
#1621=CARTESIAN_POINT('',(1.27549105189702,-13.2889285714286,0.));
#1622=CARTESIAN_POINT('',(1.26747083105056,-13.2881302654077,0.00156093356031442));
#1623=CARTESIAN_POINT('',(1.25137113124716,-13.2865423987153,0.00466570083606177));
#1624=CARTESIAN_POINT('',(1.22703722360077,-13.2841872801295,0.00927068131100588));
#1625=CARTESIAN_POINT('',(1.20266018684385,-13.2818732544409,0.013795312545789));
#1626=CARTESIAN_POINT('',(1.17827579415085,-13.2796038444894,0.0182327063056538));
#1627=CARTESIAN_POINT('',(1.15395795456109,-13.2773858327365,0.0225696007944845));
#1628=CARTESIAN_POINT('',(1.12969233049613,-13.2752176792748,0.0268090070045385));
#1629=CARTESIAN_POINT('',(1.10556733050844,-13.2731067915296,0.030936441143337));
#1630=CARTESIAN_POINT('',(1.08152543340682,-13.2710475266959,0.0349629366282776));
#1631=CARTESIAN_POINT('',(1.05755134046062,-13.2690381937147,0.0388917999991841));
#1632=CARTESIAN_POINT('',(1.03357104045565,-13.2670725389422,0.0427352590517357));
#1633=CARTESIAN_POINT('',(1.00960105785598,-13.2651519533284,0.0464905940507604));
#1634=CARTESIAN_POINT('',(0.985617377125105,-13.2632745758046,0.0501614439575416));
#1635=CARTESIAN_POINT('',(0.961544093054968,-13.2614347329022,0.0537589021466892));
#1636=CARTESIAN_POINT('',(0.937305376493311,-13.2596274241672,0.0572927460420374));
#1637=CARTESIAN_POINT('',(0.9128385548961,-13.2578491952621,0.0607697299346185));
#1638=CARTESIAN_POINT('',(0.888211064635378,-13.2561061546871,0.0641779098298901));
#1639=CARTESIAN_POINT('',(0.863467813130444,-13.2544023156105,0.0675094387507375));
#1640=CARTESIAN_POINT('',(0.838670324664939,-13.2527424180834,0.0707550484405546));
#1641=CARTESIAN_POINT('',(0.813808596706466,-13.2511261904664,0.0739152700381055));
#1642=CARTESIAN_POINT('',(0.788920829795123,-13.2495564380933,0.0769846182537395));
#1643=CARTESIAN_POINT('',(0.764011670205044,-13.2480336466312,0.0799621434590194));
#1644=CARTESIAN_POINT('',(0.739110739415733,-13.2465596926824,0.0828441763199055));
#1645=CARTESIAN_POINT('',(0.714218234461115,-13.2451345997771,0.0856306708274776));
#1646=CARTESIAN_POINT('',(0.689352884479193,-13.243759381248,0.0883196456050611));
#1647=CARTESIAN_POINT('',(0.664461892452706,-13.2424310922992,0.0909168586335446));
#1648=CARTESIAN_POINT('',(0.639480964680528,-13.2411466688583,0.09342830111578));
#1649=CARTESIAN_POINT('',(0.614269563838994,-13.2398998613231,0.0958661929444195));
#1650=CARTESIAN_POINT('',(0.588810256656089,-13.2386913303887,0.0982292422575943));
#1651=CARTESIAN_POINT('',(0.562949455369847,-13.2375157012885,0.100527958375345));
#1652=CARTESIAN_POINT('',(0.536669840276859,-13.2363747295314,0.102758908738523));
#1653=CARTESIAN_POINT('',(0.509814072935474,-13.235264772586,0.104929215615116));
#1654=CARTESIAN_POINT('',(0.482504083540344,-13.234194245077,0.107022425828226));
#1655=CARTESIAN_POINT('',(0.454665009137743,-13.2331633706631,0.109038102056605));
#1656=CARTESIAN_POINT('',(0.426406081385154,-13.2321793150955,0.11096223305481));
#1657=CARTESIAN_POINT('',(0.39766324528613,-13.2312430152376,0.112792986967053));
#1658=CARTESIAN_POINT('',(0.368624972243983,-13.2303633117051,0.114513077673185));
#1659=CARTESIAN_POINT('',(0.339299161997092,-13.2295424439449,0.116118126366385));
#1660=CARTESIAN_POINT('',(0.309770915177032,-13.2287844361564,0.117600264500333));
#1661=CARTESIAN_POINT('',(0.279986884544329,-13.2280896238303,0.118958836087846));
#1662=CARTESIAN_POINT('',(0.25002429920368,-13.2274613908555,0.120187224586079));
#1663=CARTESIAN_POINT('',(0.219870946680653,-13.2269007860448,0.121283379244166));
#1664=CARTESIAN_POINT('',(0.189530116363811,-13.2264091788927,0.122244622279018));
#1665=CARTESIAN_POINT('',(0.158897668924709,-13.2259866290531,0.123070837049313));
#1666=CARTESIAN_POINT('',(0.127946788309881,-13.2256350413062,0.123758299124402));
#1667=CARTESIAN_POINT('',(0.0965915058029918,-13.2253561002188,0.124303714658479));
#1668=CARTESIAN_POINT('',(0.0648250855697567,-13.2251527956015,0.124701237653489));
#1669=CARTESIAN_POINT('',(0.0325999026999273,-13.2250281701827,0.124944918640159));
#1670=CARTESIAN_POINT('',(0.0109188385001047,-13.2250000094857,0.124999981455561));
#1671=CARTESIAN_POINT('',(5.99520433297585E-14,-13.2250000000012,0.125000000000792));
#1672=CARTESIAN_POINT('',(-1.27549105189703,-13.2889285714286,0.));
#1673=CARTESIAN_POINT('',(-1.26747073796626,-13.2881302561335,0.0015609516942001));
#1674=CARTESIAN_POINT('',(-1.25137088186575,-13.2865423741563,0.00466574885631282));
#1675=CARTESIAN_POINT('',(-1.22703670601427,-13.2841872303867,0.00927077857341888));
#1676=CARTESIAN_POINT('',(-1.20265954584437,-13.2818731941592,0.0137954304149257));
#1677=CARTESIAN_POINT('',(-1.17827517131473,-13.2796037871697,0.0182328183832297));
#1678=CARTESIAN_POINT('',(-1.15395750616668,-13.2773857924004,0.0225696796640857));
#1679=CARTESIAN_POINT('',(-1.12969215323467,-13.2752176638051,0.0268090372524948));
#1680=CARTESIAN_POINT('',(-1.10556748873794,-13.2731068054438,0.030936413936573));
#1681=CARTESIAN_POINT('',(-1.0815259110149,-13.2710475673525,0.0349628571320086));
#1682=CARTESIAN_POINT('',(-1.05755206253148,-13.2690382536907,0.0388916827275952));
#1683=CARTESIAN_POINT('',(-1.03357191254155,-13.2670726096845,0.0427351207286175));
#1684=CARTESIAN_POINT('',(-1.00960197963836,-13.2651520263422,0.0464904512861149));
#1685=CARTESIAN_POINT('',(-0.985618277577388,-13.263274645421,0.0501613078359245));
#1686=CARTESIAN_POINT('',(-0.96154485676713,-13.2614347904462,0.0537587896301844));
#1687=CARTESIAN_POINT('',(-0.937305883188734,-13.2596274612561,0.057292673521341));
#1688=CARTESIAN_POINT('',(-0.912838665591994,-13.2578492029183,0.0607697149639288));
#1689=CARTESIAN_POINT('',(-0.888210739350034,-13.2561061316943,0.0641779547873456));
#1690=CARTESIAN_POINT('',(-0.863467829938195,-13.25440231723,0.0675094355833558));
#1691=CARTESIAN_POINT('',(-0.838672252181263,-13.2527425472106,0.0707547959565529));
#1692=CARTESIAN_POINT('',(-0.813815450337361,-13.2511266335341,0.0739144037037839));
#1693=CARTESIAN_POINT('',(-0.788935617383585,-13.2495573627891,0.0769828101883394));
#1694=CARTESIAN_POINT('',(-0.764038727025149,-13.2480352835918,0.0799589426971143));
#1695=CARTESIAN_POINT('',(-0.739154305201853,-13.2465622417225,0.0828391921621221));
#1696=CARTESIAN_POINT('',(-0.714283847980966,-13.2451383084162,0.0856234192972952));
#1697=CARTESIAN_POINT('',(-0.689444635135181,-13.2437643853807,0.0883098609866161));
#1698=CARTESIAN_POINT('',(-0.664583730547406,-13.2424374962939,0.090904336854623));
#1699=CARTESIAN_POINT('',(-0.639635404938296,-13.2411544812209,0.0934130255448038));
#1700=CARTESIAN_POINT('',(-0.614458941545029,-13.2399090635137,0.0958481998325784));
#1701=CARTESIAN_POINT('',(-0.589035484805011,-13.2387018215328,0.0982087288454783));
#1702=CARTESIAN_POINT('',(-0.563209923716908,-13.2375273012756,0.100505276834268));
#1703=CARTESIAN_POINT('',(-0.536963585479436,-13.2363872013458,0.102734522506953));
#1704=CARTESIAN_POINT('',(-0.510137633690255,-13.2352778234074,0.104903697246712));
#1705=CARTESIAN_POINT('',(-0.482854083641431,-13.2342076070668,0.106996299029937));
#1706=CARTESIAN_POINT('',(-0.455036907843556,-13.2331767502222,0.109011940904649));
#1707=CARTESIAN_POINT('',(-0.426796923958788,-13.232192503923,0.110936444841539));
#1708=CARTESIAN_POINT('',(-0.398067876021108,-13.2312557493699,0.1127680878224));
#1709=CARTESIAN_POINT('',(-0.369038753400379,-13.2303753811578,0.114489478181062));
#1710=CARTESIAN_POINT('',(-0.339713878639751,-13.2295535752932,0.116096361156565));
#1711=CARTESIAN_POINT('',(-0.31017921880239,-13.2287944368158,0.117580710134419));
#1712=CARTESIAN_POINT('',(-0.280380062962038,-13.2280983225689,0.118941827376926));
#1713=CARTESIAN_POINT('',(-0.250396265887569,-13.2274687339611,0.120172866554072));
#1714=CARTESIAN_POINT('',(-0.220215432636486,-13.2269067597618,0.121271698787038));
#1715=CARTESIAN_POINT('',(-0.189842080726119,-13.2264138325293,0.122235522984658));
#1716=CARTESIAN_POINT('',(-0.159170514231729,-13.2259900286335,0.12306418981972));
#1717=CARTESIAN_POINT('',(-0.128175089894969,-13.225637315927,0.123753851536176));
#1718=CARTESIAN_POINT('',(-0.0967695563625159,-13.2253574189288,0.124301136169294));
#1719=CARTESIAN_POINT('',(-0.0649483156496504,-13.225153379856,0.124700095250025));
#1720=CARTESIAN_POINT('',(-0.0326634670222647,-13.225028281332,0.124944701302369));
#1721=CARTESIAN_POINT('',(-0.0109405365011592,-13.2250000096487,0.124999981130016));
#1722=CARTESIAN_POINT('',(1.93178806284777E-14,-13.2249999999984,0.124999999999123));
#1723=CARTESIAN_POINT('',(-13.2889285714286,1.27549105189703,0.));
#1724=CARTESIAN_POINT('',(-13.2871132458668,1.25725314501448,0.00354951925494501));
#1725=CARTESIAN_POINT('',(-13.2834936175634,1.22011409588898,0.0106270047643373));
#1726=CARTESIAN_POINT('',(-13.2782059200319,1.1633903908659,0.0209660781498586));
#1727=CARTESIAN_POINT('',(-13.2729739866883,1.10447869981133,0.0311961154138532));
#1728=CARTESIAN_POINT('',(-13.2678395146441,1.04350692245785,0.0412355858913777));
#1729=CARTESIAN_POINT('',(-13.2628294581571,0.980434055501484,0.0510317857264021));
#1730=CARTESIAN_POINT('',(-13.2580159461836,0.915820856752761,0.0604436806466179));
#1731=CARTESIAN_POINT('',(-13.2534580294865,0.850172408832965,0.0693558082666198));
#1732=CARTESIAN_POINT('',(-13.2492252577687,0.784349373645356,0.0776321775471892));
#1733=CARTESIAN_POINT('',(-13.2453268545993,0.718479534806537,0.0852547535767464));
#1734=CARTESIAN_POINT('',(-13.2417512638884,0.652321533509124,0.0922461320617866));
#1735=CARTESIAN_POINT('',(-13.2384665824158,0.585071558894107,0.0986686936003386));
#1736=CARTESIAN_POINT('',(-13.2354847745257,0.516558717661728,0.104499044223582));
#1737=CARTESIAN_POINT('',(-13.2328011222382,0.446071938472968,0.109746409031496));
#1738=CARTESIAN_POINT('',(-13.2304485195832,0.373587015014476,0.114346470088657));
#1739=CARTESIAN_POINT('',(-13.228451132735,0.298601146840909,0.118251975099138));
#1740=CARTESIAN_POINT('',(-13.2268676867193,0.221845279157471,0.121348098593531));
#1741=CARTESIAN_POINT('',(-13.2257270713259,0.143094222224677,0.123578352155955));
#1742=CARTESIAN_POINT('',(-13.225120068833,0.0690621097034947,0.124765228538727));
#1743=CARTESIAN_POINT('',(-13.2249838179491,0.0145989720371844,0.12503164088163));
#1744=CARTESIAN_POINT('',(-13.2250270088119,-0.0416346273235204,0.124947189473974));
#1745=CARTESIAN_POINT('',(-13.225345199347,-0.106003357135091,0.124325029209692));
#1746=CARTESIAN_POINT('',(-13.2263874445438,-0.194208684559873,0.122287119607142));
#1747=CARTESIAN_POINT('',(-13.2280933586252,-0.284592714898249,0.118951533414473));
#1748=CARTESIAN_POINT('',(-13.2305172916624,-0.377381999019846,0.114211999542791));
#1749=CARTESIAN_POINT('',(-13.2336741266314,-0.471575435553529,0.108039417201126));
#1750=CARTESIAN_POINT('',(-13.237601923615,-0.567404975505172,0.100359367233247));
#1751=CARTESIAN_POINT('',(-13.2423346090443,-0.664888570779879,0.0911055130419187));
#1752=CARTESIAN_POINT('',(-13.2479755595346,-0.765140266503859,0.0800757215804355));
#1753=CARTESIAN_POINT('',(-13.2545673806075,-0.867837258438294,0.067186685962929));
#1754=CARTESIAN_POINT('',(-13.2620907226392,-0.971938043725087,0.0524762406495077));
#1755=CARTESIAN_POINT('',(-13.2703981559781,-1.07534984472395,0.0362326559087447));
#1756=CARTESIAN_POINT('',(-13.2793208950197,-1.17649435917343,0.0187859594586557));
#1757=CARTESIAN_POINT('',(-13.2856801522979,-1.2428561599452,0.00635165751790362));
#1758=CARTESIAN_POINT('',(-13.2889285714285,-1.27549105189699,3.92463839204993E-14));
#1759=CARTESIAN_POINT('',(1.27549105189704,13.2889285714286,0.));
#1760=CARTESIAN_POINT('',(1.25725314501448,13.2871132458668,0.0035495192549432));
#1761=CARTESIAN_POINT('',(1.22011409588897,13.2834936175634,0.0106270047643333));
#1762=CARTESIAN_POINT('',(1.16339039086589,13.2782059200319,0.0209660781498589));
#1763=CARTESIAN_POINT('',(1.1044786998113,13.2729739866883,0.0311961154138448));
#1764=CARTESIAN_POINT('',(1.04350692245782,13.2678395146441,0.0412355858913658));
#1765=CARTESIAN_POINT('',(0.980434055501439,13.2628294581571,0.0510317857263898));
#1766=CARTESIAN_POINT('',(0.915820856752713,13.2580159461836,0.0604436806465937));
#1767=CARTESIAN_POINT('',(0.850172408832913,13.2534580294865,0.0693558082665916));
#1768=CARTESIAN_POINT('',(0.7843493736453,13.2492252577687,0.077632177547153));
#1769=CARTESIAN_POINT('',(0.718479534806472,13.2453268545993,0.0852547535767008));
#1770=CARTESIAN_POINT('',(0.652321533509055,13.2417512638884,0.0922461320617366));
#1771=CARTESIAN_POINT('',(0.585071558894031,13.2384665824158,0.0986686936002751));
#1772=CARTESIAN_POINT('',(0.516558717661653,13.2354847745256,0.10449904422351));
#1773=CARTESIAN_POINT('',(0.446071938472893,13.2328011222381,0.109746409031413));
#1774=CARTESIAN_POINT('',(0.3735870150144,13.2304485195832,0.114346470088562));
#1775=CARTESIAN_POINT('',(0.298601146840834,13.2284511327349,0.118251975099028));
#1776=CARTESIAN_POINT('',(0.221845279157395,13.2268676867192,0.121348098593409));
#1777=CARTESIAN_POINT('',(0.143094222224602,13.2257270713258,0.12357835215582));
#1778=CARTESIAN_POINT('',(0.0690621097034294,13.2251200688329,0.124765228538578));
#1779=CARTESIAN_POINT('',(0.0145989720371205,13.224983817949,0.125031640881469));
#1780=CARTESIAN_POINT('',(-0.0416346273235833,13.2250270088117,0.124947189473798));
#1781=CARTESIAN_POINT('',(-0.106003357135171,13.2253451993469,0.124325029209506));
#1782=CARTESIAN_POINT('',(-0.194208684559953,13.2263874445436,0.122287119606933));
#1783=CARTESIAN_POINT('',(-0.284592714898334,13.2280933586249,0.118951533414244));
#1784=CARTESIAN_POINT('',(-0.377381999019936,13.2305172916621,0.114211999542538));
#1785=CARTESIAN_POINT('',(-0.471575435553623,13.2336741266311,0.108039417200853));
#1786=CARTESIAN_POINT('',(-0.567404975505267,13.2376019236147,0.100359367232944));
#1787=CARTESIAN_POINT('',(-0.664888570779975,13.2423346090439,0.0911055130415908));
#1788=CARTESIAN_POINT('',(-0.765140266503957,13.2479755595342,0.0800757215800802));
#1789=CARTESIAN_POINT('',(-0.867837258438394,13.2545673806071,0.0671866859625455));
#1790=CARTESIAN_POINT('',(-0.971938043725183,13.2620907226387,0.052476240649091));
#1791=CARTESIAN_POINT('',(-1.07534984472404,13.2703981559775,0.0362326559082982));
#1792=CARTESIAN_POINT('',(-1.17649435917351,13.2793208950191,0.0187859594581749));
#1793=CARTESIAN_POINT('',(-1.24285615994528,13.2856801522973,0.00635165751740291));
#1794=CARTESIAN_POINT('',(-1.27549105189707,13.2889285714279,-4.69901895172598E-13));
#1795=CARTESIAN_POINT('',(-23.5,-26.9,-8.32667268468867E-16));
#1796=VECTOR('',#1797,1.);
#1797=DIRECTION('',(0.,-0.707106781186545,0.70710678118655));
#1798=CARTESIAN_POINT('',(23.5,-27.5,0.599999999999999));
#1799=VECTOR('',#1800,1.);
#1800=DIRECTION('',(0.,0.707106781186546,-0.707106781186549));
#1801=CARTESIAN_POINT('',(26.9,-23.5,-7.21644966006352E-16));
#1802=VECTOR('',#1803,1.);
#1803=DIRECTION('',(0.707106781186546,0.,0.707106781186548));
#1804=CARTESIAN_POINT('',(27.5,23.5,0.599999999999999));
#1805=VECTOR('',#1806,1.);
#1806=DIRECTION('',(-0.707106781186546,0.,-0.707106781186549));
#1807=CARTESIAN_POINT('',(23.5,26.9,-7.21644966006352E-16));
#1808=VECTOR('',#1809,1.);
#1809=DIRECTION('',(0.,0.707106781186546,0.707106781186548));
#1810=CARTESIAN_POINT('',(-23.5,27.5,0.599999999999999));
#1811=VECTOR('',#1812,1.);
#1812=DIRECTION('',(0.,-0.707106781186546,-0.707106781186549));
#1813=CARTESIAN_POINT('',(-26.9,23.5,-8.32667268468867E-16));
#1814=VECTOR('',#1815,1.);
#1815=DIRECTION('',(-0.707106781186546,0.,0.707106781186549));
#1816=CARTESIAN_POINT('',(-27.5,-23.5,0.600000000000001));
#1817=VECTOR('',#1818,1.);
#1818=DIRECTION('',(0.707106781186545,0.,-0.70710678118655));
#1819=CARTESIAN_POINT('',(-23.5,27.5,4.4));
#1820=VECTOR('',#1821,1.);
#1821=DIRECTION('',(0.,-0.707106781186549,0.707106781186546));
#1822=CARTESIAN_POINT('',(23.5,26.9,5.));
#1823=VECTOR('',#1824,1.);
#1824=DIRECTION('',(0.,0.707106781186549,-0.707106781186546));
#1825=CARTESIAN_POINT('',(-26.9,23.5,5.));
#1826=VECTOR('',#1827,1.);
#1827=DIRECTION('',(-0.707106781186549,0.,-0.707106781186546));
#1828=CARTESIAN_POINT('',(-27.5,-23.5,4.4));
#1829=VECTOR('',#1830,1.);
#1830=DIRECTION('',(0.707106781186545,-4.18691322315674E-15,0.70710678118655));
#1831=CARTESIAN_POINT('',(-23.5,-26.9,5.));
#1832=VECTOR('',#1833,1.);
#1833=DIRECTION('',(0.,-0.707106781186546,-0.707106781186549));
#1834=CARTESIAN_POINT('',(23.5,-27.5,4.4));
#1835=VECTOR('',#1836,1.);
#1836=DIRECTION('',(0.,0.707106781186546,0.707106781186548));
#1837=CARTESIAN_POINT('',(26.9,-23.5,5.));
#1838=VECTOR('',#1839,1.);
#1839=DIRECTION('',(0.707106781186547,0.,-0.707106781186548));
#1840=CARTESIAN_POINT('',(27.5,23.5,4.4));
#1841=VECTOR('',#1842,1.);
#1842=DIRECTION('',(-0.707106781186549,0.,0.707106781186546));
ENDSEC;
END-ISO-10303-21;
