ISO-10303-21;
HEADER;
FILE_DESCRIPTION(('STEP AP242'),
    '1');
FILE_NAME('MotorWall',
    '',
    ('UNSPECIFIED'),
    ('UNSPECIFIED'),
    'C3D Converter',
    'C3D Toolkit',
    '');
FILE_SCHEMA(('AP242_MANAGED_MODEL_BASED_3D_ENGINEERING_MIM_LF { 1 0 10303 442 1 1 4 }'));
ENDSEC;

DATA;
#1=PRODUCT_DEFINITION('','UNSPECIFIED',#28,#31);
#2=SHAPE_DEFINITION_REPRESENTATION(#26,#3);
#3=SHAPE_REPRESENTATION('NONE',(#4),#8);
#4=AXIS2_PLACEMENT_3D('',#5,#6,#7);
#5=CARTESIAN_POINT('',(0.,0.,0.));
#6=DIRECTION('',(0.,0.,1.));
#7=DIRECTION('',(1.,0.,0.));
#8=(GEOMETRIC_REPRESENTATION_CONTEXT(3)GLOBAL_UNCERTAINTY_ASSIGNED_CONTEXT((#10))
GLOBAL_UNIT_ASSIGNED_CONTEXT((#9,#11,#12))REPRESENTATION_CONTEXT('NONE','NONE'));
#9=(LENGTH_UNIT()NAMED_UNIT(*)SI_UNIT(.MILLI.,.METRE.));
#10=UNCERTAINTY_MEASURE_WITH_UNIT(LENGTH_MEASURE(1.E-5),#9,'NONE','NONE');
#11=(NAMED_UNIT(*)PLANE_ANGLE_UNIT()SI_UNIT($,.RADIAN.));
#12=(NAMED_UNIT(*)SI_UNIT($,.STERADIAN.)SOLID_ANGLE_UNIT());
#13=MANIFOLD_SOLID_BREP('',#14);
#14=CLOSED_SHELL('',(#53,#54,#55,#56,#57,#58,#59,#60,#61,#62,#63));
#15=COLOUR_RGB('',0.564705882352941,0.564705882352941,0.564705882352941);
#16=FILL_AREA_STYLE_COLOUR('',#15);
#17=FILL_AREA_STYLE($,(#16));
#18=SURFACE_STYLE_FILL_AREA(#17);
#19=SURFACE_SIDE_STYLE('',(#18));
#20=SURFACE_STYLE_USAGE(.BOTH.,#19);
#21=PRESENTATION_STYLE_ASSIGNMENT((#20));
#22=MECHANICAL_DESIGN_GEOMETRIC_PRESENTATION_REPRESENTATION('NONE',(#23),#8);
#23=STYLED_ITEM('',(#21),#13);
#24=ADVANCED_BREP_SHAPE_REPRESENTATION('NONE',(#13),#8);
#25=SHAPE_REPRESENTATION_RELATIONSHIP('','',#3,#24);
#26=PRODUCT_DEFINITION_SHAPE('NONE','NONE',#1);
#27=MECHANICAL_CONTEXT('NONE',#32,'mechanical');
#28=PRODUCT_DEFINITION_FORMATION_WITH_SPECIFIED_SOURCE('ANY','UNSPECIFIED',#29,.NOT_KNOWN.);
#29=PRODUCT('','\X2\0414043504420430043B044C\X0\','NONE',(#27));
#30=PRODUCT_RELATED_PRODUCT_CATEGORY('detail','',(#29));
#31=DESIGN_CONTEXT('detailed design',#32,'design');
#32=APPLICATION_CONTEXT('configuration controlled 3d designs of mechanical parts and assemblies');
#33=APPLICATION_PROTOCOL_DEFINITION('international standard','config_control_design',
1994,#32);
#34=CC_DESIGN_DATE_AND_TIME_ASSIGNMENT(#35,#39,(#1));
#35=DATE_AND_TIME(#36,#37);
#36=CALENDAR_DATE(0,1,1);
#37=LOCAL_TIME(0,0,0.,#38);
#38=COORDINATED_UNIVERSAL_TIME_OFFSET(0,0,.AHEAD.);
#39=DATE_TIME_ROLE('creation_date');
#40=CC_DESIGN_APPROVAL(#41,(#1));
#41=APPROVAL(#42,'UNSPECIFIED');
#42=APPROVAL_STATUS('not_yet_approved');
#43=APPROVAL_DATE_TIME(#44,#41);
#44=DATE_AND_TIME(#45,#46);
#45=CALENDAR_DATE(0,1,1);
#46=LOCAL_TIME(0,0,0.,#47);
#47=COORDINATED_UNIVERSAL_TIME_OFFSET(0,0,.AHEAD.);
#48=PERSON('UNSPECIFIED','ledibonibell','UNSPECIFIED',('UNSPECIFIED'),('UNSPECIFIED'),
('UNSPECIFIED'));
#49=ORGANIZATION('UNSPECIFIED','UNSPECIFIED','UNSPECIFIED');
#50=PERSON_AND_ORGANIZATION(#48,#49);
#51=PERSON_AND_ORGANIZATION_ROLE('creator');
#52=CC_DESIGN_PERSON_AND_ORGANIZATION_ASSIGNMENT(#50,#51,(#28,#1));
#53=ADVANCED_FACE('',(#64,#66),#68,.T.);
#54=ADVANCED_FACE('',(#73,#75),#77,.F.);
#55=ADVANCED_FACE('',(#82),#84,.T.);
#56=ADVANCED_FACE('',(#89,#91),#93,.T.);
#57=ADVANCED_FACE('',(#98,#100),#102,.F.);
#58=ADVANCED_FACE('',(#107),#109,.F.);
#59=ADVANCED_FACE('',(#114,#116),#118,.T.);
#60=ADVANCED_FACE('',(#123,#125),#127,.T.);
#61=ADVANCED_FACE('',(#132,#134),#136,.F.);
#62=ADVANCED_FACE('',(#141),#143,.F.);
#63=ADVANCED_FACE('',(#148),#150,.T.);
#64=FACE_BOUND('',#65,.T.);
#65=EDGE_LOOP('',(#155));
#66=FACE_BOUND('',#67,.T.);
#67=EDGE_LOOP('',(#156,#157));
#68=PLANE('',#69);
#69=AXIS2_PLACEMENT_3D('',#70,#71,#72);
#70=CARTESIAN_POINT('',(0.,20.,1.22464679914735E-15));
#71=DIRECTION('',(0.,1.,6.12323399573677E-17));
#72=DIRECTION('',(6.12323399573677E-17,6.12323399573677E-17,-1.));
#73=FACE_BOUND('',#74,.T.);
#74=EDGE_LOOP('',(#158,#159,#160,#161,#162));
#75=FACE_OUTER_BOUND('',#76,.T.);
#76=EDGE_LOOP('',(#163));
#77=CYLINDRICAL_SURFACE('',#78,2.55);
#78=AXIS2_PLACEMENT_3D('',#79,#80,#81);
#79=CARTESIAN_POINT('',(0.,0.,0.));
#80=DIRECTION('',(0.,1.,6.12323399573677E-17));
#81=DIRECTION('',(6.12323399573677E-17,6.12323399573677E-17,-1.));
#82=FACE_BOUND('',#83,.T.);
#83=EDGE_LOOP('',(#164,#165,#166,#167));
#84=PLANE('',#85);
#85=AXIS2_PLACEMENT_3D('',#86,#87,#88);
#86=CARTESIAN_POINT('',(-2.05,5.,2.03335372817798));
#87=DIRECTION('',(1.,0.,0.));
#88=DIRECTION('',(0.,0.,-1.));
#89=FACE_OUTER_BOUND('',#90,.T.);
#90=EDGE_LOOP('',(#168));
#91=FACE_OUTER_BOUND('',#92,.T.);
#92=EDGE_LOOP('',(#169));
#93=CYLINDRICAL_SURFACE('',#94,4.);
#94=AXIS2_PLACEMENT_3D('',#95,#96,#97);
#95=CARTESIAN_POINT('',(0.,0.,0.));
#96=DIRECTION('',(0.,1.,6.12323399573677E-17));
#97=DIRECTION('',(6.12323399573677E-17,6.12323399573677E-17,-1.));
#98=FACE_BOUND('',#99,.T.);
#99=EDGE_LOOP('',(#170));
#100=FACE_BOUND('',#101,.T.);
#101=EDGE_LOOP('',(#171));
#102=PLANE('',#103);
#103=AXIS2_PLACEMENT_3D('',#104,#105,#106);
#104=CARTESIAN_POINT('',(0.,0.,0.));
#105=DIRECTION('',(0.,1.,6.12323399573677E-17));
#106=DIRECTION('',(6.12323399573677E-17,6.12323399573677E-17,-1.));
#107=FACE_BOUND('',#108,.T.);
#108=EDGE_LOOP('',(#172,#173));
#109=PLANE('',#110);
#110=AXIS2_PLACEMENT_3D('',#111,#112,#113);
#111=CARTESIAN_POINT('',(-2.05,5.5,3.51657508881031));
#112=DIRECTION('',(-0.707106781186547,0.707106781186547,0.));
#113=DIRECTION('',(0.,0.,-1.));
#114=FACE_OUTER_BOUND('',#115,.T.);
#115=EDGE_LOOP('',(#174));
#116=FACE_OUTER_BOUND('',#117,.T.);
#117=EDGE_LOOP('',(#175));
#118=CONICAL_SURFACE('',#119,3.8,0.78539816339745);
#119=AXIS2_PLACEMENT_3D('',#120,#121,#122);
#120=CARTESIAN_POINT('',(0.,19.8,1.21240033115588E-15));
#121=DIRECTION('',(0.,-1.,-6.12323399573677E-17));
#122=DIRECTION('',(-6.12323399573677E-17,-6.12323399573677E-17,1.));
#123=FACE_OUTER_BOUND('',#124,.T.);
#124=EDGE_LOOP('',(#176));
#125=FACE_OUTER_BOUND('',#126,.T.);
#126=EDGE_LOOP('',(#177));
#127=CONICAL_SURFACE('',#128,3.8,0.785398163397448);
#128=AXIS2_PLACEMENT_3D('',#129,#130,#131);
#129=CARTESIAN_POINT('',(0.,0.2,1.22464679914735E-17));
#130=DIRECTION('',(0.,1.,6.12323399573677E-17));
#131=DIRECTION('',(6.12323399573677E-17,6.12323399573677E-17,-1.));
#132=FACE_OUTER_BOUND('',#133,.T.);
#133=EDGE_LOOP('',(#178));
#134=FACE_OUTER_BOUND('',#135,.T.);
#135=EDGE_LOOP('',(#179));
#136=CONICAL_SURFACE('',#137,2.75,0.785398163397448);
#137=AXIS2_PLACEMENT_3D('',#138,#139,#140);
#138=CARTESIAN_POINT('',(0.,0.2,1.22464679914735E-17));
#139=DIRECTION('',(0.,-1.,-6.12323399573677E-17));
#140=DIRECTION('',(-6.12323399573677E-17,-6.12323399573677E-17,1.));
#141=FACE_BOUND('',#142,.T.);
#142=EDGE_LOOP('',(#180,#181,#182,#183,#184));
#143=CONICAL_SURFACE('',#144,2.75,0.78539816339745);
#144=AXIS2_PLACEMENT_3D('',#145,#146,#147);
#145=CARTESIAN_POINT('',(0.,19.8,1.21240033115588E-15));
#146=DIRECTION('',(0.,1.,6.12323399573677E-17));
#147=DIRECTION('',(0.267874705685161,5.89945279874413E-17,-0.963453757091687));
#148=FACE_BOUND('',#149,.T.);
#149=EDGE_LOOP('',(#185,#186,#187,#188));
#150=PLANE('',#151);
#151=AXIS2_PLACEMENT_3D('',#152,#153,#154);
#152=CARTESIAN_POINT('',(-2.05,19.6,3.11657508881031));
#153=DIRECTION('',(0.707106781186546,0.707106781186549,0.));
#154=DIRECTION('',(0.,0.,-1.));
#155=ORIENTED_EDGE('',*,*,#189,.T.);
#156=ORIENTED_EDGE('',*,*,#190,.T.);
#157=ORIENTED_EDGE('',*,*,#191,.T.);
#158=ORIENTED_EDGE('',*,*,#192,.F.);
#159=ORIENTED_EDGE('',*,*,#193,.F.);
#160=ORIENTED_EDGE('',*,*,#194,.F.);
#161=ORIENTED_EDGE('',*,*,#195,.F.);
#162=ORIENTED_EDGE('',*,*,#196,.F.);
#163=ORIENTED_EDGE('',*,*,#197,.F.);
#164=ORIENTED_EDGE('',*,*,#198,.F.);
#165=ORIENTED_EDGE('',*,*,#195,.T.);
#166=ORIENTED_EDGE('',*,*,#199,.T.);
#167=ORIENTED_EDGE('',*,*,#193,.T.);
#168=ORIENTED_EDGE('',*,*,#200,.F.);
#169=ORIENTED_EDGE('',*,*,#201,.T.);
#170=ORIENTED_EDGE('',*,*,#202,.F.);
#171=ORIENTED_EDGE('',*,*,#203,.T.);
#172=ORIENTED_EDGE('',*,*,#199,.F.);
#173=ORIENTED_EDGE('',*,*,#194,.T.);
#174=ORIENTED_EDGE('',*,*,#189,.F.);
#175=ORIENTED_EDGE('',*,*,#200,.T.);
#176=ORIENTED_EDGE('',*,*,#201,.F.);
#177=ORIENTED_EDGE('',*,*,#202,.T.);
#178=ORIENTED_EDGE('',*,*,#197,.T.);
#179=ORIENTED_EDGE('',*,*,#203,.F.);
#180=ORIENTED_EDGE('',*,*,#204,.F.);
#181=ORIENTED_EDGE('',*,*,#192,.T.);
#182=ORIENTED_EDGE('',*,*,#196,.T.);
#183=ORIENTED_EDGE('',*,*,#205,.T.);
#184=ORIENTED_EDGE('',*,*,#190,.F.);
#185=ORIENTED_EDGE('',*,*,#198,.T.);
#186=ORIENTED_EDGE('',*,*,#204,.T.);
#187=ORIENTED_EDGE('',*,*,#191,.F.);
#188=ORIENTED_EDGE('',*,*,#205,.F.);
#189=EDGE_CURVE('',#206,#206,#207,.T.);
#190=EDGE_CURVE('',#208,#209,#210,.F.);
#191=EDGE_CURVE('',#209,#208,#211,.T.);
#192=EDGE_CURVE('',#212,#213,#214,.F.);
#193=EDGE_CURVE('',#215,#212,#216,.T.);
#194=EDGE_CURVE('',#217,#215,#218,.F.);
#195=EDGE_CURVE('',#219,#217,#220,.F.);
#196=EDGE_CURVE('',#213,#219,#221,.F.);
#197=EDGE_CURVE('',#222,#222,#223,.T.);
#198=EDGE_CURVE('',#219,#212,#224,.T.);
#199=EDGE_CURVE('',#217,#215,#225,.T.);
#200=EDGE_CURVE('',#226,#226,#227,.T.);
#201=EDGE_CURVE('',#228,#228,#229,.T.);
#202=EDGE_CURVE('',#230,#230,#231,.T.);
#203=EDGE_CURVE('',#232,#232,#233,.T.);
#204=EDGE_CURVE('',#212,#208,#234,.T.);
#205=EDGE_CURVE('',#219,#209,#235,.F.);
#206=VERTEX_POINT('',#236);
#207=CIRCLE('',#237,3.6);
#208=VERTEX_POINT('',#241);
#209=VERTEX_POINT('',#242);
#210=CIRCLE('',#243,2.95);
#211=LINE('',#247,#248);
#212=VERTEX_POINT('',#250);
#213=VERTEX_POINT('',#251);
#214=CIRCLE('',#252,2.55);
#215=VERTEX_POINT('',#256);
#216=LINE('',#257,#258);
#217=VERTEX_POINT('',#260);
#218=(BOUNDED_CURVE()B_SPLINE_CURVE(3,
(#261,#262,#263,#264),
.UNSPECIFIED.,.F.,.F.)B_SPLINE_CURVE_WITH_KNOTS((4,4),
(0.,1.),
.UNSPECIFIED.)CURVE()GEOMETRIC_REPRESENTATION_ITEM()RATIONAL_B_SPLINE_CURVE((1.,
0.869281045751634,0.869281045751634,1.))REPRESENTATION_ITEM(''));
#219=VERTEX_POINT('',#265);
#220=LINE('',#266,#267);
#221=CIRCLE('',#269,2.55);
#222=VERTEX_POINT('',#273);
#223=CIRCLE('',#274,2.55);
#224=LINE('',#278,#279);
#225=LINE('',#281,#282);
#226=VERTEX_POINT('',#284);
#227=CIRCLE('',#285,4.);
#228=VERTEX_POINT('',#289);
#229=CIRCLE('',#290,4.);
#230=VERTEX_POINT('',#294);
#231=CIRCLE('',#295,3.6);
#232=VERTEX_POINT('',#299);
#233=CIRCLE('',#300,2.95);
#234=B_SPLINE_CURVE_WITH_KNOTS('',3,
(#304,#305,#306,#307,#308,#309,#310),
.UNSPECIFIED.,.F.,.F.,
(4,1,1,1,4),
(0.,0.249942689259999,0.499903124755531,0.749938529174602,1.),
.UNSPECIFIED.);
#235=B_SPLINE_CURVE_WITH_KNOTS('',3,
(#311,#312,#313,#314,#315,#316,#317),
.UNSPECIFIED.,.F.,.F.,
(4,1,1,1,4),
(0.,0.250061470825398,0.500096875244469,0.750057310740004,1.),
.UNSPECIFIED.);
#236=CARTESIAN_POINT('',(6.61309271539571E-16,20.,-3.6));
#237=AXIS2_PLACEMENT_3D('',#238,#239,#240);
#238=CARTESIAN_POINT('',(-1.09476442525376E-47,20.,1.22464679914735E-15));
#239=DIRECTION('',(0.,1.,6.12323399573677E-17));
#240=DIRECTION('',(6.12323399573677E-17,6.12323399573677E-17,-1.));
#241=CARTESIAN_POINT('',(-2.44999999999848,20.,-1.64316767252106));
#242=CARTESIAN_POINT('',(-2.44999999999848,20.,1.64316767252106));
#243=AXIS2_PLACEMENT_3D('',#244,#245,#246);
#244=CARTESIAN_POINT('',(-1.09476442525376E-47,20.,1.22464679914735E-15));
#245=DIRECTION('',(0.,1.,6.12323399573677E-17));
#246=DIRECTION('',(-0.830508474575239,-3.41067801798995E-17,0.557005990684759));
#247=CARTESIAN_POINT('',(-2.45,20.,1.64316767252208));
#248=VECTOR('',#249,1.);
#249=DIRECTION('',(1.35132043210306E-16,0.,-1.));
#250=CARTESIAN_POINT('',(-2.05,19.6,-1.51657508881031));
#251=CARTESIAN_POINT('',(5.27621941267163E-16,19.6,-2.55));
#252=AXIS2_PLACEMENT_3D('',#253,#254,#255);
#253=CARTESIAN_POINT('',(0.,19.6,1.20015386316441E-15));
#254=DIRECTION('',(0.,1.,6.12323399573677E-17));
#255=DIRECTION('',(8.89879155729966E-17,6.12323399573677E-17,-1.));
#256=CARTESIAN_POINT('',(-2.05,5.5,-1.51657508881031));
#257=CARTESIAN_POINT('',(-2.05,5.5,-1.51657508881031));
#258=VECTOR('',#259,1.);
#259=DIRECTION('',(0.,1.,3.14956886418484E-17));
#260=CARTESIAN_POINT('',(-2.05,5.5,1.51657508881031));
#261=CARTESIAN_POINT('',(-2.05,5.5,-1.51657508881031));
#262=CARTESIAN_POINT('',(-2.74172932330827,4.80827067669173,-0.581543831047563));
#263=CARTESIAN_POINT('',(-2.74172932330827,4.80827067669173,0.581543831047562));
#264=CARTESIAN_POINT('',(-2.05,5.5,1.51657508881031));
#265=CARTESIAN_POINT('',(-2.05,19.6,1.51657508881031));
#266=CARTESIAN_POINT('',(-2.05,5.5,1.51657508881031));
#267=VECTOR('',#268,1.);
#268=DIRECTION('',(0.,1.,6.29913772836968E-17));
#269=AXIS2_PLACEMENT_3D('',#270,#271,#272);
#270=CARTESIAN_POINT('',(0.,19.6,1.20015386316441E-15));
#271=DIRECTION('',(0.,1.,6.12323399573677E-17));
#272=DIRECTION('',(-0.803921568627451,-3.64170358466306E-17,0.59473532894522));
#273=CARTESIAN_POINT('',(4.68427400673863E-16,0.4,-2.55));
#274=AXIS2_PLACEMENT_3D('',#275,#276,#277);
#275=CARTESIAN_POINT('',(0.,0.4,2.44929359829471E-17));
#276=DIRECTION('',(0.,1.,6.12323399573677E-17));
#277=DIRECTION('',(6.12323399573677E-17,6.12323399573677E-17,-1.));
#278=CARTESIAN_POINT('',(-2.05,19.6,1.51657508881031));
#279=VECTOR('',#280,1.);
#280=DIRECTION('',(0.,0.,-1.));
#281=CARTESIAN_POINT('',(-2.05,5.5,1.51657508881031));
#282=VECTOR('',#283,1.);
#283=DIRECTION('',(0.,0.,-1.));
#284=CARTESIAN_POINT('',(7.34788079488412E-16,19.6,-4.));
#285=AXIS2_PLACEMENT_3D('',#286,#287,#288);
#286=CARTESIAN_POINT('',(0.,19.6,1.20015386316441E-15));
#287=DIRECTION('',(0.,1.,6.12323399573677E-17));
#288=DIRECTION('',(6.12323399573677E-17,6.12323399573677E-17,-1.));
#289=CARTESIAN_POINT('',(7.34788079488412E-16,0.4,-4.));
#290=AXIS2_PLACEMENT_3D('',#291,#292,#293);
#291=CARTESIAN_POINT('',(0.,0.4,2.44929359829471E-17));
#292=DIRECTION('',(0.,1.,6.12323399573677E-17));
#293=DIRECTION('',(6.12323399573677E-17,6.12323399573677E-17,-1.));
#294=CARTESIAN_POINT('',(6.61309271539571E-16,2.21508544565529E-16,-3.6));
#295=AXIS2_PLACEMENT_3D('',#296,#297,#298);
#296=CARTESIAN_POINT('',(0.,0.,0.));
#297=DIRECTION('',(0.,1.,6.12323399573677E-17));
#298=DIRECTION('',(6.12323399573677E-17,6.12323399573677E-17,-1.));
#299=CARTESIAN_POINT('',(5.41906208622704E-16,1.80635402874235E-16,-2.95));
#300=AXIS2_PLACEMENT_3D('',#301,#302,#303);
#301=CARTESIAN_POINT('',(0.,0.,0.));
#302=DIRECTION('',(0.,1.,6.12323399573677E-17));
#303=DIRECTION('',(6.12323399573677E-17,6.12323399573677E-17,-1.));
#304=CARTESIAN_POINT('',(-2.05,19.6,-1.51657508881031));
#305=CARTESIAN_POINT('',(-2.08325947359319,19.6332594736165,-1.52754010583664));
#306=CARTESIAN_POINT('',(-2.14981648112598,19.6998164811485,-1.54924602519659));
#307=CARTESIAN_POINT('',(-2.24976440167411,19.7997644015603,-1.5811696381533));
#308=CARTESIAN_POINT('',(-2.34982316447957,19.8998231641022,-1.61249642384283));
#309=CARTESIAN_POINT('',(-2.41659708230976,19.9665970816764,-1.6330032429572));
#310=CARTESIAN_POINT('',(-2.45000000038941,19.9999999996091,-1.64316767252108));
#311=CARTESIAN_POINT('',(-2.44999999999848,20.,1.64316767252106));
#312=CARTESIAN_POINT('',(-2.41659708198187,19.9665970820043,1.63300324295719));
#313=CARTESIAN_POINT('',(-2.34982316427977,19.899823164302,1.61249642384285));
#314=CARTESIAN_POINT('',(-2.24976440167294,19.7997644015615,1.58116963815335));
#315=CARTESIAN_POINT('',(-2.14981648133026,19.6998164809442,1.54924602519668));
#316=CARTESIAN_POINT('',(-2.08325947393927,19.6332594732704,1.52754010583676));
#317=CARTESIAN_POINT('',(-2.05000000041826,19.5999999995817,1.51657508881044));
ENDSEC;
END-ISO-10303-21;
